G04*
G04 #@! TF.GenerationSoftware,Altium Limited,Altium Designer,22.6.1 (34)*
G04*
G04 Layer_Color=8388736*
%FSLAX24Y24*%
%MOIN*%
G70*
G04*
G04 #@! TF.SameCoordinates,A9DB7D9B-8B7D-411E-AF64-3EF9B17B4AD1*
G04*
G04*
G04 #@! TF.FilePolarity,Negative*
G04*
G01*
G75*
%ADD21R,0.0434X0.0592*%
%ADD22R,0.0592X0.0434*%
%ADD23R,0.0438X0.2529*%
%ADD24R,0.0395X0.0375*%
%ADD25R,0.0375X0.0395*%
%ADD26O,0.0907X0.0218*%
%ADD27R,0.0690X0.0592*%
%ADD28R,0.1064X0.1497*%
%ADD29R,0.1182X0.0832*%
%ADD30R,0.0832X0.1182*%
%ADD31R,0.0769X0.1222*%
%ADD32R,0.0552X0.0710*%
%ADD33R,0.1222X0.0808*%
%ADD34R,0.1222X0.0769*%
%ADD35R,0.1379X0.1025*%
%ADD36R,0.1025X0.0474*%
%ADD37R,0.1025X0.1379*%
%ADD38R,0.0474X0.0356*%
%ADD39R,0.0198X0.0356*%
%ADD40C,0.0710*%
%ADD41R,0.0710X0.0710*%
%ADD42R,0.0710X0.0710*%
%ADD43C,0.0592*%
%ADD44R,0.0592X0.0592*%
%ADD45C,0.0669*%
%ADD46R,0.0669X0.0669*%
G04:AMPARAMS|DCode=47|XSize=102.5mil|YSize=71mil|CornerRadius=29.2mil|HoleSize=0mil|Usage=FLASHONLY|Rotation=270.000|XOffset=0mil|YOffset=0mil|HoleType=Round|Shape=RoundedRectangle|*
%AMROUNDEDRECTD47*
21,1,0.1025,0.0126,0,0,270.0*
21,1,0.0441,0.0710,0,0,270.0*
1,1,0.0584,-0.0063,-0.0220*
1,1,0.0584,-0.0063,0.0220*
1,1,0.0584,0.0063,0.0220*
1,1,0.0584,0.0063,-0.0220*
%
%ADD47ROUNDEDRECTD47*%
%ADD48C,0.1261*%
%ADD49R,0.0669X0.0669*%
%ADD50R,0.0433X0.0748*%
%ADD51C,0.0512*%
%ADD52O,0.0551X0.0630*%
%ADD53R,0.0634X0.0634*%
%ADD54C,0.0634*%
%ADD55C,0.1386*%
%ADD56O,0.1891X0.0867*%
%ADD57O,0.1655X0.0867*%
%ADD58O,0.0867X0.1655*%
%ADD59C,0.0197*%
%ADD60C,0.0472*%
%ADD61C,0.0394*%
%ADD62C,0.0630*%
%ADD63C,0.0315*%
%ADD64C,0.0787*%
%ADD65C,0.0500*%
G36*
X17223Y81386D02*
X17209Y81387D01*
X17196Y81389D01*
X17183Y81391D01*
X17170Y81394D01*
X17157Y81398D01*
X17144Y81403D01*
X17132Y81408D01*
X17120Y81414D01*
X17108Y81420D01*
X17097Y81427D01*
X17086Y81435D01*
X17075Y81443D01*
X17065Y81452D01*
X17055Y81461D01*
X17046Y81470D01*
X17037Y81481D01*
X17029Y81491D01*
X17022Y81502D01*
X17015Y81514D01*
X17008Y81526D01*
X17002Y81538D01*
X16997Y81550D01*
X16993Y81563D01*
X16989Y81576D01*
X16986Y81589D01*
X16983Y81602D01*
X16982Y81615D01*
X16981Y81628D01*
X16980Y81642D01*
Y82035D01*
X16981Y82049D01*
X16982Y82062D01*
X16983Y82076D01*
X16986Y82089D01*
X16989Y82102D01*
X16993Y82115D01*
X16997Y82127D01*
X17002Y82139D01*
X17008Y82152D01*
X17015Y82163D01*
X17022Y82175D01*
X17029Y82186D01*
X17037Y82196D01*
X17046Y82207D01*
X17055Y82217D01*
X17065Y82226D01*
X17075Y82234D01*
X17086Y82243D01*
X17097Y82250D01*
X17108Y82257D01*
X17120Y82263D01*
X17132Y82269D01*
X17144Y82274D01*
X17157Y82279D01*
X17170Y82283D01*
X17183Y82286D01*
X17196Y82288D01*
X17209Y82290D01*
X17223Y82291D01*
X17236Y82291D01*
X17250Y82291D01*
X17263Y82290D01*
X17276Y82288D01*
X17289Y82286D01*
X17302Y82283D01*
X17315Y82279D01*
X17328Y82274D01*
X17340Y82269D01*
X17352Y82263D01*
X17364Y82257D01*
X17376Y82250D01*
X17387Y82243D01*
X17397Y82234D01*
X17407Y82226D01*
X17417Y82217D01*
X17426Y82207D01*
X17435Y82196D01*
X17443Y82186D01*
X17451Y82175D01*
X17458Y82163D01*
X17464Y82152D01*
X17470Y82139D01*
X17475Y82127D01*
X17480Y82115D01*
X17483Y82102D01*
X17487Y82089D01*
X17489Y82076D01*
X17491Y82062D01*
X17492Y82049D01*
X17492Y82035D01*
Y81642D01*
X17492Y81628D01*
X17491Y81615D01*
X17489Y81602D01*
X17487Y81589D01*
X17483Y81576D01*
X17480Y81563D01*
X17475Y81550D01*
X17470Y81538D01*
X17464Y81526D01*
X17458Y81514D01*
X17451Y81502D01*
X17443Y81491D01*
X17435Y81481D01*
X17426Y81470D01*
X17417Y81461D01*
X17407Y81452D01*
X17397Y81443D01*
X17387Y81435D01*
X17376Y81427D01*
X17364Y81420D01*
X17352Y81414D01*
X17340Y81408D01*
X17328Y81403D01*
X17315Y81398D01*
X17302Y81394D01*
X17289Y81391D01*
X17276Y81389D01*
X17263Y81387D01*
X17250Y81386D01*
X17236Y81386D01*
X17223Y81386D01*
D02*
G37*
G36*
Y83418D02*
X17209Y83420D01*
X17195Y83422D01*
X17182Y83425D01*
X17169Y83429D01*
X17155Y83433D01*
X17142Y83438D01*
X17130Y83444D01*
X17117Y83450D01*
X17105Y83457D01*
X17094Y83465D01*
X17082Y83474D01*
X17072Y83482D01*
X17061Y83492D01*
X17052Y83502D01*
X17043Y83512D01*
X17034Y83523D01*
X17026Y83534D01*
X17018Y83546D01*
X17011Y83558D01*
X17005Y83571D01*
X17000Y83583D01*
X16994Y83596D01*
X16991Y83610D01*
X16987Y83623D01*
X16984Y83637D01*
X16982Y83651D01*
X16981Y83665D01*
X16980Y83678D01*
Y83693D01*
Y84205D01*
Y84219D01*
X16981Y84233D01*
X16982Y84247D01*
X16984Y84261D01*
X16987Y84274D01*
X16991Y84288D01*
X16994Y84301D01*
X17000Y84314D01*
X17005Y84327D01*
X17011Y84339D01*
X17018Y84352D01*
X17026Y84363D01*
X17034Y84375D01*
X17043Y84385D01*
X17052Y84396D01*
X17061Y84406D01*
X17072Y84415D01*
X17082Y84424D01*
X17094Y84432D01*
X17105Y84440D01*
X17117Y84447D01*
X17130Y84454D01*
X17142Y84459D01*
X17155Y84465D01*
X17169Y84469D01*
X17182Y84472D01*
X17195Y84476D01*
X17209Y84478D01*
X17223Y84480D01*
X17236Y84480D01*
X17250Y84480D01*
X17263Y84478D01*
X17277Y84476D01*
X17291Y84472D01*
X17304Y84469D01*
X17317Y84465D01*
X17330Y84459D01*
X17343Y84454D01*
X17355Y84447D01*
X17367Y84440D01*
X17379Y84432D01*
X17390Y84424D01*
X17401Y84415D01*
X17411Y84406D01*
X17421Y84396D01*
X17430Y84385D01*
X17439Y84375D01*
X17447Y84363D01*
X17454Y84352D01*
X17461Y84339D01*
X17467Y84327D01*
X17473Y84314D01*
X17478Y84301D01*
X17482Y84288D01*
X17485Y84274D01*
X17488Y84261D01*
X17490Y84247D01*
X17492Y84233D01*
X17492Y84219D01*
Y84205D01*
Y83693D01*
Y83678D01*
X17492Y83665D01*
X17490Y83651D01*
X17488Y83637D01*
X17485Y83623D01*
X17482Y83610D01*
X17478Y83596D01*
X17473Y83583D01*
X17467Y83571D01*
X17461Y83558D01*
X17454Y83546D01*
X17447Y83534D01*
X17439Y83523D01*
X17430Y83512D01*
X17421Y83502D01*
X17411Y83492D01*
X17401Y83482D01*
X17390Y83474D01*
X17379Y83465D01*
X17367Y83457D01*
X17355Y83450D01*
X17343Y83444D01*
X17330Y83438D01*
X17317Y83433D01*
X17304Y83429D01*
X17291Y83425D01*
X17277Y83422D01*
X17263Y83420D01*
X17250Y83418D01*
X17236Y83417D01*
X17223Y83418D01*
D02*
G37*
G36*
X20624Y81386D02*
X20611Y81387D01*
X20598Y81389D01*
X20585Y81391D01*
X20572Y81394D01*
X20559Y81398D01*
X20546Y81403D01*
X20534Y81408D01*
X20522Y81414D01*
X20510Y81420D01*
X20498Y81427D01*
X20487Y81435D01*
X20477Y81443D01*
X20467Y81452D01*
X20457Y81461D01*
X20448Y81470D01*
X20439Y81481D01*
X20431Y81491D01*
X20423Y81502D01*
X20416Y81514D01*
X20410Y81526D01*
X20404Y81538D01*
X20399Y81550D01*
X20394Y81563D01*
X20391Y81576D01*
X20387Y81589D01*
X20385Y81602D01*
X20383Y81615D01*
X20382Y81628D01*
X20382Y81642D01*
Y82035D01*
X20382Y82049D01*
X20383Y82062D01*
X20385Y82076D01*
X20387Y82089D01*
X20391Y82102D01*
X20394Y82115D01*
X20399Y82127D01*
X20404Y82139D01*
X20410Y82152D01*
X20416Y82163D01*
X20423Y82175D01*
X20431Y82186D01*
X20439Y82196D01*
X20448Y82207D01*
X20457Y82217D01*
X20467Y82226D01*
X20477Y82234D01*
X20487Y82243D01*
X20498Y82250D01*
X20510Y82257D01*
X20522Y82263D01*
X20534Y82269D01*
X20546Y82274D01*
X20559Y82279D01*
X20572Y82283D01*
X20585Y82286D01*
X20598Y82288D01*
X20611Y82290D01*
X20624Y82291D01*
X20638Y82291D01*
X20652D01*
X20665Y82291D01*
X20678Y82290D01*
X20691Y82288D01*
X20703Y82285D01*
X20715Y82282D01*
X20728Y82278D01*
X20740Y82274D01*
X20752Y82268D01*
X20763Y82263D01*
X20774Y82256D01*
X20785Y82250D01*
X20796Y82242D01*
X20806Y82234D01*
X20816Y82225D01*
X20825Y82217D01*
X20833Y82207D01*
X20842Y82197D01*
X20849Y82187D01*
X20856Y82176D01*
X20863Y82165D01*
X20869Y82153D01*
X20874Y82141D01*
X20879Y82130D01*
X20883Y82117D01*
X20887Y82105D01*
X20889Y82092D01*
X20891Y82080D01*
X20893Y82067D01*
X20894Y82055D01*
Y81661D01*
Y81647D01*
X20893Y81633D01*
X20892Y81619D01*
X20890Y81606D01*
X20887Y81592D01*
X20883Y81578D01*
X20880Y81565D01*
X20874Y81552D01*
X20869Y81539D01*
X20863Y81527D01*
X20856Y81515D01*
X20848Y81503D01*
X20840Y81491D01*
X20831Y81481D01*
X20822Y81470D01*
X20813Y81460D01*
X20802Y81451D01*
X20792Y81442D01*
X20780Y81434D01*
X20769Y81426D01*
X20757Y81419D01*
X20744Y81413D01*
X20732Y81407D01*
X20719Y81402D01*
X20706Y81397D01*
X20692Y81394D01*
X20679Y81391D01*
X20665Y81388D01*
X20651Y81387D01*
X20638Y81386D01*
X20624Y81386D01*
D02*
G37*
G36*
Y83398D02*
X20611Y83400D01*
X20597Y83402D01*
X20583Y83406D01*
X20570Y83409D01*
X20557Y83413D01*
X20544Y83419D01*
X20531Y83424D01*
X20519Y83431D01*
X20507Y83438D01*
X20495Y83446D01*
X20484Y83454D01*
X20473Y83463D01*
X20463Y83472D01*
X20453Y83482D01*
X20444Y83493D01*
X20435Y83503D01*
X20427Y83515D01*
X20420Y83526D01*
X20413Y83539D01*
X20407Y83551D01*
X20401Y83564D01*
X20396Y83577D01*
X20392Y83590D01*
X20389Y83604D01*
X20386Y83617D01*
X20384Y83631D01*
X20382Y83645D01*
X20382Y83659D01*
Y83673D01*
Y84224D01*
Y84239D01*
X20382Y84253D01*
X20384Y84267D01*
X20386Y84280D01*
X20389Y84294D01*
X20392Y84307D01*
X20396Y84321D01*
X20401Y84334D01*
X20407Y84346D01*
X20413Y84359D01*
X20420Y84371D01*
X20427Y84383D01*
X20435Y84394D01*
X20444Y84405D01*
X20453Y84416D01*
X20463Y84426D01*
X20473Y84435D01*
X20484Y84444D01*
X20495Y84452D01*
X20507Y84460D01*
X20519Y84467D01*
X20531Y84473D01*
X20544Y84479D01*
X20557Y84484D01*
X20570Y84489D01*
X20583Y84492D01*
X20597Y84495D01*
X20611Y84498D01*
X20624Y84499D01*
X20638Y84500D01*
X20651Y84499D01*
X20665Y84498D01*
X20679Y84495D01*
X20692Y84492D01*
X20706Y84489D01*
X20719Y84484D01*
X20732Y84479D01*
X20744Y84473D01*
X20757Y84467D01*
X20769Y84460D01*
X20780Y84452D01*
X20792Y84444D01*
X20802Y84435D01*
X20813Y84426D01*
X20822Y84416D01*
X20831Y84405D01*
X20840Y84394D01*
X20848Y84383D01*
X20856Y84371D01*
X20863Y84359D01*
X20869Y84346D01*
X20874Y84334D01*
X20880Y84321D01*
X20883Y84307D01*
X20887Y84294D01*
X20890Y84280D01*
X20892Y84267D01*
X20893Y84253D01*
X20894Y84239D01*
Y84224D01*
Y83673D01*
Y83659D01*
X20893Y83645D01*
X20892Y83631D01*
X20890Y83617D01*
X20887Y83604D01*
X20883Y83590D01*
X20880Y83577D01*
X20874Y83564D01*
X20869Y83551D01*
X20863Y83539D01*
X20856Y83526D01*
X20848Y83515D01*
X20840Y83503D01*
X20831Y83493D01*
X20822Y83482D01*
X20813Y83472D01*
X20802Y83463D01*
X20792Y83454D01*
X20780Y83446D01*
X20769Y83438D01*
X20757Y83431D01*
X20744Y83424D01*
X20732Y83419D01*
X20719Y83413D01*
X20706Y83409D01*
X20692Y83406D01*
X20679Y83402D01*
X20665Y83400D01*
X20651Y83398D01*
X20638Y83398D01*
X20624Y83398D01*
D02*
G37*
D21*
X6791Y39016D02*
D03*
X7697D02*
D03*
X69705Y33228D02*
D03*
X68799D02*
D03*
Y35236D02*
D03*
X69705D02*
D03*
X6791Y37677D02*
D03*
X7697D02*
D03*
X58720Y13583D02*
D03*
X57815D02*
D03*
X70217D02*
D03*
X71122D02*
D03*
X49154Y14764D02*
D03*
X50059D02*
D03*
X44823Y14764D02*
D03*
X45728D02*
D03*
X40492Y14764D02*
D03*
X41398D02*
D03*
X19626Y16693D02*
D03*
X20531D02*
D03*
X17579D02*
D03*
X18484D02*
D03*
X21634D02*
D03*
X22539D02*
D03*
X32618Y6693D02*
D03*
X33524D02*
D03*
X32618Y4803D02*
D03*
X33524D02*
D03*
X74941Y78071D02*
D03*
X74035D02*
D03*
X74941Y77126D02*
D03*
X74035D02*
D03*
X71240Y52008D02*
D03*
X72146D02*
D03*
X71240Y53110D02*
D03*
X72146D02*
D03*
X18268Y78937D02*
D03*
X17362D02*
D03*
X58720Y14764D02*
D03*
X57815D02*
D03*
X70217D02*
D03*
X71122D02*
D03*
X22539Y17795D02*
D03*
X21634D02*
D03*
X18484D02*
D03*
X17579D02*
D03*
X20531D02*
D03*
X19626D02*
D03*
X32618Y8346D02*
D03*
X33524D02*
D03*
X74035Y78976D02*
D03*
X74941D02*
D03*
X18248Y79961D02*
D03*
X17343D02*
D03*
X17736Y77874D02*
D03*
X18642D02*
D03*
D22*
X29409Y52933D02*
D03*
Y52028D02*
D03*
X27913D02*
D03*
Y52933D02*
D03*
X11378Y60571D02*
D03*
Y61476D02*
D03*
X37520Y29154D02*
D03*
Y28248D02*
D03*
X69449Y25217D02*
D03*
Y24311D02*
D03*
X23268Y52894D02*
D03*
Y51988D02*
D03*
X26299Y52028D02*
D03*
Y52933D02*
D03*
X81024Y76594D02*
D03*
Y77500D02*
D03*
X80039Y76594D02*
D03*
Y77500D02*
D03*
X8858Y62421D02*
D03*
Y61516D02*
D03*
X6496Y62421D02*
D03*
Y61516D02*
D03*
X4134Y62421D02*
D03*
Y61516D02*
D03*
X1772Y62421D02*
D03*
Y61516D02*
D03*
X24331Y51988D02*
D03*
Y52894D02*
D03*
X74016Y76280D02*
D03*
Y75374D02*
D03*
X80039Y75728D02*
D03*
Y74823D02*
D03*
X74921Y76280D02*
D03*
Y75374D02*
D03*
X19547Y79961D02*
D03*
Y79055D02*
D03*
X7323Y77067D02*
D03*
Y77972D02*
D03*
X12520Y61476D02*
D03*
Y60571D02*
D03*
D23*
X70232Y83421D02*
D03*
X69732D02*
D03*
X69232D02*
D03*
X68732D02*
D03*
X68232D02*
D03*
X67732D02*
D03*
X67232D02*
D03*
X66732D02*
D03*
X66232D02*
D03*
X65732D02*
D03*
X65232D02*
D03*
X63732D02*
D03*
X63232D02*
D03*
X62732D02*
D03*
X62232D02*
D03*
X61732D02*
D03*
X61232D02*
D03*
X60732D02*
D03*
X60232D02*
D03*
X59732D02*
D03*
X59232D02*
D03*
X58732D02*
D03*
X58232D02*
D03*
X57732D02*
D03*
X57232D02*
D03*
X56732D02*
D03*
X56232D02*
D03*
X55732D02*
D03*
X55232D02*
D03*
X54732D02*
D03*
X54232D02*
D03*
X53732D02*
D03*
X53232D02*
D03*
X52732D02*
D03*
X52232D02*
D03*
X51732D02*
D03*
X51232D02*
D03*
X50732D02*
D03*
X50232D02*
D03*
X49732D02*
D03*
X49232D02*
D03*
X48732D02*
D03*
X48232D02*
D03*
X47732D02*
D03*
X47232D02*
D03*
X46732D02*
D03*
X46232D02*
D03*
X44732D02*
D03*
X44232D02*
D03*
X43732D02*
D03*
X43232D02*
D03*
X42732D02*
D03*
X42232D02*
D03*
X41732D02*
D03*
X41232D02*
D03*
X40732D02*
D03*
X40232D02*
D03*
X39732D02*
D03*
D24*
X81024Y78848D02*
D03*
Y78238D02*
D03*
X80039Y78848D02*
D03*
Y78238D02*
D03*
X10039Y61703D02*
D03*
Y62313D02*
D03*
X7677Y61703D02*
D03*
Y62313D02*
D03*
X5315D02*
D03*
Y61703D02*
D03*
X2953Y62313D02*
D03*
Y61703D02*
D03*
D25*
X49911Y13583D02*
D03*
X49301D02*
D03*
X44970Y13583D02*
D03*
X45581D02*
D03*
X40640D02*
D03*
X41250D02*
D03*
D26*
X76201Y78632D02*
D03*
Y78376D02*
D03*
Y78120D02*
D03*
Y77864D02*
D03*
Y77608D02*
D03*
Y77352D02*
D03*
Y77096D02*
D03*
Y76841D02*
D03*
Y76585D02*
D03*
Y76329D02*
D03*
Y76073D02*
D03*
Y75817D02*
D03*
Y75561D02*
D03*
Y75305D02*
D03*
X78917Y78632D02*
D03*
Y78376D02*
D03*
Y78120D02*
D03*
Y77864D02*
D03*
Y77608D02*
D03*
Y77352D02*
D03*
Y77096D02*
D03*
Y76841D02*
D03*
Y76585D02*
D03*
Y76329D02*
D03*
Y76073D02*
D03*
Y75817D02*
D03*
Y75561D02*
D03*
Y75305D02*
D03*
D27*
X63376Y13287D02*
D03*
Y15059D02*
D03*
X60246Y13287D02*
D03*
Y15059D02*
D03*
X68888Y13287D02*
D03*
Y15059D02*
D03*
X65758Y13287D02*
D03*
Y15059D02*
D03*
D28*
X3839Y75591D02*
D03*
X5689D02*
D03*
D29*
X28248Y60827D02*
D03*
Y62795D02*
D03*
X30315Y60827D02*
D03*
Y62795D02*
D03*
X26181Y60827D02*
D03*
Y62795D02*
D03*
D30*
X3740Y78051D02*
D03*
X5709D02*
D03*
D31*
X74813Y74173D02*
D03*
X73455D02*
D03*
D32*
X24213Y61417D02*
D03*
Y60630D02*
D03*
D33*
X22598Y60512D02*
D03*
Y62323D02*
D03*
D34*
X21457Y79892D02*
D03*
Y78533D02*
D03*
D35*
X1673Y75207D02*
D03*
Y77943D02*
D03*
D36*
X20512Y60512D02*
D03*
Y61417D02*
D03*
Y62323D02*
D03*
D37*
X18228Y61417D02*
D03*
D38*
X20157Y82189D02*
D03*
X17717D02*
D03*
D39*
X19823D02*
D03*
X19626D02*
D03*
X19429D02*
D03*
X19232D02*
D03*
X19035D02*
D03*
X18839D02*
D03*
X18642D02*
D03*
X18445D02*
D03*
X18248D02*
D03*
X18051D02*
D03*
X17756Y81677D02*
D03*
X17953D02*
D03*
X18150D02*
D03*
X18346D02*
D03*
X18543D02*
D03*
X18740D02*
D03*
X19134D02*
D03*
X19331D02*
D03*
X19528D02*
D03*
X19724D02*
D03*
X19921D02*
D03*
X20118D02*
D03*
D40*
X3150Y25181D02*
D03*
X4150D02*
D03*
Y28181D02*
D03*
Y27181D02*
D03*
X3150D02*
D03*
X4150Y26181D02*
D03*
X3150D02*
D03*
Y24181D02*
D03*
X4150D02*
D03*
Y35508D02*
D03*
X3150D02*
D03*
Y37508D02*
D03*
Y36508D02*
D03*
X4150Y38508D02*
D03*
Y36508D02*
D03*
Y37508D02*
D03*
Y15748D02*
D03*
Y16748D02*
D03*
X3150Y15748D02*
D03*
Y14748D02*
D03*
X4150D02*
D03*
X63000Y52750D02*
D03*
Y53750D02*
D03*
X56000D02*
D03*
Y52750D02*
D03*
X53000D02*
D03*
X54000D02*
D03*
Y53750D02*
D03*
X55000Y52750D02*
D03*
Y53750D02*
D03*
X57000D02*
D03*
Y52750D02*
D03*
X58000Y53750D02*
D03*
Y52750D02*
D03*
X59000Y53750D02*
D03*
Y52750D02*
D03*
X60000Y53750D02*
D03*
Y52750D02*
D03*
X61000Y53750D02*
D03*
Y52750D02*
D03*
X62000Y53750D02*
D03*
Y52750D02*
D03*
X50000D02*
D03*
Y53750D02*
D03*
X49000Y52750D02*
D03*
Y53750D02*
D03*
X48000Y52750D02*
D03*
Y53750D02*
D03*
X46000D02*
D03*
Y52750D02*
D03*
X45000Y53750D02*
D03*
Y52750D02*
D03*
X44000D02*
D03*
X47000D02*
D03*
Y53750D02*
D03*
X104563Y48252D02*
D03*
X105563Y49252D02*
D03*
X104563D02*
D03*
X105563Y50252D02*
D03*
X104563D02*
D03*
X105563Y51252D02*
D03*
X104563D02*
D03*
X105563Y52252D02*
D03*
X104563D02*
D03*
X105563Y53252D02*
D03*
X104563D02*
D03*
X105563Y54252D02*
D03*
X104563D02*
D03*
X105563Y55252D02*
D03*
X104563D02*
D03*
Y57252D02*
D03*
X105563Y58252D02*
D03*
X104563D02*
D03*
X105563Y59252D02*
D03*
X104563D02*
D03*
X105563Y60252D02*
D03*
X104563D02*
D03*
X105563Y61252D02*
D03*
X104563D02*
D03*
X105563Y62252D02*
D03*
X104563D02*
D03*
X105563Y63252D02*
D03*
X104563D02*
D03*
X105563Y64252D02*
D03*
X104563D02*
D03*
X105563Y65252D02*
D03*
X104563D02*
D03*
X105563Y66252D02*
D03*
X104563D02*
D03*
X105563Y67252D02*
D03*
X104563D02*
D03*
X105563Y68252D02*
D03*
X104563D02*
D03*
X105563Y69252D02*
D03*
X104563D02*
D03*
X105563Y70252D02*
D03*
X104563D02*
D03*
X105563Y71252D02*
D03*
X104563D02*
D03*
X86563Y55252D02*
D03*
X87563Y56252D02*
D03*
X86563D02*
D03*
X87563Y57252D02*
D03*
X86563D02*
D03*
X87563Y58252D02*
D03*
X86563D02*
D03*
X87563Y59252D02*
D03*
X86563D02*
D03*
X87563Y60252D02*
D03*
X86563D02*
D03*
X87563Y61252D02*
D03*
X86563D02*
D03*
X87563Y62252D02*
D03*
X86563D02*
D03*
X87563Y63252D02*
D03*
X86563D02*
D03*
X87563Y64252D02*
D03*
X86563D02*
D03*
X87563Y65252D02*
D03*
X86563D02*
D03*
X87563Y66252D02*
D03*
X86563D02*
D03*
X87563Y67252D02*
D03*
X86563D02*
D03*
X87563Y68252D02*
D03*
X86563D02*
D03*
X87563Y69252D02*
D03*
X86563D02*
D03*
X87563Y70252D02*
D03*
X86563D02*
D03*
X87563Y71252D02*
D03*
X86563D02*
D03*
Y44252D02*
D03*
X87563Y45252D02*
D03*
X86563D02*
D03*
X87563Y46252D02*
D03*
X86563D02*
D03*
X87563Y47252D02*
D03*
X86563D02*
D03*
X87563Y48252D02*
D03*
X86563D02*
D03*
X87563Y49252D02*
D03*
X86563D02*
D03*
X87563Y50252D02*
D03*
X86563D02*
D03*
X87563Y51252D02*
D03*
X86563D02*
D03*
X87563Y52252D02*
D03*
X86563D02*
D03*
X87563Y53252D02*
D03*
X86563D02*
D03*
X63000Y46750D02*
D03*
Y47750D02*
D03*
X62000Y46750D02*
D03*
Y47750D02*
D03*
X61000Y46750D02*
D03*
Y47750D02*
D03*
X60000Y46750D02*
D03*
Y47750D02*
D03*
X59000Y46750D02*
D03*
Y47750D02*
D03*
X58000Y46750D02*
D03*
Y47750D02*
D03*
X57000Y46750D02*
D03*
Y47750D02*
D03*
X56000Y46750D02*
D03*
Y47750D02*
D03*
X55000Y46750D02*
D03*
Y47750D02*
D03*
X54000Y46750D02*
D03*
Y47750D02*
D03*
X53000Y46750D02*
D03*
Y47750D02*
D03*
X52000Y46750D02*
D03*
Y47750D02*
D03*
X51000Y46750D02*
D03*
Y47750D02*
D03*
X50000Y46750D02*
D03*
Y47750D02*
D03*
X49000Y46750D02*
D03*
Y47750D02*
D03*
X48000Y46750D02*
D03*
Y47750D02*
D03*
X46000D02*
D03*
Y46750D02*
D03*
X45000Y47750D02*
D03*
Y46750D02*
D03*
X44000D02*
D03*
X47000D02*
D03*
Y47750D02*
D03*
X16496Y52346D02*
D03*
X73358Y80197D02*
D03*
X105118Y25984D02*
D03*
X106118D02*
D03*
X26287Y55512D02*
D03*
X25287D02*
D03*
Y54512D02*
D03*
X16506Y47575D02*
D03*
Y48575D02*
D03*
Y49575D02*
D03*
D41*
X3150Y28181D02*
D03*
Y38508D02*
D03*
Y16748D02*
D03*
X105563Y48252D02*
D03*
Y57252D02*
D03*
X87563Y55252D02*
D03*
Y44252D02*
D03*
X74358Y80197D02*
D03*
X104118Y25984D02*
D03*
X26287Y54512D02*
D03*
D42*
X53000Y53750D02*
D03*
X44000D02*
D03*
Y47750D02*
D03*
X16496Y53346D02*
D03*
X16506Y46575D02*
D03*
D43*
X83661Y4331D02*
D03*
X82874D02*
D03*
X14587Y61457D02*
D03*
X15965D02*
D03*
X10433Y75000D02*
D03*
Y76968D02*
D03*
X15256Y75000D02*
D03*
Y76968D02*
D03*
D44*
X82087Y4331D02*
D03*
D45*
X30315Y72835D02*
D03*
Y73835D02*
D03*
Y74835D02*
D03*
Y75835D02*
D03*
Y76835D02*
D03*
Y77835D02*
D03*
Y78835D02*
D03*
Y80835D02*
D03*
Y79835D02*
D03*
Y71835D02*
D03*
Y70835D02*
D03*
Y69835D02*
D03*
Y68835D02*
D03*
X78059Y55083D02*
D03*
Y56083D02*
D03*
Y57083D02*
D03*
Y58083D02*
D03*
Y59083D02*
D03*
Y60083D02*
D03*
Y61083D02*
D03*
Y62083D02*
D03*
Y63083D02*
D03*
Y64083D02*
D03*
Y65083D02*
D03*
Y66083D02*
D03*
Y67083D02*
D03*
Y68083D02*
D03*
Y69083D02*
D03*
Y70083D02*
D03*
Y71083D02*
D03*
Y72083D02*
D03*
Y73083D02*
D03*
X77059D02*
D03*
Y72083D02*
D03*
Y71083D02*
D03*
Y70083D02*
D03*
Y69083D02*
D03*
Y68083D02*
D03*
Y67083D02*
D03*
Y66083D02*
D03*
Y65083D02*
D03*
Y64083D02*
D03*
Y63083D02*
D03*
Y62083D02*
D03*
Y61083D02*
D03*
Y60083D02*
D03*
Y59083D02*
D03*
Y58083D02*
D03*
Y57083D02*
D03*
Y56083D02*
D03*
Y55083D02*
D03*
Y54083D02*
D03*
X35039Y31224D02*
D03*
Y30224D02*
D03*
Y29224D02*
D03*
X72165Y32224D02*
D03*
Y31224D02*
D03*
Y30224D02*
D03*
Y29224D02*
D03*
Y28224D02*
D03*
Y27224D02*
D03*
Y26224D02*
D03*
Y24224D02*
D03*
Y25224D02*
D03*
Y33224D02*
D03*
Y34224D02*
D03*
Y35224D02*
D03*
Y36224D02*
D03*
X103150Y16657D02*
D03*
Y15657D02*
D03*
Y14657D02*
D03*
X102484Y7087D02*
D03*
X101484D02*
D03*
X100484D02*
D03*
X22122Y3543D02*
D03*
X23122D02*
D03*
X24122D02*
D03*
X75591Y18579D02*
D03*
Y19579D02*
D03*
Y20579D02*
D03*
Y22579D02*
D03*
Y21579D02*
D03*
Y17579D02*
D03*
Y16579D02*
D03*
X10130Y4370D02*
D03*
X9130D02*
D03*
X11130D02*
D03*
X12130D02*
D03*
X13130D02*
D03*
X20063Y14764D02*
D03*
X19063D02*
D03*
X21063D02*
D03*
X22063D02*
D03*
X23063D02*
D03*
X24063D02*
D03*
X23300Y49900D02*
D03*
X22300D02*
D03*
X24300D02*
D03*
X25300D02*
D03*
X26300D02*
D03*
X27300D02*
D03*
X28300D02*
D03*
X29300D02*
D03*
X30300D02*
D03*
D46*
X30315Y81835D02*
D03*
X35039Y28224D02*
D03*
X72165Y23224D02*
D03*
X103150Y13657D02*
D03*
X75591Y23579D02*
D03*
D47*
X15472Y83593D02*
D03*
X10276D02*
D03*
D48*
X11024Y79843D02*
D03*
X14724D02*
D03*
X12874D02*
D03*
X15417Y64504D02*
D03*
Y68504D02*
D03*
X7417Y67504D02*
D03*
Y69504D02*
D03*
X15417Y72504D02*
D03*
X7417D02*
D03*
D49*
X78059Y54083D02*
D03*
X99484Y7087D02*
D03*
X25122Y3543D02*
D03*
X8130Y4370D02*
D03*
X18063Y14764D02*
D03*
X21300Y49900D02*
D03*
D50*
X21634Y75315D02*
D03*
X18287D02*
D03*
D51*
X20748D02*
D03*
X19961D02*
D03*
X19173D02*
D03*
D52*
X33740Y1969D02*
D03*
X32402D02*
D03*
D53*
X77854Y80039D02*
D03*
D54*
X78839D02*
D03*
Y80827D02*
D03*
X77854D02*
D03*
D55*
X80717Y81890D02*
D03*
X75976D02*
D03*
D56*
X6732Y80000D02*
D03*
D57*
Y82362D02*
D03*
D58*
X4843Y81181D02*
D03*
D59*
X106299Y82677D02*
D03*
X108268Y78740D02*
D03*
X106299Y74803D02*
D03*
X108268Y70866D02*
D03*
Y62992D02*
D03*
Y55118D02*
D03*
Y47244D02*
D03*
Y39370D02*
D03*
X106299Y35433D02*
D03*
X108268Y31496D02*
D03*
X106299Y27559D02*
D03*
X108268Y23622D02*
D03*
X106299Y19685D02*
D03*
X108268Y15748D02*
D03*
X106299Y11811D02*
D03*
X108268Y7874D02*
D03*
X106299Y3937D02*
D03*
X102362Y82677D02*
D03*
X104331Y78740D02*
D03*
X102362Y66929D02*
D03*
Y51181D02*
D03*
X104331Y47244D02*
D03*
X102362Y43307D02*
D03*
X104331Y39370D02*
D03*
X102362Y35433D02*
D03*
X104331Y31496D02*
D03*
X102362Y27559D02*
D03*
X104331Y15748D02*
D03*
X102362Y3937D02*
D03*
X98425Y82677D02*
D03*
X100394Y78740D02*
D03*
X98425Y74803D02*
D03*
X100394Y70866D02*
D03*
X98425Y66929D02*
D03*
X100394Y62992D02*
D03*
Y47244D02*
D03*
X98425Y43307D02*
D03*
Y35433D02*
D03*
X100394Y31496D02*
D03*
X98425Y19685D02*
D03*
X100394Y15748D02*
D03*
X98425Y11811D02*
D03*
X100394Y7874D02*
D03*
X98425Y3937D02*
D03*
X94488Y82677D02*
D03*
X96457Y78740D02*
D03*
X94488Y74803D02*
D03*
X96457Y70866D02*
D03*
X94488Y66929D02*
D03*
X96457Y62992D02*
D03*
X94488Y59055D02*
D03*
X96457Y55118D02*
D03*
Y47244D02*
D03*
Y39370D02*
D03*
X94488Y35433D02*
D03*
X96457Y31496D02*
D03*
X94488Y27559D02*
D03*
X96457Y23622D02*
D03*
X94488Y19685D02*
D03*
X96457Y15748D02*
D03*
X94488Y11811D02*
D03*
X96457Y7874D02*
D03*
X94488Y3937D02*
D03*
X90551Y82677D02*
D03*
X92520Y78740D02*
D03*
X90551Y74803D02*
D03*
X92520Y70866D02*
D03*
X90551Y66929D02*
D03*
X92520Y62992D02*
D03*
X90551Y59055D02*
D03*
X92520Y39370D02*
D03*
X90551Y35433D02*
D03*
X92520Y31496D02*
D03*
X90551Y27559D02*
D03*
X92520Y23622D02*
D03*
X90551Y19685D02*
D03*
X92520Y15748D02*
D03*
X90551Y11811D02*
D03*
X92520Y7874D02*
D03*
X90551Y3937D02*
D03*
X86614Y82677D02*
D03*
X88583Y78740D02*
D03*
X86614Y74803D02*
D03*
X88583Y70866D02*
D03*
Y55118D02*
D03*
Y31496D02*
D03*
X86614Y27559D02*
D03*
X88583Y23622D02*
D03*
X86614Y19685D02*
D03*
X88583Y15748D02*
D03*
X86614Y11811D02*
D03*
X88583Y7874D02*
D03*
X86614Y3937D02*
D03*
X82677Y82677D02*
D03*
X84646Y78740D02*
D03*
X82677Y74803D02*
D03*
X84646Y70866D02*
D03*
X82677Y66929D02*
D03*
X84646Y62992D02*
D03*
X82677Y59055D02*
D03*
Y51181D02*
D03*
X84646Y47244D02*
D03*
X82677Y35433D02*
D03*
X84646Y31496D02*
D03*
X82677Y27559D02*
D03*
X84646Y23622D02*
D03*
X82677Y19685D02*
D03*
X84646Y15748D02*
D03*
X82677Y11811D02*
D03*
X84646Y7874D02*
D03*
X78740Y82677D02*
D03*
Y74803D02*
D03*
X80709Y70866D02*
D03*
X78740Y66929D02*
D03*
Y59055D02*
D03*
X80709Y55118D02*
D03*
X78740Y51181D02*
D03*
X80709Y47244D02*
D03*
X78740Y35433D02*
D03*
X80709Y23622D02*
D03*
X78740Y19685D02*
D03*
X80709Y15748D02*
D03*
X78740Y11811D02*
D03*
Y3937D02*
D03*
X74803Y82677D02*
D03*
X76772Y78740D02*
D03*
X74803Y51181D02*
D03*
X76772Y47244D02*
D03*
X74803Y35433D02*
D03*
X76772Y31496D02*
D03*
X74803Y27559D02*
D03*
Y11811D02*
D03*
Y3937D02*
D03*
X72835Y78740D02*
D03*
X70866Y74803D02*
D03*
X72835Y70866D02*
D03*
Y55118D02*
D03*
X70866Y51181D02*
D03*
X72835Y47244D02*
D03*
Y39370D02*
D03*
Y31496D02*
D03*
Y23622D02*
D03*
X70866Y19685D02*
D03*
Y11811D02*
D03*
X68898Y78740D02*
D03*
X66929Y74803D02*
D03*
X68898Y70866D02*
D03*
Y62992D02*
D03*
Y55118D02*
D03*
X66929Y43307D02*
D03*
X68898Y39370D02*
D03*
X66929Y35433D02*
D03*
Y27559D02*
D03*
X68898Y23622D02*
D03*
X66929Y19685D02*
D03*
Y11811D02*
D03*
X62992Y74803D02*
D03*
X64961Y70866D02*
D03*
Y62992D02*
D03*
X62992Y59055D02*
D03*
X64961Y47244D02*
D03*
X62992Y35433D02*
D03*
Y19685D02*
D03*
Y11811D02*
D03*
X59055Y74803D02*
D03*
X61024Y70866D02*
D03*
Y62992D02*
D03*
X59055Y59055D02*
D03*
Y43307D02*
D03*
X61024Y39370D02*
D03*
X59055Y35433D02*
D03*
X61024Y31496D02*
D03*
X59055Y27559D02*
D03*
X61024Y23622D02*
D03*
X59055Y19685D02*
D03*
Y11811D02*
D03*
X55118Y74803D02*
D03*
X57087Y70866D02*
D03*
X55118Y66929D02*
D03*
X57087Y62992D02*
D03*
Y47244D02*
D03*
Y39370D02*
D03*
X55118Y27559D02*
D03*
X57087Y23622D02*
D03*
X55118Y19685D02*
D03*
Y11811D02*
D03*
X51181Y74803D02*
D03*
X53150Y70866D02*
D03*
X51181Y66929D02*
D03*
Y43307D02*
D03*
X53150Y39370D02*
D03*
X51181Y35433D02*
D03*
X53150Y31496D02*
D03*
X51181Y27559D02*
D03*
X53150Y23622D02*
D03*
X51181Y19685D02*
D03*
Y11811D02*
D03*
X47244Y74803D02*
D03*
X49213Y70866D02*
D03*
X47244Y66929D02*
D03*
X49213Y62992D02*
D03*
Y55118D02*
D03*
Y39370D02*
D03*
X47244Y35433D02*
D03*
X49213Y31496D02*
D03*
X47244Y27559D02*
D03*
X49213Y23622D02*
D03*
X47244Y19685D02*
D03*
Y11811D02*
D03*
X43307Y74803D02*
D03*
X45276Y70866D02*
D03*
X43307Y66929D02*
D03*
X45276Y62992D02*
D03*
Y55118D02*
D03*
X43307Y43307D02*
D03*
X45276Y39370D02*
D03*
X43307Y35433D02*
D03*
X45276Y31496D02*
D03*
X43307Y27559D02*
D03*
X45276Y23622D02*
D03*
X43307Y19685D02*
D03*
Y11811D02*
D03*
X39370Y74803D02*
D03*
X41339Y70866D02*
D03*
X39370Y66929D02*
D03*
X41339Y62992D02*
D03*
Y55118D02*
D03*
X39370Y51181D02*
D03*
X41339Y31496D02*
D03*
X39370Y27559D02*
D03*
X41339Y23622D02*
D03*
X39370Y19685D02*
D03*
X41339Y15748D02*
D03*
X39370Y11811D02*
D03*
X35433Y82677D02*
D03*
Y74803D02*
D03*
Y66929D02*
D03*
X37402Y62992D02*
D03*
X35433Y59055D02*
D03*
X37402Y55118D02*
D03*
X35433Y51181D02*
D03*
X37402Y47244D02*
D03*
X35433Y43307D02*
D03*
X37402Y39370D02*
D03*
Y31496D02*
D03*
X35433Y27559D02*
D03*
X37402Y23622D02*
D03*
Y15748D02*
D03*
X35433Y11811D02*
D03*
Y3937D02*
D03*
X31496Y82677D02*
D03*
Y66929D02*
D03*
Y59055D02*
D03*
Y43307D02*
D03*
Y27559D02*
D03*
Y19685D02*
D03*
X33465Y15748D02*
D03*
X31496Y11811D02*
D03*
Y3937D02*
D03*
X27559Y82677D02*
D03*
X29528Y78740D02*
D03*
X27559Y74803D02*
D03*
X29528Y70866D02*
D03*
X27559Y66929D02*
D03*
X29528Y62992D02*
D03*
X27559Y59055D02*
D03*
X29528Y55118D02*
D03*
Y47244D02*
D03*
X27559Y43307D02*
D03*
X29528Y39370D02*
D03*
X27559Y35433D02*
D03*
X29528Y23622D02*
D03*
X27559Y19685D02*
D03*
X29528Y15748D02*
D03*
X27559Y11811D02*
D03*
X29528Y7874D02*
D03*
X27559Y3937D02*
D03*
X23622Y82677D02*
D03*
X25591Y78740D02*
D03*
X23622Y74803D02*
D03*
X25591Y70866D02*
D03*
X23622Y66929D02*
D03*
Y59055D02*
D03*
X25591Y55118D02*
D03*
X23622Y51181D02*
D03*
Y43307D02*
D03*
X25591Y39370D02*
D03*
X23622Y35433D02*
D03*
X25591Y31496D02*
D03*
Y23622D02*
D03*
X23622Y19685D02*
D03*
X25591Y15748D02*
D03*
X23622Y11811D02*
D03*
X25591Y7874D02*
D03*
X23622Y3937D02*
D03*
X19685Y74803D02*
D03*
X21654Y70866D02*
D03*
Y62992D02*
D03*
X19685Y59055D02*
D03*
Y51181D02*
D03*
X21654Y47244D02*
D03*
X19685Y43307D02*
D03*
X21654Y39370D02*
D03*
X19685Y35433D02*
D03*
X21654Y31496D02*
D03*
X19685Y19685D02*
D03*
Y11811D02*
D03*
X21654Y7874D02*
D03*
X15748Y82677D02*
D03*
Y74803D02*
D03*
X17717Y70866D02*
D03*
X15748Y66929D02*
D03*
Y59055D02*
D03*
X17717Y55118D02*
D03*
X15748Y51181D02*
D03*
X17717Y47244D02*
D03*
X15748Y43307D02*
D03*
Y35433D02*
D03*
X17717Y31496D02*
D03*
Y23622D02*
D03*
X15748Y19685D02*
D03*
Y11811D02*
D03*
X17717Y7874D02*
D03*
X11811Y82677D02*
D03*
X13780Y78740D02*
D03*
X11811Y74803D02*
D03*
X13780Y70866D02*
D03*
X11811Y66929D02*
D03*
Y59055D02*
D03*
Y51181D02*
D03*
X13780Y47244D02*
D03*
X11811Y43307D02*
D03*
Y35433D02*
D03*
X13780Y31496D02*
D03*
Y23622D02*
D03*
X11811Y19685D02*
D03*
X13780Y7874D02*
D03*
X7874Y74803D02*
D03*
X9843Y70866D02*
D03*
Y62992D02*
D03*
X7874Y59055D02*
D03*
X9843Y55118D02*
D03*
X7874Y51181D02*
D03*
X9843Y47244D02*
D03*
X7874Y43307D02*
D03*
X9843Y31496D02*
D03*
Y23622D02*
D03*
X7874Y19685D02*
D03*
X9843Y15748D02*
D03*
X7874Y11811D02*
D03*
X9843Y7874D02*
D03*
X3937Y82677D02*
D03*
X5906Y70866D02*
D03*
X3937Y66929D02*
D03*
X5906Y62992D02*
D03*
X3937Y59055D02*
D03*
X5906Y55118D02*
D03*
X3937Y51181D02*
D03*
X5906Y47244D02*
D03*
X3937Y43307D02*
D03*
X5906Y39370D02*
D03*
Y31496D02*
D03*
Y23622D02*
D03*
X3937Y19685D02*
D03*
X5906Y15748D02*
D03*
X3937Y11811D02*
D03*
Y3937D02*
D03*
X5472Y37008D02*
D03*
X5866Y37047D02*
D03*
X6260Y37165D02*
D03*
Y36457D02*
D03*
X6614D02*
D03*
X28268Y47134D02*
D03*
X27283Y46898D02*
D03*
X24409Y47094D02*
D03*
X24744Y47429D02*
D03*
X26102Y46110D02*
D03*
X25787Y45835D02*
D03*
X48386Y54843D02*
D03*
Y54567D02*
D03*
X44173Y54843D02*
D03*
X68573Y50344D02*
D03*
X64606Y53032D02*
D03*
X64409Y52795D02*
D03*
X49764Y52008D02*
D03*
X48510Y51648D02*
D03*
X69488Y50787D02*
D03*
X69970Y50639D02*
D03*
X65551Y48071D02*
D03*
X68937Y50315D02*
D03*
X90551Y38110D02*
D03*
X94094Y41417D02*
D03*
X94331Y42008D02*
D03*
X91732Y40512D02*
D03*
X92205Y40748D02*
D03*
X93386Y41457D02*
D03*
X93622Y41693D02*
D03*
X91968Y42480D02*
D03*
X90787Y41142D02*
D03*
X88189Y41732D02*
D03*
X89606Y41535D02*
D03*
X93150Y42992D02*
D03*
X92677Y43189D02*
D03*
X92441Y42205D02*
D03*
X93858Y43228D02*
D03*
X93386Y43701D02*
D03*
X92441D02*
D03*
X94803Y42992D02*
D03*
X44213Y43150D02*
D03*
X81142Y50236D02*
D03*
X82638Y48228D02*
D03*
X80669Y50236D02*
D03*
X82244Y48622D02*
D03*
X51260Y54606D02*
D03*
X51094Y54323D02*
D03*
X44173Y54567D02*
D03*
X23661Y47835D02*
D03*
X78858Y64567D02*
D03*
X72087D02*
D03*
X78858Y65551D02*
D03*
X73071D02*
D03*
X59488Y55157D02*
D03*
X58504Y54921D02*
D03*
X57323Y55197D02*
D03*
X57677D02*
D03*
X70748Y52008D02*
D03*
Y53110D02*
D03*
X58110Y54921D02*
D03*
X17756Y80748D02*
D03*
X104961Y45512D02*
D03*
X56457Y54409D02*
D03*
X73976Y16220D02*
D03*
X70157D02*
D03*
X61496Y56181D02*
D03*
X19567Y77992D02*
D03*
X63543Y55630D02*
D03*
X62520Y57283D02*
D03*
X104764Y44921D02*
D03*
X62008Y54921D02*
D03*
X59016Y55394D02*
D03*
X106693Y43386D02*
D03*
X106181Y44291D02*
D03*
X106614Y45079D02*
D03*
X105630Y44449D02*
D03*
X60472Y55630D02*
D03*
X18898Y79606D02*
D03*
X61024Y55866D02*
D03*
X62992Y55394D02*
D03*
X18898Y80394D02*
D03*
X9409Y59724D02*
D03*
X74016Y74961D02*
D03*
X20118Y80748D02*
D03*
X106496Y43189D02*
D03*
X9409Y61496D02*
D03*
X13976Y63110D02*
D03*
X101968Y15197D02*
D03*
X91506Y36191D02*
D03*
X41732Y45866D02*
D03*
X40186Y49657D02*
D03*
X66693Y33386D02*
D03*
X37047Y50512D02*
D03*
X91506Y35857D02*
D03*
X47087Y40276D02*
D03*
X66772Y33110D02*
D03*
X27913Y51299D02*
D03*
X89134Y34685D02*
D03*
X64134Y48032D02*
D03*
X53701Y45945D02*
D03*
X60984Y31220D02*
D03*
X66654Y33740D02*
D03*
X33858Y50984D02*
D03*
X61220Y30984D02*
D03*
X61457Y30748D02*
D03*
X88898Y34449D02*
D03*
X31417Y51457D02*
D03*
X103937Y14843D02*
D03*
X101968Y15669D02*
D03*
X32638Y31181D02*
D03*
X32323Y30827D02*
D03*
X92677Y43898D02*
D03*
X92205D02*
D03*
X91968Y43701D02*
D03*
X91732Y43898D02*
D03*
X91496Y43701D02*
D03*
X90079Y36142D02*
D03*
X70394Y15984D02*
D03*
X90315Y36378D02*
D03*
X70630Y15748D02*
D03*
X91024Y37244D02*
D03*
X89134Y43701D02*
D03*
X89843Y36378D02*
D03*
X88425Y37008D02*
D03*
X91260Y43898D02*
D03*
X89370Y35551D02*
D03*
Y43898D02*
D03*
X84843Y57087D02*
D03*
X81732Y61535D02*
D03*
X81142Y69646D02*
D03*
X81457Y69685D02*
D03*
X73583Y66575D02*
D03*
X78858D02*
D03*
X73583Y67559D02*
D03*
X78858D02*
D03*
Y68583D02*
D03*
X73583D02*
D03*
X78858Y69528D02*
D03*
X73583D02*
D03*
X81732Y67559D02*
D03*
X81457Y63740D02*
D03*
X55157Y31220D02*
D03*
X98661Y65748D02*
D03*
X92283D02*
D03*
X97008D02*
D03*
X68504Y35866D02*
D03*
X59252Y81102D02*
D03*
X66339Y80433D02*
D03*
X65236Y80472D02*
D03*
X74409Y15748D02*
D03*
X74921Y15236D02*
D03*
X74173Y15984D02*
D03*
X74646Y15512D02*
D03*
X88425Y43898D02*
D03*
X90079Y43701D02*
D03*
X90315Y43898D02*
D03*
X90551Y43701D02*
D03*
X90787Y43898D02*
D03*
X91024Y43701D02*
D03*
X89843Y43898D02*
D03*
X89606Y43701D02*
D03*
X88661D02*
D03*
X88898Y43898D02*
D03*
X88189Y43701D02*
D03*
X70896Y15502D02*
D03*
X71142Y15236D02*
D03*
X87559Y36142D02*
D03*
X88661D02*
D03*
X106299Y69724D02*
D03*
X106181Y69055D02*
D03*
X77441Y77795D02*
D03*
Y76772D02*
D03*
X32638Y38228D02*
D03*
X68780Y32717D02*
D03*
X67913Y33268D02*
D03*
X68780Y31969D02*
D03*
X69094Y34213D02*
D03*
X67913Y33740D02*
D03*
X69094Y34567D02*
D03*
X24291Y47913D02*
D03*
X22835Y49173D02*
D03*
X80866Y65748D02*
D03*
X81142Y63583D02*
D03*
X81220Y60354D02*
D03*
X81142Y60787D02*
D03*
X80866Y61063D02*
D03*
X85512Y57756D02*
D03*
X32323Y38504D02*
D03*
X77992Y76309D02*
D03*
X77520Y75945D02*
D03*
X55630Y30748D02*
D03*
X55394Y30984D02*
D03*
X91142Y65748D02*
D03*
X107111Y59252D02*
D03*
X106890Y60748D02*
D03*
X107323Y61299D02*
D03*
X94803Y43701D02*
D03*
X94331D02*
D03*
X94094Y43898D02*
D03*
X93858Y43701D02*
D03*
X93622Y43898D02*
D03*
X93150D02*
D03*
D60*
X9724Y14646D02*
D03*
X7244Y17756D02*
D03*
Y28898D02*
D03*
Y26024D02*
D03*
X8701Y39102D02*
D03*
X30276Y47717D02*
D03*
X8543Y35945D02*
D03*
X102677Y54331D02*
D03*
X27205Y62795D02*
D03*
Y60827D02*
D03*
X69510Y16693D02*
D03*
X64291D02*
D03*
X83661Y7087D02*
D03*
X48268Y41142D02*
D03*
X44724Y44685D02*
D03*
X38761Y49900D02*
D03*
X52362Y37047D02*
D03*
X68701Y20669D02*
D03*
X56024Y33386D02*
D03*
X73386Y27677D02*
D03*
X12126Y12244D02*
D03*
X73858Y24764D02*
D03*
X21457Y4449D02*
D03*
X64291Y14646D02*
D03*
D61*
X51614Y51378D02*
D03*
X64764Y52402D02*
D03*
X48504Y58032D02*
D03*
X49685Y56811D02*
D03*
D62*
X49016Y58740D02*
D03*
X65354Y58268D02*
D03*
X69252Y56024D02*
D03*
X74803Y55079D02*
D03*
X50433Y57323D02*
D03*
D63*
X16732Y77795D02*
D03*
X69724Y80354D02*
D03*
D64*
X17283Y62835D02*
D03*
D65*
X33150Y50472D02*
D03*
Y31772D02*
D03*
Y37638D02*
D03*
Y47756D02*
D03*
M02*
