M48
;Layer_Color=9474304
;FILE_FORMAT=4:4
METRIC,LZ
;TYPE=PLATED
T1F00S00C0.3000
T2F00S00C0.4000
T4F00S00C0.7000
T7F00S00C0.7112
T8F00S00C0.8000
T9F00S00C0.9000
T10F00S00C1.0000
T13F00S00C1.5000
T14F00S00C1.9000
T15F00S00C4.0000
;TYPE=NON_PLATED
T16F00S00C0.5500
T17F00S00C2.4000
T18F00S00C3.0000
T19F00S00C3.1000
T20F00S00C3.2000
%
T01
X001Y001
X002
Y003
X001
X0035Y002
X0045
X0055
X0065
X0075
X007Y003
X006
X005
X004
X007Y001
X008
X009
X0085Y002
X009Y003
X01
X011
X008
X012
X013
X014
X015
X016
X017
X018
X01807Y00387
X01794Y00392
X01902Y003935
X0191Y00387
X019Y003
Y001
X02
X022
X023
X0235Y002
X0225
X0215
X022Y003
X023
X021
X02
X024
X025
X0255Y002
X0245
X025Y001
X026
X027
X0275Y002
X027Y003
X0264Y00377
X0259Y00386
X024Y001
X0245Y004
X0255
X0259Y00398
X0265Y004
X0275
X027Y005
X0275Y006
X027Y007
X026
X024
X0245Y006
X025Y005
X024
X023
X022
X021
X02
X0205Y006
X0215
X0225
X0235
X023Y007
X022
X021
X0215Y004
X0225
X0235
X0205
X01894Y003985
X01887Y00405
X01879Y004125
X0178Y00412
X01785Y004055
X0179Y00399
X018Y005
X017
X016
X0175Y006
X0185
X019Y007
X017
X015
X014
X014Y00793
X01407Y007865
X01414Y0078
X01546Y00793
X01555Y00787
X01561Y0078
X0155Y006
X0145
X0135
X0125
X013Y007
X012
Y005
X013
X014
X015
X011
X01
X0105Y006
X0115
X011Y007
X01
X009
X008
X0082Y00784
X00828Y00793
X0095Y006
Y004
X0105
X0085
X008Y005
X007
X0075Y006
X0065
Y004
X0075
X005Y005
X004
X0045Y006
X0035
X0025
X0015
X002Y005
X003
X0025Y004
X0015
X001Y005
X0015Y008
X0025
X0035
X003Y009
X00168Y00926
X00159
Y009445
X00149Y00941
X00136Y0094
X0015Y01
X002Y011
X003
X001
X004
X005
X006
X007
X00694Y0119
X00663Y011712
X00655Y011642
X0065Y01
X0075
X007Y009
X006
X005
X004
X0045Y008
X0055
X0065
X0055Y01
X0082Y00977
X008275Y00971
X0095Y01
X009Y011
X008
X011
X01123Y01096
X0115Y01
X011Y009
X0115Y008
X0105
X0095
X0106Y01165
X01196Y01023
X0125Y01
X0135
X0145
X0155
X015Y011
Y009
X013
X012
X0125Y008
X0135
X013Y011
X01364Y01167
X017Y011
X0175Y01
X01740926Y00909902
X01755Y00878
X01759Y00869
X01722Y00858
Y008445
X01691096Y00845904
X01692096Y00836904
X01689Y00854
X01747Y00831
X01747046Y00812046
X0185Y008
X0195
X019Y009
X0195Y01
X0185
X016Y009
X02
X021
X02224Y00918
X02255
X02248Y009425
X0229Y00924
X02304
X02297Y00917
X02276Y009
X02269Y00879
X02262Y00872
X0225Y008
X0235
X02339Y00906
X02332Y00913
X02325Y00949
X02311Y00971
X0235Y01
X02346Y01038
X0236Y01045
X02367Y01073
X02353Y01079
Y01111
X02346Y01117
X02339Y01111
X02332Y01117
X02325Y01111
X02318Y01117
X02311Y01111
X02304Y01117
X02297Y01111
X0229Y01117
X02283Y01111
X02276Y01117
X02269Y01111
X02262Y01117
X02255Y01111
X02248Y01117
X02241Y01111
Y0106
X02283
X02318Y01055
X02374Y01098
Y01117
X02367Y01111
X0236Y01117
X0215Y01
X0205
X0215Y008
X0245
X0255
X0265
X0275
X027Y009
X026
X025
X024
X0245Y01
X02417096Y01060904
X02396Y01059
X02403Y01071
X02424Y01077
X0241Y01096
X02417Y0111
X02403
X02389
X02396Y01117
X0241
X02424
X02389Y01093
X025Y011
X026
X02659Y01143
X02663Y01159
X02682Y0113
X02696904Y01125096
X02708Y01145
X02710097Y01101905
X02704453Y01096235
X0275Y01
X0265
Y012
X0275
Y014
X027225Y01505
X02716Y01543
X02729Y01556
X026Y013
X0255Y012
X0245Y014
X024Y015
X023
X02174596Y01467596
X02154Y01447
X021Y015
X02069Y01531
X02062Y01539
X02054Y01551
X02076Y01567
X02Y015
X0205Y014
X02049Y01276
X02061
X021Y013
X02099Y01225
X02089Y01235
X0205Y012
X02Y013
X019
X018
X01797Y01321
Y01349
X01779Y01287
X01765096Y01290096
X01750868Y01277868
X01741629Y01279629
X0175Y014
X0185
Y012
X0195
X0165
X01665Y01221
X01629Y0122
X01636353Y01340646
X01642Y01348
X01614Y01413
X016Y014075
X01588Y01456
X016Y015
X015
X01499Y01408
X01511Y01401
X01486Y01395
X01476
X01465096Y01403904
X01456Y01404
X01434Y01382
X01536Y01416
X0155Y01423
X01562Y014295
X01575Y013945
X01302Y01387
X01297793Y01379793
X0125Y014
X01229Y01393
X01234Y01386
X01236Y01312
X01264Y01321
X0115Y014
X01122Y013935
X01126568Y01386432
X0105Y014
X0095
X00941Y01283
X009Y013
X0086Y01295
X00798Y01307
X008Y015
X009
X01Y013
X01019Y01262
X0095Y012
X0075
X00719Y01197
X006285Y012047
X0062Y011962
X0061761Y0121539
X00603Y01213
X0058Y01249
X006Y013
X005
X004
X0045Y014
X005Y015
X006
X007
X0075Y014
X00709Y01303
X0055Y012
X0045
X004Y015
X003
X00239Y01517
Y01562
X002Y015
X001
X0015Y014
X0025
X003Y013
X002
X001
X0015Y012
X0025
X0035
X00351Y01596
X0025Y016
X0015
X002Y019
X003
X004
X006
X007
X0075Y018
X0065
X0055
X006Y017
X007
X0075Y016
X0055
X008Y017
X009
X01
X011
X0115Y018
X0105
X011Y019
X01
X009
X0095Y016
X0105
X0115
X0125
X013Y017
X014
X0145Y018
X0155
X015Y019
X014
X013
X012
X0125Y018
X0135
X012Y017
X0145Y016
X0155
X0165
X0175
X01831Y0164
X01856Y01665
X01869Y01691
Y01716
Y01742
Y01766
X0185Y018
X0175
X0165
X017Y019
X018
X016
X01963Y01968
X01985
X02Y019
X021
X022
X023
X0235Y018
X0225
X0215
X02069Y01772
X02062Y01767
X02003Y01766
Y01742
Y01716
X02Y017
X02003Y01691
Y01665
Y0164
X02062Y01624
X02069Y01607
X02054Y0167
X02076Y01716
X021Y017
X023
X02329Y0167
X02369
X024Y017
X02464Y0167
X02506
X025Y017
X026
X0255Y018
X0245
X025Y019
X024
X027
X027Y01771
X02697Y01754
X0275Y018
Y016
X0255
X0245
Y02
X0255
X0265
X0275
X027Y021
X026
X025
X024
X023
X022
X021
X0205Y02079
X02026
X02015Y0202
X0215Y02
X0225
X0235
X01965Y0202
X0198Y02103
X019Y021
X0185Y02
X0175
X01685Y02043
X01657Y02044
X01505Y0206
X009Y021
X008
X007
X006
X005
X004
X0055Y02
X0065
X0075
X00331Y02048
X00302
X001Y021
T02
X00245Y00336
Y00374
X01633Y00372
X02125Y0018
X01765565Y00424
X01745Y00525
X01633Y00424
X01876Y00629
X01864Y00703
X00184Y00734
Y00661
Y00451
X00217Y00913
X00221Y009932
X01136Y01135
X01226Y01045
X0133Y00941
X01423Y00848
X02608Y0138
X01645Y01331
X01311Y013
X01262Y01443
X0123199Y0147401
X01245Y01492
X0098454Y0126746
X00769Y01212
X00691Y01545
Y01595
X01771Y02041
T04
X01661Y01483
X01759Y01423
X0188745Y013991
X01281Y01456
T07
X00842Y00807
Y00956
Y01208
Y01288
T08
X00823Y0005
X00857
X02085Y0011
X02105
X02125
X004055Y01561
X003705
X003875Y01905
Y01955
X00265
Y01905
X00487Y01923
X00507
X00527
X00439Y01596
T09
X002192Y00111
X002446
X0027
X002954
X003208
X005619Y0009
X005873
X006127
X006381
X006112Y00375
X005858
X005604
X00535
X005096
X004842
X004588
X0262Y003723
Y003469
X026031Y0018
X025777
X025523
X025269
X0262Y003977
Y004231
X0192Y004211
Y004465
Y004719
Y004973
Y005227
Y005481
Y005735
Y005989
X01833Y005899
Y006153
Y006407
Y006661
Y006915
Y007169
Y007423
Y007677
Y007931
X0089Y007931
Y007677
Y007423
Y007169
X011176Y0118745
X01143
X011684
X011938
X012192
X012446
X0127
X012954
X013208
X013462
X013716
X01397
X014224
X014478
X014732
X014986
X01524
X015494
X015748
X016002
X01833Y009201
Y008947
Y008693
Y008439
Y008185
X016002Y0121285
Y0133985
Y0136525
X015748
X015494
X01524
X014986
X014732
X014478
X014224
Y0133985
X01397
X013716
X013462
Y0136525
X013716
X01397
X014478Y0133985
X014732
X014986
X01524
X015494
X015748
Y0121285
X015494
X01524
X014986
X014732
X014478
X014224
X01397
X013716
X013462
X013208
X012954
X0127
X012446
X012192
X011938
Y0133985
X012192
X012446
X0127
Y0136525
X012446
X012192
X011938
X011684
Y0133985
X01143
Y0136525
X011176
Y0133985
Y0121285
X01143
X011684
X0076962Y0126746
X0074422
X0071882
X0069342
X0066802
X0064262
X0061722
X0059182
X0056642
X0054102
X0077Y017484
Y017738
Y017992
Y018246
Y0185
Y018754
Y019008
Y019262
Y019516
Y01977
Y020024
Y020278
Y020532
Y020786
T10
X0008Y003746
X001054
X026446Y0066
X0267
X026954
X001054Y00665
Y006396
X0008
Y00665
Y006904
Y007158
X001054
Y006904
Y006142
X0008
Y004254
X001054
Y004
X0008
Y009019
X001054
Y009273
X0008
Y009527
Y009781
X001054
Y009527
X0041925Y01183
X021987Y0118496
Y0115956
Y0113416
X022241
Y0115956
Y0118496
X026559Y012256
X026813
Y01251
X026559
Y012764
X026813
Y013018
X026559
Y013272
X026813
Y013526
X026559
Y01378
X026813
Y014034
X026559
Y014542
X026813
Y014796
X026559
Y01505
X026813
Y015304
X026559
Y015558
X026813
Y015812
X026559
X022241
Y015558
Y015304
Y01505
Y014796
Y014542
Y014288
Y014034
X021987
Y014288
Y014542
Y014796
Y01505
Y015304
Y015558
Y015812
Y0136276
Y0133736
Y0131196
Y0128656
Y0126116
Y0123576
Y0121036
X022241
Y0123576
Y0126116
Y0128656
Y0131196
Y0133736
Y0136276
X019827Y013737
X019573
Y013991
Y014245
Y014499
Y014753
Y015007
Y015261
Y015515
Y015769
X019827
Y015515
Y015261
Y015007
Y014753
Y014499
Y014245
Y013991
X006677Y0141
X006423
Y013846
X006677
X00419Y01355
Y013296
X0041925Y012592
Y012338
Y012084
X019573Y016023
Y016277
Y016531
Y016785
Y017039
Y017293
Y017547
Y017801
Y018055
Y018309
Y018563
X019827
Y018309
Y018055
Y017801
Y017547
Y017293
Y017039
Y016785
Y016531
Y016277
Y016023
X021987Y016066
X022241
Y01632
X021987
Y016574
X022241
Y016828
X021987
Y017082
X022241
Y017336
X021987
Y01759
X022241
Y017844
X021987
Y018098
X022241
X026559
Y017844
Y01759
Y017336
Y017082
Y016828
Y016574
Y01632
Y016066
X026813
Y01632
Y016574
Y016828
Y017082
Y017336
Y01759
Y017844
Y018098
X018887Y02037
X018633
T13
X001884Y017146
Y017654
Y018416
X003916
Y0174
Y016384
T14
X00444Y02028
X00491
X00538
T15
X009975Y016075
Y019325
X017225
Y016075
T16
X02015Y02107
X02055
T17
X0016Y0005
Y0021
X0038
Y0005
X0049
Y0021
X0071
Y0005
X0097Y0036
X0133
X0194Y0021
Y0005
X0227
X0238
Y0021
X0227
X0257Y0023
X0275Y0016
X0264Y0005
X0259Y0057
X0275
X00765Y00425
X00305
X00305Y01015
X0054102Y01143
X0076962
X00765Y01015
T18
X02615Y01325
X02125
Y01905
X02615
T19
X0007Y0007
X0273
X01399597Y00450232
X0025Y01075
X0255
X014Y0148
X0273Y0208
X0007
T20
X02056Y0034
X02424Y00386
X02424Y00634
X02056Y0068
X0182Y005075
X009
X0035Y01155
X0006
X009Y010025
X0182
X0035Y01395
X0006
M30
