G04*
G04 #@! TF.GenerationSoftware,Altium Limited,Altium Designer,22.8.2 (66)*
G04*
G04 Layer_Color=16711935*
%FSLAX24Y24*%
%MOIN*%
G70*
G04*
G04 #@! TF.SameCoordinates,2E548A5A-C401-4DCA-B4CD-A2B358B3B59E*
G04*
G04*
G04 #@! TF.FilePolarity,Negative*
G04*
G01*
G75*
%ADD32R,0.0438X0.2529*%
%ADD43R,0.0710X0.0710*%
%ADD44C,0.0710*%
%ADD45C,0.0080*%
%ADD46C,0.1261*%
G04:AMPARAMS|DCode=47|XSize=102.5mil|YSize=71mil|CornerRadius=29.2mil|HoleSize=0mil|Usage=FLASHONLY|Rotation=270.000|XOffset=0mil|YOffset=0mil|HoleType=Round|Shape=RoundedRectangle|*
%AMROUNDEDRECTD47*
21,1,0.1025,0.0126,0,0,270.0*
21,1,0.0441,0.0710,0,0,270.0*
1,1,0.0584,-0.0063,-0.0220*
1,1,0.0584,-0.0063,0.0220*
1,1,0.0584,0.0063,0.0220*
1,1,0.0584,0.0063,-0.0220*
%
%ADD47ROUNDEDRECTD47*%
%ADD48O,0.0867X0.1655*%
%ADD49O,0.1655X0.0867*%
%ADD50O,0.1891X0.0867*%
%ADD51C,0.0592*%
%ADD52C,0.0512*%
%ADD53R,0.0433X0.0906*%
%ADD54C,0.0669*%
%ADD55R,0.0669X0.0669*%
%ADD56R,0.0710X0.0710*%
%ADD57R,0.0592X0.0592*%
%ADD58R,0.0669X0.0669*%
%ADD59O,0.0551X0.0630*%
G36*
X11317Y81386D02*
X11304Y81387D01*
X11291Y81389D01*
X11278Y81391D01*
X11265Y81394D01*
X11252Y81398D01*
X11239Y81403D01*
X11227Y81408D01*
X11215Y81414D01*
X11203Y81420D01*
X11191Y81427D01*
X11180Y81435D01*
X11170Y81443D01*
X11159Y81452D01*
X11150Y81461D01*
X11141Y81470D01*
X11132Y81481D01*
X11124Y81491D01*
X11116Y81502D01*
X11109Y81514D01*
X11103Y81526D01*
X11097Y81538D01*
X11092Y81550D01*
X11087Y81563D01*
X11083Y81576D01*
X11080Y81589D01*
X11078Y81602D01*
X11076Y81615D01*
X11075Y81628D01*
X11075Y81642D01*
Y82035D01*
X11075Y82049D01*
X11076Y82062D01*
X11078Y82076D01*
X11080Y82089D01*
X11083Y82102D01*
X11087Y82115D01*
X11092Y82127D01*
X11097Y82139D01*
X11103Y82152D01*
X11109Y82163D01*
X11116Y82175D01*
X11124Y82186D01*
X11132Y82196D01*
X11141Y82207D01*
X11150Y82217D01*
X11159Y82226D01*
X11170Y82234D01*
X11180Y82243D01*
X11191Y82250D01*
X11203Y82257D01*
X11215Y82263D01*
X11227Y82269D01*
X11239Y82274D01*
X11252Y82279D01*
X11265Y82283D01*
X11278Y82286D01*
X11291Y82288D01*
X11304Y82290D01*
X11317Y82291D01*
X11331Y82291D01*
X11344Y82291D01*
X11357Y82290D01*
X11371Y82288D01*
X11384Y82286D01*
X11397Y82283D01*
X11410Y82279D01*
X11422Y82274D01*
X11435Y82269D01*
X11447Y82263D01*
X11459Y82257D01*
X11470Y82250D01*
X11481Y82243D01*
X11492Y82234D01*
X11502Y82226D01*
X11512Y82217D01*
X11521Y82207D01*
X11530Y82196D01*
X11538Y82186D01*
X11545Y82175D01*
X11552Y82163D01*
X11559Y82152D01*
X11565Y82139D01*
X11570Y82127D01*
X11574Y82115D01*
X11578Y82102D01*
X11581Y82089D01*
X11583Y82076D01*
X11585Y82062D01*
X11586Y82049D01*
X11587Y82035D01*
Y81642D01*
X11586Y81628D01*
X11585Y81615D01*
X11583Y81602D01*
X11581Y81589D01*
X11578Y81576D01*
X11574Y81563D01*
X11570Y81550D01*
X11565Y81538D01*
X11559Y81526D01*
X11552Y81514D01*
X11545Y81502D01*
X11538Y81491D01*
X11530Y81481D01*
X11521Y81470D01*
X11512Y81461D01*
X11502Y81452D01*
X11492Y81443D01*
X11481Y81435D01*
X11470Y81427D01*
X11459Y81420D01*
X11447Y81414D01*
X11435Y81408D01*
X11422Y81403D01*
X11410Y81398D01*
X11397Y81394D01*
X11384Y81391D01*
X11371Y81389D01*
X11357Y81387D01*
X11344Y81386D01*
X11331Y81386D01*
X11317Y81386D01*
D02*
G37*
G36*
Y83418D02*
X11304Y83420D01*
X11290Y83422D01*
X11276Y83425D01*
X11263Y83429D01*
X11250Y83433D01*
X11237Y83438D01*
X11224Y83444D01*
X11212Y83450D01*
X11200Y83457D01*
X11188Y83465D01*
X11177Y83474D01*
X11166Y83482D01*
X11156Y83492D01*
X11146Y83502D01*
X11137Y83512D01*
X11128Y83523D01*
X11120Y83534D01*
X11113Y83546D01*
X11106Y83558D01*
X11100Y83571D01*
X11094Y83583D01*
X11089Y83596D01*
X11085Y83610D01*
X11082Y83623D01*
X11079Y83637D01*
X11077Y83651D01*
X11075Y83665D01*
X11075Y83678D01*
Y83693D01*
Y84205D01*
Y84219D01*
X11075Y84233D01*
X11077Y84247D01*
X11079Y84261D01*
X11082Y84274D01*
X11085Y84288D01*
X11089Y84301D01*
X11094Y84314D01*
X11100Y84327D01*
X11106Y84339D01*
X11113Y84352D01*
X11120Y84363D01*
X11128Y84375D01*
X11137Y84385D01*
X11146Y84396D01*
X11156Y84406D01*
X11166Y84415D01*
X11177Y84424D01*
X11188Y84432D01*
X11200Y84440D01*
X11212Y84447D01*
X11224Y84454D01*
X11237Y84459D01*
X11250Y84465D01*
X11263Y84469D01*
X11276Y84472D01*
X11290Y84476D01*
X11304Y84478D01*
X11317Y84480D01*
X11331Y84480D01*
X11344Y84480D01*
X11358Y84478D01*
X11372Y84476D01*
X11385Y84472D01*
X11398Y84469D01*
X11412Y84465D01*
X11425Y84459D01*
X11437Y84454D01*
X11450Y84447D01*
X11462Y84440D01*
X11473Y84432D01*
X11485Y84424D01*
X11495Y84415D01*
X11506Y84406D01*
X11515Y84396D01*
X11524Y84385D01*
X11533Y84375D01*
X11541Y84363D01*
X11549Y84352D01*
X11556Y84339D01*
X11562Y84327D01*
X11567Y84314D01*
X11572Y84301D01*
X11576Y84288D01*
X11580Y84274D01*
X11583Y84261D01*
X11585Y84247D01*
X11586Y84233D01*
X11587Y84219D01*
Y84205D01*
Y83693D01*
Y83678D01*
X11586Y83665D01*
X11585Y83651D01*
X11583Y83637D01*
X11580Y83623D01*
X11576Y83610D01*
X11572Y83596D01*
X11567Y83583D01*
X11562Y83571D01*
X11556Y83558D01*
X11549Y83546D01*
X11541Y83534D01*
X11533Y83523D01*
X11524Y83512D01*
X11515Y83502D01*
X11506Y83492D01*
X11495Y83482D01*
X11485Y83474D01*
X11473Y83465D01*
X11462Y83457D01*
X11450Y83450D01*
X11437Y83444D01*
X11425Y83438D01*
X11412Y83433D01*
X11398Y83429D01*
X11385Y83425D01*
X11372Y83422D01*
X11358Y83420D01*
X11344Y83418D01*
X11331Y83417D01*
X11317Y83418D01*
D02*
G37*
G36*
X14719Y81386D02*
X14706Y81387D01*
X14692Y81389D01*
X14679Y81391D01*
X14666Y81394D01*
X14653Y81398D01*
X14641Y81403D01*
X14628Y81408D01*
X14616Y81414D01*
X14604Y81420D01*
X14593Y81427D01*
X14582Y81435D01*
X14571Y81443D01*
X14561Y81452D01*
X14551Y81461D01*
X14542Y81470D01*
X14533Y81481D01*
X14525Y81491D01*
X14518Y81502D01*
X14511Y81514D01*
X14504Y81526D01*
X14498Y81538D01*
X14493Y81550D01*
X14489Y81563D01*
X14485Y81576D01*
X14482Y81589D01*
X14480Y81602D01*
X14478Y81615D01*
X14477Y81628D01*
X14476Y81642D01*
Y82035D01*
X14477Y82049D01*
X14478Y82062D01*
X14480Y82076D01*
X14482Y82089D01*
X14485Y82102D01*
X14489Y82115D01*
X14493Y82127D01*
X14498Y82139D01*
X14504Y82152D01*
X14511Y82163D01*
X14518Y82175D01*
X14525Y82186D01*
X14533Y82196D01*
X14542Y82207D01*
X14551Y82217D01*
X14561Y82226D01*
X14571Y82234D01*
X14582Y82243D01*
X14593Y82250D01*
X14604Y82257D01*
X14616Y82263D01*
X14628Y82269D01*
X14641Y82274D01*
X14653Y82279D01*
X14666Y82283D01*
X14679Y82286D01*
X14692Y82288D01*
X14706Y82290D01*
X14719Y82291D01*
X14732Y82291D01*
X14746D01*
X14759Y82291D01*
X14772Y82290D01*
X14785Y82288D01*
X14798Y82285D01*
X14810Y82282D01*
X14822Y82278D01*
X14834Y82274D01*
X14846Y82268D01*
X14858Y82263D01*
X14869Y82256D01*
X14880Y82250D01*
X14890Y82242D01*
X14900Y82234D01*
X14910Y82225D01*
X14919Y82217D01*
X14928Y82207D01*
X14936Y82197D01*
X14944Y82187D01*
X14951Y82176D01*
X14957Y82165D01*
X14963Y82153D01*
X14969Y82141D01*
X14974Y82130D01*
X14978Y82117D01*
X14981Y82105D01*
X14984Y82092D01*
X14986Y82080D01*
X14987Y82067D01*
X14988Y82055D01*
Y81661D01*
Y81647D01*
X14988Y81633D01*
X14986Y81619D01*
X14984Y81606D01*
X14981Y81592D01*
X14978Y81578D01*
X14974Y81565D01*
X14969Y81552D01*
X14963Y81539D01*
X14957Y81527D01*
X14950Y81515D01*
X14943Y81503D01*
X14935Y81491D01*
X14926Y81481D01*
X14917Y81470D01*
X14907Y81460D01*
X14897Y81451D01*
X14886Y81442D01*
X14875Y81434D01*
X14863Y81426D01*
X14851Y81419D01*
X14839Y81413D01*
X14826Y81407D01*
X14813Y81402D01*
X14800Y81397D01*
X14787Y81394D01*
X14773Y81391D01*
X14759Y81388D01*
X14746Y81387D01*
X14732Y81386D01*
X14719Y81386D01*
D02*
G37*
G36*
Y83398D02*
X14705Y83400D01*
X14691Y83402D01*
X14678Y83406D01*
X14665Y83409D01*
X14651Y83413D01*
X14638Y83419D01*
X14626Y83424D01*
X14613Y83431D01*
X14601Y83438D01*
X14590Y83446D01*
X14578Y83454D01*
X14568Y83463D01*
X14557Y83472D01*
X14548Y83482D01*
X14539Y83493D01*
X14530Y83503D01*
X14522Y83515D01*
X14514Y83526D01*
X14507Y83539D01*
X14501Y83551D01*
X14496Y83564D01*
X14491Y83577D01*
X14487Y83590D01*
X14483Y83604D01*
X14480Y83617D01*
X14478Y83631D01*
X14477Y83645D01*
X14476Y83659D01*
Y83673D01*
Y84224D01*
Y84239D01*
X14477Y84253D01*
X14478Y84267D01*
X14480Y84280D01*
X14483Y84294D01*
X14487Y84307D01*
X14491Y84321D01*
X14496Y84334D01*
X14501Y84346D01*
X14507Y84359D01*
X14514Y84371D01*
X14522Y84383D01*
X14530Y84394D01*
X14539Y84405D01*
X14548Y84416D01*
X14557Y84426D01*
X14568Y84435D01*
X14578Y84444D01*
X14590Y84452D01*
X14601Y84460D01*
X14613Y84467D01*
X14626Y84473D01*
X14638Y84479D01*
X14651Y84484D01*
X14665Y84489D01*
X14678Y84492D01*
X14691Y84495D01*
X14705Y84498D01*
X14719Y84499D01*
X14732Y84500D01*
X14746Y84499D01*
X14759Y84498D01*
X14773Y84495D01*
X14787Y84492D01*
X14800Y84489D01*
X14813Y84484D01*
X14826Y84479D01*
X14839Y84473D01*
X14851Y84467D01*
X14863Y84460D01*
X14875Y84452D01*
X14886Y84444D01*
X14897Y84435D01*
X14907Y84426D01*
X14917Y84416D01*
X14926Y84405D01*
X14935Y84394D01*
X14943Y84383D01*
X14950Y84371D01*
X14957Y84359D01*
X14963Y84346D01*
X14969Y84334D01*
X14974Y84321D01*
X14978Y84307D01*
X14981Y84294D01*
X14984Y84280D01*
X14986Y84267D01*
X14988Y84253D01*
X14988Y84239D01*
Y84224D01*
Y83673D01*
Y83659D01*
X14988Y83645D01*
X14986Y83631D01*
X14984Y83617D01*
X14981Y83604D01*
X14978Y83590D01*
X14974Y83577D01*
X14969Y83564D01*
X14963Y83551D01*
X14957Y83539D01*
X14950Y83526D01*
X14943Y83515D01*
X14935Y83503D01*
X14926Y83493D01*
X14917Y83482D01*
X14907Y83472D01*
X14897Y83463D01*
X14886Y83454D01*
X14875Y83446D01*
X14863Y83438D01*
X14851Y83431D01*
X14839Y83424D01*
X14826Y83419D01*
X14813Y83413D01*
X14800Y83409D01*
X14787Y83406D01*
X14773Y83402D01*
X14759Y83400D01*
X14746Y83398D01*
X14732Y83398D01*
X14719Y83398D01*
D02*
G37*
D32*
X39732Y83421D02*
D03*
X40232D02*
D03*
X40732D02*
D03*
X41232D02*
D03*
X41732D02*
D03*
X42232D02*
D03*
X42732D02*
D03*
X43232D02*
D03*
X43732D02*
D03*
X44232D02*
D03*
X44732D02*
D03*
X46232D02*
D03*
X46732D02*
D03*
X47232D02*
D03*
X47732D02*
D03*
X48232D02*
D03*
X48732D02*
D03*
X49232D02*
D03*
X49732D02*
D03*
X50232D02*
D03*
X50732D02*
D03*
X51232D02*
D03*
X51732D02*
D03*
X52232D02*
D03*
X52732D02*
D03*
X53232D02*
D03*
X53732D02*
D03*
X54232D02*
D03*
X54732D02*
D03*
X55232D02*
D03*
X55732D02*
D03*
X56232D02*
D03*
X56732D02*
D03*
X57232D02*
D03*
X57732D02*
D03*
X58232D02*
D03*
X58732D02*
D03*
X59232D02*
D03*
X59732D02*
D03*
X60232D02*
D03*
X60732D02*
D03*
X61232D02*
D03*
X61732D02*
D03*
X62232D02*
D03*
X62732D02*
D03*
X63232D02*
D03*
X63732D02*
D03*
X65232D02*
D03*
X65732D02*
D03*
X66232D02*
D03*
X66732D02*
D03*
X67232D02*
D03*
X67732D02*
D03*
X68232D02*
D03*
X68732D02*
D03*
X69232D02*
D03*
X69732D02*
D03*
X70232D02*
D03*
D43*
X105563Y48252D02*
D03*
Y57252D02*
D03*
X87563Y55252D02*
D03*
Y44652D02*
D03*
X3150Y28181D02*
D03*
Y38508D02*
D03*
Y16748D02*
D03*
X74358Y80197D02*
D03*
X104118Y25984D02*
D03*
X26287Y54512D02*
D03*
D44*
X104563Y48252D02*
D03*
X105563Y49252D02*
D03*
X104563D02*
D03*
X105563Y50252D02*
D03*
X104563D02*
D03*
X105563Y51252D02*
D03*
X104563D02*
D03*
X105563Y52252D02*
D03*
X104563D02*
D03*
X105563Y53252D02*
D03*
X104563D02*
D03*
X105563Y54252D02*
D03*
X104563D02*
D03*
X105563Y55252D02*
D03*
X104563D02*
D03*
Y57252D02*
D03*
X105563Y58252D02*
D03*
X104563D02*
D03*
X105563Y59252D02*
D03*
X104563D02*
D03*
X105563Y60252D02*
D03*
X104563D02*
D03*
X105563Y61252D02*
D03*
X104563D02*
D03*
X105563Y62252D02*
D03*
X104563D02*
D03*
X105563Y63252D02*
D03*
X104563D02*
D03*
X105563Y64252D02*
D03*
X104563D02*
D03*
X105563Y65252D02*
D03*
X104563D02*
D03*
X105563Y66252D02*
D03*
X104563D02*
D03*
X105563Y67252D02*
D03*
X104563D02*
D03*
X105563Y68252D02*
D03*
X104563D02*
D03*
X105563Y69252D02*
D03*
X104563D02*
D03*
X105563Y70252D02*
D03*
X104563D02*
D03*
X105563Y71252D02*
D03*
X104563D02*
D03*
X86563Y55252D02*
D03*
X87563Y56252D02*
D03*
X86563D02*
D03*
X87563Y57252D02*
D03*
X86563D02*
D03*
X87563Y58252D02*
D03*
X86563D02*
D03*
X87563Y59252D02*
D03*
X86563D02*
D03*
X87563Y60252D02*
D03*
X86563D02*
D03*
X87563Y61252D02*
D03*
X86563D02*
D03*
X87563Y62252D02*
D03*
X86563D02*
D03*
X87563Y63252D02*
D03*
X86563D02*
D03*
X87563Y64252D02*
D03*
X86563D02*
D03*
X87563Y65252D02*
D03*
X86563D02*
D03*
X87563Y66252D02*
D03*
X86563D02*
D03*
X87563Y67252D02*
D03*
X86563D02*
D03*
X87563Y68252D02*
D03*
X86563D02*
D03*
X87563Y69252D02*
D03*
X86563D02*
D03*
X87563Y70252D02*
D03*
X86563D02*
D03*
X87563Y71252D02*
D03*
X86563D02*
D03*
Y44652D02*
D03*
X87563Y45652D02*
D03*
X86563D02*
D03*
X87563Y46652D02*
D03*
X86563D02*
D03*
X87563Y47652D02*
D03*
X86563D02*
D03*
X87563Y48652D02*
D03*
X86563D02*
D03*
X87563Y49652D02*
D03*
X86563D02*
D03*
X87563Y50652D02*
D03*
X86563D02*
D03*
X87563Y51652D02*
D03*
X86563D02*
D03*
X87563Y52652D02*
D03*
X86563D02*
D03*
X87563Y53652D02*
D03*
X86563D02*
D03*
X3150Y25181D02*
D03*
X4150D02*
D03*
Y28181D02*
D03*
Y27181D02*
D03*
X3150D02*
D03*
X4150Y26181D02*
D03*
X3150D02*
D03*
Y24181D02*
D03*
X4150D02*
D03*
Y35508D02*
D03*
X3150D02*
D03*
Y37508D02*
D03*
Y36508D02*
D03*
X4150Y38508D02*
D03*
Y36508D02*
D03*
Y37508D02*
D03*
Y15748D02*
D03*
Y16748D02*
D03*
X3150Y15748D02*
D03*
Y14748D02*
D03*
X4150D02*
D03*
X63000Y52750D02*
D03*
Y53750D02*
D03*
X56000D02*
D03*
Y52750D02*
D03*
X53000D02*
D03*
X54000D02*
D03*
Y53750D02*
D03*
X55000Y52750D02*
D03*
Y53750D02*
D03*
X57000D02*
D03*
Y52750D02*
D03*
X58000Y53750D02*
D03*
Y52750D02*
D03*
X59000Y53750D02*
D03*
Y52750D02*
D03*
X60000Y53750D02*
D03*
Y52750D02*
D03*
X61000Y53750D02*
D03*
Y52750D02*
D03*
X62000Y53750D02*
D03*
Y52750D02*
D03*
X50000D02*
D03*
Y53750D02*
D03*
X49000Y52750D02*
D03*
Y53750D02*
D03*
X48000Y52750D02*
D03*
Y53750D02*
D03*
X46000D02*
D03*
Y52750D02*
D03*
X45000Y53750D02*
D03*
Y52750D02*
D03*
X44000D02*
D03*
X47000D02*
D03*
Y53750D02*
D03*
X63000Y46750D02*
D03*
Y47750D02*
D03*
X62000Y46750D02*
D03*
Y47750D02*
D03*
X61000Y46750D02*
D03*
Y47750D02*
D03*
X60000Y46750D02*
D03*
Y47750D02*
D03*
X59000Y46750D02*
D03*
Y47750D02*
D03*
X58000Y46750D02*
D03*
Y47750D02*
D03*
X57000Y46750D02*
D03*
Y47750D02*
D03*
X56000Y46750D02*
D03*
Y47750D02*
D03*
X55000Y46750D02*
D03*
Y47750D02*
D03*
X54000Y46750D02*
D03*
Y47750D02*
D03*
X53000Y46750D02*
D03*
Y47750D02*
D03*
X52000Y46750D02*
D03*
Y47750D02*
D03*
X51000Y46750D02*
D03*
Y47750D02*
D03*
X50000Y46750D02*
D03*
Y47750D02*
D03*
X49000Y46750D02*
D03*
Y47750D02*
D03*
X48000Y46750D02*
D03*
Y47750D02*
D03*
X46000D02*
D03*
Y46750D02*
D03*
X45000Y47750D02*
D03*
Y46750D02*
D03*
X44000D02*
D03*
X47000D02*
D03*
Y47750D02*
D03*
X16496Y52346D02*
D03*
X73358Y80197D02*
D03*
X105118Y25984D02*
D03*
X106118D02*
D03*
X26287Y55512D02*
D03*
X25287D02*
D03*
Y54512D02*
D03*
X16506Y47575D02*
D03*
Y48575D02*
D03*
Y49575D02*
D03*
D45*
X79331Y82953D02*
D03*
X80906D02*
D03*
D46*
X19331Y79843D02*
D03*
X21181D02*
D03*
X17480D02*
D03*
X15417Y64504D02*
D03*
Y68504D02*
D03*
X7417Y67504D02*
D03*
Y69504D02*
D03*
X15417Y72504D02*
D03*
X7417D02*
D03*
D47*
X16732Y83593D02*
D03*
X21929D02*
D03*
D48*
X6024Y81181D02*
D03*
D49*
X7913Y82362D02*
D03*
D50*
Y80000D02*
D03*
D51*
X15256Y76968D02*
D03*
Y75000D02*
D03*
X83661Y4331D02*
D03*
X82874D02*
D03*
X14587Y61457D02*
D03*
X15965D02*
D03*
X10433Y75000D02*
D03*
Y76968D02*
D03*
D52*
X19173Y75709D02*
D03*
X19961D02*
D03*
X20748D02*
D03*
D53*
X18287D02*
D03*
X21634D02*
D03*
D54*
X12630Y4370D02*
D03*
X11630D02*
D03*
X9630D02*
D03*
X10630D02*
D03*
X77059Y54083D02*
D03*
Y55083D02*
D03*
Y56083D02*
D03*
Y57083D02*
D03*
Y58083D02*
D03*
Y59083D02*
D03*
Y60083D02*
D03*
Y61083D02*
D03*
Y62083D02*
D03*
Y63083D02*
D03*
Y64083D02*
D03*
Y65083D02*
D03*
Y66083D02*
D03*
Y67083D02*
D03*
Y68083D02*
D03*
Y69083D02*
D03*
Y70083D02*
D03*
Y71083D02*
D03*
Y72083D02*
D03*
Y73083D02*
D03*
X78059D02*
D03*
Y72083D02*
D03*
Y71083D02*
D03*
Y70083D02*
D03*
Y69083D02*
D03*
Y68083D02*
D03*
Y67083D02*
D03*
Y66083D02*
D03*
Y65083D02*
D03*
Y64083D02*
D03*
Y63083D02*
D03*
Y62083D02*
D03*
Y61083D02*
D03*
Y60083D02*
D03*
Y59083D02*
D03*
Y58083D02*
D03*
Y57083D02*
D03*
Y56083D02*
D03*
Y55083D02*
D03*
X30315Y72835D02*
D03*
Y73835D02*
D03*
Y74835D02*
D03*
Y75835D02*
D03*
Y76835D02*
D03*
Y77835D02*
D03*
Y78835D02*
D03*
Y80835D02*
D03*
Y79835D02*
D03*
Y71835D02*
D03*
Y70835D02*
D03*
Y69835D02*
D03*
Y68835D02*
D03*
X35039Y31224D02*
D03*
Y30224D02*
D03*
Y29224D02*
D03*
X72165Y32224D02*
D03*
Y31224D02*
D03*
Y30224D02*
D03*
Y29224D02*
D03*
Y28224D02*
D03*
Y27224D02*
D03*
Y26224D02*
D03*
Y24224D02*
D03*
Y25224D02*
D03*
Y33224D02*
D03*
Y34224D02*
D03*
Y35224D02*
D03*
Y36224D02*
D03*
X103150Y16657D02*
D03*
Y15657D02*
D03*
Y14657D02*
D03*
X102484Y7087D02*
D03*
X101484D02*
D03*
X100484D02*
D03*
X22122Y3543D02*
D03*
X23122D02*
D03*
X24122D02*
D03*
X75591Y18579D02*
D03*
Y19579D02*
D03*
Y20579D02*
D03*
Y22579D02*
D03*
Y21579D02*
D03*
Y17579D02*
D03*
Y16579D02*
D03*
X20063Y14764D02*
D03*
X19063D02*
D03*
X21063D02*
D03*
X22063D02*
D03*
X23063D02*
D03*
X24063D02*
D03*
X23300Y49900D02*
D03*
X22300D02*
D03*
X24300D02*
D03*
X25300D02*
D03*
X26300D02*
D03*
X27300D02*
D03*
X28300D02*
D03*
X29300D02*
D03*
X30300D02*
D03*
D55*
X8630Y4370D02*
D03*
X78059Y54083D02*
D03*
X99484Y7087D02*
D03*
X25122Y3543D02*
D03*
X18063Y14764D02*
D03*
X21300Y49900D02*
D03*
D56*
X53000Y53750D02*
D03*
X44000D02*
D03*
Y47750D02*
D03*
X16496Y53346D02*
D03*
X16506Y46575D02*
D03*
D57*
X82087Y4331D02*
D03*
D58*
X30315Y81835D02*
D03*
X35039Y28224D02*
D03*
X72165Y23224D02*
D03*
X103150Y13657D02*
D03*
X75591Y23579D02*
D03*
D59*
X33740Y1969D02*
D03*
X32402D02*
D03*
M02*
