G04*
G04 #@! TF.GenerationSoftware,Altium Limited,Altium Designer,22.6.1 (34)*
G04*
G04 Layer_Color=16711935*
%FSLAX24Y24*%
%MOIN*%
G70*
G04*
G04 #@! TF.SameCoordinates,E1D52860-6489-4A1D-BE11-D1A6212AA477*
G04*
G04*
G04 #@! TF.FilePolarity,Negative*
G04*
G01*
G75*
%ADD24C,0.0080*%
%ADD25C,0.0749*%
%ADD26R,0.0749X0.0749*%
%ADD33R,0.0592X0.0434*%
D24*
X19291Y56496D02*
D03*
X58268D02*
D03*
X44488D02*
D03*
X58268Y42323D02*
D03*
X44488D02*
D03*
X38780Y59449D02*
D03*
Y63583D02*
D03*
X58268Y28150D02*
D03*
X44488D02*
D03*
Y13976D02*
D03*
X58268D02*
D03*
X38780Y11024D02*
D03*
Y6890D02*
D03*
X19291Y13976D02*
D03*
X33071D02*
D03*
X38780Y16929D02*
D03*
Y21063D02*
D03*
Y25197D02*
D03*
X19291Y28150D02*
D03*
X33071D02*
D03*
X38780Y31102D02*
D03*
Y35236D02*
D03*
Y39370D02*
D03*
Y53543D02*
D03*
Y49409D02*
D03*
Y45276D02*
D03*
X33071Y42323D02*
D03*
X19291D02*
D03*
X33071Y56496D02*
D03*
D25*
X67724Y32539D02*
D03*
Y31539D02*
D03*
X66724Y32539D02*
D03*
Y31539D02*
D03*
X65724Y32539D02*
D03*
Y31539D02*
D03*
X64724Y32539D02*
D03*
Y31539D02*
D03*
X63724Y32539D02*
D03*
Y31539D02*
D03*
X62724Y32539D02*
D03*
Y31539D02*
D03*
X61724Y32539D02*
D03*
Y31539D02*
D03*
X60724Y32539D02*
D03*
Y31539D02*
D03*
X59724Y32539D02*
D03*
Y31539D02*
D03*
X58724Y32539D02*
D03*
Y31539D02*
D03*
X57724Y32539D02*
D03*
Y31539D02*
D03*
X56724Y32539D02*
D03*
Y31539D02*
D03*
X55724Y32539D02*
D03*
Y31539D02*
D03*
X54724Y32539D02*
D03*
Y31539D02*
D03*
X53724Y32539D02*
D03*
Y31539D02*
D03*
X52724Y32539D02*
D03*
Y31539D02*
D03*
X50724D02*
D03*
Y32539D02*
D03*
X49724Y31539D02*
D03*
Y32539D02*
D03*
X48724D02*
D03*
X51724D02*
D03*
Y31539D02*
D03*
X12748Y17366D02*
D03*
Y18366D02*
D03*
X9748D02*
D03*
X10748D02*
D03*
Y17366D02*
D03*
X11748Y18366D02*
D03*
Y17366D02*
D03*
X13748D02*
D03*
Y18366D02*
D03*
X14748Y17366D02*
D03*
Y18366D02*
D03*
X15748Y17366D02*
D03*
Y18366D02*
D03*
X16748Y17366D02*
D03*
Y18366D02*
D03*
X17748Y17366D02*
D03*
Y18366D02*
D03*
X18748Y17366D02*
D03*
Y18366D02*
D03*
X19748Y17366D02*
D03*
Y18366D02*
D03*
X20748Y17366D02*
D03*
Y18366D02*
D03*
X21748Y17366D02*
D03*
Y18366D02*
D03*
X22748Y17366D02*
D03*
Y18366D02*
D03*
X23748Y17366D02*
D03*
Y18366D02*
D03*
X24748Y17366D02*
D03*
Y18366D02*
D03*
X25748Y17366D02*
D03*
Y18366D02*
D03*
X26748Y17366D02*
D03*
Y18366D02*
D03*
X27748Y17366D02*
D03*
Y18366D02*
D03*
X28748Y17366D02*
D03*
Y18366D02*
D03*
X67724Y4193D02*
D03*
Y3193D02*
D03*
X66724Y4193D02*
D03*
Y3193D02*
D03*
X65724Y4193D02*
D03*
Y3193D02*
D03*
X64724Y4193D02*
D03*
Y3193D02*
D03*
X63724Y4193D02*
D03*
Y3193D02*
D03*
X62724Y4193D02*
D03*
Y3193D02*
D03*
X61724Y4193D02*
D03*
Y3193D02*
D03*
X60724Y4193D02*
D03*
Y3193D02*
D03*
X59724Y4193D02*
D03*
Y3193D02*
D03*
X58724Y4193D02*
D03*
Y3193D02*
D03*
X57724Y4193D02*
D03*
Y3193D02*
D03*
X56724Y4193D02*
D03*
Y3193D02*
D03*
X55724Y4193D02*
D03*
Y3193D02*
D03*
X54724Y4193D02*
D03*
Y3193D02*
D03*
X53724Y4193D02*
D03*
Y3193D02*
D03*
X52724Y4193D02*
D03*
Y3193D02*
D03*
X50724D02*
D03*
Y4193D02*
D03*
X49724Y3193D02*
D03*
Y4193D02*
D03*
X48724D02*
D03*
X51724D02*
D03*
Y3193D02*
D03*
X61724Y9193D02*
D03*
Y10193D02*
D03*
X58724D02*
D03*
X59724D02*
D03*
Y9193D02*
D03*
X60724Y10193D02*
D03*
Y9193D02*
D03*
X62724D02*
D03*
Y10193D02*
D03*
X63724Y9193D02*
D03*
Y10193D02*
D03*
X64724Y9193D02*
D03*
Y10193D02*
D03*
X65724Y9193D02*
D03*
Y10193D02*
D03*
X66724Y9193D02*
D03*
Y10193D02*
D03*
X67724Y9193D02*
D03*
Y10193D02*
D03*
X53724D02*
D03*
Y9193D02*
D03*
X52724Y10193D02*
D03*
Y9193D02*
D03*
X50724D02*
D03*
Y10193D02*
D03*
X49724Y9193D02*
D03*
Y10193D02*
D03*
X48724D02*
D03*
X51724D02*
D03*
Y9193D02*
D03*
X54724D02*
D03*
Y10193D02*
D03*
X55724Y9193D02*
D03*
Y10193D02*
D03*
X67724Y18366D02*
D03*
Y17366D02*
D03*
X66724Y18366D02*
D03*
Y17366D02*
D03*
X65724Y18366D02*
D03*
Y17366D02*
D03*
X64724Y18366D02*
D03*
Y17366D02*
D03*
X63724Y18366D02*
D03*
Y17366D02*
D03*
X62724Y18366D02*
D03*
Y17366D02*
D03*
X61724Y18366D02*
D03*
Y17366D02*
D03*
X60724Y18366D02*
D03*
Y17366D02*
D03*
X59724Y18366D02*
D03*
Y17366D02*
D03*
X58724Y18366D02*
D03*
Y17366D02*
D03*
X57724Y18366D02*
D03*
Y17366D02*
D03*
X56724Y18366D02*
D03*
Y17366D02*
D03*
X55724Y18366D02*
D03*
Y17366D02*
D03*
X54724Y18366D02*
D03*
Y17366D02*
D03*
X53724Y18366D02*
D03*
Y17366D02*
D03*
X52724Y18366D02*
D03*
Y17366D02*
D03*
X50724D02*
D03*
Y18366D02*
D03*
X49724Y17366D02*
D03*
Y18366D02*
D03*
X48724D02*
D03*
X51724D02*
D03*
Y17366D02*
D03*
X61724Y23366D02*
D03*
Y24366D02*
D03*
X58724D02*
D03*
X59724D02*
D03*
Y23366D02*
D03*
X60724Y24366D02*
D03*
Y23366D02*
D03*
X62724D02*
D03*
Y24366D02*
D03*
X63724Y23366D02*
D03*
Y24366D02*
D03*
X64724Y23366D02*
D03*
Y24366D02*
D03*
X65724Y23366D02*
D03*
Y24366D02*
D03*
X66724Y23366D02*
D03*
Y24366D02*
D03*
X67724Y23366D02*
D03*
Y24366D02*
D03*
X53724D02*
D03*
Y23366D02*
D03*
X52724Y24366D02*
D03*
Y23366D02*
D03*
X50724D02*
D03*
Y24366D02*
D03*
X49724Y23366D02*
D03*
Y24366D02*
D03*
X48724D02*
D03*
X51724D02*
D03*
Y23366D02*
D03*
X54724D02*
D03*
Y24366D02*
D03*
X55724Y23366D02*
D03*
Y24366D02*
D03*
X61724Y37539D02*
D03*
Y38539D02*
D03*
X58724D02*
D03*
X59724D02*
D03*
Y37539D02*
D03*
X60724Y38539D02*
D03*
Y37539D02*
D03*
X62724D02*
D03*
Y38539D02*
D03*
X63724Y37539D02*
D03*
Y38539D02*
D03*
X64724Y37539D02*
D03*
Y38539D02*
D03*
X65724Y37539D02*
D03*
Y38539D02*
D03*
X66724Y37539D02*
D03*
Y38539D02*
D03*
X67724Y37539D02*
D03*
Y38539D02*
D03*
X53724D02*
D03*
Y37539D02*
D03*
X52724Y38539D02*
D03*
Y37539D02*
D03*
X50724D02*
D03*
Y38539D02*
D03*
X49724Y37539D02*
D03*
Y38539D02*
D03*
X48724D02*
D03*
X51724D02*
D03*
Y37539D02*
D03*
X54724D02*
D03*
Y38539D02*
D03*
X55724Y37539D02*
D03*
Y38539D02*
D03*
X67724Y46713D02*
D03*
Y45713D02*
D03*
X66724Y46713D02*
D03*
Y45713D02*
D03*
X65724Y46713D02*
D03*
Y45713D02*
D03*
X64724Y46713D02*
D03*
Y45713D02*
D03*
X63724Y46713D02*
D03*
Y45713D02*
D03*
X62724Y46713D02*
D03*
Y45713D02*
D03*
X61724Y46713D02*
D03*
Y45713D02*
D03*
X60724Y46713D02*
D03*
Y45713D02*
D03*
X59724Y46713D02*
D03*
Y45713D02*
D03*
X58724Y46713D02*
D03*
Y45713D02*
D03*
X57724Y46713D02*
D03*
Y45713D02*
D03*
X56724Y46713D02*
D03*
Y45713D02*
D03*
X55724Y46713D02*
D03*
Y45713D02*
D03*
X54724Y46713D02*
D03*
Y45713D02*
D03*
X53724Y46713D02*
D03*
Y45713D02*
D03*
X52724Y46713D02*
D03*
Y45713D02*
D03*
X50724D02*
D03*
Y46713D02*
D03*
X49724Y45713D02*
D03*
Y46713D02*
D03*
X48724D02*
D03*
X51724D02*
D03*
Y45713D02*
D03*
X61724Y51713D02*
D03*
Y52713D02*
D03*
X58724D02*
D03*
X59724D02*
D03*
Y51713D02*
D03*
X60724Y52713D02*
D03*
Y51713D02*
D03*
X62724D02*
D03*
Y52713D02*
D03*
X63724Y51713D02*
D03*
Y52713D02*
D03*
X64724Y51713D02*
D03*
Y52713D02*
D03*
X65724Y51713D02*
D03*
Y52713D02*
D03*
X66724Y51713D02*
D03*
Y52713D02*
D03*
X67724Y51713D02*
D03*
Y52713D02*
D03*
X53724D02*
D03*
Y51713D02*
D03*
X52724Y52713D02*
D03*
Y51713D02*
D03*
X50724D02*
D03*
Y52713D02*
D03*
X49724Y51713D02*
D03*
Y52713D02*
D03*
X48724D02*
D03*
X51724D02*
D03*
Y51713D02*
D03*
X54724D02*
D03*
Y52713D02*
D03*
X55724Y51713D02*
D03*
Y52713D02*
D03*
X22748Y65886D02*
D03*
Y66886D02*
D03*
X19748D02*
D03*
X20748D02*
D03*
Y65886D02*
D03*
X21748Y66886D02*
D03*
Y65886D02*
D03*
X23748D02*
D03*
Y66886D02*
D03*
X24748Y65886D02*
D03*
Y66886D02*
D03*
X25748Y65886D02*
D03*
Y66886D02*
D03*
X26748Y65886D02*
D03*
Y66886D02*
D03*
X27748Y65886D02*
D03*
Y66886D02*
D03*
X28748Y65886D02*
D03*
Y66886D02*
D03*
X14748D02*
D03*
Y65886D02*
D03*
X13748Y66886D02*
D03*
Y65886D02*
D03*
X11748D02*
D03*
Y66886D02*
D03*
X10748Y65886D02*
D03*
Y66886D02*
D03*
X9748D02*
D03*
X12748D02*
D03*
Y65886D02*
D03*
X15748D02*
D03*
Y66886D02*
D03*
X16748Y65886D02*
D03*
Y66886D02*
D03*
X28748Y60886D02*
D03*
Y59886D02*
D03*
X27748Y60886D02*
D03*
Y59886D02*
D03*
X26748Y60886D02*
D03*
Y59886D02*
D03*
X25748Y60886D02*
D03*
Y59886D02*
D03*
X24748Y60886D02*
D03*
Y59886D02*
D03*
X23748Y60886D02*
D03*
Y59886D02*
D03*
X22748Y60886D02*
D03*
Y59886D02*
D03*
X21748Y60886D02*
D03*
Y59886D02*
D03*
X20748Y60886D02*
D03*
Y59886D02*
D03*
X19748Y60886D02*
D03*
Y59886D02*
D03*
X18748Y60886D02*
D03*
Y59886D02*
D03*
X17748Y60886D02*
D03*
Y59886D02*
D03*
X16748Y60886D02*
D03*
Y59886D02*
D03*
X15748Y60886D02*
D03*
Y59886D02*
D03*
X14748Y60886D02*
D03*
Y59886D02*
D03*
X13748Y60886D02*
D03*
Y59886D02*
D03*
X11748D02*
D03*
Y60886D02*
D03*
X10748Y59886D02*
D03*
Y60886D02*
D03*
X9748D02*
D03*
X12748D02*
D03*
Y59886D02*
D03*
X22748Y51713D02*
D03*
Y52713D02*
D03*
X19748D02*
D03*
X20748D02*
D03*
Y51713D02*
D03*
X21748Y52713D02*
D03*
Y51713D02*
D03*
X23748D02*
D03*
Y52713D02*
D03*
X24748Y51713D02*
D03*
Y52713D02*
D03*
X25748Y51713D02*
D03*
Y52713D02*
D03*
X26748Y51713D02*
D03*
Y52713D02*
D03*
X27748Y51713D02*
D03*
Y52713D02*
D03*
X28748Y51713D02*
D03*
Y52713D02*
D03*
X14748D02*
D03*
Y51713D02*
D03*
X13748Y52713D02*
D03*
Y51713D02*
D03*
X11748D02*
D03*
Y52713D02*
D03*
X10748Y51713D02*
D03*
Y52713D02*
D03*
X9748D02*
D03*
X12748D02*
D03*
Y51713D02*
D03*
X15748D02*
D03*
Y52713D02*
D03*
X16748Y51713D02*
D03*
Y52713D02*
D03*
X28748Y46713D02*
D03*
Y45713D02*
D03*
X27748Y46713D02*
D03*
Y45713D02*
D03*
X26748Y46713D02*
D03*
Y45713D02*
D03*
X25748Y46713D02*
D03*
Y45713D02*
D03*
X24748Y46713D02*
D03*
Y45713D02*
D03*
X23748Y46713D02*
D03*
Y45713D02*
D03*
X22748Y46713D02*
D03*
Y45713D02*
D03*
X21748Y46713D02*
D03*
Y45713D02*
D03*
X20748Y46713D02*
D03*
Y45713D02*
D03*
X19748Y46713D02*
D03*
Y45713D02*
D03*
X18748Y46713D02*
D03*
Y45713D02*
D03*
X17748Y46713D02*
D03*
Y45713D02*
D03*
X16748Y46713D02*
D03*
Y45713D02*
D03*
X15748Y46713D02*
D03*
Y45713D02*
D03*
X14748Y46713D02*
D03*
Y45713D02*
D03*
X13748Y46713D02*
D03*
Y45713D02*
D03*
X11748D02*
D03*
Y46713D02*
D03*
X10748Y45713D02*
D03*
Y46713D02*
D03*
X9748D02*
D03*
X12748D02*
D03*
Y45713D02*
D03*
X22748Y37539D02*
D03*
Y38539D02*
D03*
X19748D02*
D03*
X20748D02*
D03*
Y37539D02*
D03*
X21748Y38539D02*
D03*
Y37539D02*
D03*
X23748D02*
D03*
Y38539D02*
D03*
X24748Y37539D02*
D03*
Y38539D02*
D03*
X25748Y37539D02*
D03*
Y38539D02*
D03*
X26748Y37539D02*
D03*
Y38539D02*
D03*
X27748Y37539D02*
D03*
Y38539D02*
D03*
X28748Y37539D02*
D03*
Y38539D02*
D03*
X14748D02*
D03*
Y37539D02*
D03*
X13748Y38539D02*
D03*
Y37539D02*
D03*
X11748D02*
D03*
Y38539D02*
D03*
X10748Y37539D02*
D03*
Y38539D02*
D03*
X9748D02*
D03*
X12748D02*
D03*
Y37539D02*
D03*
X15748D02*
D03*
Y38539D02*
D03*
X16748Y37539D02*
D03*
Y38539D02*
D03*
X28748Y32539D02*
D03*
Y31539D02*
D03*
X27748Y32539D02*
D03*
Y31539D02*
D03*
X26748Y32539D02*
D03*
Y31539D02*
D03*
X25748Y32539D02*
D03*
Y31539D02*
D03*
X24748Y32539D02*
D03*
Y31539D02*
D03*
X23748Y32539D02*
D03*
Y31539D02*
D03*
X22748Y32539D02*
D03*
Y31539D02*
D03*
X21748Y32539D02*
D03*
Y31539D02*
D03*
X20748Y32539D02*
D03*
Y31539D02*
D03*
X19748Y32539D02*
D03*
Y31539D02*
D03*
X18748Y32539D02*
D03*
Y31539D02*
D03*
X17748Y32539D02*
D03*
Y31539D02*
D03*
X16748Y32539D02*
D03*
Y31539D02*
D03*
X15748Y32539D02*
D03*
Y31539D02*
D03*
X14748Y32539D02*
D03*
Y31539D02*
D03*
X13748Y32539D02*
D03*
Y31539D02*
D03*
X11748D02*
D03*
Y32539D02*
D03*
X10748Y31539D02*
D03*
Y32539D02*
D03*
X9748D02*
D03*
X12748D02*
D03*
Y31539D02*
D03*
X22748Y23366D02*
D03*
Y24366D02*
D03*
X19748D02*
D03*
X20748D02*
D03*
Y23366D02*
D03*
X21748Y24366D02*
D03*
Y23366D02*
D03*
X23748D02*
D03*
Y24366D02*
D03*
X24748Y23366D02*
D03*
Y24366D02*
D03*
X25748Y23366D02*
D03*
Y24366D02*
D03*
X26748Y23366D02*
D03*
Y24366D02*
D03*
X27748Y23366D02*
D03*
Y24366D02*
D03*
X28748Y23366D02*
D03*
Y24366D02*
D03*
X14748D02*
D03*
Y23366D02*
D03*
X13748Y24366D02*
D03*
Y23366D02*
D03*
X11748D02*
D03*
Y24366D02*
D03*
X10748Y23366D02*
D03*
Y24366D02*
D03*
X9748D02*
D03*
X12748D02*
D03*
Y23366D02*
D03*
X15748D02*
D03*
Y24366D02*
D03*
X16748Y23366D02*
D03*
Y24366D02*
D03*
X22748Y9193D02*
D03*
Y10193D02*
D03*
X19748D02*
D03*
X20748D02*
D03*
Y9193D02*
D03*
X21748Y10193D02*
D03*
Y9193D02*
D03*
X23748D02*
D03*
Y10193D02*
D03*
X24748Y9193D02*
D03*
Y10193D02*
D03*
X25748Y9193D02*
D03*
Y10193D02*
D03*
X26748Y9193D02*
D03*
Y10193D02*
D03*
X27748Y9193D02*
D03*
Y10193D02*
D03*
X28748Y9193D02*
D03*
Y10193D02*
D03*
Y4193D02*
D03*
Y3193D02*
D03*
X27748Y4193D02*
D03*
Y3193D02*
D03*
X26748Y4193D02*
D03*
Y3193D02*
D03*
X25748Y4193D02*
D03*
Y3193D02*
D03*
X24748Y4193D02*
D03*
Y3193D02*
D03*
X23748Y4193D02*
D03*
Y3193D02*
D03*
X22748Y4193D02*
D03*
Y3193D02*
D03*
X21748Y4193D02*
D03*
Y3193D02*
D03*
X20748Y4193D02*
D03*
Y3193D02*
D03*
X19748Y4193D02*
D03*
Y3193D02*
D03*
X18748Y4193D02*
D03*
Y3193D02*
D03*
X17748Y4193D02*
D03*
Y3193D02*
D03*
X16748Y4193D02*
D03*
Y3193D02*
D03*
X15748Y4193D02*
D03*
Y3193D02*
D03*
X14748Y4193D02*
D03*
Y3193D02*
D03*
X13748Y4193D02*
D03*
Y3193D02*
D03*
X11748D02*
D03*
Y4193D02*
D03*
X10748Y3193D02*
D03*
Y4193D02*
D03*
X9748D02*
D03*
X12748D02*
D03*
Y3193D02*
D03*
X14748Y10193D02*
D03*
Y9193D02*
D03*
X13748Y10193D02*
D03*
Y9193D02*
D03*
X11748D02*
D03*
Y10193D02*
D03*
X10748Y9193D02*
D03*
Y10193D02*
D03*
X9748D02*
D03*
X12748D02*
D03*
Y9193D02*
D03*
X15748D02*
D03*
Y10193D02*
D03*
X16748Y9193D02*
D03*
Y10193D02*
D03*
D26*
X48724Y31539D02*
D03*
X9748Y17366D02*
D03*
X48724Y3193D02*
D03*
X58724Y9193D02*
D03*
X48724D02*
D03*
Y17366D02*
D03*
X58724Y23366D02*
D03*
X48724D02*
D03*
X58724Y37539D02*
D03*
X48724D02*
D03*
Y45713D02*
D03*
X58724Y51713D02*
D03*
X48724D02*
D03*
X19748Y65886D02*
D03*
X9748D02*
D03*
Y59886D02*
D03*
X19748Y51713D02*
D03*
X9748D02*
D03*
Y45713D02*
D03*
X19748Y37539D02*
D03*
X9748D02*
D03*
Y31539D02*
D03*
X19748Y23366D02*
D03*
X9748D02*
D03*
X19748Y9193D02*
D03*
X9748Y3193D02*
D03*
Y9193D02*
D03*
D33*
X63724Y44370D02*
D03*
Y43465D02*
D03*
X62622D02*
D03*
Y44370D02*
D03*
M02*
