M48
;Layer_Color=9474304
;FILE_FORMAT=4:4
METRIC,LZ
;TYPE=PLATED
;TYPE=NON_PLATED
T4F00S00C1.0000
%
G90
G05
T04
X00275Y00355G85X00705
X00745Y00355G85X00935
X00985Y00255G85Y00305
X00985Y00135G85Y00215
X01225Y00355G85X01035
X01695Y00355G85X01265
X01695Y00715G85X01265
X01225Y00715G85X01035
X00985Y00615G85Y00665
X00985Y00495G85Y00575
X00985Y00405G85Y00455
X00985Y00765G85Y00815
X00745Y00715G85X00935
X00275Y00715G85X00705
X00275Y01075G85X00705
X00745Y01075G85X00935
X00985Y01125G85Y01175
X00985Y00975G85Y01025
X00985Y00855G85Y00935
X01225Y01075G85X01035
X01695Y01075G85X01265
X01695Y01435G85X01265
X01225Y01435G85X01035
X00985Y01485G85Y01535
X00985Y01335G85Y01385
X00985Y01215G85Y01295
X00745Y01435G85X00935
X00275Y01435G85X00705
X00985Y01575G85Y01655
M30
