G04*
G04 #@! TF.GenerationSoftware,Altium Limited,Altium Designer,22.2.1 (43)*
G04*
G04 Layer_Color=8388736*
%FSLAX24Y24*%
%MOIN*%
G70*
G04*
G04 #@! TF.SameCoordinates,419A5C8F-83EA-46CD-B97C-ABCF89401922*
G04*
G04*
G04 #@! TF.FilePolarity,Negative*
G04*
G01*
G75*
%ADD34C,0.0710*%
%ADD35R,0.0710X0.0710*%
%ADD36C,0.0080*%
%ADD37C,0.0236*%
D34*
X51724Y61136D02*
D03*
Y60136D02*
D03*
X48724D02*
D03*
X49724D02*
D03*
Y61136D02*
D03*
X50724Y60136D02*
D03*
Y61136D02*
D03*
X52724D02*
D03*
Y60136D02*
D03*
X53724Y61136D02*
D03*
Y60136D02*
D03*
X54724Y61136D02*
D03*
Y60136D02*
D03*
X55724Y61136D02*
D03*
Y60136D02*
D03*
X56724Y61136D02*
D03*
Y60136D02*
D03*
X57724Y61136D02*
D03*
Y60136D02*
D03*
X58724Y61136D02*
D03*
Y60136D02*
D03*
X59724Y61136D02*
D03*
Y60136D02*
D03*
X60724Y61136D02*
D03*
Y60136D02*
D03*
X61724Y61136D02*
D03*
Y60136D02*
D03*
X62724Y61136D02*
D03*
Y60136D02*
D03*
X63724Y61136D02*
D03*
Y60136D02*
D03*
X64724Y61136D02*
D03*
Y60136D02*
D03*
X65724Y61136D02*
D03*
Y60136D02*
D03*
X66724Y61136D02*
D03*
Y60136D02*
D03*
X67724Y61136D02*
D03*
Y60136D02*
D03*
X54724Y67136D02*
D03*
Y66136D02*
D03*
X53724Y67136D02*
D03*
Y66136D02*
D03*
X52724Y67136D02*
D03*
Y66136D02*
D03*
X50724D02*
D03*
Y67136D02*
D03*
X49724Y66136D02*
D03*
Y67136D02*
D03*
X48724D02*
D03*
X51724D02*
D03*
Y66136D02*
D03*
X67724D02*
D03*
Y67136D02*
D03*
X60724D02*
D03*
Y66136D02*
D03*
X57724D02*
D03*
X58724D02*
D03*
Y67136D02*
D03*
X59724Y66136D02*
D03*
Y67136D02*
D03*
X61724D02*
D03*
Y66136D02*
D03*
X62724Y67136D02*
D03*
Y66136D02*
D03*
X63724Y67136D02*
D03*
Y66136D02*
D03*
X64724Y67136D02*
D03*
Y66136D02*
D03*
X65724Y67136D02*
D03*
Y66136D02*
D03*
X66724Y67136D02*
D03*
Y66136D02*
D03*
X51724Y51963D02*
D03*
Y52963D02*
D03*
X48724D02*
D03*
X49724D02*
D03*
Y51963D02*
D03*
X50724Y52963D02*
D03*
Y51963D02*
D03*
X52724D02*
D03*
Y52963D02*
D03*
X53724Y51963D02*
D03*
Y52963D02*
D03*
X54724Y51963D02*
D03*
Y52963D02*
D03*
X51724Y37789D02*
D03*
Y38789D02*
D03*
X48724D02*
D03*
X49724D02*
D03*
Y37789D02*
D03*
X50724Y38789D02*
D03*
Y37789D02*
D03*
X52724D02*
D03*
Y38789D02*
D03*
X53724Y37789D02*
D03*
Y38789D02*
D03*
X54724Y37789D02*
D03*
Y38789D02*
D03*
X51724Y23616D02*
D03*
Y24616D02*
D03*
X48724D02*
D03*
X49724D02*
D03*
Y23616D02*
D03*
X50724Y24616D02*
D03*
Y23616D02*
D03*
X52724D02*
D03*
Y24616D02*
D03*
X53724Y23616D02*
D03*
Y24616D02*
D03*
X54724Y23616D02*
D03*
Y24616D02*
D03*
X51724Y9443D02*
D03*
Y10443D02*
D03*
X48724D02*
D03*
X49724D02*
D03*
Y9443D02*
D03*
X50724Y10443D02*
D03*
Y9443D02*
D03*
X52724D02*
D03*
Y10443D02*
D03*
X53724Y9443D02*
D03*
Y10443D02*
D03*
X54724Y9443D02*
D03*
Y10443D02*
D03*
X12748Y66136D02*
D03*
Y67136D02*
D03*
X9748D02*
D03*
X10748D02*
D03*
Y66136D02*
D03*
X11748Y67136D02*
D03*
Y66136D02*
D03*
X13748D02*
D03*
Y67136D02*
D03*
X14748Y66136D02*
D03*
Y67136D02*
D03*
X15748Y66136D02*
D03*
Y67136D02*
D03*
X12748Y51963D02*
D03*
Y52963D02*
D03*
X9748D02*
D03*
X10748D02*
D03*
Y51963D02*
D03*
X11748Y52963D02*
D03*
Y51963D02*
D03*
X13748D02*
D03*
Y52963D02*
D03*
X14748Y51963D02*
D03*
Y52963D02*
D03*
X15748Y51963D02*
D03*
Y52963D02*
D03*
X12748Y37789D02*
D03*
Y38789D02*
D03*
X9748D02*
D03*
X10748D02*
D03*
Y37789D02*
D03*
X11748Y38789D02*
D03*
Y37789D02*
D03*
X13748D02*
D03*
Y38789D02*
D03*
X14748Y37789D02*
D03*
Y38789D02*
D03*
X15748Y37789D02*
D03*
Y38789D02*
D03*
X12748Y23616D02*
D03*
Y24616D02*
D03*
X9748D02*
D03*
X10748D02*
D03*
Y23616D02*
D03*
X11748Y24616D02*
D03*
Y23616D02*
D03*
X13748D02*
D03*
Y24616D02*
D03*
X14748Y23616D02*
D03*
Y24616D02*
D03*
X15748Y23616D02*
D03*
Y24616D02*
D03*
X12748Y9443D02*
D03*
Y10443D02*
D03*
X9748D02*
D03*
X10748D02*
D03*
Y9443D02*
D03*
X11748Y10443D02*
D03*
Y9443D02*
D03*
X13748D02*
D03*
Y10443D02*
D03*
X14748Y9443D02*
D03*
Y10443D02*
D03*
X15748Y9443D02*
D03*
Y10443D02*
D03*
X66724Y37789D02*
D03*
Y38789D02*
D03*
X65724Y37789D02*
D03*
Y38789D02*
D03*
X64724Y37789D02*
D03*
Y38789D02*
D03*
X63724Y37789D02*
D03*
Y38789D02*
D03*
X62724Y37789D02*
D03*
Y38789D02*
D03*
X61724Y37789D02*
D03*
Y38789D02*
D03*
X59724D02*
D03*
Y37789D02*
D03*
X58724Y38789D02*
D03*
Y37789D02*
D03*
X57724D02*
D03*
X60724D02*
D03*
Y38789D02*
D03*
X67724D02*
D03*
Y37789D02*
D03*
X66724Y51963D02*
D03*
Y52963D02*
D03*
X65724Y51963D02*
D03*
Y52963D02*
D03*
X64724Y51963D02*
D03*
Y52963D02*
D03*
X63724Y51963D02*
D03*
Y52963D02*
D03*
X62724Y51963D02*
D03*
Y52963D02*
D03*
X61724Y51963D02*
D03*
Y52963D02*
D03*
X59724D02*
D03*
Y51963D02*
D03*
X58724Y52963D02*
D03*
Y51963D02*
D03*
X57724D02*
D03*
X60724D02*
D03*
Y52963D02*
D03*
X67724D02*
D03*
Y51963D02*
D03*
Y45963D02*
D03*
Y46963D02*
D03*
X66724Y45963D02*
D03*
Y46963D02*
D03*
X65724Y45963D02*
D03*
Y46963D02*
D03*
X64724Y45963D02*
D03*
Y46963D02*
D03*
X63724Y45963D02*
D03*
Y46963D02*
D03*
X62724Y45963D02*
D03*
Y46963D02*
D03*
X61724Y45963D02*
D03*
Y46963D02*
D03*
X60724Y45963D02*
D03*
Y46963D02*
D03*
X59724Y45963D02*
D03*
Y46963D02*
D03*
X58724Y45963D02*
D03*
Y46963D02*
D03*
X57724Y45963D02*
D03*
Y46963D02*
D03*
X56724Y45963D02*
D03*
Y46963D02*
D03*
X55724Y45963D02*
D03*
Y46963D02*
D03*
X54724Y45963D02*
D03*
Y46963D02*
D03*
X53724Y45963D02*
D03*
Y46963D02*
D03*
X52724Y45963D02*
D03*
Y46963D02*
D03*
X50724D02*
D03*
Y45963D02*
D03*
X49724Y46963D02*
D03*
Y45963D02*
D03*
X48724D02*
D03*
X51724D02*
D03*
Y46963D02*
D03*
X67724Y31789D02*
D03*
Y32789D02*
D03*
X66724Y31789D02*
D03*
Y32789D02*
D03*
X65724Y31789D02*
D03*
Y32789D02*
D03*
X64724Y31789D02*
D03*
Y32789D02*
D03*
X63724Y31789D02*
D03*
Y32789D02*
D03*
X62724Y31789D02*
D03*
Y32789D02*
D03*
X61724Y31789D02*
D03*
Y32789D02*
D03*
X60724Y31789D02*
D03*
Y32789D02*
D03*
X59724Y31789D02*
D03*
Y32789D02*
D03*
X58724Y31789D02*
D03*
Y32789D02*
D03*
X57724Y31789D02*
D03*
Y32789D02*
D03*
X56724Y31789D02*
D03*
Y32789D02*
D03*
X55724Y31789D02*
D03*
Y32789D02*
D03*
X54724Y31789D02*
D03*
Y32789D02*
D03*
X53724Y31789D02*
D03*
Y32789D02*
D03*
X52724Y31789D02*
D03*
Y32789D02*
D03*
X50724D02*
D03*
Y31789D02*
D03*
X49724Y32789D02*
D03*
Y31789D02*
D03*
X48724D02*
D03*
X51724D02*
D03*
Y32789D02*
D03*
X66724Y23616D02*
D03*
Y24616D02*
D03*
X65724Y23616D02*
D03*
Y24616D02*
D03*
X64724Y23616D02*
D03*
Y24616D02*
D03*
X63724Y23616D02*
D03*
Y24616D02*
D03*
X62724Y23616D02*
D03*
Y24616D02*
D03*
X61724Y23616D02*
D03*
Y24616D02*
D03*
X59724D02*
D03*
Y23616D02*
D03*
X58724Y24616D02*
D03*
Y23616D02*
D03*
X57724D02*
D03*
X60724D02*
D03*
Y24616D02*
D03*
X67724D02*
D03*
Y23616D02*
D03*
Y17616D02*
D03*
Y18616D02*
D03*
X66724Y17616D02*
D03*
Y18616D02*
D03*
X65724Y17616D02*
D03*
Y18616D02*
D03*
X64724Y17616D02*
D03*
Y18616D02*
D03*
X63724Y17616D02*
D03*
Y18616D02*
D03*
X62724Y17616D02*
D03*
Y18616D02*
D03*
X61724Y17616D02*
D03*
Y18616D02*
D03*
X60724Y17616D02*
D03*
Y18616D02*
D03*
X59724Y17616D02*
D03*
Y18616D02*
D03*
X58724Y17616D02*
D03*
Y18616D02*
D03*
X57724Y17616D02*
D03*
Y18616D02*
D03*
X56724Y17616D02*
D03*
Y18616D02*
D03*
X55724Y17616D02*
D03*
Y18616D02*
D03*
X54724Y17616D02*
D03*
Y18616D02*
D03*
X53724Y17616D02*
D03*
Y18616D02*
D03*
X52724Y17616D02*
D03*
Y18616D02*
D03*
X50724D02*
D03*
Y17616D02*
D03*
X49724Y18616D02*
D03*
Y17616D02*
D03*
X48724D02*
D03*
X51724D02*
D03*
Y18616D02*
D03*
X66724Y9443D02*
D03*
Y10443D02*
D03*
X65724Y9443D02*
D03*
Y10443D02*
D03*
X64724Y9443D02*
D03*
Y10443D02*
D03*
X63724Y9443D02*
D03*
Y10443D02*
D03*
X62724Y9443D02*
D03*
Y10443D02*
D03*
X61724Y9443D02*
D03*
Y10443D02*
D03*
X59724D02*
D03*
Y9443D02*
D03*
X58724Y10443D02*
D03*
Y9443D02*
D03*
X57724D02*
D03*
X60724D02*
D03*
Y10443D02*
D03*
X67724D02*
D03*
Y9443D02*
D03*
Y3443D02*
D03*
Y4443D02*
D03*
X66724Y3443D02*
D03*
Y4443D02*
D03*
X65724Y3443D02*
D03*
Y4443D02*
D03*
X64724Y3443D02*
D03*
Y4443D02*
D03*
X63724Y3443D02*
D03*
Y4443D02*
D03*
X62724Y3443D02*
D03*
Y4443D02*
D03*
X61724Y3443D02*
D03*
Y4443D02*
D03*
X60724Y3443D02*
D03*
Y4443D02*
D03*
X59724Y3443D02*
D03*
Y4443D02*
D03*
X58724Y3443D02*
D03*
Y4443D02*
D03*
X57724Y3443D02*
D03*
Y4443D02*
D03*
X56724Y3443D02*
D03*
Y4443D02*
D03*
X55724Y3443D02*
D03*
Y4443D02*
D03*
X54724Y3443D02*
D03*
Y4443D02*
D03*
X53724Y3443D02*
D03*
Y4443D02*
D03*
X52724Y3443D02*
D03*
Y4443D02*
D03*
X50724D02*
D03*
Y3443D02*
D03*
X49724Y4443D02*
D03*
Y3443D02*
D03*
X48724D02*
D03*
X51724D02*
D03*
Y4443D02*
D03*
X27748Y66136D02*
D03*
Y67136D02*
D03*
X26748Y66136D02*
D03*
Y67136D02*
D03*
X25748Y66136D02*
D03*
Y67136D02*
D03*
X24748Y66136D02*
D03*
Y67136D02*
D03*
X23748Y66136D02*
D03*
Y67136D02*
D03*
X22748Y66136D02*
D03*
Y67136D02*
D03*
X20748D02*
D03*
Y66136D02*
D03*
X19748Y67136D02*
D03*
Y66136D02*
D03*
X18748D02*
D03*
X21748D02*
D03*
Y67136D02*
D03*
X28748D02*
D03*
Y66136D02*
D03*
Y60136D02*
D03*
Y61136D02*
D03*
X27748Y60136D02*
D03*
Y61136D02*
D03*
X26748Y60136D02*
D03*
Y61136D02*
D03*
X25748Y60136D02*
D03*
Y61136D02*
D03*
X24748Y60136D02*
D03*
Y61136D02*
D03*
X23748Y60136D02*
D03*
Y61136D02*
D03*
X22748Y60136D02*
D03*
Y61136D02*
D03*
X21748Y60136D02*
D03*
Y61136D02*
D03*
X20748Y60136D02*
D03*
Y61136D02*
D03*
X19748Y60136D02*
D03*
Y61136D02*
D03*
X18748Y60136D02*
D03*
Y61136D02*
D03*
X17748Y60136D02*
D03*
Y61136D02*
D03*
X16748Y60136D02*
D03*
Y61136D02*
D03*
X15748Y60136D02*
D03*
Y61136D02*
D03*
X14748Y60136D02*
D03*
Y61136D02*
D03*
X13748Y60136D02*
D03*
Y61136D02*
D03*
X11748D02*
D03*
Y60136D02*
D03*
X10748Y61136D02*
D03*
Y60136D02*
D03*
X9748D02*
D03*
X12748D02*
D03*
Y61136D02*
D03*
X27748Y51963D02*
D03*
Y52963D02*
D03*
X26748Y51963D02*
D03*
Y52963D02*
D03*
X25748Y51963D02*
D03*
Y52963D02*
D03*
X24748Y51963D02*
D03*
Y52963D02*
D03*
X23748Y51963D02*
D03*
Y52963D02*
D03*
X22748Y51963D02*
D03*
Y52963D02*
D03*
X20748D02*
D03*
Y51963D02*
D03*
X19748Y52963D02*
D03*
Y51963D02*
D03*
X18748D02*
D03*
X21748D02*
D03*
Y52963D02*
D03*
X28748D02*
D03*
Y51963D02*
D03*
Y45963D02*
D03*
Y46963D02*
D03*
X27748Y45963D02*
D03*
Y46963D02*
D03*
X26748Y45963D02*
D03*
Y46963D02*
D03*
X25748Y45963D02*
D03*
Y46963D02*
D03*
X24748Y45963D02*
D03*
Y46963D02*
D03*
X23748Y45963D02*
D03*
Y46963D02*
D03*
X22748Y45963D02*
D03*
Y46963D02*
D03*
X21748Y45963D02*
D03*
Y46963D02*
D03*
X20748Y45963D02*
D03*
Y46963D02*
D03*
X19748Y45963D02*
D03*
Y46963D02*
D03*
X18748Y45963D02*
D03*
Y46963D02*
D03*
X17748Y45963D02*
D03*
Y46963D02*
D03*
X16748Y45963D02*
D03*
Y46963D02*
D03*
X15748Y45963D02*
D03*
Y46963D02*
D03*
X14748Y45963D02*
D03*
Y46963D02*
D03*
X13748Y45963D02*
D03*
Y46963D02*
D03*
X11748D02*
D03*
Y45963D02*
D03*
X10748Y46963D02*
D03*
Y45963D02*
D03*
X9748D02*
D03*
X12748D02*
D03*
Y46963D02*
D03*
X28748Y31789D02*
D03*
Y32789D02*
D03*
X27748Y31789D02*
D03*
Y32789D02*
D03*
X26748Y31789D02*
D03*
Y32789D02*
D03*
X25748Y31789D02*
D03*
Y32789D02*
D03*
X24748Y31789D02*
D03*
Y32789D02*
D03*
X23748Y31789D02*
D03*
Y32789D02*
D03*
X22748Y31789D02*
D03*
Y32789D02*
D03*
X21748Y31789D02*
D03*
Y32789D02*
D03*
X20748Y31789D02*
D03*
Y32789D02*
D03*
X19748Y31789D02*
D03*
Y32789D02*
D03*
X18748Y31789D02*
D03*
Y32789D02*
D03*
X17748Y31789D02*
D03*
Y32789D02*
D03*
X16748Y31789D02*
D03*
Y32789D02*
D03*
X15748Y31789D02*
D03*
Y32789D02*
D03*
X14748Y31789D02*
D03*
Y32789D02*
D03*
X13748Y31789D02*
D03*
Y32789D02*
D03*
X11748D02*
D03*
Y31789D02*
D03*
X10748Y32789D02*
D03*
Y31789D02*
D03*
X9748D02*
D03*
X12748D02*
D03*
Y32789D02*
D03*
X27748Y37789D02*
D03*
Y38789D02*
D03*
X26748Y37789D02*
D03*
Y38789D02*
D03*
X25748Y37789D02*
D03*
Y38789D02*
D03*
X24748Y37789D02*
D03*
Y38789D02*
D03*
X23748Y37789D02*
D03*
Y38789D02*
D03*
X22748Y37789D02*
D03*
Y38789D02*
D03*
X20748D02*
D03*
Y37789D02*
D03*
X19748Y38789D02*
D03*
Y37789D02*
D03*
X18748D02*
D03*
X21748D02*
D03*
Y38789D02*
D03*
X28748D02*
D03*
Y37789D02*
D03*
Y23616D02*
D03*
Y24616D02*
D03*
X21748D02*
D03*
Y23616D02*
D03*
X18748D02*
D03*
X19748D02*
D03*
Y24616D02*
D03*
X20748Y23616D02*
D03*
Y24616D02*
D03*
X22748D02*
D03*
Y23616D02*
D03*
X23748Y24616D02*
D03*
Y23616D02*
D03*
X24748Y24616D02*
D03*
Y23616D02*
D03*
X25748Y24616D02*
D03*
Y23616D02*
D03*
X26748Y24616D02*
D03*
Y23616D02*
D03*
X27748Y24616D02*
D03*
Y23616D02*
D03*
X10748Y18616D02*
D03*
Y17616D02*
D03*
X11748Y18616D02*
D03*
Y17616D02*
D03*
X12748Y18616D02*
D03*
Y17616D02*
D03*
X13748Y18616D02*
D03*
Y17616D02*
D03*
X14748Y18616D02*
D03*
Y17616D02*
D03*
X15748Y18616D02*
D03*
Y17616D02*
D03*
X16748Y18616D02*
D03*
Y17616D02*
D03*
X17748Y18616D02*
D03*
Y17616D02*
D03*
X18748Y18616D02*
D03*
Y17616D02*
D03*
X19748Y18616D02*
D03*
Y17616D02*
D03*
X20748Y18616D02*
D03*
Y17616D02*
D03*
X21748Y18616D02*
D03*
Y17616D02*
D03*
X22748Y18616D02*
D03*
Y17616D02*
D03*
X23748Y18616D02*
D03*
Y17616D02*
D03*
X24748Y18616D02*
D03*
Y17616D02*
D03*
X25748Y18616D02*
D03*
Y17616D02*
D03*
X26748Y18616D02*
D03*
Y17616D02*
D03*
X27748Y18616D02*
D03*
Y17616D02*
D03*
X28748Y18616D02*
D03*
Y17616D02*
D03*
X9748D02*
D03*
X28748Y9443D02*
D03*
Y10443D02*
D03*
X21748D02*
D03*
Y9443D02*
D03*
X18748D02*
D03*
X19748D02*
D03*
Y10443D02*
D03*
X20748Y9443D02*
D03*
Y10443D02*
D03*
X22748D02*
D03*
Y9443D02*
D03*
X23748Y10443D02*
D03*
Y9443D02*
D03*
X24748Y10443D02*
D03*
Y9443D02*
D03*
X25748Y10443D02*
D03*
Y9443D02*
D03*
X26748Y10443D02*
D03*
Y9443D02*
D03*
X27748Y10443D02*
D03*
Y9443D02*
D03*
X12748Y4443D02*
D03*
Y3443D02*
D03*
X9748D02*
D03*
X10748D02*
D03*
Y4443D02*
D03*
X11748Y3443D02*
D03*
Y4443D02*
D03*
X13748D02*
D03*
Y3443D02*
D03*
X14748Y4443D02*
D03*
Y3443D02*
D03*
X15748Y4443D02*
D03*
Y3443D02*
D03*
X16748Y4443D02*
D03*
Y3443D02*
D03*
X17748Y4443D02*
D03*
Y3443D02*
D03*
X18748Y4443D02*
D03*
Y3443D02*
D03*
X19748Y4443D02*
D03*
Y3443D02*
D03*
X20748Y4443D02*
D03*
Y3443D02*
D03*
X21748Y4443D02*
D03*
Y3443D02*
D03*
X22748Y4443D02*
D03*
Y3443D02*
D03*
X23748Y4443D02*
D03*
Y3443D02*
D03*
X24748Y4443D02*
D03*
Y3443D02*
D03*
X25748Y4443D02*
D03*
Y3443D02*
D03*
X26748Y4443D02*
D03*
Y3443D02*
D03*
X27748Y4443D02*
D03*
Y3443D02*
D03*
X28748Y4443D02*
D03*
Y3443D02*
D03*
D35*
X48724Y61136D02*
D03*
Y66136D02*
D03*
X57724Y67136D02*
D03*
X48724Y51963D02*
D03*
Y37789D02*
D03*
Y23616D02*
D03*
Y9443D02*
D03*
X9748Y66136D02*
D03*
Y51963D02*
D03*
Y37789D02*
D03*
Y23616D02*
D03*
Y9443D02*
D03*
X57724Y38789D02*
D03*
Y52963D02*
D03*
X48724Y46963D02*
D03*
Y32789D02*
D03*
X57724Y24616D02*
D03*
X48724Y18616D02*
D03*
X57724Y10443D02*
D03*
X48724Y4443D02*
D03*
X18748Y67136D02*
D03*
X9748Y61136D02*
D03*
X18748Y52963D02*
D03*
X9748Y46963D02*
D03*
Y32789D02*
D03*
X18748Y38789D02*
D03*
Y24616D02*
D03*
X9748Y18616D02*
D03*
X18748Y10443D02*
D03*
X9748Y4443D02*
D03*
D36*
X19291Y56496D02*
D03*
X58268D02*
D03*
X44488D02*
D03*
X58268Y42323D02*
D03*
X44488D02*
D03*
X38780Y59449D02*
D03*
Y63583D02*
D03*
X58268Y28150D02*
D03*
X44488D02*
D03*
X38780Y16929D02*
D03*
Y21063D02*
D03*
Y25197D02*
D03*
X19291Y28150D02*
D03*
X33071D02*
D03*
X38780Y31102D02*
D03*
Y35236D02*
D03*
Y39370D02*
D03*
Y53543D02*
D03*
Y49409D02*
D03*
Y45276D02*
D03*
X33071Y42323D02*
D03*
X19291D02*
D03*
X33071Y56496D02*
D03*
X44488Y13976D02*
D03*
X58268D02*
D03*
X38780Y11024D02*
D03*
Y6890D02*
D03*
X19291Y13976D02*
D03*
X33071D02*
D03*
D37*
X62608Y34272D02*
D03*
X60980Y34642D02*
D03*
X60598Y34646D02*
D03*
X60785Y33737D02*
D03*
X61024Y33484D02*
D03*
X61213Y34429D02*
D03*
X60276Y34606D02*
D03*
X61339Y33484D02*
D03*
X61216Y36788D02*
D03*
X60591Y36949D02*
D03*
X60945D02*
D03*
X60276Y36488D02*
D03*
X65748Y35157D02*
D03*
X63071D02*
D03*
X62258Y34896D02*
D03*
X62559Y36043D02*
D03*
X63409Y34110D02*
D03*
X62953Y34016D02*
D03*
X63976Y36024D02*
D03*
X65512Y35433D02*
D03*
X63346D02*
D03*
X62244Y36280D02*
D03*
X55709Y33661D02*
D03*
X56496Y34724D02*
D03*
X67520Y48976D02*
D03*
X64370Y49173D02*
D03*
X67953Y48976D02*
D03*
X65906Y51024D02*
D03*
X67248Y48547D02*
D03*
X64961Y48228D02*
D03*
X65748D02*
D03*
X64252Y50827D02*
D03*
X65039Y50039D02*
D03*
X57874Y53898D02*
D03*
X60039D02*
D03*
X59291Y6417D02*
D03*
X61024Y6378D02*
D03*
X60433Y7736D02*
D03*
X58543Y7756D02*
D03*
X59295Y8028D02*
D03*
X58543Y5394D02*
D03*
X58228Y5118D02*
D03*
Y7874D02*
D03*
X65315Y12008D02*
D03*
X25240Y49846D02*
D03*
X24051Y20626D02*
D03*
X23661Y20827D02*
D03*
X25315Y20118D02*
D03*
X56024Y62874D02*
D03*
X59488Y63228D02*
D03*
X57209Y62949D02*
D03*
X59216Y63500D02*
D03*
X59724Y64055D02*
D03*
X59213Y65512D02*
D03*
X59724D02*
D03*
X64843Y68110D02*
D03*
X65315D02*
D03*
X67323D02*
D03*
X67205Y67795D02*
D03*
X57205Y61732D02*
D03*
X60433Y6693D02*
D03*
X59909D02*
D03*
X61378Y8071D02*
D03*
Y6969D02*
D03*
X28740Y49409D02*
D03*
X28228Y49488D02*
D03*
X23346Y48032D02*
D03*
X23622Y47756D02*
D03*
X23031Y48307D02*
D03*
X27756Y49646D02*
D03*
X55866Y52126D02*
D03*
X60394Y53622D02*
D03*
X21969Y20354D02*
D03*
X26063Y21890D02*
D03*
X66220Y11063D02*
D03*
Y49803D02*
D03*
X67717Y43858D02*
D03*
X62756D02*
D03*
X63346Y48543D02*
D03*
X63150Y48937D02*
D03*
X60000Y37205D02*
D03*
X59724Y37008D02*
D03*
X61693Y6693D02*
D03*
X59921Y7835D02*
D03*
X61024Y8189D02*
D03*
X61693Y7835D02*
D03*
X25984Y64370D02*
D03*
X27205Y65591D02*
D03*
X24528Y48661D02*
D03*
X24094Y48701D02*
D03*
X25512Y51024D02*
D03*
X21811Y49606D02*
D03*
X24488D02*
D03*
X23934Y50304D02*
D03*
X25236Y50315D02*
D03*
X25591Y22165D02*
D03*
X25236Y22362D02*
D03*
X22677Y20118D02*
D03*
X22874Y19843D02*
D03*
X27874D02*
D03*
X28071Y19567D02*
D03*
X22677D02*
D03*
M02*
