G04*
G04 #@! TF.GenerationSoftware,Altium Limited,Altium Designer,22.2.1 (43)*
G04*
G04 Layer_Physical_Order=1*
G04 Layer_Color=255*
%FSLAX24Y24*%
%MOIN*%
G70*
G04*
G04 #@! TF.SameCoordinates,419A5C8F-83EA-46CD-B97C-ABCF89401922*
G04*
G04*
G04 #@! TF.FilePolarity,Positive*
G04*
G01*
G75*
%ADD16C,0.0118*%
%ADD37C,0.0236*%
%ADD38C,0.0157*%
%ADD39C,0.0630*%
%ADD40R,0.0630X0.0630*%
D16*
X62608Y34272D02*
X62618Y34262D01*
X65197Y36841D01*
X60598Y34646D02*
X61071Y34173D01*
X61457D01*
X61319Y34685D02*
X61829D01*
X62343Y34171D01*
X62205Y34921D02*
X62244Y34882D01*
X59724Y34921D02*
X62205D01*
X58228Y33425D02*
X59724Y34921D01*
X59640Y35152D02*
X62152D01*
X58701Y35551D02*
X61353D01*
X59252Y35354D02*
X61435D01*
X62636Y33306D02*
X62656Y33286D01*
X60980Y34642D02*
X60984D01*
X60276Y34606D02*
X60945Y33937D01*
X61693D01*
X61024Y33089D02*
Y33484D01*
X61068Y34646D02*
X61107Y34685D01*
X61319D01*
X60987Y34646D02*
X61068D01*
X61213Y34409D02*
X61811D01*
X61213Y34423D02*
Y34429D01*
Y34409D02*
Y34423D01*
X60984Y34642D02*
X60987Y34646D01*
X60787Y33740D02*
Y33740D01*
X60785Y33737D02*
X60787Y33740D01*
X61339Y33044D02*
Y33484D01*
X60787Y33740D02*
X61496D01*
X61216Y36788D02*
X61216Y36788D01*
X61215Y36788D02*
X61216Y36788D01*
X61207Y36799D02*
X61217Y36790D01*
X61216Y36788D02*
X61216Y36788D01*
X60945Y36949D02*
Y36988D01*
X61201Y36799D02*
X61207D01*
X60591Y36949D02*
Y36969D01*
X61215Y36788D02*
X61217Y36790D01*
X60276Y36488D02*
Y36496D01*
X60724Y37228D02*
X60945Y37008D01*
X60724Y37228D02*
Y37789D01*
X66260Y37044D02*
Y38268D01*
X65921Y36706D02*
X66260Y37044D01*
X66118Y36624D02*
X66732Y37239D01*
Y37756D01*
X66102Y35157D02*
X68268Y37323D01*
X65748Y35157D02*
X66102D01*
X62364Y35152D02*
X63065D01*
X62945Y35433D02*
X63346D01*
X62866Y35354D02*
X62886Y35374D01*
X62945Y35433D01*
X61954Y35551D02*
X62756D01*
X61435Y35354D02*
X62866D01*
X62756Y35551D02*
X63701Y36496D01*
X56693Y32795D02*
X59252Y35354D01*
X61353Y35551D02*
X61954D01*
X62152Y35152D02*
X62364D01*
X62244Y34882D02*
X62258Y34896D01*
X57717Y33228D02*
X59640Y35152D01*
X58346Y35787D02*
X62677D01*
X63189Y36299D01*
X65197Y36841D02*
Y38386D01*
Y35703D02*
X66118Y36624D01*
X64724Y35509D02*
X65921Y36706D01*
X63409Y34110D02*
X64213Y33307D01*
X65197Y32262D02*
Y35703D01*
X64724Y32789D02*
Y35509D01*
X65724Y36787D02*
Y37789D01*
X62953Y34016D02*
X65724Y36787D01*
X62343Y34166D02*
X62492Y34016D01*
X62498D01*
X63724Y32789D01*
X62343Y34166D02*
Y34171D01*
X64213Y32278D02*
Y33307D01*
X65512Y35433D02*
X66024D01*
X67724Y37134D01*
X61197Y36799D02*
X61201D01*
X61183Y36813D02*
X61183D01*
X61197Y36799D01*
X60945Y36988D02*
Y37008D01*
X61183Y36813D02*
X61220Y36850D01*
X61299Y36496D02*
X61732Y36929D01*
X60276Y36496D02*
X61299D01*
X61732Y36929D02*
Y37795D01*
X62205Y37008D02*
Y38346D01*
X61417Y36220D02*
X62205Y37008D01*
X57992Y36220D02*
X61417D01*
X56496Y34724D02*
X57992Y36220D01*
X62559Y36024D02*
Y36043D01*
X55836Y34222D02*
X56781D01*
X58346Y35787D01*
X62244Y36280D02*
X62254Y36270D01*
X55709Y34449D02*
X56614D01*
X58189Y36024D02*
X62559D01*
X56614Y34449D02*
X58189Y36024D01*
X62254Y36270D02*
X62756Y36772D01*
X55709Y33661D02*
X55724Y33646D01*
Y32789D02*
Y33646D01*
X58189Y45709D02*
Y51535D01*
X67520Y48976D02*
X67717Y49173D01*
Y49299D01*
Y51929D01*
X67244Y48547D02*
X67248D01*
X67244D02*
Y52559D01*
X64961Y48228D02*
Y48976D01*
X62724Y51213D02*
X64961Y48976D01*
X65236Y46451D02*
Y49094D01*
X65748Y46986D02*
Y48228D01*
X65724Y46963D02*
X65748Y46986D01*
X64252Y50827D02*
Y52520D01*
X66260Y46427D02*
Y48425D01*
X64685Y50000D02*
Y51968D01*
Y50000D02*
X66260Y48425D01*
X66724Y46963D02*
Y48354D01*
X66732Y48701D02*
Y51929D01*
Y48701D02*
X67205Y48228D01*
X65039Y50039D02*
X66724Y48354D01*
X59094Y54409D02*
X60236Y53268D01*
X52717Y53465D02*
X53661Y54409D01*
X59094D01*
X58514Y54173D02*
X59724Y52963D01*
X53228Y53228D02*
X54173Y54173D01*
X58514D01*
X60039Y53898D02*
X64789D01*
X65724Y52963D01*
X54724Y52992D02*
X55630Y53898D01*
X57874D01*
X57165Y6417D02*
X59291D01*
X55724Y4976D02*
X57165Y6417D01*
X56974Y6693D02*
X59909D01*
X57283Y6142D02*
X59882D01*
X60433Y6693D01*
X56260Y5118D02*
X57283Y6142D01*
X56724Y5110D02*
X57520Y5906D01*
X60157D02*
X60945Y6693D01*
X57520Y5906D02*
X60157D01*
X60945Y6693D02*
X61693D01*
X60315Y5669D02*
X61024Y6378D01*
X57756Y5669D02*
X60315D01*
X57244Y5157D02*
X57756Y5669D01*
X53724Y4443D02*
X56526Y7244D01*
X62244D02*
X63740Y8740D01*
X56526Y7244D02*
X62244D01*
X61811Y7480D02*
X63189Y8858D01*
X56063Y7480D02*
X61811D01*
X53228Y4646D02*
X56063Y7480D01*
X60433Y7736D02*
Y8031D01*
X59724Y8937D02*
Y9443D01*
X58543Y7756D02*
X59724Y8937D01*
X59291Y8031D02*
X59295Y8028D01*
Y8028D02*
Y8028D01*
X57874Y5394D02*
X58543D01*
X57724Y5244D02*
X57874Y5394D01*
X58228Y3947D02*
Y5118D01*
X59213Y8858D02*
Y9961D01*
X58228Y7874D02*
X59213Y8858D01*
X50591Y11339D02*
X66339D01*
X66724Y10953D01*
X50236Y10984D02*
X50591Y11339D01*
X67008Y11732D02*
X67724Y11016D01*
X50197Y11732D02*
X67008D01*
X49252Y10787D02*
X50197Y11732D01*
X50394Y11535D02*
X66457D01*
X67205Y10787D01*
X49724Y10906D02*
X50354Y11535D01*
X48724Y11008D02*
X49724Y12008D01*
X65315D01*
X25236Y49843D02*
X25240Y49846D01*
X24252Y50827D02*
X25236Y49843D01*
X24252Y50827D02*
Y52520D01*
X24051Y20626D02*
X24055Y20630D01*
X23701Y20591D02*
X25079Y19213D01*
X24055Y20630D02*
X25315Y19370D01*
X23661Y20630D02*
Y20827D01*
Y20630D02*
X23701Y20591D01*
X26748Y18616D02*
Y18685D01*
X25315Y20118D02*
X26748Y18685D01*
X52638Y62874D02*
X56024D01*
X51260Y61496D02*
X52638Y62874D01*
X59488Y63228D02*
X60157D01*
X62402Y65472D01*
X59409Y64055D02*
X59724D01*
X57724Y62370D02*
X59409Y64055D01*
X57724Y61136D02*
Y62370D01*
X56220Y61572D02*
X57290Y62642D01*
X57559Y62911D01*
X59213Y63504D02*
X59216Y63500D01*
X56724Y61724D02*
X59331Y64331D01*
X57559Y62911D02*
X59215Y64567D01*
X62402Y65472D02*
X64803D01*
X58228Y60640D02*
Y62520D01*
X59213Y63504D01*
X59331Y64331D02*
X60919D01*
X62724Y66136D01*
X60866Y64567D02*
X62244Y65945D01*
X59215Y64567D02*
X60866D01*
X62244Y65945D02*
Y66693D01*
X59055Y64803D02*
X60787D01*
X61724Y65740D02*
Y66136D01*
X60787Y64803D02*
X61724Y65740D01*
X56724Y61136D02*
Y61724D01*
X56220Y60632D02*
Y61572D01*
X57205Y62953D02*
X57209Y62949D01*
X57205Y62953D02*
X59055Y64803D01*
X57209Y62949D02*
Y62949D01*
X55724Y61827D02*
X57047Y63150D01*
X58898Y65000D01*
X54724Y61136D02*
X58077Y64488D01*
X58898Y65000D02*
X60315D01*
X61177Y65862D01*
X58785Y65197D02*
X59785D01*
X60724Y66136D01*
X61177Y65862D02*
Y65983D01*
X55724Y61136D02*
Y61827D01*
X61177Y65983D02*
Y66736D01*
X58077Y64488D02*
X58785Y65197D01*
X59213Y65512D02*
Y66654D01*
X59685Y67126D01*
X59724Y65512D02*
Y66063D01*
X64803Y65472D02*
X65197Y65866D01*
X49409Y68661D02*
X65709D01*
X48110Y66750D02*
Y67362D01*
X49409Y68661D01*
X48110Y66750D02*
X48724Y66136D01*
X50591Y68110D02*
X64843D01*
X49724Y67244D02*
X50591Y68110D01*
X49724Y67136D02*
Y67244D01*
X50630Y67835D02*
X65039D01*
X50236Y67441D02*
X50630Y67835D01*
X50236Y66575D02*
Y67441D01*
X65709Y68661D02*
X66693Y67677D01*
Y67244D02*
Y67677D01*
X66220Y66654D02*
Y67717D01*
X49974Y68386D02*
X65551D01*
X66220Y67717D01*
X48724Y67136D02*
X49974Y68386D01*
X65039Y67835D02*
X65315Y68110D01*
X67724Y67136D02*
Y67709D01*
X67323Y68110D02*
X67724Y67709D01*
X67205Y66654D02*
Y67795D01*
Y66654D02*
X67717Y66142D01*
X65197Y66654D02*
X65669Y67126D01*
X65197Y65866D02*
Y66654D01*
X51260Y60671D02*
Y61496D01*
X50724Y60136D02*
X51260Y60671D01*
X57205Y60616D02*
Y61732D01*
X57724Y60136D02*
X58228Y60640D01*
X56724Y60136D02*
X57205Y60616D01*
X55724Y60136D02*
X56220Y60632D01*
X49764Y66102D02*
X50236Y66575D01*
X60709Y67205D02*
X61177Y66736D01*
X61732Y67165D02*
X61772D01*
X62244Y66693D01*
X66220Y66654D02*
X66732Y66142D01*
X56575Y6969D02*
X61378D01*
X54252Y3970D02*
Y4646D01*
X56575Y6969D01*
X61220Y9961D02*
X61693Y10433D01*
X61220Y8819D02*
Y9961D01*
X60433Y8031D02*
X61220Y8819D01*
X56260Y3978D02*
Y5118D01*
X55724Y3443D02*
X56260Y3978D01*
X60724Y8638D02*
Y9443D01*
X60098Y8012D02*
X60724Y8638D01*
X59921Y7835D02*
X60098Y8012D01*
X62205Y9961D02*
X62677Y10433D01*
X62205Y8898D02*
Y9961D01*
X61378Y8071D02*
X62205Y8898D01*
X63740Y8740D02*
Y9449D01*
X53724Y3443D02*
X54252Y3970D01*
X48701Y9449D02*
X49331Y8819D01*
X50000D01*
X50236Y9055D01*
Y10984D01*
X49252Y9921D02*
X49724Y9449D01*
X49252Y9921D02*
Y10787D01*
X49724Y10443D02*
Y10906D01*
X48724Y10443D02*
Y11008D01*
X9173Y66711D02*
Y67441D01*
Y66711D02*
X9748Y66136D01*
X9173Y67441D02*
X10079Y68346D01*
X26537D01*
X11496Y64370D02*
X25984D01*
X10236Y65630D02*
X11496Y64370D01*
X10236Y65630D02*
Y66648D01*
X9748Y67136D02*
X10236Y66648D01*
X10748Y65669D02*
X11772Y64646D01*
X12126D01*
X10748Y65669D02*
Y66136D01*
X12126Y64646D02*
X28150D01*
X12087Y64921D02*
X27533D01*
X11260Y65748D02*
X12087Y64921D01*
X11260Y65748D02*
Y66624D01*
X10748Y67136D02*
X11260Y66624D01*
X12205Y68071D02*
X23813D01*
X11748Y67614D02*
X12205Y68071D01*
X11748Y67136D02*
Y67614D01*
X12244Y66693D02*
Y67441D01*
X12598Y67795D02*
X23189D01*
X12244Y67441D02*
X12598Y67795D01*
X11732Y66181D02*
X12244Y66693D01*
X13268Y65197D02*
X24809D01*
X12748Y65717D02*
X13268Y65197D01*
X12748Y65717D02*
Y66136D01*
X13661Y65433D02*
X24045D01*
X13228Y65866D02*
X13661Y65433D01*
X13228Y65866D02*
Y66656D01*
X12748Y67136D02*
X13228Y66656D01*
X15039Y48307D02*
X23031D01*
X14213Y47480D02*
X15039Y48307D01*
X14213Y46427D02*
Y47480D01*
X13748Y45963D02*
X14213Y46427D01*
X28740Y49409D02*
X28748Y49417D01*
Y51963D01*
X28228Y49488D02*
Y52441D01*
X15669Y47756D02*
X23622D01*
X15236Y47323D02*
X15669Y47756D01*
X15236Y46451D02*
Y47323D01*
X14748Y45963D02*
X15236Y46451D01*
X14748Y46963D02*
Y47583D01*
X15197Y48032D01*
X23346D01*
X28228Y52441D02*
X28740Y52953D01*
X27756Y49646D02*
Y50236D01*
Y50236D02*
Y51929D01*
X52717Y52953D02*
Y53465D01*
X53228Y52480D02*
Y53228D01*
X60394Y53622D02*
X64787D01*
X65197Y52835D02*
Y53212D01*
X64787Y53622D02*
X65197Y53212D01*
X53346Y51339D02*
X55079D01*
X55866Y52126D01*
X52717Y51968D02*
X53346Y51339D01*
X65197Y52835D02*
X65724Y52307D01*
Y51963D02*
Y52307D01*
X66220Y49803D02*
Y52402D01*
X66772Y52953D01*
X60236Y52451D02*
Y53268D01*
Y52451D02*
X60724Y51963D01*
X53701Y52953D02*
X54213Y52441D01*
X59246D01*
X59724Y51963D01*
X53228Y52480D02*
X53740Y51968D01*
X63724Y52963D02*
X63809D01*
X64252Y52520D01*
X12244Y19094D02*
X13504Y20354D01*
X21969D01*
X26220Y24094D02*
X26772Y24646D01*
X26220Y22047D02*
Y24094D01*
X26063Y21890D02*
X26220Y22047D01*
X20748Y18616D02*
X21974Y19843D01*
X22874D01*
X12244Y18112D02*
Y19094D01*
X11748Y17616D02*
X12244Y18112D01*
X66220Y9961D02*
Y11063D01*
X67724Y10443D02*
Y11016D01*
X67205Y9963D02*
Y10787D01*
X66724Y10443D02*
Y10953D01*
X66220Y9961D02*
X66693Y9488D01*
X67205Y9963D02*
X67724Y9443D01*
X58189Y45709D02*
X60039Y43858D01*
X62756D01*
X64370Y48032D02*
X64724Y47677D01*
X64370Y48032D02*
Y49173D01*
X62724Y51213D02*
Y51963D01*
X63740Y50591D02*
Y51890D01*
Y50591D02*
X65236Y49094D01*
X67244Y52559D02*
X67638Y52953D01*
X67205Y46482D02*
Y48228D01*
X57717Y52008D02*
X58189Y51535D01*
X63724Y46963D02*
Y49189D01*
X62244Y50669D02*
X63724Y49189D01*
X64724Y46963D02*
Y47677D01*
X61654Y48543D02*
X63346D01*
X60236Y47126D02*
X61654Y48543D01*
X60236Y46474D02*
Y47126D01*
X59724Y45963D02*
X60236Y46474D01*
X61699Y48937D02*
X63150D01*
X59724Y46963D02*
X61699Y48937D01*
X62244Y52402D02*
X62717Y52874D01*
X62244Y50669D02*
Y52402D01*
X67205Y46482D02*
X67724Y45963D01*
X66260Y46427D02*
X66724Y45963D01*
X65236Y46451D02*
X65724Y45963D01*
X60276Y37283D02*
X60591Y36969D01*
X62692Y31757D02*
X63110Y31339D01*
X62617Y33325D02*
X62636Y33306D01*
X61220Y36850D02*
Y38307D01*
X60724Y32789D02*
X61024Y33089D01*
X61220Y32522D02*
Y32926D01*
X61339Y33044D01*
X60787Y31772D02*
X61220Y32205D01*
Y32522D01*
X61417Y32123D02*
Y32441D01*
X61693Y32717D01*
X61496Y33740D02*
X61724Y33512D01*
Y32789D02*
Y33512D01*
X62205Y32270D02*
Y33425D01*
X61693Y33937D02*
X62205Y33425D01*
X61811Y34409D02*
X63228Y32992D01*
X61769Y34173D02*
X62558Y33384D01*
X61457Y34173D02*
X61769D01*
X62724Y32906D02*
Y33218D01*
X62558Y33384D02*
X62577Y33365D01*
X62598Y33344D02*
Y33344D01*
X62676Y33266D02*
X62724Y33218D01*
X62577Y33365D02*
X62598Y33344D01*
X62656Y33286D02*
X62676Y33266D01*
X62598Y33344D02*
X62617Y33325D01*
X59803Y37402D02*
X60000Y37205D01*
X59803Y37402D02*
Y37717D01*
X60276Y37283D02*
Y37303D01*
X60236Y37342D02*
Y38346D01*
Y37342D02*
X60276Y37303D01*
X61693Y31772D02*
X62323Y31142D01*
X62724Y32789D02*
Y32906D01*
X63228Y32293D02*
Y32992D01*
X62724Y31789D02*
X63228Y32293D01*
X54724Y33465D02*
X55709Y34449D01*
X55236Y33622D02*
X55836Y34222D01*
X55236Y32278D02*
Y33622D01*
X54724Y32789D02*
Y33465D01*
X56260Y33110D02*
X58701Y35551D01*
X56260Y32254D02*
Y33110D01*
X57717Y32756D02*
Y33228D01*
X58228Y32293D02*
Y33425D01*
X62756Y36772D02*
Y37756D01*
X63701Y36496D02*
Y37795D01*
X63189Y36299D02*
Y38268D01*
X63976Y36024D02*
X64724Y36772D01*
Y37789D01*
X63724Y31789D02*
X64213Y32278D01*
X64995Y31142D02*
X65748D01*
X64370Y31339D02*
X64370Y31339D01*
X64535D01*
X64912Y31337D02*
X64914Y31339D01*
X64537Y31337D02*
X64912D01*
X61850Y30906D02*
X66299D01*
X64993Y31140D02*
X64995Y31142D01*
X64535Y31339D02*
X64537Y31337D01*
X63914Y31339D02*
X64370D01*
X64914Y31339D02*
X65274D01*
X64453Y31142D02*
X64455Y31140D01*
X64993D01*
X63995Y31142D02*
X64453D01*
X59213Y38307D02*
X59685Y38780D01*
X59213Y37520D02*
Y38307D01*
Y37520D02*
X59724Y37008D01*
X61220Y38307D02*
X61693Y38780D01*
X61724Y31789D02*
X62205Y32270D01*
X60236Y38346D02*
X60709Y38819D01*
X62205Y38346D02*
X62677Y38819D01*
X63537Y31337D02*
X63912D01*
X63535Y31339D02*
X63537Y31337D01*
X63912D02*
X63914Y31339D01*
X63110D02*
X63535D01*
X63993Y31140D02*
X63995Y31142D01*
X62323D02*
X63453D01*
X63455Y31140D02*
X63993D01*
X63453Y31142D02*
X63455Y31140D01*
X65274Y31339D02*
X65724Y31789D01*
X65748Y31142D02*
X66220Y31614D01*
X66299Y30906D02*
X66724Y31331D01*
X61220Y31535D02*
X61850Y30906D01*
X66220Y31614D02*
Y32285D01*
X66724Y31331D02*
Y31789D01*
X66220Y32285D02*
X66724Y32789D01*
X61220Y31535D02*
Y31926D01*
X61417Y32123D01*
X67724Y37134D02*
Y37789D01*
X68268Y37323D02*
Y38246D01*
X64724Y31789D02*
X65197Y32262D01*
X66260Y38268D02*
X66732Y38740D01*
X65197Y38386D02*
X65630Y38819D01*
X57724Y31789D02*
X58228Y32293D01*
X56260Y32254D02*
X56724Y31789D01*
X55236Y32278D02*
X55724Y31789D01*
X63189Y38268D02*
X63661Y38740D01*
X67724Y38789D02*
X68268Y38246D01*
X67835Y24646D02*
X68228Y24252D01*
Y22835D02*
Y24252D01*
X66850Y21457D02*
X68228Y22835D01*
X62126Y21457D02*
X66850D01*
X60197Y19528D02*
X62126Y21457D01*
X60197Y18089D02*
Y19528D01*
X59724Y17616D02*
X60197Y18089D01*
X67717Y22874D02*
Y23661D01*
X66614Y21772D02*
X67717Y22874D01*
X62047Y21772D02*
X66614D01*
X59724Y19449D02*
X62047Y21772D01*
X59724Y18616D02*
Y19449D01*
X66732Y23071D02*
Y23583D01*
X65709Y22047D02*
X66732Y23071D01*
X61929Y22047D02*
X65709D01*
X59252Y19370D02*
X61929Y22047D01*
X59252Y18144D02*
Y19370D01*
X58724Y17616D02*
X59252Y18144D01*
X61772Y22323D02*
X65315D01*
X58724Y19276D02*
X61772Y22323D01*
X58724Y18616D02*
Y19276D01*
X65315Y22323D02*
X66181Y23189D01*
Y24055D01*
X66732Y24606D01*
X57724Y3443D02*
X58228Y3947D01*
X59291Y8031D02*
Y8031D01*
X60236Y8976D01*
X59213Y9961D02*
X59724Y10472D01*
X57724Y4443D02*
Y5244D01*
X57244Y3963D02*
Y5157D01*
X56724Y4443D02*
Y5110D01*
X55724Y4443D02*
Y4976D01*
X54724Y4443D02*
X56974Y6693D01*
X60236Y8976D02*
Y10000D01*
X61732Y8898D02*
Y9409D01*
X61024Y8189D02*
X61732Y8898D01*
X56724Y3443D02*
X57244Y3963D01*
X62717Y8858D02*
Y9449D01*
X61693Y7835D02*
X62717Y8858D01*
X63189Y8858D02*
Y9961D01*
X60236Y10000D02*
X60630Y10394D01*
X63189Y9961D02*
X63661Y10433D01*
X53228Y3947D02*
Y4646D01*
X52724Y3443D02*
X53228Y3947D01*
X26537Y68346D02*
X27748Y67136D01*
X23813Y68071D02*
X24748Y67136D01*
X28150Y64646D02*
X29252Y65748D01*
Y66632D01*
X28748Y67136D02*
X29252Y66632D01*
X27533Y64921D02*
X28748Y66136D01*
X27205Y65591D02*
Y65593D01*
X27748Y66136D01*
X24809Y65197D02*
X25748Y66136D01*
X24045Y65433D02*
X24748Y66136D01*
X23189Y67795D02*
X23819Y67165D01*
X20748Y51963D02*
Y51968D01*
Y51102D02*
X24252Y47598D01*
X21260Y51024D02*
X24748Y47535D01*
X27520Y48543D02*
X27913Y48150D01*
X28268Y46443D02*
Y47795D01*
X27913Y48150D02*
X28268Y47795D01*
X24764Y51299D02*
X27520Y48543D01*
X24764Y51299D02*
Y51968D01*
X21260Y51024D02*
Y52480D01*
X24094Y48661D02*
X25276Y47480D01*
X24528Y48661D02*
X25748Y47441D01*
X21732Y51890D02*
X26260Y47362D01*
X25748Y46963D02*
Y47441D01*
X24094Y48661D02*
Y48701D01*
X25276Y46435D02*
Y47480D01*
X25512Y51732D02*
X25748Y51968D01*
X25512Y51024D02*
Y51732D01*
X20236Y52441D02*
X20748Y52953D01*
X20236Y51181D02*
Y52441D01*
Y51181D02*
X21811Y49606D01*
X24488D02*
X26748Y47346D01*
Y46963D02*
Y47346D01*
X24252Y46459D02*
Y47598D01*
X26260Y46451D02*
Y47362D01*
X25000Y49724D02*
X27244Y47480D01*
X25236Y50315D02*
X27748Y47803D01*
X23268Y51457D02*
Y52283D01*
X22756Y51482D02*
Y51929D01*
Y51482D02*
X23934Y50304D01*
X23268Y51457D02*
X25000Y49724D01*
X27748Y46963D02*
Y47803D01*
X25000Y49724D02*
X25000D01*
X24252Y52520D02*
X24685Y52953D01*
X25276Y46435D02*
X25748Y45963D01*
X28268Y46443D02*
X28748Y45963D01*
X22756Y52795D02*
Y52953D01*
Y52795D02*
X23268Y52283D01*
X27244Y46467D02*
Y47480D01*
Y46467D02*
X27748Y45963D01*
X21732Y51890D02*
Y51929D01*
X26260Y46451D02*
X26748Y45963D01*
X21260Y52480D02*
X21732Y52953D01*
X24748Y46963D02*
Y47535D01*
X20748Y51102D02*
Y51963D01*
X24252Y46459D02*
X24748Y45963D01*
X29252Y36339D02*
Y38346D01*
X26575Y33661D02*
X29252Y36339D01*
X13620Y33661D02*
X26575D01*
X28740Y36339D02*
Y37795D01*
X26339Y33937D02*
X28740Y36339D01*
X12896Y33937D02*
X26339D01*
X11748Y32789D02*
X12896Y33937D01*
X28780Y38819D02*
X29252Y38346D01*
X12748Y32789D02*
X13620Y33661D01*
X25748Y22323D02*
Y23616D01*
X25591Y22165D02*
X25748Y22323D01*
X25079Y18976D02*
Y19213D01*
X25236Y18128D02*
Y18819D01*
X25079Y18976D02*
X25236Y18819D01*
X25315Y19049D02*
X25748Y18616D01*
X25315Y19049D02*
Y19370D01*
X25236Y22362D02*
Y24173D01*
X24764Y22402D02*
X28268Y18898D01*
X24764Y24646D02*
X25236Y24173D01*
X24748Y18616D02*
Y19189D01*
X21220Y22717D02*
X24748Y19189D01*
X25236Y18128D02*
X25748Y17616D01*
X21220Y22717D02*
Y24055D01*
X29252Y20748D02*
Y24094D01*
X28071Y19567D02*
X29252Y20748D01*
X28740Y24606D02*
X29252Y24094D01*
X23189Y22874D02*
X27244Y18819D01*
X22798Y22874D02*
X23189D01*
X27244Y18120D02*
Y18819D01*
X20276Y22520D02*
Y24144D01*
Y22520D02*
X22677Y20118D01*
X20748Y17616D02*
X20884D01*
X21201Y17933D01*
Y18791D01*
X21748Y23291D02*
X26260Y18780D01*
X21748Y23291D02*
Y23616D01*
X26260Y18622D02*
Y18780D01*
Y18104D02*
Y18622D01*
X27874Y19843D02*
X28740Y20709D01*
Y23622D01*
X22283Y23389D02*
X22798Y22874D01*
X22283Y23389D02*
Y24173D01*
X23071Y23307D02*
X27748Y18630D01*
Y18616D02*
Y18630D01*
X21201Y18791D02*
X21977Y19567D01*
X22677D01*
X24764Y22402D02*
Y23583D01*
X28268Y18096D02*
Y18898D01*
X20748Y22677D02*
X24291Y19134D01*
X20276Y24144D02*
X20748Y24616D01*
X22283Y24173D02*
X22717Y24606D01*
X22795Y23583D02*
X23071Y23307D01*
X28268Y18096D02*
X28748Y17616D01*
X27244Y18120D02*
X27748Y17616D01*
X26260Y18104D02*
X26748Y17616D01*
X21220Y24055D02*
X21772Y24606D01*
X20748Y22677D02*
Y23583D01*
X24291Y18073D02*
Y19134D01*
Y18073D02*
X24748Y17616D01*
X26142Y5669D02*
X28748Y8276D01*
X13268Y5157D02*
X13780Y5669D01*
X26142D01*
X28748Y8276D02*
Y9443D01*
X13465Y5984D02*
X25906D01*
X12244Y3939D02*
Y4764D01*
X13465Y5984D01*
X12756Y3425D02*
X13268Y3937D01*
Y5157D01*
X28228Y9921D02*
X28740Y10433D01*
X28228Y8307D02*
Y9921D01*
X25906Y5984D02*
X28228Y8307D01*
X11748Y3443D02*
X12244Y3939D01*
D37*
X62608Y34272D02*
D03*
X60980Y34642D02*
D03*
X60598Y34646D02*
D03*
X60785Y33737D02*
D03*
X61024Y33484D02*
D03*
X61213Y34429D02*
D03*
X60276Y34606D02*
D03*
X61339Y33484D02*
D03*
X61216Y36788D02*
D03*
X60591Y36949D02*
D03*
X60945D02*
D03*
X60276Y36488D02*
D03*
X65748Y35157D02*
D03*
X63071D02*
D03*
X62258Y34896D02*
D03*
X62559Y36043D02*
D03*
X63409Y34110D02*
D03*
X62953Y34016D02*
D03*
X63976Y36024D02*
D03*
X65512Y35433D02*
D03*
X63346D02*
D03*
X62244Y36280D02*
D03*
X55709Y33661D02*
D03*
X56496Y34724D02*
D03*
X67520Y48976D02*
D03*
X64370Y49173D02*
D03*
X67953Y48976D02*
D03*
X65906Y51024D02*
D03*
X67248Y48547D02*
D03*
X64961Y48228D02*
D03*
X65748D02*
D03*
X64252Y50827D02*
D03*
X65039Y50039D02*
D03*
X57874Y53898D02*
D03*
X60039D02*
D03*
X59291Y6417D02*
D03*
X61024Y6378D02*
D03*
X60433Y7736D02*
D03*
X58543Y7756D02*
D03*
X59295Y8028D02*
D03*
X58543Y5394D02*
D03*
X58228Y5118D02*
D03*
Y7874D02*
D03*
X65315Y12008D02*
D03*
X25240Y49846D02*
D03*
X24051Y20626D02*
D03*
X23661Y20827D02*
D03*
X25315Y20118D02*
D03*
X56024Y62874D02*
D03*
X59488Y63228D02*
D03*
X57209Y62949D02*
D03*
X59216Y63500D02*
D03*
X59724Y64055D02*
D03*
X59213Y65512D02*
D03*
X59724D02*
D03*
X64843Y68110D02*
D03*
X65315D02*
D03*
X67323D02*
D03*
X67205Y67795D02*
D03*
X57205Y61732D02*
D03*
X60433Y6693D02*
D03*
X59909D02*
D03*
X61378Y8071D02*
D03*
Y6969D02*
D03*
X28740Y49409D02*
D03*
X28228Y49488D02*
D03*
X23346Y48032D02*
D03*
X23622Y47756D02*
D03*
X23031Y48307D02*
D03*
X27756Y49646D02*
D03*
X55866Y52126D02*
D03*
X60394Y53622D02*
D03*
X21969Y20354D02*
D03*
X26063Y21890D02*
D03*
X66220Y11063D02*
D03*
Y49803D02*
D03*
X67717Y43858D02*
D03*
X62756D02*
D03*
X63346Y48543D02*
D03*
X63150Y48937D02*
D03*
X60000Y37205D02*
D03*
X59724Y37008D02*
D03*
X61693Y6693D02*
D03*
X59921Y7835D02*
D03*
X61024Y8189D02*
D03*
X61693Y7835D02*
D03*
X25984Y64370D02*
D03*
X27205Y65591D02*
D03*
X24528Y48661D02*
D03*
X24094Y48701D02*
D03*
X25512Y51024D02*
D03*
X21811Y49606D02*
D03*
X24488D02*
D03*
X23934Y50304D02*
D03*
X25236Y50315D02*
D03*
X25591Y22165D02*
D03*
X25236Y22362D02*
D03*
X22677Y20118D02*
D03*
X22874Y19843D02*
D03*
X27874D02*
D03*
X28071Y19567D02*
D03*
X22677D02*
D03*
D38*
X68268Y44409D02*
Y48661D01*
X67953Y48976D02*
X68268Y48661D01*
X65236Y51693D02*
Y52451D01*
Y51693D02*
X65906Y51024D01*
X64724Y52963D02*
X65236Y52451D01*
X67717Y43858D02*
X68268Y44409D01*
D39*
X51724Y61136D02*
D03*
Y60136D02*
D03*
X48724D02*
D03*
X49724D02*
D03*
Y61136D02*
D03*
X50724Y60136D02*
D03*
Y61136D02*
D03*
X52724D02*
D03*
Y60136D02*
D03*
X53724Y61136D02*
D03*
Y60136D02*
D03*
X54724Y61136D02*
D03*
Y60136D02*
D03*
X55724Y61136D02*
D03*
Y60136D02*
D03*
X56724Y61136D02*
D03*
Y60136D02*
D03*
X57724Y61136D02*
D03*
Y60136D02*
D03*
X58724Y61136D02*
D03*
Y60136D02*
D03*
X59724Y61136D02*
D03*
Y60136D02*
D03*
X60724Y61136D02*
D03*
Y60136D02*
D03*
X61724Y61136D02*
D03*
Y60136D02*
D03*
X62724Y61136D02*
D03*
Y60136D02*
D03*
X63724Y61136D02*
D03*
Y60136D02*
D03*
X64724Y61136D02*
D03*
Y60136D02*
D03*
X65724Y61136D02*
D03*
Y60136D02*
D03*
X66724Y61136D02*
D03*
Y60136D02*
D03*
X67724Y61136D02*
D03*
Y60136D02*
D03*
X54724Y67136D02*
D03*
Y66136D02*
D03*
X53724Y67136D02*
D03*
Y66136D02*
D03*
X52724Y67136D02*
D03*
Y66136D02*
D03*
X50724D02*
D03*
Y67136D02*
D03*
X49724Y66136D02*
D03*
Y67136D02*
D03*
X48724D02*
D03*
X51724D02*
D03*
Y66136D02*
D03*
X67724D02*
D03*
Y67136D02*
D03*
X60724D02*
D03*
Y66136D02*
D03*
X57724D02*
D03*
X58724D02*
D03*
Y67136D02*
D03*
X59724Y66136D02*
D03*
Y67136D02*
D03*
X61724D02*
D03*
Y66136D02*
D03*
X62724Y67136D02*
D03*
Y66136D02*
D03*
X63724Y67136D02*
D03*
Y66136D02*
D03*
X64724Y67136D02*
D03*
Y66136D02*
D03*
X65724Y67136D02*
D03*
Y66136D02*
D03*
X66724Y67136D02*
D03*
Y66136D02*
D03*
X51724Y51963D02*
D03*
Y52963D02*
D03*
X48724D02*
D03*
X49724D02*
D03*
Y51963D02*
D03*
X50724Y52963D02*
D03*
Y51963D02*
D03*
X52724D02*
D03*
Y52963D02*
D03*
X53724Y51963D02*
D03*
Y52963D02*
D03*
X54724Y51963D02*
D03*
Y52963D02*
D03*
X51724Y37789D02*
D03*
Y38789D02*
D03*
X48724D02*
D03*
X49724D02*
D03*
Y37789D02*
D03*
X50724Y38789D02*
D03*
Y37789D02*
D03*
X52724D02*
D03*
Y38789D02*
D03*
X53724Y37789D02*
D03*
Y38789D02*
D03*
X54724Y37789D02*
D03*
Y38789D02*
D03*
X51724Y23616D02*
D03*
Y24616D02*
D03*
X48724D02*
D03*
X49724D02*
D03*
Y23616D02*
D03*
X50724Y24616D02*
D03*
Y23616D02*
D03*
X52724D02*
D03*
Y24616D02*
D03*
X53724Y23616D02*
D03*
Y24616D02*
D03*
X54724Y23616D02*
D03*
Y24616D02*
D03*
X51724Y9443D02*
D03*
Y10443D02*
D03*
X48724D02*
D03*
X49724D02*
D03*
Y9443D02*
D03*
X50724Y10443D02*
D03*
Y9443D02*
D03*
X52724D02*
D03*
Y10443D02*
D03*
X53724Y9443D02*
D03*
Y10443D02*
D03*
X54724Y9443D02*
D03*
Y10443D02*
D03*
X12748Y66136D02*
D03*
Y67136D02*
D03*
X9748D02*
D03*
X10748D02*
D03*
Y66136D02*
D03*
X11748Y67136D02*
D03*
Y66136D02*
D03*
X13748D02*
D03*
Y67136D02*
D03*
X14748Y66136D02*
D03*
Y67136D02*
D03*
X15748Y66136D02*
D03*
Y67136D02*
D03*
X12748Y51963D02*
D03*
Y52963D02*
D03*
X9748D02*
D03*
X10748D02*
D03*
Y51963D02*
D03*
X11748Y52963D02*
D03*
Y51963D02*
D03*
X13748D02*
D03*
Y52963D02*
D03*
X14748Y51963D02*
D03*
Y52963D02*
D03*
X15748Y51963D02*
D03*
Y52963D02*
D03*
X12748Y37789D02*
D03*
Y38789D02*
D03*
X9748D02*
D03*
X10748D02*
D03*
Y37789D02*
D03*
X11748Y38789D02*
D03*
Y37789D02*
D03*
X13748D02*
D03*
Y38789D02*
D03*
X14748Y37789D02*
D03*
Y38789D02*
D03*
X15748Y37789D02*
D03*
Y38789D02*
D03*
X12748Y23616D02*
D03*
Y24616D02*
D03*
X9748D02*
D03*
X10748D02*
D03*
Y23616D02*
D03*
X11748Y24616D02*
D03*
Y23616D02*
D03*
X13748D02*
D03*
Y24616D02*
D03*
X14748Y23616D02*
D03*
Y24616D02*
D03*
X15748Y23616D02*
D03*
Y24616D02*
D03*
X12748Y9443D02*
D03*
Y10443D02*
D03*
X9748D02*
D03*
X10748D02*
D03*
Y9443D02*
D03*
X11748Y10443D02*
D03*
Y9443D02*
D03*
X13748D02*
D03*
Y10443D02*
D03*
X14748Y9443D02*
D03*
Y10443D02*
D03*
X15748Y9443D02*
D03*
Y10443D02*
D03*
X66724Y37789D02*
D03*
Y38789D02*
D03*
X65724Y37789D02*
D03*
Y38789D02*
D03*
X64724Y37789D02*
D03*
Y38789D02*
D03*
X63724Y37789D02*
D03*
Y38789D02*
D03*
X62724Y37789D02*
D03*
Y38789D02*
D03*
X61724Y37789D02*
D03*
Y38789D02*
D03*
X59724D02*
D03*
Y37789D02*
D03*
X58724Y38789D02*
D03*
Y37789D02*
D03*
X57724D02*
D03*
X60724D02*
D03*
Y38789D02*
D03*
X67724D02*
D03*
Y37789D02*
D03*
X66724Y51963D02*
D03*
Y52963D02*
D03*
X65724Y51963D02*
D03*
Y52963D02*
D03*
X64724Y51963D02*
D03*
Y52963D02*
D03*
X63724Y51963D02*
D03*
Y52963D02*
D03*
X62724Y51963D02*
D03*
Y52963D02*
D03*
X61724Y51963D02*
D03*
Y52963D02*
D03*
X59724D02*
D03*
Y51963D02*
D03*
X58724Y52963D02*
D03*
Y51963D02*
D03*
X57724D02*
D03*
X60724D02*
D03*
Y52963D02*
D03*
X67724D02*
D03*
Y51963D02*
D03*
Y45963D02*
D03*
Y46963D02*
D03*
X66724Y45963D02*
D03*
Y46963D02*
D03*
X65724Y45963D02*
D03*
Y46963D02*
D03*
X64724Y45963D02*
D03*
Y46963D02*
D03*
X63724Y45963D02*
D03*
Y46963D02*
D03*
X62724Y45963D02*
D03*
Y46963D02*
D03*
X61724Y45963D02*
D03*
Y46963D02*
D03*
X60724Y45963D02*
D03*
Y46963D02*
D03*
X59724Y45963D02*
D03*
Y46963D02*
D03*
X58724Y45963D02*
D03*
Y46963D02*
D03*
X57724Y45963D02*
D03*
Y46963D02*
D03*
X56724Y45963D02*
D03*
Y46963D02*
D03*
X55724Y45963D02*
D03*
Y46963D02*
D03*
X54724Y45963D02*
D03*
Y46963D02*
D03*
X53724Y45963D02*
D03*
Y46963D02*
D03*
X52724Y45963D02*
D03*
Y46963D02*
D03*
X50724D02*
D03*
Y45963D02*
D03*
X49724Y46963D02*
D03*
Y45963D02*
D03*
X48724D02*
D03*
X51724D02*
D03*
Y46963D02*
D03*
X67724Y31789D02*
D03*
Y32789D02*
D03*
X66724Y31789D02*
D03*
Y32789D02*
D03*
X65724Y31789D02*
D03*
Y32789D02*
D03*
X64724Y31789D02*
D03*
Y32789D02*
D03*
X63724Y31789D02*
D03*
Y32789D02*
D03*
X62724Y31789D02*
D03*
Y32789D02*
D03*
X61724Y31789D02*
D03*
Y32789D02*
D03*
X60724Y31789D02*
D03*
Y32789D02*
D03*
X59724Y31789D02*
D03*
Y32789D02*
D03*
X58724Y31789D02*
D03*
Y32789D02*
D03*
X57724Y31789D02*
D03*
Y32789D02*
D03*
X56724Y31789D02*
D03*
Y32789D02*
D03*
X55724Y31789D02*
D03*
Y32789D02*
D03*
X54724Y31789D02*
D03*
Y32789D02*
D03*
X53724Y31789D02*
D03*
Y32789D02*
D03*
X52724Y31789D02*
D03*
Y32789D02*
D03*
X50724D02*
D03*
Y31789D02*
D03*
X49724Y32789D02*
D03*
Y31789D02*
D03*
X48724D02*
D03*
X51724D02*
D03*
Y32789D02*
D03*
X66724Y23616D02*
D03*
Y24616D02*
D03*
X65724Y23616D02*
D03*
Y24616D02*
D03*
X64724Y23616D02*
D03*
Y24616D02*
D03*
X63724Y23616D02*
D03*
Y24616D02*
D03*
X62724Y23616D02*
D03*
Y24616D02*
D03*
X61724Y23616D02*
D03*
Y24616D02*
D03*
X59724D02*
D03*
Y23616D02*
D03*
X58724Y24616D02*
D03*
Y23616D02*
D03*
X57724D02*
D03*
X60724D02*
D03*
Y24616D02*
D03*
X67724D02*
D03*
Y23616D02*
D03*
Y17616D02*
D03*
Y18616D02*
D03*
X66724Y17616D02*
D03*
Y18616D02*
D03*
X65724Y17616D02*
D03*
Y18616D02*
D03*
X64724Y17616D02*
D03*
Y18616D02*
D03*
X63724Y17616D02*
D03*
Y18616D02*
D03*
X62724Y17616D02*
D03*
Y18616D02*
D03*
X61724Y17616D02*
D03*
Y18616D02*
D03*
X60724Y17616D02*
D03*
Y18616D02*
D03*
X59724Y17616D02*
D03*
Y18616D02*
D03*
X58724Y17616D02*
D03*
Y18616D02*
D03*
X57724Y17616D02*
D03*
Y18616D02*
D03*
X56724Y17616D02*
D03*
Y18616D02*
D03*
X55724Y17616D02*
D03*
Y18616D02*
D03*
X54724Y17616D02*
D03*
Y18616D02*
D03*
X53724Y17616D02*
D03*
Y18616D02*
D03*
X52724Y17616D02*
D03*
Y18616D02*
D03*
X50724D02*
D03*
Y17616D02*
D03*
X49724Y18616D02*
D03*
Y17616D02*
D03*
X48724D02*
D03*
X51724D02*
D03*
Y18616D02*
D03*
X66724Y9443D02*
D03*
Y10443D02*
D03*
X65724Y9443D02*
D03*
Y10443D02*
D03*
X64724Y9443D02*
D03*
Y10443D02*
D03*
X63724Y9443D02*
D03*
Y10443D02*
D03*
X62724Y9443D02*
D03*
Y10443D02*
D03*
X61724Y9443D02*
D03*
Y10443D02*
D03*
X59724D02*
D03*
Y9443D02*
D03*
X58724Y10443D02*
D03*
Y9443D02*
D03*
X57724D02*
D03*
X60724D02*
D03*
Y10443D02*
D03*
X67724D02*
D03*
Y9443D02*
D03*
Y3443D02*
D03*
Y4443D02*
D03*
X66724Y3443D02*
D03*
Y4443D02*
D03*
X65724Y3443D02*
D03*
Y4443D02*
D03*
X64724Y3443D02*
D03*
Y4443D02*
D03*
X63724Y3443D02*
D03*
Y4443D02*
D03*
X62724Y3443D02*
D03*
Y4443D02*
D03*
X61724Y3443D02*
D03*
Y4443D02*
D03*
X60724Y3443D02*
D03*
Y4443D02*
D03*
X59724Y3443D02*
D03*
Y4443D02*
D03*
X58724Y3443D02*
D03*
Y4443D02*
D03*
X57724Y3443D02*
D03*
Y4443D02*
D03*
X56724Y3443D02*
D03*
Y4443D02*
D03*
X55724Y3443D02*
D03*
Y4443D02*
D03*
X54724Y3443D02*
D03*
Y4443D02*
D03*
X53724Y3443D02*
D03*
Y4443D02*
D03*
X52724Y3443D02*
D03*
Y4443D02*
D03*
X50724D02*
D03*
Y3443D02*
D03*
X49724Y4443D02*
D03*
Y3443D02*
D03*
X48724D02*
D03*
X51724D02*
D03*
Y4443D02*
D03*
X27748Y66136D02*
D03*
Y67136D02*
D03*
X26748Y66136D02*
D03*
Y67136D02*
D03*
X25748Y66136D02*
D03*
Y67136D02*
D03*
X24748Y66136D02*
D03*
Y67136D02*
D03*
X23748Y66136D02*
D03*
Y67136D02*
D03*
X22748Y66136D02*
D03*
Y67136D02*
D03*
X20748D02*
D03*
Y66136D02*
D03*
X19748Y67136D02*
D03*
Y66136D02*
D03*
X18748D02*
D03*
X21748D02*
D03*
Y67136D02*
D03*
X28748D02*
D03*
Y66136D02*
D03*
Y60136D02*
D03*
Y61136D02*
D03*
X27748Y60136D02*
D03*
Y61136D02*
D03*
X26748Y60136D02*
D03*
Y61136D02*
D03*
X25748Y60136D02*
D03*
Y61136D02*
D03*
X24748Y60136D02*
D03*
Y61136D02*
D03*
X23748Y60136D02*
D03*
Y61136D02*
D03*
X22748Y60136D02*
D03*
Y61136D02*
D03*
X21748Y60136D02*
D03*
Y61136D02*
D03*
X20748Y60136D02*
D03*
Y61136D02*
D03*
X19748Y60136D02*
D03*
Y61136D02*
D03*
X18748Y60136D02*
D03*
Y61136D02*
D03*
X17748Y60136D02*
D03*
Y61136D02*
D03*
X16748Y60136D02*
D03*
Y61136D02*
D03*
X15748Y60136D02*
D03*
Y61136D02*
D03*
X14748Y60136D02*
D03*
Y61136D02*
D03*
X13748Y60136D02*
D03*
Y61136D02*
D03*
X11748D02*
D03*
Y60136D02*
D03*
X10748Y61136D02*
D03*
Y60136D02*
D03*
X9748D02*
D03*
X12748D02*
D03*
Y61136D02*
D03*
X27748Y51963D02*
D03*
Y52963D02*
D03*
X26748Y51963D02*
D03*
Y52963D02*
D03*
X25748Y51963D02*
D03*
Y52963D02*
D03*
X24748Y51963D02*
D03*
Y52963D02*
D03*
X23748Y51963D02*
D03*
Y52963D02*
D03*
X22748Y51963D02*
D03*
Y52963D02*
D03*
X20748D02*
D03*
Y51963D02*
D03*
X19748Y52963D02*
D03*
Y51963D02*
D03*
X18748D02*
D03*
X21748D02*
D03*
Y52963D02*
D03*
X28748D02*
D03*
Y51963D02*
D03*
Y45963D02*
D03*
Y46963D02*
D03*
X27748Y45963D02*
D03*
Y46963D02*
D03*
X26748Y45963D02*
D03*
Y46963D02*
D03*
X25748Y45963D02*
D03*
Y46963D02*
D03*
X24748Y45963D02*
D03*
Y46963D02*
D03*
X23748Y45963D02*
D03*
Y46963D02*
D03*
X22748Y45963D02*
D03*
Y46963D02*
D03*
X21748Y45963D02*
D03*
Y46963D02*
D03*
X20748Y45963D02*
D03*
Y46963D02*
D03*
X19748Y45963D02*
D03*
Y46963D02*
D03*
X18748Y45963D02*
D03*
Y46963D02*
D03*
X17748Y45963D02*
D03*
Y46963D02*
D03*
X16748Y45963D02*
D03*
Y46963D02*
D03*
X15748Y45963D02*
D03*
Y46963D02*
D03*
X14748Y45963D02*
D03*
Y46963D02*
D03*
X13748Y45963D02*
D03*
Y46963D02*
D03*
X11748D02*
D03*
Y45963D02*
D03*
X10748Y46963D02*
D03*
Y45963D02*
D03*
X9748D02*
D03*
X12748D02*
D03*
Y46963D02*
D03*
X28748Y31789D02*
D03*
Y32789D02*
D03*
X27748Y31789D02*
D03*
Y32789D02*
D03*
X26748Y31789D02*
D03*
Y32789D02*
D03*
X25748Y31789D02*
D03*
Y32789D02*
D03*
X24748Y31789D02*
D03*
Y32789D02*
D03*
X23748Y31789D02*
D03*
Y32789D02*
D03*
X22748Y31789D02*
D03*
Y32789D02*
D03*
X21748Y31789D02*
D03*
Y32789D02*
D03*
X20748Y31789D02*
D03*
Y32789D02*
D03*
X19748Y31789D02*
D03*
Y32789D02*
D03*
X18748Y31789D02*
D03*
Y32789D02*
D03*
X17748Y31789D02*
D03*
Y32789D02*
D03*
X16748Y31789D02*
D03*
Y32789D02*
D03*
X15748Y31789D02*
D03*
Y32789D02*
D03*
X14748Y31789D02*
D03*
Y32789D02*
D03*
X13748Y31789D02*
D03*
Y32789D02*
D03*
X11748D02*
D03*
Y31789D02*
D03*
X10748Y32789D02*
D03*
Y31789D02*
D03*
X9748D02*
D03*
X12748D02*
D03*
Y32789D02*
D03*
X27748Y37789D02*
D03*
Y38789D02*
D03*
X26748Y37789D02*
D03*
Y38789D02*
D03*
X25748Y37789D02*
D03*
Y38789D02*
D03*
X24748Y37789D02*
D03*
Y38789D02*
D03*
X23748Y37789D02*
D03*
Y38789D02*
D03*
X22748Y37789D02*
D03*
Y38789D02*
D03*
X20748D02*
D03*
Y37789D02*
D03*
X19748Y38789D02*
D03*
Y37789D02*
D03*
X18748D02*
D03*
X21748D02*
D03*
Y38789D02*
D03*
X28748D02*
D03*
Y37789D02*
D03*
Y23616D02*
D03*
Y24616D02*
D03*
X21748D02*
D03*
Y23616D02*
D03*
X18748D02*
D03*
X19748D02*
D03*
Y24616D02*
D03*
X20748Y23616D02*
D03*
Y24616D02*
D03*
X22748D02*
D03*
Y23616D02*
D03*
X23748Y24616D02*
D03*
Y23616D02*
D03*
X24748Y24616D02*
D03*
Y23616D02*
D03*
X25748Y24616D02*
D03*
Y23616D02*
D03*
X26748Y24616D02*
D03*
Y23616D02*
D03*
X27748Y24616D02*
D03*
Y23616D02*
D03*
X10748Y18616D02*
D03*
Y17616D02*
D03*
X11748Y18616D02*
D03*
Y17616D02*
D03*
X12748Y18616D02*
D03*
Y17616D02*
D03*
X13748Y18616D02*
D03*
Y17616D02*
D03*
X14748Y18616D02*
D03*
Y17616D02*
D03*
X15748Y18616D02*
D03*
Y17616D02*
D03*
X16748Y18616D02*
D03*
Y17616D02*
D03*
X17748Y18616D02*
D03*
Y17616D02*
D03*
X18748Y18616D02*
D03*
Y17616D02*
D03*
X19748Y18616D02*
D03*
Y17616D02*
D03*
X20748Y18616D02*
D03*
Y17616D02*
D03*
X21748Y18616D02*
D03*
Y17616D02*
D03*
X22748Y18616D02*
D03*
Y17616D02*
D03*
X23748Y18616D02*
D03*
Y17616D02*
D03*
X24748Y18616D02*
D03*
Y17616D02*
D03*
X25748Y18616D02*
D03*
Y17616D02*
D03*
X26748Y18616D02*
D03*
Y17616D02*
D03*
X27748Y18616D02*
D03*
Y17616D02*
D03*
X28748Y18616D02*
D03*
Y17616D02*
D03*
X9748D02*
D03*
X28748Y9443D02*
D03*
Y10443D02*
D03*
X21748D02*
D03*
Y9443D02*
D03*
X18748D02*
D03*
X19748D02*
D03*
Y10443D02*
D03*
X20748Y9443D02*
D03*
Y10443D02*
D03*
X22748D02*
D03*
Y9443D02*
D03*
X23748Y10443D02*
D03*
Y9443D02*
D03*
X24748Y10443D02*
D03*
Y9443D02*
D03*
X25748Y10443D02*
D03*
Y9443D02*
D03*
X26748Y10443D02*
D03*
Y9443D02*
D03*
X27748Y10443D02*
D03*
Y9443D02*
D03*
X12748Y4443D02*
D03*
Y3443D02*
D03*
X9748D02*
D03*
X10748D02*
D03*
Y4443D02*
D03*
X11748Y3443D02*
D03*
Y4443D02*
D03*
X13748D02*
D03*
Y3443D02*
D03*
X14748Y4443D02*
D03*
Y3443D02*
D03*
X15748Y4443D02*
D03*
Y3443D02*
D03*
X16748Y4443D02*
D03*
Y3443D02*
D03*
X17748Y4443D02*
D03*
Y3443D02*
D03*
X18748Y4443D02*
D03*
Y3443D02*
D03*
X19748Y4443D02*
D03*
Y3443D02*
D03*
X20748Y4443D02*
D03*
Y3443D02*
D03*
X21748Y4443D02*
D03*
Y3443D02*
D03*
X22748Y4443D02*
D03*
Y3443D02*
D03*
X23748Y4443D02*
D03*
Y3443D02*
D03*
X24748Y4443D02*
D03*
Y3443D02*
D03*
X25748Y4443D02*
D03*
Y3443D02*
D03*
X26748Y4443D02*
D03*
Y3443D02*
D03*
X27748Y4443D02*
D03*
Y3443D02*
D03*
X28748Y4443D02*
D03*
Y3443D02*
D03*
D40*
X48724Y61136D02*
D03*
Y66136D02*
D03*
X57724Y67136D02*
D03*
X48724Y51963D02*
D03*
Y37789D02*
D03*
Y23616D02*
D03*
Y9443D02*
D03*
X9748Y66136D02*
D03*
Y51963D02*
D03*
Y37789D02*
D03*
Y23616D02*
D03*
Y9443D02*
D03*
X57724Y38789D02*
D03*
Y52963D02*
D03*
X48724Y46963D02*
D03*
Y32789D02*
D03*
X57724Y24616D02*
D03*
X48724Y18616D02*
D03*
X57724Y10443D02*
D03*
X48724Y4443D02*
D03*
X18748Y67136D02*
D03*
X9748Y61136D02*
D03*
X18748Y52963D02*
D03*
X9748Y46963D02*
D03*
Y32789D02*
D03*
X18748Y38789D02*
D03*
Y24616D02*
D03*
X9748Y18616D02*
D03*
X18748Y10443D02*
D03*
X9748Y4443D02*
D03*
M02*
