G04*
G04 #@! TF.GenerationSoftware,Altium Limited,Altium Designer,22.2.1 (43)*
G04*
G04 Layer_Color=1265191*
%FSLAX24Y24*%
%MOIN*%
G70*
G04*
G04 #@! TF.SameCoordinates,419A5C8F-83EA-46CD-B97C-ABCF89401922*
G04*
G04*
G04 #@! TF.FilePolarity,Positive*
G04*
G01*
G75*
%ADD11C,0.0039*%
D11*
X75984Y56693D02*
G03*
X77559Y58268I0J1575D01*
G01*
Y68898D02*
G03*
X75984Y70472I-1575J0D01*
G01*
X1575D02*
G03*
X0Y68898I0J-1575D01*
G01*
X77559Y26378D02*
G03*
X75984Y27953I-1575J0D01*
G01*
X77559Y54724D02*
G03*
X75984Y56299I-1575J0D01*
G01*
X77559Y40551D02*
G03*
X75984Y42126I-1575J0D01*
G01*
X38583Y66732D02*
G03*
X38976Y66732I197J0D01*
G01*
X77559Y68898D02*
G03*
X75984Y70472I-1575J0D01*
G01*
Y56693D02*
G03*
X77559Y58268I0J1575D01*
G01*
X40551Y70472D02*
G03*
X38976Y68898I0J-1575D01*
G01*
X75984Y28346D02*
G03*
X77559Y29921I0J1575D01*
G01*
X75984Y42520D02*
G03*
X77559Y44094I0J1575D01*
G01*
X38583Y68898D02*
G03*
X37008Y70472I-1575J0D01*
G01*
X0Y58268D02*
G03*
X1575Y56693I1575J0D01*
G01*
Y56299D02*
G03*
X0Y54724I0J-1575D01*
G01*
Y44094D02*
G03*
X1575Y42520I1575J0D01*
G01*
Y42126D02*
G03*
X0Y40551I0J-1575D01*
G01*
X1575Y27953D02*
G03*
X0Y26378I0J-1575D01*
G01*
Y29921D02*
G03*
X1575Y28346I1575J0D01*
G01*
X68307Y56693D02*
G03*
X68307Y56299I0J-197D01*
G01*
X38976Y3740D02*
G03*
X38583Y3740I-197J0D01*
G01*
X68307Y14173D02*
G03*
X68307Y13780I0J-197D01*
G01*
Y28346D02*
G03*
X68307Y27953I0J-197D01*
G01*
Y42520D02*
G03*
X68307Y42126I0J-197D01*
G01*
X9252Y27953D02*
G03*
X9252Y28346I0J197D01*
G01*
Y13780D02*
G03*
X9252Y14173I0J197D01*
G01*
Y42126D02*
G03*
X9252Y42520I0J197D01*
G01*
Y56299D02*
G03*
X9252Y56693I0J197D01*
G01*
X38976Y1575D02*
G03*
X40551Y0I1575J0D01*
G01*
X75984D02*
G03*
X77559Y1575I0J1575D01*
G01*
Y12205D02*
G03*
X75984Y13780I-1575J0D01*
G01*
Y14173D02*
G03*
X77559Y15748I0J1575D01*
G01*
X37008Y0D02*
G03*
X38583Y1575I0J1575D01*
G01*
X0Y15748D02*
G03*
X1575Y14173I1575J0D01*
G01*
Y13780D02*
G03*
X0Y12205I0J-1575D01*
G01*
X75984Y0D02*
G03*
X77559Y1575I0J1575D01*
G01*
X0D02*
G03*
X1575Y0I1575J0D01*
G01*
X77559Y58268D02*
Y68898D01*
X68307Y70472D02*
X75984D01*
X68307Y56693D02*
X75984D01*
X68307Y42126D02*
X75984D01*
X0Y1575D02*
Y12205D01*
X68307Y56693D02*
X75984D01*
X38976Y66732D02*
Y68898D01*
X38583Y66732D02*
Y68898D01*
X1575Y28346D02*
X9252D01*
X1575Y42520D02*
X9252D01*
X1575Y56693D02*
X9252D01*
X77559Y58268D02*
Y68898D01*
X40551Y70472D02*
X75984D01*
X38976Y1575D02*
Y3740D01*
X38583Y1575D02*
Y3740D01*
X68307Y14173D02*
X75984D01*
X68307Y13780D02*
X75984D01*
X68307Y28346D02*
X75984D01*
X68307Y27953D02*
X75984D01*
X68307Y42520D02*
X75984D01*
X68307Y56299D02*
X75984D01*
X1575Y27953D02*
X9252D01*
X1575Y13780D02*
X9252D01*
X1575Y14173D02*
X9252D01*
X1575Y42126D02*
X9252D01*
X1575Y70472D02*
X37008D01*
X40551Y0D02*
X75984D01*
X77559Y1575D02*
Y12205D01*
Y15748D02*
Y26378D01*
Y29921D02*
Y40551D01*
Y44094D02*
Y54724D01*
X1575Y56299D02*
X9252D01*
X1575Y0D02*
X37008D01*
M02*
