G04*
G04 #@! TF.GenerationSoftware,Altium Limited,Altium Designer,22.6.1 (34)*
G04*
G04 Layer_Physical_Order=1*
G04 Layer_Color=255*
%FSLAX24Y24*%
%MOIN*%
G70*
G04*
G04 #@! TF.SameCoordinates,E1D52860-6489-4A1D-BE11-D1A6212AA477*
G04*
G04*
G04 #@! TF.FilePolarity,Positive*
G04*
G01*
G75*
%ADD27C,0.0118*%
%ADD28C,0.0669*%
%ADD29R,0.0669X0.0669*%
%ADD30C,0.0197*%
D27*
X56512Y50925D02*
X59669D01*
X55724Y51713D02*
X56512Y50925D01*
X55787Y50650D02*
X59742D01*
X54724Y51713D02*
X55787Y50650D01*
X59742D02*
X60018Y50925D01*
X52252Y50980D02*
X53409Y49823D01*
X60811D01*
X61205Y50217D01*
X53724Y51713D02*
X55220Y50217D01*
X59866D02*
X60102Y50453D01*
X54417Y50020D02*
X60052D01*
X55220Y50217D02*
X59866D01*
X54197Y51572D02*
X55355Y50414D01*
X52724Y51713D02*
X54417Y50020D01*
X59785Y50414D02*
X60060Y50689D01*
X55355Y50414D02*
X59785D01*
X60052Y50020D02*
X60249Y50217D01*
X60060Y50689D02*
X60968D01*
X60102Y50453D02*
X61441D01*
X60018Y50925D02*
X61441D01*
X61741Y50625D01*
X61977D01*
X61992Y50610D01*
X57031Y51162D02*
X61598D01*
X61874Y50886D01*
X65252Y50894D02*
X65260Y50886D01*
X65252Y50894D02*
Y52240D01*
X65654Y52642D01*
X61260Y48248D02*
X63134D01*
X59724Y46713D02*
X61260Y48248D01*
X66441Y48130D02*
Y48142D01*
X66252Y48331D02*
X66441Y48142D01*
X66252Y48331D02*
Y52138D01*
X64724Y49414D02*
X67197Y46941D01*
X64724Y49414D02*
Y51618D01*
X67197Y46185D02*
Y46941D01*
Y48492D02*
Y52185D01*
X67189Y48484D02*
X67197Y48492D01*
Y52185D02*
X67701Y52689D01*
X66724Y48555D02*
X68213Y47067D01*
Y46201D02*
Y47067D01*
X66724Y48555D02*
Y51713D01*
X64252Y49185D02*
Y52185D01*
Y49185D02*
X66724Y46713D01*
X63724Y49429D02*
X66197Y46957D01*
X63724Y49429D02*
Y51673D01*
X66197Y46185D02*
Y46957D01*
X64715Y47388D02*
X64720Y47383D01*
Y46717D02*
Y47383D01*
X62252Y49520D02*
Y52240D01*
X63724Y46713D02*
Y48047D01*
X62252Y49520D02*
X63724Y48047D01*
X62724Y49713D02*
X65724Y46713D01*
X62724Y49713D02*
Y51658D01*
X64720Y46717D02*
X64724Y46713D01*
X64787Y51713D02*
Y51752D01*
X64669Y51673D02*
X64724Y51618D01*
X67732Y49280D02*
Y51705D01*
Y49280D02*
X67740Y49272D01*
X67724Y51713D02*
X67732Y51705D01*
X67724Y45713D02*
X68213Y46201D01*
X56008Y52185D02*
X57031Y51162D01*
X55252Y52185D02*
X56008D01*
X61277Y47933D02*
X63370D01*
X59622Y52815D02*
X59669D01*
X59228Y53209D02*
X59622Y52815D01*
X56221Y53209D02*
X59228D01*
X55724Y52713D02*
X56221Y53209D01*
X53724Y52713D02*
X54197Y52240D01*
Y51572D02*
Y52240D01*
X52252D02*
X52724Y52713D01*
X52252Y50980D02*
Y52240D01*
X65654Y52642D02*
Y52697D01*
X54740D02*
X55252Y52185D01*
X67701Y52689D02*
Y52697D01*
X60197Y46853D02*
X61277Y47933D01*
X60197Y46185D02*
Y46853D01*
X59724Y45713D02*
X60197Y46185D01*
X66677Y52563D02*
Y52736D01*
X66252Y52138D02*
X66677Y52563D01*
X62252Y52240D02*
X62701Y52689D01*
X65724Y45713D02*
X66197Y46185D01*
X66724Y45713D02*
X67197Y46185D01*
X63843Y52594D02*
Y52736D01*
Y52594D02*
X64252Y52185D01*
X61756Y30768D02*
X65953D01*
X66724Y31539D01*
X61252Y31272D02*
X61756Y30768D01*
X62724Y31539D02*
X63299Y30965D01*
X65150D02*
X65724Y31539D01*
X63299Y30965D02*
X65150D01*
X53606Y5807D02*
X54315D01*
Y6162D02*
X54551Y6398D01*
X59039D01*
X54315Y5807D02*
X54709Y6201D01*
X59354D01*
X60024Y6870D01*
X54827Y6004D02*
X59591D01*
X54748Y5571D02*
X54984Y5807D01*
X52740Y5571D02*
X54394D01*
X54827Y6004D01*
X58606Y6634D02*
X59724Y7752D01*
X56992Y6634D02*
X58606D01*
X57858Y6870D02*
X59197Y8209D01*
X55968Y6870D02*
X57858D01*
X55732Y6634D02*
X55968Y6870D01*
X59724Y7752D02*
Y9193D01*
X59039Y6398D02*
X60252Y7610D01*
Y9720D01*
X60024Y6870D02*
X60724Y7571D01*
X59984Y5610D02*
X62252Y7878D01*
X59591Y6004D02*
X61197Y7610D01*
X59748Y5807D02*
X61724Y7784D01*
X50724Y4193D02*
X51669Y5138D01*
X55260Y5374D02*
X60417D01*
X52473Y4941D02*
X61047D01*
X54886Y5335D02*
X55162Y5610D01*
X52252Y4389D02*
X52608Y4744D01*
X55220Y5610D02*
X59984D01*
X52608Y4744D02*
X61717D01*
X51669Y5138D02*
X60535D01*
X55162Y5610D02*
X55220D01*
X55220Y5610D01*
X51724Y4193D02*
X52473Y4941D01*
X54984Y5807D02*
X59748D01*
X61717Y4744D02*
X64724Y7752D01*
X61047Y4941D02*
X63724Y7618D01*
X60535Y5138D02*
X63197Y7799D01*
X60417Y5374D02*
X62724Y7681D01*
X50252Y3665D02*
Y4469D01*
X51126Y5335D02*
X54886D01*
X50260Y4469D02*
X51126Y5335D01*
X50563Y8366D02*
X50575D01*
X49776Y9154D02*
X50563Y8366D01*
X49709Y9154D02*
X49776D01*
X49788Y10256D02*
X50299Y10768D01*
X67149D02*
X67724Y10193D01*
X50299Y10768D02*
X67149D01*
X59197Y9665D02*
X59724Y10193D01*
X59197Y8209D02*
Y9665D01*
X60252Y9720D02*
X60724Y10193D01*
Y7571D02*
Y9193D01*
X61197Y7610D02*
Y9665D01*
X61724Y10193D01*
X62252Y7878D02*
Y9720D01*
X62544Y10013D01*
X61724Y7784D02*
Y9193D01*
X63197Y9665D02*
X63724Y10193D01*
X63197Y7799D02*
Y9665D01*
X62724Y7681D02*
Y9193D01*
X64669Y9154D02*
X64724Y9099D01*
Y7752D02*
Y9099D01*
X51724Y3193D02*
X52252Y3720D01*
Y4389D01*
X62544Y10013D02*
Y10334D01*
X50252Y3665D02*
X50724Y3193D01*
X63724Y9114D02*
X63764Y9154D01*
X63724Y7618D02*
Y9114D01*
X60724Y32539D02*
Y33240D01*
X61362Y33878D02*
X63742D01*
X60724Y33240D02*
X61362Y33878D01*
X61205Y33248D02*
X61638Y33681D01*
X64118D01*
X62189Y33004D02*
Y33445D01*
X61724Y32539D02*
X62189Y33004D01*
X60142Y35925D02*
X61252Y37036D01*
Y38067D01*
X59079Y35829D02*
X60724Y37474D01*
X59079Y35807D02*
Y35829D01*
X60724Y37474D02*
Y37539D01*
X63742Y33878D02*
X63782Y33917D01*
X63803D01*
X61677Y32492D02*
Y32539D01*
X62197Y32012D02*
X63865D01*
X66197D01*
X66677Y32492D02*
Y32579D01*
X66016Y33248D02*
X66724Y32539D01*
X66197Y32012D02*
X66677Y32492D01*
X61252Y31272D02*
Y32067D01*
X61677Y32492D01*
X64354Y33248D02*
X66016D01*
X64354Y33227D02*
Y33248D01*
X61724Y31539D02*
X62197Y32012D01*
X61714Y35374D02*
X62228Y35889D01*
X53252Y32815D02*
X55811Y35374D01*
X61714D01*
X61913Y35295D02*
X62724Y36106D01*
X54368Y33183D02*
X56166Y34980D01*
X55732Y34941D02*
X55968Y35177D01*
X63646Y38461D02*
Y38721D01*
X61795Y35177D02*
X61913Y35295D01*
X61992Y34980D02*
X63213Y36201D01*
X62661Y37540D02*
X62724Y37477D01*
X55968Y35177D02*
X61795D01*
X56166Y34980D02*
X61992D01*
X54724Y32539D02*
Y33106D01*
X56362Y34744D02*
X62346D01*
X54724Y33106D02*
X56362Y34744D01*
X56559Y34547D02*
X63055D01*
X55220Y33209D02*
X56559Y34547D01*
X55252Y32807D02*
X56795Y34351D01*
X65693D01*
X55252Y32067D02*
Y32807D01*
X56992Y34154D02*
X65890D01*
X56197Y32012D02*
Y33358D01*
X56992Y34154D01*
X63213Y36201D02*
Y38028D01*
X62346Y34744D02*
X63724Y36122D01*
Y37539D01*
X54368Y33183D02*
X54368D01*
X53724Y32539D02*
X54368Y33183D01*
X64669Y37579D02*
X64724Y37524D01*
X53252Y32012D02*
Y32815D01*
Y32012D02*
X53724Y31539D01*
X61677Y38492D02*
Y38563D01*
X61252Y38067D02*
X61677Y38492D01*
X62724Y36106D02*
Y37477D01*
X62228Y35889D02*
Y38043D01*
X55724Y31539D02*
X56197Y32012D01*
X64724Y36217D02*
Y37524D01*
X63055Y34547D02*
X64724Y36217D01*
X65890Y34154D02*
X68197Y36461D01*
X65693Y34351D02*
X67724Y36382D01*
X63213Y38028D02*
X63646Y38461D01*
X62228Y38043D02*
X62724Y38539D01*
X67724Y36382D02*
Y37539D01*
X54724Y31539D02*
X55252Y32067D01*
X67780Y38484D02*
X68197Y38067D01*
Y36461D02*
Y38067D01*
X63606Y19626D02*
X66197Y22217D01*
X59984Y19626D02*
X63606D01*
X66197Y22217D02*
Y23839D01*
X66724Y22311D02*
Y23366D01*
X60119Y19429D02*
X63843D01*
X66724Y22311D01*
X60591Y19232D02*
X64079D01*
X67567Y22721D02*
Y23060D01*
X64079Y19232D02*
X67567Y22721D01*
X64276Y19036D02*
X68213Y22973D01*
Y23878D01*
X60726Y19036D02*
X64276D01*
X67724Y23217D02*
Y23343D01*
X67567Y23060D02*
X67724Y23217D01*
X58724Y18366D02*
X59984Y19626D01*
X59197Y18507D02*
X60119Y19429D01*
X59724Y18366D02*
X60591Y19232D01*
X60252Y18562D02*
X60726Y19036D01*
X66197Y23839D02*
X66724Y24366D01*
X67740Y24350D02*
Y24351D01*
Y24350D02*
X68213Y23878D01*
X60252Y17894D02*
Y18562D01*
X59724Y17366D02*
X60252Y17894D01*
X59197Y17839D02*
Y18507D01*
X58724Y17366D02*
X59197Y17839D01*
X11126Y63799D02*
X24236D01*
X24756Y63799D02*
X25583Y64626D01*
X24236Y63799D02*
X24756D01*
X25583Y64626D02*
X27740D01*
X11520Y63996D02*
X24039D01*
X24675Y63996D02*
X25541Y64862D01*
X24039Y63996D02*
X24675D01*
X25541Y64862D02*
X28059D01*
X12576Y64390D02*
X24512D01*
X13230Y65704D02*
X13639Y65295D01*
X23665Y64587D02*
X24176D01*
X13639Y65295D02*
X25139D01*
X24593Y64193D02*
X25459Y65059D01*
X24254Y64666D02*
X24276D01*
X24176Y64587D02*
X24254Y64666D01*
X24512Y64390D02*
X25417Y65295D01*
X25139D02*
X25375Y65532D01*
X12740Y65847D02*
X12787D01*
X12441Y64193D02*
X24000D01*
X13575Y65059D02*
X24748D01*
X12787Y65847D02*
X13575Y65059D01*
X24000Y64193D02*
X24593D01*
X28059Y64862D02*
X28254Y65057D01*
X25459Y65059D02*
X27921D01*
X28748Y65886D01*
X28276Y65692D02*
Y66413D01*
X27879Y65295D02*
X28276Y65692D01*
X25417Y65295D02*
X27879D01*
X25394Y65532D02*
X25748Y65886D01*
X25375Y65532D02*
X25394D01*
X25748Y65886D02*
X25748D01*
X28276Y66413D02*
X28748Y66886D01*
X23665Y64587D02*
X23665Y64587D01*
X13047Y64587D02*
X23665D01*
X12748Y65886D02*
X12787Y65847D01*
X13230Y65704D02*
Y66404D01*
X11795Y65839D02*
X13047Y64587D01*
X11276Y65690D02*
X12576Y64390D01*
X10260Y65256D02*
X11520Y63996D01*
X10772Y65862D02*
X12441Y64193D01*
X9748Y65177D02*
X11126Y63799D01*
X13143Y64823D02*
X23252D01*
X12268Y65698D02*
X13143Y64823D01*
X9764Y66870D02*
X10260Y66374D01*
Y65256D02*
Y66374D01*
X11276Y65690D02*
Y66358D01*
X9748Y65177D02*
Y65886D01*
X11795Y66839D02*
Y66910D01*
X12268Y65698D02*
Y66366D01*
X11795Y66839D02*
X12268Y66366D01*
X11795Y65839D02*
Y65886D01*
X12748Y66886D02*
X13230Y66404D01*
X10772Y66862D02*
X11276Y66358D01*
X10772Y65862D02*
Y65886D01*
X24276Y50847D02*
X27071Y48051D01*
X27071D01*
X27249Y47540D02*
X27425D01*
X23220Y51568D02*
X27249Y47540D01*
X24276Y50847D02*
Y52240D01*
X23220Y51568D02*
Y52240D01*
X24748Y50708D02*
Y51713D01*
Y50708D02*
X28220Y47236D01*
Y46240D02*
Y47236D01*
X25748Y50083D02*
Y51610D01*
Y50083D02*
X27425Y48406D01*
X20732Y52697D02*
X20772D01*
X20276Y52240D02*
X20732Y52697D01*
X20276Y51028D02*
Y52240D01*
Y51028D02*
X23882Y47421D01*
X20693Y51792D02*
X20748Y51736D01*
Y51713D02*
Y51736D01*
Y50949D02*
X24236Y47461D01*
X20748Y50949D02*
Y51713D01*
X21244Y50944D02*
X24748Y47441D01*
X21244Y50944D02*
Y52209D01*
X21638Y52602D01*
X24236Y46224D02*
Y47461D01*
X24748Y46713D02*
Y47441D01*
X25220Y46240D02*
Y47382D01*
X25220Y47382D02*
X25220Y47382D01*
X21874Y51587D02*
X26244Y47217D01*
X24236Y46224D02*
X24748Y45713D01*
X22787Y51673D02*
X27748Y46713D01*
X22661Y51673D02*
X22787D01*
X25968Y47933D02*
X26677Y47224D01*
Y46783D02*
X26748Y46713D01*
X26677Y46783D02*
Y47224D01*
X25220Y46240D02*
X25748Y45713D01*
X13008Y47973D02*
X15024D01*
X11748Y46713D02*
X13008Y47973D01*
X13104Y47736D02*
X14787D01*
X12276Y46908D02*
X13104Y47736D01*
X12276Y46240D02*
Y46908D01*
X11748Y45713D02*
X12276Y46240D01*
X24669Y52634D02*
Y52736D01*
X24276Y52240D02*
X24669Y52634D01*
X26244Y46217D02*
Y47217D01*
X22780Y52681D02*
X23220Y52240D01*
X22780Y52681D02*
Y52697D01*
X25748Y51610D02*
X25772Y51634D01*
X26244Y46217D02*
X26748Y45713D01*
X21874Y51587D02*
Y51752D01*
X28220Y46240D02*
X28748Y45713D01*
X21638Y52602D02*
Y52697D01*
X29276Y36477D02*
Y38012D01*
X27189Y34390D02*
X29276Y36477D01*
X12661Y34390D02*
X27189D01*
X28748Y37603D02*
X28764Y37618D01*
X11717Y34587D02*
X27071D01*
X28748Y37539D02*
Y37603D01*
X27071Y34587D02*
X28748Y36264D01*
Y37539D01*
X28842Y38445D02*
X29276Y38012D01*
X10220Y33091D02*
X11717Y34587D01*
X10220Y32012D02*
Y33091D01*
X9748Y31539D02*
X10220Y32012D01*
X28842Y38445D02*
Y38524D01*
X11220Y32949D02*
X12661Y34390D01*
X10748Y31539D02*
X11220Y32012D01*
Y32949D01*
X19220Y17839D02*
Y19287D01*
X19304Y19370D01*
X19313D01*
X19451Y19508D02*
X19472D01*
X19313Y19370D02*
X19451Y19508D01*
X18748Y17366D02*
X19220Y17839D01*
X25378Y19311D02*
X26520D01*
X22276Y22414D02*
Y23894D01*
Y22414D02*
X25378Y19311D01*
X22748Y22295D02*
Y23366D01*
X25535Y19508D02*
X26606D01*
X22748Y22295D02*
X25535Y19508D01*
X24220Y21295D02*
Y23839D01*
Y21295D02*
X25299Y20217D01*
X24591Y22185D02*
X25772Y21004D01*
Y19744D02*
Y21004D01*
X24748Y23366D02*
X28252Y19862D01*
Y17862D02*
Y19862D01*
X21276Y21957D02*
X24315Y18917D01*
X22031Y21870D02*
Y22697D01*
Y21870D02*
X24551Y19351D01*
X26341Y19114D02*
X26459Y18996D01*
X21748Y21799D02*
Y23177D01*
Y21799D02*
X24433Y19114D01*
X26197Y18917D02*
X26748Y18366D01*
X24433Y19114D02*
X26341D01*
X24315Y18917D02*
X26197D01*
X21276Y21957D02*
Y23839D01*
X26606Y19508D02*
X27748Y18366D01*
X26520Y19311D02*
X27276Y18555D01*
X22276Y23894D02*
X22701Y24319D01*
X27276Y17839D02*
Y18555D01*
X26459Y18996D02*
X26480D01*
X24220Y17894D02*
Y18697D01*
X20748Y22169D02*
Y23366D01*
Y22169D02*
X24220Y18697D01*
X24709Y24327D02*
Y24390D01*
X24220Y23839D02*
X24709Y24327D01*
X28252Y17862D02*
X28748Y17366D01*
X21677Y23248D02*
X21748Y23177D01*
X27276Y17839D02*
X27748Y17366D01*
X24220Y17894D02*
X24748Y17366D01*
X20850Y24264D02*
X21276Y23839D01*
X22701Y24319D02*
Y24390D01*
X28724Y10169D02*
Y10256D01*
X28252Y9697D02*
X28724Y10169D01*
X28252Y7464D02*
Y9697D01*
X25966Y5177D02*
X28252Y7464D01*
X26008Y4941D02*
X28748Y7681D01*
X11496Y4941D02*
X26008D01*
X10732Y5177D02*
X25966D01*
X9748Y4193D02*
X10732Y5177D01*
X10748Y4193D02*
X11496Y4941D01*
X28724Y9154D02*
X28748Y9130D01*
Y7681D02*
Y9130D01*
D28*
X67724Y32539D02*
D03*
Y31539D02*
D03*
X66724Y32539D02*
D03*
Y31539D02*
D03*
X65724Y32539D02*
D03*
Y31539D02*
D03*
X64724Y32539D02*
D03*
Y31539D02*
D03*
X63724Y32539D02*
D03*
Y31539D02*
D03*
X62724Y32539D02*
D03*
Y31539D02*
D03*
X61724Y32539D02*
D03*
Y31539D02*
D03*
X60724Y32539D02*
D03*
Y31539D02*
D03*
X59724Y32539D02*
D03*
Y31539D02*
D03*
X58724Y32539D02*
D03*
Y31539D02*
D03*
X57724Y32539D02*
D03*
Y31539D02*
D03*
X56724Y32539D02*
D03*
Y31539D02*
D03*
X55724Y32539D02*
D03*
Y31539D02*
D03*
X54724Y32539D02*
D03*
Y31539D02*
D03*
X53724Y32539D02*
D03*
Y31539D02*
D03*
X52724Y32539D02*
D03*
Y31539D02*
D03*
X50724D02*
D03*
Y32539D02*
D03*
X49724Y31539D02*
D03*
Y32539D02*
D03*
X48724D02*
D03*
X51724D02*
D03*
Y31539D02*
D03*
X12748Y17366D02*
D03*
Y18366D02*
D03*
X9748D02*
D03*
X10748D02*
D03*
Y17366D02*
D03*
X11748Y18366D02*
D03*
Y17366D02*
D03*
X13748D02*
D03*
Y18366D02*
D03*
X14748Y17366D02*
D03*
Y18366D02*
D03*
X15748Y17366D02*
D03*
Y18366D02*
D03*
X16748Y17366D02*
D03*
Y18366D02*
D03*
X17748Y17366D02*
D03*
Y18366D02*
D03*
X18748Y17366D02*
D03*
Y18366D02*
D03*
X19748Y17366D02*
D03*
Y18366D02*
D03*
X20748Y17366D02*
D03*
Y18366D02*
D03*
X21748Y17366D02*
D03*
Y18366D02*
D03*
X22748Y17366D02*
D03*
Y18366D02*
D03*
X23748Y17366D02*
D03*
Y18366D02*
D03*
X24748Y17366D02*
D03*
Y18366D02*
D03*
X25748Y17366D02*
D03*
Y18366D02*
D03*
X26748Y17366D02*
D03*
Y18366D02*
D03*
X27748Y17366D02*
D03*
Y18366D02*
D03*
X28748Y17366D02*
D03*
Y18366D02*
D03*
X67724Y4193D02*
D03*
Y3193D02*
D03*
X66724Y4193D02*
D03*
Y3193D02*
D03*
X65724Y4193D02*
D03*
Y3193D02*
D03*
X64724Y4193D02*
D03*
Y3193D02*
D03*
X63724Y4193D02*
D03*
Y3193D02*
D03*
X62724Y4193D02*
D03*
Y3193D02*
D03*
X61724Y4193D02*
D03*
Y3193D02*
D03*
X60724Y4193D02*
D03*
Y3193D02*
D03*
X59724Y4193D02*
D03*
Y3193D02*
D03*
X58724Y4193D02*
D03*
Y3193D02*
D03*
X57724Y4193D02*
D03*
Y3193D02*
D03*
X56724Y4193D02*
D03*
Y3193D02*
D03*
X55724Y4193D02*
D03*
Y3193D02*
D03*
X54724Y4193D02*
D03*
Y3193D02*
D03*
X53724Y4193D02*
D03*
Y3193D02*
D03*
X52724Y4193D02*
D03*
Y3193D02*
D03*
X50724D02*
D03*
Y4193D02*
D03*
X49724Y3193D02*
D03*
Y4193D02*
D03*
X48724D02*
D03*
X51724D02*
D03*
Y3193D02*
D03*
X61724Y9193D02*
D03*
Y10193D02*
D03*
X58724D02*
D03*
X59724D02*
D03*
Y9193D02*
D03*
X60724Y10193D02*
D03*
Y9193D02*
D03*
X62724D02*
D03*
Y10193D02*
D03*
X63724Y9193D02*
D03*
Y10193D02*
D03*
X64724Y9193D02*
D03*
Y10193D02*
D03*
X65724Y9193D02*
D03*
Y10193D02*
D03*
X66724Y9193D02*
D03*
Y10193D02*
D03*
X67724Y9193D02*
D03*
Y10193D02*
D03*
X53724D02*
D03*
Y9193D02*
D03*
X52724Y10193D02*
D03*
Y9193D02*
D03*
X50724D02*
D03*
Y10193D02*
D03*
X49724Y9193D02*
D03*
Y10193D02*
D03*
X48724D02*
D03*
X51724D02*
D03*
Y9193D02*
D03*
X54724D02*
D03*
Y10193D02*
D03*
X55724Y9193D02*
D03*
Y10193D02*
D03*
X67724Y18366D02*
D03*
Y17366D02*
D03*
X66724Y18366D02*
D03*
Y17366D02*
D03*
X65724Y18366D02*
D03*
Y17366D02*
D03*
X64724Y18366D02*
D03*
Y17366D02*
D03*
X63724Y18366D02*
D03*
Y17366D02*
D03*
X62724Y18366D02*
D03*
Y17366D02*
D03*
X61724Y18366D02*
D03*
Y17366D02*
D03*
X60724Y18366D02*
D03*
Y17366D02*
D03*
X59724Y18366D02*
D03*
Y17366D02*
D03*
X58724Y18366D02*
D03*
Y17366D02*
D03*
X57724Y18366D02*
D03*
Y17366D02*
D03*
X56724Y18366D02*
D03*
Y17366D02*
D03*
X55724Y18366D02*
D03*
Y17366D02*
D03*
X54724Y18366D02*
D03*
Y17366D02*
D03*
X53724Y18366D02*
D03*
Y17366D02*
D03*
X52724Y18366D02*
D03*
Y17366D02*
D03*
X50724D02*
D03*
Y18366D02*
D03*
X49724Y17366D02*
D03*
Y18366D02*
D03*
X48724D02*
D03*
X51724D02*
D03*
Y17366D02*
D03*
X61724Y23366D02*
D03*
Y24366D02*
D03*
X58724D02*
D03*
X59724D02*
D03*
Y23366D02*
D03*
X60724Y24366D02*
D03*
Y23366D02*
D03*
X62724D02*
D03*
Y24366D02*
D03*
X63724Y23366D02*
D03*
Y24366D02*
D03*
X64724Y23366D02*
D03*
Y24366D02*
D03*
X65724Y23366D02*
D03*
Y24366D02*
D03*
X66724Y23366D02*
D03*
Y24366D02*
D03*
X67724Y23366D02*
D03*
Y24366D02*
D03*
X53724D02*
D03*
Y23366D02*
D03*
X52724Y24366D02*
D03*
Y23366D02*
D03*
X50724D02*
D03*
Y24366D02*
D03*
X49724Y23366D02*
D03*
Y24366D02*
D03*
X48724D02*
D03*
X51724D02*
D03*
Y23366D02*
D03*
X54724D02*
D03*
Y24366D02*
D03*
X55724Y23366D02*
D03*
Y24366D02*
D03*
X61724Y37539D02*
D03*
Y38539D02*
D03*
X58724D02*
D03*
X59724D02*
D03*
Y37539D02*
D03*
X60724Y38539D02*
D03*
Y37539D02*
D03*
X62724D02*
D03*
Y38539D02*
D03*
X63724Y37539D02*
D03*
Y38539D02*
D03*
X64724Y37539D02*
D03*
Y38539D02*
D03*
X65724Y37539D02*
D03*
Y38539D02*
D03*
X66724Y37539D02*
D03*
Y38539D02*
D03*
X67724Y37539D02*
D03*
Y38539D02*
D03*
X53724D02*
D03*
Y37539D02*
D03*
X52724Y38539D02*
D03*
Y37539D02*
D03*
X50724D02*
D03*
Y38539D02*
D03*
X49724Y37539D02*
D03*
Y38539D02*
D03*
X48724D02*
D03*
X51724D02*
D03*
Y37539D02*
D03*
X54724D02*
D03*
Y38539D02*
D03*
X55724Y37539D02*
D03*
Y38539D02*
D03*
X67724Y46713D02*
D03*
Y45713D02*
D03*
X66724Y46713D02*
D03*
Y45713D02*
D03*
X65724Y46713D02*
D03*
Y45713D02*
D03*
X64724Y46713D02*
D03*
Y45713D02*
D03*
X63724Y46713D02*
D03*
Y45713D02*
D03*
X62724Y46713D02*
D03*
Y45713D02*
D03*
X61724Y46713D02*
D03*
Y45713D02*
D03*
X60724Y46713D02*
D03*
Y45713D02*
D03*
X59724Y46713D02*
D03*
Y45713D02*
D03*
X58724Y46713D02*
D03*
Y45713D02*
D03*
X57724Y46713D02*
D03*
Y45713D02*
D03*
X56724Y46713D02*
D03*
Y45713D02*
D03*
X55724Y46713D02*
D03*
Y45713D02*
D03*
X54724Y46713D02*
D03*
Y45713D02*
D03*
X53724Y46713D02*
D03*
Y45713D02*
D03*
X52724Y46713D02*
D03*
Y45713D02*
D03*
X50724D02*
D03*
Y46713D02*
D03*
X49724Y45713D02*
D03*
Y46713D02*
D03*
X48724D02*
D03*
X51724D02*
D03*
Y45713D02*
D03*
X61724Y51713D02*
D03*
Y52713D02*
D03*
X58724D02*
D03*
X59724D02*
D03*
Y51713D02*
D03*
X60724Y52713D02*
D03*
Y51713D02*
D03*
X62724D02*
D03*
Y52713D02*
D03*
X63724Y51713D02*
D03*
Y52713D02*
D03*
X64724Y51713D02*
D03*
Y52713D02*
D03*
X65724Y51713D02*
D03*
Y52713D02*
D03*
X66724Y51713D02*
D03*
Y52713D02*
D03*
X67724Y51713D02*
D03*
Y52713D02*
D03*
X53724D02*
D03*
Y51713D02*
D03*
X52724Y52713D02*
D03*
Y51713D02*
D03*
X50724D02*
D03*
Y52713D02*
D03*
X49724Y51713D02*
D03*
Y52713D02*
D03*
X48724D02*
D03*
X51724D02*
D03*
Y51713D02*
D03*
X54724D02*
D03*
Y52713D02*
D03*
X55724Y51713D02*
D03*
Y52713D02*
D03*
X22748Y65886D02*
D03*
Y66886D02*
D03*
X19748D02*
D03*
X20748D02*
D03*
Y65886D02*
D03*
X21748Y66886D02*
D03*
Y65886D02*
D03*
X23748D02*
D03*
Y66886D02*
D03*
X24748Y65886D02*
D03*
Y66886D02*
D03*
X25748Y65886D02*
D03*
Y66886D02*
D03*
X26748Y65886D02*
D03*
Y66886D02*
D03*
X27748Y65886D02*
D03*
Y66886D02*
D03*
X28748Y65886D02*
D03*
Y66886D02*
D03*
X14748D02*
D03*
Y65886D02*
D03*
X13748Y66886D02*
D03*
Y65886D02*
D03*
X11748D02*
D03*
Y66886D02*
D03*
X10748Y65886D02*
D03*
Y66886D02*
D03*
X9748D02*
D03*
X12748D02*
D03*
Y65886D02*
D03*
X15748D02*
D03*
Y66886D02*
D03*
X16748Y65886D02*
D03*
Y66886D02*
D03*
X28748Y60886D02*
D03*
Y59886D02*
D03*
X27748Y60886D02*
D03*
Y59886D02*
D03*
X26748Y60886D02*
D03*
Y59886D02*
D03*
X25748Y60886D02*
D03*
Y59886D02*
D03*
X24748Y60886D02*
D03*
Y59886D02*
D03*
X23748Y60886D02*
D03*
Y59886D02*
D03*
X22748Y60886D02*
D03*
Y59886D02*
D03*
X21748Y60886D02*
D03*
Y59886D02*
D03*
X20748Y60886D02*
D03*
Y59886D02*
D03*
X19748Y60886D02*
D03*
Y59886D02*
D03*
X18748Y60886D02*
D03*
Y59886D02*
D03*
X17748Y60886D02*
D03*
Y59886D02*
D03*
X16748Y60886D02*
D03*
Y59886D02*
D03*
X15748Y60886D02*
D03*
Y59886D02*
D03*
X14748Y60886D02*
D03*
Y59886D02*
D03*
X13748Y60886D02*
D03*
Y59886D02*
D03*
X11748D02*
D03*
Y60886D02*
D03*
X10748Y59886D02*
D03*
Y60886D02*
D03*
X9748D02*
D03*
X12748D02*
D03*
Y59886D02*
D03*
X22748Y51713D02*
D03*
Y52713D02*
D03*
X19748D02*
D03*
X20748D02*
D03*
Y51713D02*
D03*
X21748Y52713D02*
D03*
Y51713D02*
D03*
X23748D02*
D03*
Y52713D02*
D03*
X24748Y51713D02*
D03*
Y52713D02*
D03*
X25748Y51713D02*
D03*
Y52713D02*
D03*
X26748Y51713D02*
D03*
Y52713D02*
D03*
X27748Y51713D02*
D03*
Y52713D02*
D03*
X28748Y51713D02*
D03*
Y52713D02*
D03*
X14748D02*
D03*
Y51713D02*
D03*
X13748Y52713D02*
D03*
Y51713D02*
D03*
X11748D02*
D03*
Y52713D02*
D03*
X10748Y51713D02*
D03*
Y52713D02*
D03*
X9748D02*
D03*
X12748D02*
D03*
Y51713D02*
D03*
X15748D02*
D03*
Y52713D02*
D03*
X16748Y51713D02*
D03*
Y52713D02*
D03*
X28748Y46713D02*
D03*
Y45713D02*
D03*
X27748Y46713D02*
D03*
Y45713D02*
D03*
X26748Y46713D02*
D03*
Y45713D02*
D03*
X25748Y46713D02*
D03*
Y45713D02*
D03*
X24748Y46713D02*
D03*
Y45713D02*
D03*
X23748Y46713D02*
D03*
Y45713D02*
D03*
X22748Y46713D02*
D03*
Y45713D02*
D03*
X21748Y46713D02*
D03*
Y45713D02*
D03*
X20748Y46713D02*
D03*
Y45713D02*
D03*
X19748Y46713D02*
D03*
Y45713D02*
D03*
X18748Y46713D02*
D03*
Y45713D02*
D03*
X17748Y46713D02*
D03*
Y45713D02*
D03*
X16748Y46713D02*
D03*
Y45713D02*
D03*
X15748Y46713D02*
D03*
Y45713D02*
D03*
X14748Y46713D02*
D03*
Y45713D02*
D03*
X13748Y46713D02*
D03*
Y45713D02*
D03*
X11748D02*
D03*
Y46713D02*
D03*
X10748Y45713D02*
D03*
Y46713D02*
D03*
X9748D02*
D03*
X12748D02*
D03*
Y45713D02*
D03*
X22748Y37539D02*
D03*
Y38539D02*
D03*
X19748D02*
D03*
X20748D02*
D03*
Y37539D02*
D03*
X21748Y38539D02*
D03*
Y37539D02*
D03*
X23748D02*
D03*
Y38539D02*
D03*
X24748Y37539D02*
D03*
Y38539D02*
D03*
X25748Y37539D02*
D03*
Y38539D02*
D03*
X26748Y37539D02*
D03*
Y38539D02*
D03*
X27748Y37539D02*
D03*
Y38539D02*
D03*
X28748Y37539D02*
D03*
Y38539D02*
D03*
X14748D02*
D03*
Y37539D02*
D03*
X13748Y38539D02*
D03*
Y37539D02*
D03*
X11748D02*
D03*
Y38539D02*
D03*
X10748Y37539D02*
D03*
Y38539D02*
D03*
X9748D02*
D03*
X12748D02*
D03*
Y37539D02*
D03*
X15748D02*
D03*
Y38539D02*
D03*
X16748Y37539D02*
D03*
Y38539D02*
D03*
X28748Y32539D02*
D03*
Y31539D02*
D03*
X27748Y32539D02*
D03*
Y31539D02*
D03*
X26748Y32539D02*
D03*
Y31539D02*
D03*
X25748Y32539D02*
D03*
Y31539D02*
D03*
X24748Y32539D02*
D03*
Y31539D02*
D03*
X23748Y32539D02*
D03*
Y31539D02*
D03*
X22748Y32539D02*
D03*
Y31539D02*
D03*
X21748Y32539D02*
D03*
Y31539D02*
D03*
X20748Y32539D02*
D03*
Y31539D02*
D03*
X19748Y32539D02*
D03*
Y31539D02*
D03*
X18748Y32539D02*
D03*
Y31539D02*
D03*
X17748Y32539D02*
D03*
Y31539D02*
D03*
X16748Y32539D02*
D03*
Y31539D02*
D03*
X15748Y32539D02*
D03*
Y31539D02*
D03*
X14748Y32539D02*
D03*
Y31539D02*
D03*
X13748Y32539D02*
D03*
Y31539D02*
D03*
X11748D02*
D03*
Y32539D02*
D03*
X10748Y31539D02*
D03*
Y32539D02*
D03*
X9748D02*
D03*
X12748D02*
D03*
Y31539D02*
D03*
X22748Y23366D02*
D03*
Y24366D02*
D03*
X19748D02*
D03*
X20748D02*
D03*
Y23366D02*
D03*
X21748Y24366D02*
D03*
Y23366D02*
D03*
X23748D02*
D03*
Y24366D02*
D03*
X24748Y23366D02*
D03*
Y24366D02*
D03*
X25748Y23366D02*
D03*
Y24366D02*
D03*
X26748Y23366D02*
D03*
Y24366D02*
D03*
X27748Y23366D02*
D03*
Y24366D02*
D03*
X28748Y23366D02*
D03*
Y24366D02*
D03*
X14748D02*
D03*
Y23366D02*
D03*
X13748Y24366D02*
D03*
Y23366D02*
D03*
X11748D02*
D03*
Y24366D02*
D03*
X10748Y23366D02*
D03*
Y24366D02*
D03*
X9748D02*
D03*
X12748D02*
D03*
Y23366D02*
D03*
X15748D02*
D03*
Y24366D02*
D03*
X16748Y23366D02*
D03*
Y24366D02*
D03*
X22748Y9193D02*
D03*
Y10193D02*
D03*
X19748D02*
D03*
X20748D02*
D03*
Y9193D02*
D03*
X21748Y10193D02*
D03*
Y9193D02*
D03*
X23748D02*
D03*
Y10193D02*
D03*
X24748Y9193D02*
D03*
Y10193D02*
D03*
X25748Y9193D02*
D03*
Y10193D02*
D03*
X26748Y9193D02*
D03*
Y10193D02*
D03*
X27748Y9193D02*
D03*
Y10193D02*
D03*
X28748Y9193D02*
D03*
Y10193D02*
D03*
Y4193D02*
D03*
Y3193D02*
D03*
X27748Y4193D02*
D03*
Y3193D02*
D03*
X26748Y4193D02*
D03*
Y3193D02*
D03*
X25748Y4193D02*
D03*
Y3193D02*
D03*
X24748Y4193D02*
D03*
Y3193D02*
D03*
X23748Y4193D02*
D03*
Y3193D02*
D03*
X22748Y4193D02*
D03*
Y3193D02*
D03*
X21748Y4193D02*
D03*
Y3193D02*
D03*
X20748Y4193D02*
D03*
Y3193D02*
D03*
X19748Y4193D02*
D03*
Y3193D02*
D03*
X18748Y4193D02*
D03*
Y3193D02*
D03*
X17748Y4193D02*
D03*
Y3193D02*
D03*
X16748Y4193D02*
D03*
Y3193D02*
D03*
X15748Y4193D02*
D03*
Y3193D02*
D03*
X14748Y4193D02*
D03*
Y3193D02*
D03*
X13748Y4193D02*
D03*
Y3193D02*
D03*
X11748D02*
D03*
Y4193D02*
D03*
X10748Y3193D02*
D03*
Y4193D02*
D03*
X9748D02*
D03*
X12748D02*
D03*
Y3193D02*
D03*
X14748Y10193D02*
D03*
Y9193D02*
D03*
X13748Y10193D02*
D03*
Y9193D02*
D03*
X11748D02*
D03*
Y10193D02*
D03*
X10748Y9193D02*
D03*
Y10193D02*
D03*
X9748D02*
D03*
X12748D02*
D03*
Y9193D02*
D03*
X15748D02*
D03*
Y10193D02*
D03*
X16748Y9193D02*
D03*
Y10193D02*
D03*
D29*
X48724Y31539D02*
D03*
X9748Y17366D02*
D03*
X48724Y3193D02*
D03*
X58724Y9193D02*
D03*
X48724D02*
D03*
Y17366D02*
D03*
X58724Y23366D02*
D03*
X48724D02*
D03*
X58724Y37539D02*
D03*
X48724D02*
D03*
Y45713D02*
D03*
X58724Y51713D02*
D03*
X48724D02*
D03*
X19748Y65886D02*
D03*
X9748D02*
D03*
Y59886D02*
D03*
X19748Y51713D02*
D03*
X9748D02*
D03*
Y45713D02*
D03*
X19748Y37539D02*
D03*
X9748D02*
D03*
Y31539D02*
D03*
X19748Y23366D02*
D03*
X9748D02*
D03*
X19748Y9193D02*
D03*
X9748Y3193D02*
D03*
Y9193D02*
D03*
D30*
X61205Y50217D02*
D03*
X60968Y50689D02*
D03*
X60249Y50217D02*
D03*
X59669Y50925D02*
D03*
X61441Y50453D02*
D03*
X61874Y50886D02*
D03*
X65260D02*
D03*
X63134Y48248D02*
D03*
X66441Y48130D02*
D03*
X67189Y48484D02*
D03*
X64715Y47388D02*
D03*
X67740Y49272D02*
D03*
X63370Y47933D02*
D03*
X61992Y50610D02*
D03*
X53606Y5807D02*
D03*
X54315Y6162D02*
D03*
X54748Y5571D02*
D03*
X56992Y6634D02*
D03*
X55732Y6634D02*
D03*
X55260Y5374D02*
D03*
X52740Y5571D02*
D03*
X50575Y8366D02*
D03*
X62189Y33445D02*
D03*
X61205Y33248D02*
D03*
X60142Y35925D02*
D03*
X59079Y35807D02*
D03*
X64118Y33681D02*
D03*
X55220Y33209D02*
D03*
X55732Y34941D02*
D03*
X64354Y33248D02*
D03*
X63803Y33917D02*
D03*
X27740Y64626D02*
D03*
X24276Y64666D02*
D03*
X24748Y65059D02*
D03*
X28254Y65057D02*
D03*
X23252Y64823D02*
D03*
X27071Y48051D02*
D03*
X27425Y48406D02*
D03*
X25220Y47382D02*
D03*
X23882Y47421D02*
D03*
X25968Y47933D02*
D03*
X15024Y47973D02*
D03*
X14787Y47736D02*
D03*
X27425Y47540D02*
D03*
X19472Y19508D02*
D03*
X25299Y20217D02*
D03*
X25772Y19744D02*
D03*
X24551Y19351D02*
D03*
X22031Y22697D02*
D03*
X26480Y18996D02*
D03*
X24591Y22185D02*
D03*
M02*
