M48
;Layer_Color=9474304
;FILE_FORMAT=4:4
METRIC,LZ
;TYPE=PLATED
T1F00S00C0.3000
T2F00S00C0.9000
T3F00S00C1.0000
;TYPE=NON_PLATED
T4F00S00C0.3000
%
T01
X01479Y0013
X01487Y00137
X01506Y00163
X01521683Y0017
X01535
X0155Y00162
X01559Y00177
X01567Y0017
Y00199
X01559Y00205
X0155Y00208
X01535Y001965
X01522Y00199
X01506096Y00203904
X01487Y00197
X01479Y002
X01682Y00281
X01659Y00305
X00713Y00497
X00708Y00504
X00643Y00511
X00610904Y00523904
X00601Y00529
X00576Y00511
X00581Y00504
X00576Y00497
X00558Y00517
X00641Y00568
X0065Y00563
X00662Y00556
X01415Y00855
X01435Y00882
X01531Y00879
X01539192Y0088
X01548904Y00879904
X01554809Y008745
X01558Y008505
X0155
X0154394Y00856924
X01581353Y00886354
X01581Y009215
X01554878Y00934415
X01548Y009385
X01539
X01531Y00926808
X01524Y00945
X01517Y0094
X01589Y009155
X01602Y00893
X01609Y009
X01625Y00915
X01664Y009
X0167Y00893
X01610596Y00866404
X01599Y00864
X0159025Y008705
X01594Y01114
X0172
X01708096Y01233096
X01715Y01244
X01726
X01682Y01265
X01652Y01271
X01635Y01249
X01604Y01243
X01609Y01233
X0165Y01225
X0167
X01674Y01296
X01632Y01291
X01534Y01362
X01525Y01369
X0147
X01419Y01324
X01453Y01568
X0073Y01255
X00717Y01257
X00705Y01261
X00641096Y01266096
X00641Y01278
X00648Y01296
X0060792Y01277716
X00622Y0126
X00623Y01236
X00612Y01237
X00593Y0122
X006Y01213
X00585Y01227
X00554Y0126
X0066Y01635
X00691Y01666
X01423Y01597
X01453096Y01598904
X01511Y01606
X01504096Y01612904
X01517Y01627
Y01664
X01504
X01647Y0173
X01659
X0171
X01707Y01722
T02
X002476Y0023985
Y0026525
X00273
Y0023985
X002984
X003238
Y0026525
X002984
X003492
Y0023985
X003746
Y0026525
X004
Y0023985
X012376
Y0026525
X01263
Y0023985
X012884
X013138
Y0026525
X012884
X013392
Y0023985
X013646
Y0026525
X0139
Y0023985
Y0059985
X013646
X013392
X013138
Y0062525
X012884
X01263
X012376
Y0059985
X01263
X012884
X013392Y0062525
X013646
X0139
X004
Y0059985
X003746
X003492
X003238
Y0062525
X002984
X00273
X002476
Y0059985
X00273
X002984
X003492Y0062525
X003746
Y0095985
X003492
X003238
Y0098525
X002984
X00273
X002476
Y0095985
X00273
X002984
X003492Y0098525
X003746
X004
Y0095985
X012376
Y0098525
X01263
Y0095985
X012884
X013138
Y0098525
X012884
X013392
Y0095985
X013646
Y0098525
X0139
Y0095985
Y0131985
X013646
X013392
X013138
Y0134525
X012884
X01263
X012376
Y0131985
X01263
X012884
X013392Y0134525
X013646
X0139
X004
Y0131985
X003746
X003492
X003238
Y0134525
X002984
X00273
X002476
Y0131985
X00273
X002984
X003492Y0134525
X003746
Y0167985
X003492
X003238
Y0170525
X002984
X00273
X002476
Y0167985
X00273
X002984
X003492Y0170525
X003746
X004
Y0167985
X012376
X01263
X012884
Y0170525
X01263
X012376
X013138
X013392
X013646
X0139
Y0167985
X013646
X013392
X013138
T03
X002476Y0008745
Y0011285
X00273
Y0008745
X002984
X003238
Y0011285
X002984
X003492
Y0008745
X003746
Y0011285
X004
Y0008745
X004254
Y0011285
X004508
Y0008745
X004762
Y0011285
X005016
Y0008745
X00527
Y0011285
X005524
Y0008745
X005778
Y0011285
X006032
Y0008745
X006286
Y0011285
X00654
Y0008745
X006794
Y0011285
X007048
Y0008745
X007302
Y0011285
Y0023985
Y0026525
X007048
X006794
X00654
X006286
X006032
X005778
X005524
Y0023985
X00527
X005016
X004762
Y0026525
X005016
X00527
X005778Y0023985
X006032
X006286
X00654
X006794
X007048
X012376Y0011285
X01263
X012884
Y0008745
X01263
X012376
X013138
X013392
X013646
X0139
X014154
X014408
X014662
X014916
X01517
X015424
X015678
Y0011285
X015424
X01517
X014916
X014662
X014408
X014154
X0139
X013646
X013392
X013138
X014662Y0023985
X014916
X01517
Y0026525
X014916
X014662
X015424
X015678
Y0023985
X015424
X015932
X016186
X01644
X016694
X016948
Y0026525
X016694
X01644
X016186
X015932
X017202
Y0023985
Y0011285
Y0008745
X016948
Y0011285
X016694
Y0008745
X01644
Y0011285
X016186
Y0008745
X015932
Y0011285
Y0044745
X016186
X01644
X016694
X016948
X017202
Y0047285
X016948
X016694
X01644
X016186
X015932
Y0059985
X016186
X01644
X016694
X016948
Y0062525
X016694
X01644
X016186
X015932
X017202
Y0059985
X015678
Y0062525
X015424
X01517
Y0059985
X014916
Y0062525
X014662
Y0059985
X015424
Y0047285
X015678
Y0044745
X015424
X01517
Y0047285
X014916
Y0044745
X014662
Y0047285
X014408
Y0044745
X014154
Y0047285
X0139
Y0044745
X013646
Y0047285
X013392
Y0044745
X013138
X012884
Y0047285
X01263
Y0044745
X012376
Y0047285
X013138
X007302
X007048
X006794
X00654
X006286
X006032
X005778
X005524
X00527
X005016
X004762
X004508
X004254
X004
Y0044745
X004254
X004508
X004762
X005016
X00527
X005524
X005778
X006032
X006286
X00654
X006794
X007048
X007302
Y0059985
Y0062525
X007048
X006794
X00654
X006286
X006032
X005778
X005524
Y0059985
X00527
X005016
X004762
Y0062525
X005016
X00527
X005778Y0059985
X006032
X006286
X00654
X006794
X007048
X003746Y0047285
X003492
X003238
X002984
X00273
Y0044745
X002984
X003238
X003492
X003746
X002476
Y0047285
Y0080745
X00273
X002984
Y0083285
X00273
X002476
X003238
X003492
X003746
Y0080745
X003492
X003238
Y0116745
X003492
X003746
X002984
X00273
X002476
X004
X004254
X004508
X004762
X005016
X00527
X005524
X005778
X006032
X006286
X00654
X006794
X007048
X007302
Y0098525
X007048
Y0095985
X006794
Y0098525
X00654
Y0095985
X006286
Y0098525
X006032
Y0095985
X005778
Y0098525
X005524
X00527
Y0095985
X005016
Y0098525
X004762
Y0095985
X005524
Y0083285
X005778
X006032
X006286
X00654
X006794
X007048
X007302
Y0080745
X007048
X006794
X00654
X006286
X006032
X005778
X005524
X00527
Y0083285
X005016
Y0080745
X004762
Y0083285
X004508
Y0080745
X004254
Y0083285
X004
Y0080745
X007302Y0095985
X012376Y0083285
X01263
X012884
Y0080745
X01263
X012376
X013138
X013392
X013646
X0139
X014154
X014408
X014662
X014916
X01517
X015424
X015678
Y0083285
X015424
X01517
X014916
X014662
X014408
X014154
X0139
X013646
X013392
X013138
X014662Y0095985
X014916
X01517
Y0098525
X014916
X014662
X015424
X015678
Y0095985
X015424
Y0116745
X015678
X01517
X014916
X014662
X014408
X014154
X0139
X013646
X013392
X013138
X012884
X01263
X012376
X015932
X016186
X01644
X016694
X016948
X017202
Y0098525
X016948
Y0095985
X016694
Y0098525
X01644
Y0095985
X016186
Y0098525
X015932
Y0095985
X017202
Y0083285
Y0080745
X016948
Y0083285
X016694
Y0080745
X01644
Y0083285
X016186
Y0080745
X015932
Y0083285
Y0119285
X016186
X01644
X016694
X016948
X017202
Y0131985
X016948
Y0134525
X016694
Y0131985
X01644
Y0134525
X016186
Y0131985
X015932
Y0134525
X017202
Y0152745
X016948
X016694
X01644
X016186
X015932
Y0155285
X016186
X01644
X016694
X016948
X017202
X015678
X015424
X01517
X014916
X014662
X014408
X014154
X0139
X013646
X013392
X013138
Y0152745
X012884
X01263
X012376
Y0155285
X01263
X012884
X013392Y0152745
X013646
X0139
X014154
X014408
X014662
X014916
X01517
X015424
X015678
Y0134525
Y0131985
X015424
X01517
Y0134525
X014916
Y0131985
X014662
Y0134525
X015424
Y0119285
X015678
X01517
X014916
X014662
X014408
X014154
X0139
X013646
X013392
X013138
X012884
X01263
X012376
X007302
X007048
X006794
X00654
X006286
X006032
X005778
X005524
X00527
X005016
X004762
X004508
X004254
X004
X004762Y0131985
X005016
X00527
Y0134525
X005016
X004762
X005524
X005778
X006032
X006286
X00654
X006794
X007048
Y0131985
X006794
X00654
X006286
X006032
X005778
X005524
X007302
Y0134525
Y0152745
Y0155285
X007048
Y0152745
X006794
Y0155285
X00654
Y0152745
X006286
Y0155285
X006032
Y0152745
X005778
Y0155285
X005524
Y0152745
X00527
Y0155285
X005016
Y0152745
X004762
Y0155285
X004508
Y0152745
X004254
Y0155285
X004
Y0152745
X003746
Y0155285
X003492
Y0152745
X003238
X002984
Y0155285
X00273
Y0152745
X002476
Y0155285
X003238
Y0119285
X003492
X003746
X002984
X00273
X002476
X004762Y0167985
X005016
X00527
Y0170525
X005016
X004762
X005524
X005778
X006032
X006286
X00654
X006794
X007048
Y0167985
X006794
X00654
X006286
X006032
X005778
X005524
X007302
Y0170525
X014662
Y0167985
X014916
Y0170525
X01517
X015424
Y0167985
X01517
X015678
Y0170525
X015932
Y0167985
X016186
Y0170525
X01644
Y0167985
X016694
Y0170525
X016948
X017202
Y0167985
X016948
T04
X0024225Y003515
X002475
X002525
X002575
X002625
X0026775
X00265001Y00355012
X00260001
X00255001
X00250001
X00245001
X002475Y003585
X002525
X002575
X002625
X0026775
X0024225
X0071225
X007175
X007225
X007275
X007325
X0073775
X00735001Y00355012
X00730001
X00725001
X00720001
X00715001
X007175Y003515
X007225
X007275
X007325
X0073775
X0071225
X0094225
X009475Y00351
X0095225Y0034975
X00956Y003525
Y003575
X00957Y00362
X0096125Y0036025
X0096175Y003645
X0096625Y00363
X00966Y003675
X0097075Y0036625
X009695Y003705
X009745Y0036975
X009725Y00374
X00977Y0037375
X009755Y0037825
X0097975Y0037875
X00978Y00383
X009825Y00384
X009875
X00992Y00383
X0099025Y0037875
X009945Y0037825
X00993Y0037375
X009975Y00374
X009955Y0036975
X010005Y003705
X0099925Y0036625
X01004Y003675
X0100375Y00363
X0100825Y003645
X0100875Y0036025
X01013Y00362
X01014Y003575
X01014Y003525
X01013Y00348
X0100875Y0034975
X0100825Y003455
X0100375Y00347
X01004Y003425
X0099975Y003445
X010005Y003395
X0099625Y0034075
X009975Y00336
X00993Y0033625
X009945Y0033175
X0099025Y0033125
X00992Y00327
X009875Y00326
X009825
X00978Y00327
X0097975Y0033125
X009755Y0033175
X00977Y0033625
X009725Y00336
X009745Y0034025
X009695Y003395
X0097075Y0034375
X00966Y003425
X0096625Y00347
X0096175Y003455
X0096125Y0034975
X00957Y00348
X0095075Y00355
X00945001Y00355012
X0094225Y003585
X009475Y00359
X0095225Y0036025
X0097975Y0038775
X00981Y003925
X00984988Y00394999
X00985Y0038925
X0099025Y0038775
X00989Y003925
X0101775Y0036025
X010225Y00359
X0102775Y003585
X01024999Y00354988
X0101925Y00355
X0101775Y0034975
X010225Y00351
X0102775Y003515
X0099025Y0032225
X00989Y003175
X009885Y0031225
X00984988Y00315001
X00985Y0032075
X0097975Y0032225
X00981Y003175
X009815Y0031225
Y0024775
Y002425
Y002375
Y002325
Y002275
Y0022225
X00984988Y00225001
Y00230001
Y00235001
Y00240001
Y00245001
X009885Y002425
Y002375
Y002325
Y002275
Y0022225
Y0024775
Y0012775
Y001225
Y001175
Y001125
Y001075
Y0010225
X00984988Y00105001
Y00110001
Y00115001
Y00120001
Y00125001
X009815Y001225
Y001175
Y001125
Y001075
Y0010225
Y0012775
X0123225Y003515
X012375
X012425
X012475
X012525
X0125775
X01255001Y00355012
X01250001
X01245001
X01240001
X01235001
X012375Y003585
X012425
X012475
X012525
X0125775
X0123225
X0170225
X017075
X017125
X017175
X017225
X0172775
X01725001Y00355012
X01720001
X01715001
X01710001
X01705001
X017075Y003515
X017125
X017175
X017225
X0172775
X0170225
Y007115
X017075
X017125
X017175
X017225
X0172775
X01725001Y00715012
X01720001
X01715001
X01710001
X01705001
X017075Y007185
X017125
X017175
X017225
X0172775
X0170225
X0125775
X012525
X012475
X012425
X012375
X0123225
X01235001Y00715012
X01240001
X01245001
X01250001
X01255001
X012525Y007115
X012475
X012425
X012375
X0123225
X0125775
X0102775Y007115
X010225Y00711
X0101775Y0070975
X01013Y00708
X01014Y007125
X01014Y007175
X01013Y00722
X0100875Y0072025
X0100825Y007245
X0100375Y00723
X01004Y007275
X0099925Y0072625
X010005Y007305
X009955Y0072975
X009975Y00734
X00993Y0073375
X009945Y0073825
X0099025Y0073875
X00992Y00743
X009875Y00744
X009825
X00978Y00743
X0097975Y0073875
X009755Y0073825
X00977Y0073375
X009725Y00734
X009745Y0072975
X009695Y007305
X0097075Y0072625
X00966Y007275
X0096625Y00723
X0096175Y007245
X0096125Y0072025
X00957Y00722
X00956Y007175
Y007125
X00957Y00708
X0096125Y0070975
X0096175Y007055
X0096625Y00707
X00966Y007025
X0097075Y0070375
X009695Y006995
X009745Y0070025
X009725Y00696
X00977Y0069625
X009755Y0069175
X0097975Y0069125
X00978Y00687
X009825Y00686
X009875
X00992Y00687
X0099025Y0069125
X009945Y0069175
X00993Y0069625
X009975Y00696
X0099625Y0070075
X010005Y006995
X0099975Y007045
X01004Y007025
X0100375Y00707
X0100825Y007055
X0100875Y0070975
X0101925Y00715
X01024999Y00714988
X0102775Y007185
X010225Y00719
X0101775Y0072025
X0099025Y0074775
X00989Y007525
X009885Y0075775
X00984988Y00754999
X00985Y0074925
X0097975Y0074775
X00981Y007525
X009815Y0075775
X0095225Y0072025
X009475Y00719
X0094225Y007185
X00945001Y00715012
X0095075Y00715
X0095225Y0070975
X009475Y00711
X0094225Y007115
X0097975Y0068225
X00981Y006775
X009815Y0067225
X00984988Y00675001
X00985Y0068075
X0099025Y0068225
X00989Y006775
X009885Y0067225
X009885Y0060775
Y006025
Y005975
Y005925
Y005875
Y0058225
X00984988Y00585001
Y00590001
Y00595001
Y00600001
Y00605001
X009815Y006025
Y005975
Y005925
Y005875
Y0058225
Y0060775
Y0048775
Y004825
Y004775
Y004725
Y004675
Y0046225
X00984988Y00465001
Y00470001
Y00475001
Y00480001
Y00485001
X009885Y004825
Y004775
Y004725
Y004675
Y0046225
Y0048775
X009885Y0039775
X009815
X0073775Y007115
X007325
X007275
X007225
X007175
X0071225
X00715001Y00715012
X00720001
X00725001
X00730001
X00735001
X007325Y007185
X007275
X007225
X007175
X0071225
X0073775
X0026775
X002625
X002575
X002525
X002475
X0024225
X00245001Y00715012
X00250001
X00255001
X00260001
X00265001
X002625Y007115
X002575
X002525
X002475
X0024225
X0026775
Y010715
X002625
X002575
X002525
X002475
X0024225
X00245001Y01075012
X00250001
X00255001
X00260001
X00265001
X002625Y010785
X002575
X002525
X002475
X0024225
X0026775
X0071225
X007175
X007225
X007275
X007325
X0073775
X00735001Y01075012
X00730001
X00725001
X00720001
X00715001
X007175Y010715
X007225
X007275
X007325
X0073775
X0071225
X0094225
X009475Y01071
X0095225Y0106975
X00956Y010725
Y010775
X00957Y01082
X0096125Y0108025
X0096175Y010845
X0096625Y01083
X00966Y010875
X0097075Y0108625
X009695Y010905
X009745Y0108975
X009725Y01094
X00977Y0109375
X009755Y0109825
X0097975Y0109875
X00978Y01103
X009825Y01104
X009875
X00992Y01103
X0099025Y0109875
X009945Y0109825
X00993Y0109375
X009975Y01094
X009955Y0108975
X010005Y010905
X0099925Y0108625
X01004Y010875
X0100375Y01083
X0100825Y010845
X0100875Y0108025
X01013Y01082
X01014Y010775
X01014Y010725
X01013Y01068
X0100875Y0106975
X0100825Y010655
X0100375Y01067
X01004Y010625
X0099975Y010645
X010005Y010595
X0099625Y0106075
X009975Y01056
X00993Y0105625
X009945Y0105175
X0099025Y0105125
X00992Y01047
X009875Y01046
X009825
X00978Y01047
X0097975Y0105125
X009755Y0105175
X00977Y0105625
X009725Y01056
X009745Y0106025
X009695Y010595
X0097075Y0106375
X00966Y010625
X0096625Y01067
X0096175Y010655
X0096125Y0106975
X00957Y01068
X0095075Y01075
X00945001Y01075012
X0094225Y010785
X009475Y01079
X0095225Y0108025
X0097975Y0110775
X00981Y011125
X009815Y0111775
X00984988Y01114999
X00985Y0110925
X0099025Y0110775
X00989Y011125
X009885Y0111775
X009885Y0118225
Y011875
X00984988Y01185001
Y01190001
X009815Y011875
Y0118225
X0101775Y0108025
X010225Y01079
X0102775Y010785
X01024999Y01074988
X0101925Y01075
X0101775Y0106975
X010225Y01071
X0102775Y010715
X0099025Y0104225
X00989Y010375
X009885Y0103225
X00984988Y01035001
X00985Y0104075
X0097975Y0104225
X00981Y010375
X009815Y0103225
Y0096775
Y009625
Y009575
Y009525
Y009475
Y0094225
X00984988Y00945001
Y00950001
Y00955001
Y00960001
Y00965001
X009885Y009625
Y009575
Y009525
Y009475
Y0094225
Y0096775
Y0084775
Y008425
Y008375
Y008325
Y008275
Y0082225
X00984988Y00825001
Y00830001
Y00835001
Y00840001
Y00845001
X009815Y008425
Y008375
Y008325
Y008275
Y0082225
Y0084775
X0123225Y010715
X012375
X012425
X012475
X012525
X0125775
X01255001Y01075012
X01250001
X01245001
X01240001
X01235001
X012375Y010785
X012425
X012475
X012525
X0125775
X0123225
X0170225
X017075
X017125
X017175
X017225
X0172775
X01725001Y01075012
X01720001
X01715001
X01710001
X01705001
X017075Y010715
X017125
X017175
X017225
X0172775
X0170225
Y014315
X017075
X017125
X017175
X017225
X0172775
X01725001Y01435012
X01720001
X01715001
X01710001
X01705001
X017075Y014385
X017125
X017175
X017225
X0172775
X0170225
X0125775
X012525
X012475
X012425
X012375
X0123225
X01235001Y01435012
X01240001
X01245001
X01250001
X01255001
X012525Y014315
X012475
X012425
X012375
X0123225
X0125775
X0102775Y014315
X010225Y01431
X0101775Y0142975
X01014Y014325
X01014Y014375
X01013Y01442
X0100875Y0144025
X0100825Y014445
X0100375Y01443
X01004Y014475
X0099925Y0144625
X010005Y014505
X009955Y0144975
X009975Y01454
X00993Y0145375
X009945Y0145825
X0099025Y0145875
X00992Y01463
X009875Y01464
X009825
X00978Y01463
X0097975Y0145875
X009755Y0145825
X00977Y0145375
X009725Y01454
X009745Y0144975
X009695Y014505
X0097075Y0144625
X00966Y014475
X0096625Y01443
X0096175Y014445
X0096125Y0144025
X00957Y01442
X00956Y014375
Y014325
X00957Y01428
X0096125Y0142975
X0096175Y014255
X0096625Y01427
X00966Y014225
X0097075Y0142375
X009695Y014195
X009745Y0142025
X009725Y01416
X00977Y0141625
X009755Y0141175
X0097975Y0141125
X00978Y01407
X009825Y01406
X009875
X00992Y01407
X0099025Y0141125
X009945Y0141175
X00993Y0141625
X009975Y01416
X0099625Y0142075
X010005Y014195
X0099975Y014245
X01004Y014225
X0100375Y01427
X0100825Y014255
X0100875Y0142975
X01013Y01428
X0101925Y01435
X01024999Y01434988
X0102775Y014385
X010225Y01439
X0101775Y0144025
X0099025Y0146775
X00989Y014725
X009885Y0147775
X00984988Y01474999
X00985Y0146925
X0097975Y0146775
X00981Y014725
X009815Y0147775
Y0154225
Y015475
Y015525
Y015575
Y015625
Y0156775
X00984988Y01565001
Y01560001
Y01555001
Y01550001
Y01545001
X009885Y015475
Y015525
Y015575
Y015625
Y0156775
Y0154225
X0095225Y0144025
X009475Y01439
X0094225Y014385
X00945001Y01435012
X0095075Y01435
X0095225Y0142975
X009475Y01431
X0094225Y014315
X0097975Y0140225
X00981Y013975
X009815Y0139225
X00984988Y01395001
X00985Y0140075
X0099025Y0140225
X00989Y013975
X009885Y0139225
X009885Y0132775
Y013225
Y013175
Y013125
Y013075
Y0130225
X00984988Y01305001
Y01310001
Y01315001
Y01320001
Y01325001
X009815Y013225
Y013175
Y013125
Y013075
Y0130225
Y0132775
Y0120775
Y012025
Y011975
Y011925
X00984988Y01195001
Y01200001
Y01205001
X009885Y012025
Y011975
Y011925
Y0120775
X0073775Y014315
X007325
X007275
X007225
X007175
X0071225
X00715001Y01435012
X00720001
X00725001
X00730001
X00735001
X007325Y014385
X007275
X007225
X007175
X0071225
X0073775
X0026775
X002625
X002575
X002525
X002475
X0024225
X00245001Y01435012
X00250001
X00255001
X00260001
X00265001
X002625Y014315
X002575
X002525
X002475
X0024225
X0026775
X009815Y0166225
Y016675
Y016725
Y016775
Y016825
Y0168775
X00984988Y01685001
Y01680001
Y01675001
Y01670001
Y01665001
X009885Y016675
Y016725
Y016775
Y016825
Y0168775
Y0166225
M30
