G04*
G04 #@! TF.GenerationSoftware,Altium Limited,Altium Designer,22.6.1 (34)*
G04*
G04 Layer_Color=8388736*
%FSLAX24Y24*%
%MOIN*%
G70*
G04*
G04 #@! TF.SameCoordinates,DB5E7376-35C4-4558-AAA8-989BC4282307*
G04*
G04*
G04 #@! TF.FilePolarity,Positive*
G04*
G01*
G75*
%ADD14C,0.0039*%
D14*
X72835Y7874D02*
G03*
X70866Y9843I-1969J0D01*
G01*
Y1969D02*
G03*
X72835Y3937I0J1969D01*
G01*
X39370Y9843D02*
G03*
X37402Y7874I0J-1969D01*
G01*
Y3937D02*
G03*
X39370Y1969I1969J0D01*
G01*
X0D02*
G03*
X1969Y0I1969J0D01*
G01*
X108268D02*
G03*
X110236Y1969I0J1969D01*
G01*
Y82677D02*
G03*
X108268Y84646I-1969J0D01*
G01*
X1969D02*
G03*
X0Y82677I0J-1969D01*
G01*
X81575Y13386D02*
G03*
X81575Y13386I-630J0D01*
G01*
Y26772D02*
G03*
X81575Y26772I-630J0D01*
G01*
X96063Y24961D02*
G03*
X96063Y24961I-630J0D01*
G01*
Y15197D02*
G03*
X96063Y15197I-630J0D01*
G01*
X68602Y76083D02*
G03*
X68602Y76083I-787J0D01*
G01*
Y63287D02*
G03*
X68602Y63287I-787J0D01*
G01*
X40059Y76083D02*
G03*
X40059Y76083I-787J0D01*
G01*
Y63287D02*
G03*
X40059Y63287I-787J0D01*
G01*
X21772Y45000D02*
G03*
X21772Y45000I-472J0D01*
G01*
X30772D02*
G03*
X30772Y45000I-472J0D01*
G01*
X14803Y45276D02*
G03*
X14803Y45276I-630J0D01*
G01*
X2598D02*
G03*
X2598Y45276I-630J0D01*
G01*
Y55118D02*
G03*
X2598Y55118I-630J0D01*
G01*
X14803D02*
G03*
X14803Y55118I-630J0D01*
G01*
X30591Y39961D02*
G03*
X30591Y39961I-472J0D01*
G01*
X72283Y19980D02*
G03*
X72283Y19980I-630J0D01*
G01*
X36063D02*
G03*
X36063Y19980I-630J0D01*
G01*
X72283Y39469D02*
G03*
X72283Y39469I-630J0D01*
G01*
X36063D02*
G03*
X36063Y39469I-630J0D01*
G01*
X12480Y16732D02*
G03*
X12480Y16732I-472J0D01*
G01*
X30591D02*
G03*
X30591Y16732I-472J0D01*
G01*
X12480Y39961D02*
G03*
X12480Y39961I-472J0D01*
G01*
X19764Y8268D02*
G03*
X19764Y8268I-472J0D01*
G01*
X15433D02*
G03*
X15433Y8268I-472J0D01*
G01*
X28425D02*
G03*
X28425Y8268I-472J0D01*
G01*
X6772D02*
G03*
X6772Y8268I-472J0D01*
G01*
X19764Y1969D02*
G03*
X19764Y1969I-472J0D01*
G01*
X28425D02*
G03*
X28425Y1969I-472J0D01*
G01*
X6772D02*
G03*
X6772Y1969I-472J0D01*
G01*
X15433D02*
G03*
X15433Y1969I-472J0D01*
G01*
X101654Y9055D02*
G03*
X101654Y9055I-472J0D01*
G01*
X102441Y22441D02*
G03*
X102441Y22441I-472J0D01*
G01*
X108740D02*
G03*
X108740Y22441I-472J0D01*
G01*
Y6299D02*
G03*
X108740Y6299I-472J0D01*
G01*
X85512Y1969D02*
G03*
X85512Y1969I-472J0D01*
G01*
X76850D02*
G03*
X76850Y1969I-472J0D01*
G01*
X89843D02*
G03*
X89843Y1969I-472J0D01*
G01*
X104409D02*
G03*
X104409Y1969I-472J0D01*
G01*
X89843Y8268D02*
G03*
X89843Y8268I-472J0D01*
G01*
X85512D02*
G03*
X85512Y8268I-472J0D01*
G01*
X76850D02*
G03*
X76850Y8268I-472J0D01*
G01*
X84252Y75000D02*
G03*
X84252Y75000I-591J0D01*
G01*
X103543D02*
G03*
X103543Y75000I-591J0D01*
G01*
Y52165D02*
G03*
X103543Y52165I-591J0D01*
G01*
X84252D02*
G03*
X84252Y52165I-591J0D01*
G01*
X45093Y81927D02*
G03*
X45845Y81927I376J0D01*
G01*
X109094Y1969D02*
G03*
X109094Y1969I-827J0D01*
G01*
Y82677D02*
G03*
X109094Y82677I-827J0D01*
G01*
X2795D02*
G03*
X2795Y82677I-827J0D01*
G01*
Y1969D02*
G03*
X2795Y1969I-827J0D01*
G01*
X39370Y1969D02*
X70866D01*
X39370Y9843D02*
X70866D01*
X72835Y3937D02*
Y7874D01*
X37402Y3937D02*
Y7874D01*
X72956Y84646D02*
X108268D01*
X45845Y84646D02*
X70593D01*
X39371Y84646D02*
X45093D01*
X70593Y81547D02*
Y84646D01*
X72956Y81547D02*
Y84646D01*
X70593Y81547D02*
X72956D01*
X0Y1969D02*
Y82677D01*
X1969Y0D02*
X108268D01*
X1969Y84646D02*
X37009D01*
X110236Y1969D02*
Y82677D01*
X37009Y81547D02*
X39371D01*
Y84646D01*
X37009Y81547D02*
Y84646D01*
X45093Y81927D02*
Y84646D01*
X45845Y81923D02*
Y84646D01*
M02*
