G04*
G04 #@! TF.GenerationSoftware,Altium Limited,Altium Designer,22.6.1 (34)*
G04*
G04 Layer_Color=65535*
%FSLAX24Y24*%
%MOIN*%
G70*
G04*
G04 #@! TF.SameCoordinates,79B60451-B8A2-4DAA-8F8F-2CF346638848*
G04*
G04*
G04 #@! TF.FilePolarity,Positive*
G04*
G01*
G75*
%ADD10C,0.0039*%
%ADD11C,0.0079*%
%ADD12C,0.0050*%
%ADD13C,0.0098*%
%ADD14C,0.0236*%
%ADD15C,0.0059*%
%ADD16C,0.0100*%
%ADD17C,0.0118*%
%ADD18C,0.0197*%
D10*
X104331Y83071D02*
G03*
X103150Y84252I-1181J0D01*
G01*
Y50787D02*
G03*
X104331Y51968I0J1181D01*
G01*
X83465Y84252D02*
G03*
X82283Y83071I0J-1181D01*
G01*
Y51968D02*
G03*
X83465Y50787I1181J0D01*
G01*
X31102Y40157D02*
G03*
X30315Y40945I-787J0D01*
G01*
Y15748D02*
G03*
X31102Y16535I0J787D01*
G01*
X11811Y40945D02*
G03*
X11024Y40157I0J-787D01*
G01*
Y16535D02*
G03*
X11811Y15748I787J0D01*
G01*
X17520Y21654D02*
G03*
X16732Y22441I-787J0D01*
G01*
Y18898D02*
G03*
X17520Y19685I0J787D01*
G01*
X14370Y22441D02*
G03*
X13583Y21654I0J-787D01*
G01*
Y19685D02*
G03*
X14370Y18898I787J0D01*
G01*
X85039Y394D02*
G03*
X86614Y1968I0J1575D01*
G01*
X74803D02*
G03*
X76378Y394I1575J0D01*
G01*
X86614Y8268D02*
G03*
X85039Y9843I-1575J0D01*
G01*
X76378D02*
G03*
X74803Y8268I0J-1575D01*
G01*
X23031Y21654D02*
G03*
X22244Y22441I-787J0D01*
G01*
Y18898D02*
G03*
X23031Y19685I0J787D01*
G01*
X19882Y22441D02*
G03*
X19094Y21654I0J-787D01*
G01*
Y19685D02*
G03*
X19882Y18898I787J0D01*
G01*
X31300Y49700D02*
G03*
X30300Y50700I-1000J0D01*
G01*
Y43900D02*
G03*
X31300Y44900I0J1000D01*
G01*
X21300Y50700D02*
G03*
X20300Y49700I0J-1000D01*
G01*
Y44900D02*
G03*
X21300Y43900I1000J0D01*
G01*
X14961Y394D02*
G03*
X16535Y1968I0J1575D01*
G01*
X4724D02*
G03*
X6299Y394I1575J0D01*
G01*
X16535Y8268D02*
G03*
X14961Y9843I-1575J0D01*
G01*
X6299D02*
G03*
X4724Y8268I0J-1575D01*
G01*
X28543Y37008D02*
G03*
X27756Y37795I-787J0D01*
G01*
Y34252D02*
G03*
X28543Y35039I0J787D01*
G01*
X25394Y37795D02*
G03*
X24606Y37008I0J-787D01*
G01*
Y35039D02*
G03*
X25394Y34252I787J0D01*
G01*
X23031Y37008D02*
G03*
X22244Y37795I-787J0D01*
G01*
Y34252D02*
G03*
X23031Y35039I0J787D01*
G01*
X19882Y37795D02*
G03*
X19094Y37008I0J-787D01*
G01*
Y35039D02*
G03*
X19882Y34252I787J0D01*
G01*
X17520Y26772D02*
G03*
X16732Y27559I-787J0D01*
G01*
Y24016D02*
G03*
X17520Y24803I0J787D01*
G01*
X14370Y27559D02*
G03*
X13583Y26772I0J-787D01*
G01*
Y24803D02*
G03*
X14370Y24016I787J0D01*
G01*
X34252Y44882D02*
G03*
X35827Y43307I1575J0D01*
G01*
Y57087D02*
G03*
X34252Y55512I0J-1575D01*
G01*
X71260Y43307D02*
G03*
X72835Y44882I0J1575D01*
G01*
Y55512D02*
G03*
X71260Y57087I-1575J0D01*
G01*
X105984Y12992D02*
G03*
X105906Y12913I0J-79D01*
G01*
X109449D02*
G03*
X109370Y12992I-79J0D01*
G01*
X105906Y7165D02*
G03*
X105984Y7087I79J0D01*
G01*
X109370D02*
G03*
X109449Y7165I0J79D01*
G01*
X8268Y39370D02*
G03*
X6693Y40945I-1575J0D01*
G01*
Y34252D02*
G03*
X8268Y35827I0J1575D01*
G01*
X1969Y40945D02*
G03*
X394Y39370I0J-1575D01*
G01*
Y35827D02*
G03*
X1969Y34252I1575J0D01*
G01*
X83661Y5039D02*
G03*
X83583Y5118I-79J0D01*
G01*
Y787D02*
G03*
X83661Y866I0J79D01*
G01*
X77835Y5118D02*
G03*
X77756Y5039I0J-79D01*
G01*
Y866D02*
G03*
X77835Y787I79J0D01*
G01*
X28543Y26772D02*
G03*
X27756Y27559I-787J0D01*
G01*
Y24016D02*
G03*
X28543Y24803I0J787D01*
G01*
X25394Y27559D02*
G03*
X24606Y26772I0J-787D01*
G01*
Y24803D02*
G03*
X25394Y24016I787J0D01*
G01*
X84567Y5118D02*
G03*
X84646Y5197I0J79D01*
G01*
X76772D02*
G03*
X76850Y5118I79J0D01*
G01*
X84646Y5433D02*
G03*
X84567Y5512I-79J0D01*
G01*
X76850D02*
G03*
X76772Y5433I0J-79D01*
G01*
X88268Y4724D02*
G03*
X88189Y4646I0J-79D01*
G01*
X105118D02*
G03*
X105039Y4724I-79J0D01*
G01*
X88189Y4409D02*
G03*
X88268Y4331I79J0D01*
G01*
X105039D02*
G03*
X105118Y4409I0J79D01*
G01*
X17520Y37008D02*
G03*
X16732Y37795I-787J0D01*
G01*
Y34252D02*
G03*
X17520Y35039I0J787D01*
G01*
X14370Y37795D02*
G03*
X13583Y37008I0J-787D01*
G01*
Y35039D02*
G03*
X14370Y34252I787J0D01*
G01*
X23031Y31890D02*
G03*
X22244Y32677I-787J0D01*
G01*
Y29134D02*
G03*
X23031Y29921I0J787D01*
G01*
X19882Y32677D02*
G03*
X19094Y31890I0J-787D01*
G01*
Y29921D02*
G03*
X19882Y29134I787J0D01*
G01*
X8268Y19291D02*
G03*
X6693Y20866I-1575J0D01*
G01*
Y12205D02*
G03*
X8268Y13780I0J1575D01*
G01*
X1969Y20866D02*
G03*
X394Y19291I0J-1575D01*
G01*
Y13780D02*
G03*
X1969Y12205I1575J0D01*
G01*
X8268Y30315D02*
G03*
X6693Y31890I-1575J0D01*
G01*
Y23228D02*
G03*
X8268Y24803I0J1575D01*
G01*
X1969Y31890D02*
G03*
X394Y30315I0J-1575D01*
G01*
Y24803D02*
G03*
X1969Y23228I1575J0D01*
G01*
X30118Y37992D02*
G03*
X28543Y39567I-1575J0D01*
G01*
Y17126D02*
G03*
X30118Y18701I0J1575D01*
G01*
X13583Y39567D02*
G03*
X12008Y37992I0J-1575D01*
G01*
Y18701D02*
G03*
X13583Y17126I1575J0D01*
G01*
X28543Y21654D02*
G03*
X27756Y22441I-787J0D01*
G01*
Y18898D02*
G03*
X28543Y19685I0J787D01*
G01*
X25394Y22441D02*
G03*
X24606Y21654I0J-787D01*
G01*
Y19685D02*
G03*
X25394Y18898I787J0D01*
G01*
X17520Y31890D02*
G03*
X16732Y32677I-787J0D01*
G01*
Y29134D02*
G03*
X17520Y29921I0J787D01*
G01*
X14370Y32677D02*
G03*
X13583Y31890I0J-787D01*
G01*
Y29921D02*
G03*
X14370Y29134I787J0D01*
G01*
X105984Y23228D02*
G03*
X105906Y23150I0J-79D01*
G01*
X109449D02*
G03*
X109370Y23228I-79J0D01*
G01*
X105906Y17402D02*
G03*
X105984Y17323I79J0D01*
G01*
X109370D02*
G03*
X109449Y17402I0J79D01*
G01*
X56693Y12992D02*
G03*
X57480Y12205I787J0D01*
G01*
Y16142D02*
G03*
X56693Y15354I0J-787D01*
G01*
X71654Y12205D02*
G03*
X72441Y12992I0J787D01*
G01*
Y15354D02*
G03*
X71654Y16142I-787J0D01*
G01*
X34646Y394D02*
G03*
X35433Y1181I0J787D01*
G01*
X30709D02*
G03*
X31496Y394I787J0D01*
G01*
X35433Y9055D02*
G03*
X34646Y9843I-787J0D01*
G01*
X31496D02*
G03*
X30709Y9055I0J-787D01*
G01*
X94488Y4252D02*
G03*
X94409Y4331I-79J0D01*
G01*
Y787D02*
G03*
X94488Y866I0J79D01*
G01*
X88661Y4331D02*
G03*
X88583Y4252I0J-79D01*
G01*
Y866D02*
G03*
X88661Y787I79J0D01*
G01*
X24803Y67717D02*
G03*
X25591Y66929I787J0D01*
G01*
Y84252D02*
G03*
X24803Y83465I0J-787D01*
G01*
X31102Y66929D02*
G03*
X31890Y67717I0J787D01*
G01*
Y83465D02*
G03*
X31102Y84252I-787J0D01*
G01*
X20748Y6299D02*
G03*
X20669Y6220I0J-79D01*
G01*
X26575D02*
G03*
X26496Y6299I-79J0D01*
G01*
X20669Y5984D02*
G03*
X20748Y5906I79J0D01*
G01*
X26496D02*
G03*
X26575Y5984I0J79D01*
G01*
X394Y44882D02*
G03*
X1969Y43307I1575J0D01*
G01*
Y57087D02*
G03*
X394Y55512I0J-1575D01*
G01*
X16142Y43307D02*
G03*
X17717Y44882I0J1575D01*
G01*
Y55512D02*
G03*
X16142Y57087I-1575J0D01*
G01*
X104724Y4252D02*
G03*
X104646Y4331I-79J0D01*
G01*
Y787D02*
G03*
X104724Y866I0J79D01*
G01*
X98898Y4331D02*
G03*
X98819Y4252I0J-79D01*
G01*
Y866D02*
G03*
X98898Y787I79J0D01*
G01*
X37402Y12992D02*
G03*
X38189Y12205I787J0D01*
G01*
Y16142D02*
G03*
X37402Y15354I0J-787D01*
G01*
X52362Y12205D02*
G03*
X53150Y12992I0J787D01*
G01*
Y15354D02*
G03*
X52362Y16142I-787J0D01*
G01*
X28543Y31890D02*
G03*
X27756Y32677I-787J0D01*
G01*
Y29134D02*
G03*
X28543Y29921I0J787D01*
G01*
X25394Y32677D02*
G03*
X24606Y31890I0J-787D01*
G01*
Y29921D02*
G03*
X25394Y29134I787J0D01*
G01*
X19685Y44882D02*
G03*
X21260Y43307I1575J0D01*
G01*
Y57087D02*
G03*
X19685Y55512I0J-1575D01*
G01*
X30315Y43307D02*
G03*
X31890Y44882I0J1575D01*
G01*
Y55512D02*
G03*
X30315Y57087I-1575J0D01*
G01*
X14488Y4921D02*
G03*
X14567Y5000I0J79D01*
G01*
X6693D02*
G03*
X6772Y4921I79J0D01*
G01*
X14567Y5236D02*
G03*
X14488Y5315I-79J0D01*
G01*
X6772D02*
G03*
X6693Y5236I0J-79D01*
G01*
X105512Y6772D02*
G03*
X105591Y6693I79J0D01*
G01*
Y23622D02*
G03*
X105512Y23543I0J-79D01*
G01*
X105827Y6693D02*
G03*
X105906Y6772I0J79D01*
G01*
Y23543D02*
G03*
X105827Y23622I-79J0D01*
G01*
X19291Y9843D02*
G03*
X17717Y8268I0J-1575D01*
G01*
X29528D02*
G03*
X27953Y9843I-1575J0D01*
G01*
X17717Y1968D02*
G03*
X19291Y394I1575J0D01*
G01*
X27953D02*
G03*
X29528Y1968I0J1575D01*
G01*
X23031Y26772D02*
G03*
X22244Y27559I-787J0D01*
G01*
Y24016D02*
G03*
X23031Y24803I0J787D01*
G01*
X19882Y27559D02*
G03*
X19094Y26772I0J-787D01*
G01*
Y24803D02*
G03*
X19882Y24016I787J0D01*
G01*
X3937Y1969D02*
G03*
X3937Y1969I-1969J0D01*
G01*
X7224Y84528D02*
G03*
X6240Y84528I-492J0D01*
G01*
X82283Y32543D02*
G03*
X83071Y31756I787J0D01*
G01*
Y84252D02*
G03*
X82283Y83465I0J-787D01*
G01*
X109055Y31756D02*
G03*
X109843Y32543I0J787D01*
G01*
Y83465D02*
G03*
X109055Y84252I-787J0D01*
G01*
X58957Y14980D02*
G03*
X58858Y15079I-98J0D01*
G01*
X57677D02*
G03*
X57579Y14980I0J-98D01*
G01*
Y14547D02*
G03*
X57677Y14449I98J0D01*
G01*
X58858D02*
G03*
X58957Y14547I0J98D01*
G01*
X18720Y18012D02*
G03*
X18622Y18110I-98J0D01*
G01*
X17441D02*
G03*
X17343Y18012I0J-98D01*
G01*
Y17579D02*
G03*
X17441Y17480I98J0D01*
G01*
X18622D02*
G03*
X18720Y17579I0J98D01*
G01*
X80354Y76063D02*
G03*
X80256Y76161I-98J0D01*
G01*
Y74783D02*
G03*
X80354Y74882I0J98D01*
G01*
X79724D02*
G03*
X79823Y74783I98J0D01*
G01*
Y76161D02*
G03*
X79724Y76063I0J-98D01*
G01*
X73898Y79134D02*
G03*
X73799Y79035I0J-98D01*
G01*
X75177D02*
G03*
X75079Y79134I-98J0D01*
G01*
Y78504D02*
G03*
X75177Y78602I0J98D01*
G01*
X73799D02*
G03*
X73898Y78504I98J0D01*
G01*
X75197Y76850D02*
G03*
X75098Y76949I-98J0D01*
G01*
Y75571D02*
G03*
X75197Y75669I0J98D01*
G01*
X74567D02*
G03*
X74665Y75571I98J0D01*
G01*
Y76949D02*
G03*
X74567Y76850I0J-98D01*
G01*
X74331D02*
G03*
X74232Y76949I-98J0D01*
G01*
Y75571D02*
G03*
X74331Y75669I0J98D01*
G01*
X73701D02*
G03*
X73799Y75571I98J0D01*
G01*
Y76949D02*
G03*
X73701Y76850I0J-98D01*
G01*
X74567Y74173D02*
G03*
X74665Y74075I98J0D01*
G01*
Y75453D02*
G03*
X74567Y75354I0J-98D01*
G01*
X75197D02*
G03*
X75098Y75453I-98J0D01*
G01*
Y74075D02*
G03*
X75197Y74173I0J98D01*
G01*
X69980Y14547D02*
G03*
X70079Y14449I98J0D01*
G01*
X71260D02*
G03*
X71358Y14547I0J98D01*
G01*
Y14980D02*
G03*
X71260Y15079I-98J0D01*
G01*
X70079D02*
G03*
X69980Y14980I0J-98D01*
G01*
X20768Y18012D02*
G03*
X20669Y18110I-98J0D01*
G01*
X19488D02*
G03*
X19390Y18012I0J-98D01*
G01*
Y17579D02*
G03*
X19488Y17480I98J0D01*
G01*
X20669D02*
G03*
X20768Y17579I0J98D01*
G01*
X22677Y17480D02*
G03*
X22776Y17579I0J98D01*
G01*
X21398D02*
G03*
X21496Y17480I98J0D01*
G01*
Y18110D02*
G03*
X21398Y18012I0J-98D01*
G01*
X22776D02*
G03*
X22677Y18110I-98J0D01*
G01*
X32382Y8130D02*
G03*
X32480Y8031I98J0D01*
G01*
X33661D02*
G03*
X33760Y8130I0J98D01*
G01*
Y8563D02*
G03*
X33661Y8661I-98J0D01*
G01*
X32480D02*
G03*
X32382Y8563I0J-98D01*
G01*
X24016Y51850D02*
G03*
X24114Y51752I98J0D01*
G01*
Y53130D02*
G03*
X24016Y53032I0J-98D01*
G01*
X24646D02*
G03*
X24547Y53130I-98J0D01*
G01*
Y51752D02*
G03*
X24646Y51850I0J98D01*
G01*
X22362Y60630D02*
G03*
X22461Y60532I98J0D01*
G01*
Y61909D02*
G03*
X22362Y61811I0J-98D01*
G01*
X22992D02*
G03*
X22894Y61909I-98J0D01*
G01*
Y60532D02*
G03*
X22992Y60630I0J98D01*
G01*
X11299Y63661D02*
G03*
X11201Y63760I-98J0D01*
G01*
Y62382D02*
G03*
X11299Y62480I0J98D01*
G01*
X10669D02*
G03*
X10768Y62382I98J0D01*
G01*
Y63760D02*
G03*
X10669Y63661I0J-98D01*
G01*
X20276Y77343D02*
G03*
X20374Y77244I98J0D01*
G01*
Y78622D02*
G03*
X20276Y78524I0J-98D01*
G01*
X20906D02*
G03*
X20807Y78622I-98J0D01*
G01*
Y77244D02*
G03*
X20906Y77343I0J98D01*
G01*
X20118Y79488D02*
G03*
X20020Y79587I-98J0D01*
G01*
Y78209D02*
G03*
X20118Y78307I0J98D01*
G01*
X19488D02*
G03*
X19587Y78209I98J0D01*
G01*
Y79587D02*
G03*
X19488Y79488I0J-98D01*
G01*
X18012Y79587D02*
G03*
X17913Y79488I0J-98D01*
G01*
Y78307D02*
G03*
X18012Y78209I98J0D01*
G01*
X18445D02*
G03*
X18543Y78307I0J98D01*
G01*
Y79488D02*
G03*
X18445Y79587I-98J0D01*
G01*
X17126Y77362D02*
G03*
X17224Y77264I98J0D01*
G01*
Y78642D02*
G03*
X17126Y78543I0J-98D01*
G01*
X17756D02*
G03*
X17657Y78642I-98J0D01*
G01*
Y77264D02*
G03*
X17756Y77362I0J98D01*
G01*
X9272Y77303D02*
G03*
X9370Y77402I0J98D01*
G01*
Y78583D02*
G03*
X9272Y78681I-98J0D01*
G01*
X8839D02*
G03*
X8740Y78583I0J-98D01*
G01*
Y77402D02*
G03*
X8839Y77303I98J0D01*
G01*
X22992Y63760D02*
G03*
X22894Y63858I-98J0D01*
G01*
Y62480D02*
G03*
X22992Y62579I0J98D01*
G01*
X22362D02*
G03*
X22461Y62480I98J0D01*
G01*
Y63858D02*
G03*
X22362Y63760I0J-98D01*
G01*
X22441Y66142D02*
G03*
X24016Y64567I1575J0D01*
G01*
X22441Y82677D02*
G03*
X20866Y84252I-1575J0D01*
G01*
X31890Y62992D02*
G03*
X30315Y64567I-1575J0D01*
G01*
X30315Y59449D02*
G03*
X31890Y61024I0J1575D01*
G01*
X1181Y79134D02*
G03*
X394Y78346I0J-787D01*
G01*
X5906Y84252D02*
G03*
X4331Y82677I0J-1575D01*
G01*
X3543Y79134D02*
G03*
X4331Y79921I0J787D01*
G01*
X394Y61024D02*
G03*
X1969Y59449I1575J0D01*
G01*
X101968Y27953D02*
G03*
X100394Y26378I0J-1575D01*
G01*
X109843Y26378D02*
G03*
X108268Y27953I-1575J0D01*
G01*
X108268Y4724D02*
G03*
X109843Y6299I0J1575D01*
G01*
X107087Y4724D02*
G03*
X105512Y3150I0J-1575D01*
G01*
X98819Y9843D02*
G03*
X100394Y11417I0J1575D01*
G01*
X103937Y394D02*
G03*
X105512Y1969I0J1575D01*
G01*
X89370Y9843D02*
G03*
X87795Y8268I0J-1575D01*
G01*
X87795Y1969D02*
G03*
X89370Y394I1575J0D01*
G01*
X3937Y82677D02*
G03*
X3937Y82677I-1969J0D01*
G01*
X110236D02*
G03*
X110236Y82677I-1969J0D01*
G01*
Y1969D02*
G03*
X110236Y1969I-1969J0D01*
G01*
X83465Y50787D02*
X103150D01*
X83465Y84252D02*
X103150D01*
X104331Y51968D02*
Y83071D01*
X82283Y51968D02*
Y83071D01*
X11811Y15748D02*
X30315D01*
X11811Y40945D02*
X30315D01*
X31102Y16535D02*
Y40157D01*
X11024Y16535D02*
Y40157D01*
X14370Y18898D02*
X16732D01*
X14370Y22441D02*
X16732D01*
X17520Y19685D02*
Y21654D01*
X13583Y19685D02*
Y21654D01*
X74803Y1968D02*
Y8268D01*
X86614Y1968D02*
Y8268D01*
X76378Y394D02*
X85039D01*
X76378Y9843D02*
X85039D01*
X19882Y18898D02*
X22244D01*
X19882Y22441D02*
X22244D01*
X23031Y19685D02*
Y21654D01*
X19094Y19685D02*
Y21654D01*
X7402Y44291D02*
X11339D01*
X7402Y52008D02*
X11339D01*
Y44291D02*
Y52008D01*
X7402Y44291D02*
Y52008D01*
X11437Y55748D02*
X12421D01*
X11437Y46083D02*
X12421D01*
X11437D02*
Y55748D01*
X12421Y46083D02*
Y55748D01*
X21300Y43900D02*
X30300D01*
X21300Y50700D02*
X30300D01*
X31300Y44900D02*
Y49700D01*
X20300Y44900D02*
Y49700D01*
X4724Y1968D02*
Y8268D01*
X16535Y1968D02*
Y8268D01*
X6299Y394D02*
X14961D01*
X6299Y9843D02*
X14961D01*
X25394Y34252D02*
X27756D01*
X25394Y37795D02*
X27756D01*
X28543Y35039D02*
Y37008D01*
X24606Y35039D02*
Y37008D01*
X19882Y34252D02*
X22244D01*
X19882Y37795D02*
X22244D01*
X23031Y35039D02*
Y37008D01*
X19094Y35039D02*
Y37008D01*
X14370Y24016D02*
X16732D01*
X14370Y27559D02*
X16732D01*
X17520Y24803D02*
Y26772D01*
X13583Y24803D02*
Y26772D01*
X35827Y57087D02*
X71260D01*
X35827Y43307D02*
X71260D01*
X34252Y44882D02*
Y55512D01*
X72835Y44882D02*
Y55512D01*
X109449Y7165D02*
Y12913D01*
X105906Y7165D02*
Y12913D01*
X105984Y12992D02*
X109370D01*
X105984Y7087D02*
X109370D01*
X35630Y79921D02*
X71457D01*
X35630Y59449D02*
X71457D01*
X35630D02*
Y79921D01*
X71457Y59449D02*
Y79921D01*
X1969Y34252D02*
X6693D01*
X1969Y40945D02*
X6693D01*
X8268Y35827D02*
Y39370D01*
X394Y35827D02*
Y39370D01*
X77835Y787D02*
X83583D01*
X77835Y5118D02*
X83583D01*
X83661Y866D02*
Y5039D01*
X77756Y866D02*
Y5039D01*
X25394Y24016D02*
X27756D01*
X25394Y27559D02*
X27756D01*
X28543Y24803D02*
Y26772D01*
X24606Y24803D02*
Y26772D01*
X76772Y5197D02*
Y5433D01*
X84646Y5197D02*
Y5433D01*
X76850Y5118D02*
X84567D01*
X76850Y5512D02*
X84567D01*
X105118Y4409D02*
Y4646D01*
X88189Y4409D02*
Y4646D01*
X88268Y4724D02*
X105039D01*
X88268Y4331D02*
X105039D01*
X14370Y34252D02*
X16732D01*
X14370Y37795D02*
X16732D01*
X17520Y35039D02*
Y37008D01*
X13583Y35039D02*
Y37008D01*
X34252Y18504D02*
Y40945D01*
X72835Y18504D02*
Y40945D01*
X34252Y18504D02*
X72835D01*
X34252Y40945D02*
X72835D01*
X36811Y18701D02*
Y40748D01*
X70276Y18701D02*
Y40748D01*
X36811Y18701D02*
X70276D01*
X36811Y40748D02*
X70276D01*
X19882Y29134D02*
X22244D01*
X19882Y32677D02*
X22244D01*
X23031Y29921D02*
Y31890D01*
X19094Y29921D02*
Y31890D01*
X1969Y12205D02*
X6693D01*
X1969Y20866D02*
X6693D01*
X8268Y13780D02*
Y19291D01*
X394Y13780D02*
Y19291D01*
X1969Y23228D02*
X6693D01*
X1969Y31890D02*
X6693D01*
X8268Y24803D02*
Y30315D01*
X394Y24803D02*
Y30315D01*
X13583Y17126D02*
X28543D01*
X13583Y39567D02*
X28543D01*
X30118Y18701D02*
Y37992D01*
X12008Y18701D02*
Y37992D01*
X25394Y18898D02*
X27756D01*
X25394Y22441D02*
X27756D01*
X28543Y19685D02*
Y21654D01*
X24606Y19685D02*
Y21654D01*
X14370Y29134D02*
X16732D01*
X14370Y32677D02*
X16732D01*
X17520Y29921D02*
Y31890D01*
X13583Y29921D02*
Y31890D01*
X109449Y17402D02*
Y23150D01*
X105906Y17402D02*
Y23150D01*
X105984Y23228D02*
X109370D01*
X105984Y17323D02*
X109370D01*
X57480Y16142D02*
X71654D01*
X57480Y12205D02*
X71654D01*
X56693Y12992D02*
Y15354D01*
X72441Y12992D02*
Y15354D01*
X30709Y1181D02*
Y9055D01*
X35433Y1181D02*
Y9055D01*
X31496Y394D02*
X34646D01*
X31496Y9843D02*
X34646D01*
X88661Y787D02*
X94409D01*
X88661Y4331D02*
X94409D01*
X94488Y866D02*
Y4252D01*
X88583Y866D02*
Y4252D01*
X13189Y13780D02*
X28937D01*
X13189Y15748D02*
X28937D01*
Y13780D02*
Y15748D01*
X13189Y13780D02*
Y15748D01*
X82579Y53740D02*
X84744D01*
X82579Y73425D02*
X84744D01*
Y53740D02*
Y73425D01*
X82579Y53740D02*
Y73425D01*
X25591Y84252D02*
X31102D01*
X25591Y66929D02*
X31102D01*
X24803Y67717D02*
Y83465D01*
X31890Y67717D02*
Y83465D01*
X26575Y5984D02*
Y6220D01*
X20669Y5984D02*
Y6220D01*
X20748Y6299D02*
X26496D01*
X20748Y5906D02*
X26496D01*
X1969Y57087D02*
X16142D01*
X1969Y43307D02*
X16142D01*
X394Y44882D02*
Y55512D01*
X17717Y44882D02*
Y55512D01*
X1181Y44094D02*
X14961D01*
X1181Y56299D02*
X14961D01*
Y44094D02*
Y56299D01*
X1181Y44094D02*
Y56299D01*
X74803Y12205D02*
Y27953D01*
X98425Y12205D02*
Y27953D01*
X74803Y12205D02*
X98425D01*
X74803Y27953D02*
X98425D01*
X98898Y787D02*
X104646D01*
X98898Y4331D02*
X104646D01*
X104724Y866D02*
Y4252D01*
X98819Y866D02*
Y4252D01*
X38189Y16142D02*
X52362D01*
X38189Y12205D02*
X52362D01*
X37402Y12992D02*
Y15354D01*
X53150Y12992D02*
Y15354D01*
X25394Y29134D02*
X27756D01*
X25394Y32677D02*
X27756D01*
X28543Y29921D02*
Y31890D01*
X24606Y29921D02*
Y31890D01*
X21260Y57087D02*
X30315D01*
X21260Y43307D02*
X30315D01*
X19685Y44882D02*
Y55512D01*
X31890Y44882D02*
Y55512D01*
X6693Y5000D02*
Y5236D01*
X14567Y5000D02*
Y5236D01*
X6772Y4921D02*
X14488D01*
X6772Y5315D02*
X14488D01*
X105591Y23622D02*
X105827D01*
X105591Y6693D02*
X105827D01*
X105512Y6772D02*
Y23543D01*
X105906Y6772D02*
Y23543D01*
X29528Y1968D02*
Y8268D01*
X17717Y1968D02*
Y8268D01*
X19291Y9843D02*
X27953D01*
X19291Y394D02*
X27953D01*
X19882Y24016D02*
X22244D01*
X19882Y27559D02*
X22244D01*
X23031Y24803D02*
Y26772D01*
X19094Y24803D02*
Y26772D01*
X6240Y82953D02*
X7224D01*
X6240D02*
Y84528D01*
X7224D01*
X8563Y79843D02*
Y85315D01*
X7224Y82953D02*
Y84528D01*
X4902Y85315D02*
X8563D01*
X4902Y79843D02*
X8563D01*
X4902D02*
Y85315D01*
X88878Y33331D02*
X92028D01*
X88878Y31362D02*
X92028D01*
X88878D02*
Y33331D01*
X92028Y31362D02*
Y33331D01*
X83071Y84252D02*
X109055D01*
X83071Y31756D02*
X109055D01*
X82283Y32543D02*
Y83465D01*
X109843Y32543D02*
Y83465D01*
X100689Y84803D02*
X103839D01*
X100689Y82441D02*
X103839D01*
X100689D02*
Y84803D01*
X103839Y82441D02*
Y84803D01*
X95177Y80472D02*
Y85984D01*
X88878Y80472D02*
Y85984D01*
Y80472D02*
X95177D01*
X88878Y85984D02*
X95177D01*
X106063Y47752D02*
Y55752D01*
X104063Y47752D02*
Y55752D01*
Y47752D02*
X106063D01*
X104063Y55752D02*
X106063D01*
Y56752D02*
Y71752D01*
X104063Y56752D02*
Y71752D01*
Y56752D02*
X106063D01*
X104063Y71752D02*
X106063D01*
X88063Y54752D02*
Y71752D01*
X86063Y54752D02*
Y71752D01*
Y54752D02*
X88063D01*
X86063Y71752D02*
X88063D01*
Y43752D02*
Y53752D01*
X86063Y43752D02*
Y53752D01*
Y43752D02*
X88063D01*
X86063Y53752D02*
X88063D01*
X57579Y14547D02*
X57579Y14980D01*
X57677Y14449D02*
X58858D01*
X58957Y14547D02*
Y14980D01*
X57677Y15079D02*
X58858Y15079D01*
X17343Y17579D02*
X17343Y18012D01*
X17441Y17480D02*
X18622D01*
X18720Y17579D02*
Y18012D01*
X17441Y18110D02*
X18622Y18110D01*
X79783Y79094D02*
X80295D01*
Y77992D02*
Y79094D01*
X79783Y77992D02*
X80295D01*
X79783D02*
Y79094D01*
X80650D02*
X81161D01*
Y77992D02*
Y79094D01*
X80650Y77992D02*
X81161D01*
X80650D02*
Y79094D01*
X79724Y76063D02*
X79724Y74882D01*
X79823Y76161D02*
X80256D01*
X80354Y74882D02*
Y76063D01*
X79823Y74783D02*
X80256Y74783D01*
X73898Y78504D02*
X75079Y78504D01*
X73799Y78602D02*
Y79035D01*
X73898Y79134D02*
X75079D01*
X75177Y78602D02*
X75177Y79035D01*
X74567Y76850D02*
X74567Y75669D01*
X74665Y76949D02*
X75098D01*
X75197Y75669D02*
Y76850D01*
X74665Y75571D02*
X75098Y75571D01*
X73701Y76850D02*
X73701Y75669D01*
X73799Y76949D02*
X74232D01*
X74331Y75669D02*
Y76850D01*
X73799Y75571D02*
X74232Y75571D01*
X75197Y75354D02*
X75197Y74173D01*
X74665Y74075D02*
X75098D01*
X74567Y74173D02*
Y75354D01*
X74665Y75453D02*
X75098Y75453D01*
X71358Y14547D02*
X71358Y14980D01*
X70079Y15079D02*
X71260D01*
X69980Y14547D02*
Y14980D01*
X70079Y14449D02*
X71260Y14449D01*
X49055Y13839D02*
X50157D01*
X49055Y13327D02*
Y13839D01*
X50157Y13327D02*
Y13839D01*
X49055Y13327D02*
X50157D01*
X44724Y13839D02*
X45827D01*
X44724Y13327D02*
Y13839D01*
X45827Y13327D02*
Y13839D01*
X44724Y13327D02*
X45827D01*
X40394Y13839D02*
X41496D01*
X40394Y13327D02*
Y13839D01*
X41496Y13327D02*
Y13839D01*
X40394Y13327D02*
X41496D01*
X19390Y17579D02*
X19390Y18012D01*
X19488Y17480D02*
X20669D01*
X20768Y17579D02*
Y18012D01*
X19488Y18110D02*
X20669Y18110D01*
X21496Y18110D02*
X22677Y18110D01*
X22776Y17579D02*
Y18012D01*
X21496Y17480D02*
X22677D01*
X21398Y17579D02*
X21398Y18012D01*
X33760Y8130D02*
X33760Y8563D01*
X32480Y8661D02*
X33661D01*
X32382Y8130D02*
Y8563D01*
X32480Y8031D02*
X33661Y8031D01*
X24646Y53032D02*
X24646Y51850D01*
X24114Y51752D02*
X24547D01*
X24016Y51850D02*
Y53032D01*
X24114Y53130D02*
X24547Y53130D01*
X7303Y62008D02*
Y63110D01*
X6791D02*
X7303D01*
X6791Y62008D02*
Y63110D01*
Y62008D02*
X7303D01*
X4429D02*
X4941D01*
X4429D02*
Y63110D01*
X4941D01*
Y62008D02*
Y63110D01*
X2579Y62008D02*
Y63110D01*
X2067D02*
X2579D01*
X2067Y62008D02*
Y63110D01*
Y62008D02*
X2579D01*
X9665D02*
Y63110D01*
X9154D02*
X9665D01*
X9154Y62008D02*
Y63110D01*
Y62008D02*
X9665D01*
X22992Y61811D02*
X22992Y60630D01*
X22461Y60532D02*
X22894D01*
X22362Y60630D02*
Y61811D01*
X22461Y61909D02*
X22894Y61909D01*
X10669Y63661D02*
X10669Y62480D01*
X10768Y63760D02*
X11201D01*
X11299Y62480D02*
Y63661D01*
X10768Y62382D02*
X11201Y62382D01*
X20906Y78524D02*
X20906Y77343D01*
X20374Y77244D02*
X20807D01*
X20276Y77343D02*
Y78524D01*
X20374Y78622D02*
X20807Y78622D01*
X19488Y79488D02*
X19488Y78307D01*
X19587Y79587D02*
X20020D01*
X20118Y78307D02*
Y79488D01*
X19587Y78209D02*
X20020Y78209D01*
X18012Y78209D02*
X18445Y78209D01*
X18543Y78307D02*
Y79488D01*
X18012Y79587D02*
X18445D01*
X17913Y79488D02*
X17913Y78307D01*
X17756Y78543D02*
X17756Y77362D01*
X17224Y77264D02*
X17657D01*
X17126Y77362D02*
Y78543D01*
X17224Y78642D02*
X17657Y78642D01*
X8839Y78681D02*
X9272Y78681D01*
X8740Y77402D02*
Y78583D01*
X8839Y77303D02*
X9272D01*
X9370Y78583D02*
X9370Y77402D01*
X22362Y63760D02*
X22362Y62579D01*
X22461Y63858D02*
X22894D01*
X22992Y62579D02*
Y63760D01*
X22461Y62480D02*
X22894Y62480D01*
X24016Y64567D02*
X30315Y64567D01*
X5906Y84252D02*
X20866Y84252D01*
X31890Y61024D02*
X31890Y62992D01*
X22441Y66142D02*
X22441Y82677D01*
X1181Y79134D02*
X3543D01*
X4331Y79921D02*
Y82677D01*
X1969Y59449D02*
X30315D01*
X394Y78346D02*
X394Y61024D01*
X11437Y48839D02*
X12421D01*
X11437Y46870D02*
X12421D01*
X11437Y47854D02*
X12421D01*
X11437Y49823D02*
X12421D01*
X107087Y4724D02*
X108268D01*
X101968Y27953D02*
X108268Y27953D01*
X109843Y26378D02*
X109843Y6299D01*
X100394Y26378D02*
X100394Y11417D01*
X105512Y1969D02*
Y3150D01*
X89370Y9843D02*
X98819D01*
X89370Y394D02*
X103937D01*
X87795Y1969D02*
Y8268D01*
D11*
X20176Y81161D02*
G03*
X20176Y81161I-39J0D01*
G01*
X75728Y80039D02*
G03*
X75728Y80039I-39J0D01*
G01*
X33618Y1127D02*
G03*
X33618Y2810I-547J842D01*
G01*
X32524D02*
G03*
X32524Y1127I547J-842D01*
G01*
X15906Y51744D02*
X17087D01*
X15906Y53909D02*
X17087D01*
Y51744D02*
Y53909D01*
X15906Y51744D02*
Y53909D01*
X103543Y25433D02*
X106693D01*
X103543Y26575D02*
X106693D01*
X103543Y25433D02*
Y26575D01*
X106693Y25433D02*
Y26575D01*
X102559Y13075D02*
X103740D01*
X102559D02*
Y17240D01*
X103740Y13075D02*
Y17240D01*
X102559D02*
X103740D01*
X6811Y77266D02*
Y78246D01*
X79803Y79193D02*
X80276D01*
X80669D02*
X81142D01*
X75965Y79606D02*
X80728D01*
X75965D02*
Y81098D01*
Y82681D02*
Y85984D01*
X80728D01*
Y79606D02*
Y81098D01*
Y82681D02*
Y85984D01*
X78346Y74902D02*
Y79035D01*
X76772Y74902D02*
Y79035D01*
Y74902D02*
X78346D01*
X76772Y79035D02*
X78346D01*
X72756Y80787D02*
X74921D01*
X72756Y79606D02*
X74921D01*
Y80787D01*
X72756Y79606D02*
Y80787D01*
X83760Y3937D02*
Y5118D01*
X77657Y3937D02*
Y5118D01*
X83760D01*
X77657Y3937D02*
X83760D01*
X50256Y13346D02*
Y13819D01*
X45925Y13346D02*
Y13819D01*
X41594Y13346D02*
Y13819D01*
X17512Y15354D02*
X24614D01*
X17512Y14173D02*
X24614D01*
X17512D02*
Y15354D01*
X24614Y14173D02*
Y15354D01*
X25705Y2953D02*
Y4134D01*
X21539Y2953D02*
X25705D01*
X21539Y4134D02*
X25705D01*
X21539Y2953D02*
Y4134D01*
X13681Y3780D02*
Y4961D01*
X7579Y3780D02*
Y4961D01*
X13681D01*
X7579Y3780D02*
X13681D01*
X6811Y61909D02*
X7283D01*
X4449D02*
X4921D01*
X2087D02*
X2559D01*
X9173D02*
X9646D01*
X29864Y61850D02*
X30844D01*
X27384D02*
X28364D01*
X24864D02*
X25844D01*
X19311Y62854D02*
X21949D01*
X19311Y61634D02*
X21949D01*
Y62854D01*
X19311Y61634D02*
Y62854D01*
X18287Y60827D02*
X18307D01*
X16496D02*
X16516D01*
X16496D02*
Y63819D01*
X18307Y60827D02*
Y63819D01*
X16496D02*
X16516D01*
X18287D02*
X18307D01*
X16496Y62913D02*
X18307D01*
X12126Y63071D02*
X15276D01*
X12126Y64213D02*
X15276D01*
X12126Y63071D02*
Y64213D01*
X15276Y63071D02*
Y64213D01*
X14134Y76929D02*
Y78740D01*
X13228Y78720D02*
Y78740D01*
Y76929D02*
Y76949D01*
Y78740D02*
X16220D01*
X13228Y76929D02*
X16220D01*
Y76949D01*
Y78720D02*
Y78740D01*
X3543Y76890D02*
Y78701D01*
X4449Y76890D02*
Y76909D01*
Y78681D02*
Y78701D01*
X1457Y76890D02*
X4449D01*
X1457Y78701D02*
X4449D01*
X1457Y78681D02*
Y78701D01*
Y76890D02*
Y76909D01*
X11004Y80207D02*
Y81230D01*
X9567Y80030D02*
X10827D01*
X9390Y84163D02*
X11004D01*
X9390Y83100D02*
Y84163D01*
X11004Y83100D02*
Y84163D01*
X10827Y80030D02*
X11006Y80207D01*
X9390D02*
X9567Y80030D01*
X9390Y80207D02*
Y81230D01*
X11811Y79980D02*
X14272D01*
Y84114D01*
X11811D02*
X14272D01*
X11811Y79980D02*
Y84114D01*
X30866Y68260D02*
Y82409D01*
X29724Y68260D02*
Y82409D01*
Y68260D02*
X30866D01*
X29724Y82409D02*
X30866D01*
X3701Y13461D02*
Y19610D01*
X2559Y13461D02*
Y19610D01*
Y13461D02*
X3701D01*
X2559Y19610D02*
X3701D01*
X71575Y22673D02*
X72756D01*
X71575D02*
Y36776D01*
X72756Y22673D02*
Y36776D01*
X71575Y36776D02*
X72756D01*
X30851Y49309D02*
Y50491D01*
X20749Y49309D02*
X30851D01*
X20749Y50491D02*
X30851D01*
X20749Y49309D02*
Y50491D01*
X98736Y6496D02*
Y7677D01*
X94571Y6496D02*
X98736D01*
X94571Y7677D02*
X98736D01*
X94571Y6496D02*
Y7677D01*
X34449Y31807D02*
X35630D01*
Y27642D02*
Y31807D01*
X34449Y27642D02*
Y31807D01*
Y27642D02*
X35630D01*
X75000Y16028D02*
Y24130D01*
X76181Y16028D02*
Y24130D01*
X75000D02*
X76181D01*
X75000Y16028D02*
X76181D01*
X32524Y1122D02*
X33618D01*
X32524Y2815D02*
X33618D01*
X4187Y61409D02*
X4055D01*
X4121D01*
Y61081D01*
X4055Y61016D01*
X3990D01*
X3924Y61081D01*
X4318Y61016D02*
Y61278D01*
X4449Y61409D01*
X4580Y61278D01*
Y61016D01*
Y61212D01*
X4318D01*
X4974Y61344D02*
X4908Y61409D01*
X4777D01*
X4711Y61344D01*
Y61081D01*
X4777Y61016D01*
X4908D01*
X4974Y61081D01*
X5105Y61409D02*
Y61016D01*
Y61147D01*
X5367Y61409D01*
X5170Y61212D01*
X5367Y61016D01*
X4514Y60748D02*
X4383D01*
X4318Y60682D01*
Y60420D01*
X4383Y60354D01*
X4514D01*
X4580Y60420D01*
Y60682D01*
X4514Y60748D01*
X4711D02*
Y60354D01*
Y60486D01*
X4974Y60748D01*
X4777Y60551D01*
X4974Y60354D01*
X6942Y61409D02*
X6680D01*
Y61212D01*
X6811Y61278D01*
X6877D01*
X6942Y61212D01*
Y61081D01*
X6877Y61016D01*
X6745D01*
X6680Y61081D01*
X7073Y61409D02*
Y61147D01*
X7205Y61016D01*
X7336Y61147D01*
Y61409D01*
X6877Y60748D02*
X6745D01*
X6680Y60682D01*
Y60420D01*
X6745Y60354D01*
X6877D01*
X6942Y60420D01*
Y60682D01*
X6877Y60748D01*
X7073D02*
Y60354D01*
Y60486D01*
X7336Y60748D01*
X7139Y60551D01*
X7336Y60354D01*
X11930Y62118D02*
X11667D01*
Y61921D01*
X11798D01*
X11667D01*
Y61724D01*
X12061D02*
Y62118D01*
X12257D01*
X12323Y62052D01*
Y61921D01*
X12257Y61855D01*
X12061D01*
X12192D02*
X12323Y61724D01*
X12651Y62118D02*
X12520D01*
X12454Y62052D01*
Y61790D01*
X12520Y61724D01*
X12651D01*
X12717Y61790D01*
Y62052D01*
X12651Y62118D01*
X12848Y61724D02*
Y62118D01*
X12979Y61987D01*
X13110Y62118D01*
Y61724D01*
X11274Y61457D02*
Y61129D01*
X11339Y61063D01*
X11470D01*
X11536Y61129D01*
Y61457D01*
X11930Y61391D02*
X11864Y61457D01*
X11733D01*
X11667Y61391D01*
Y61325D01*
X11733Y61260D01*
X11864D01*
X11930Y61194D01*
Y61129D01*
X11864Y61063D01*
X11733D01*
X11667Y61129D01*
X12061Y61457D02*
Y61063D01*
X12257D01*
X12323Y61129D01*
Y61194D01*
X12257Y61260D01*
X12061D01*
X12257D01*
X12323Y61325D01*
Y61391D01*
X12257Y61457D01*
X12061D01*
X12454Y61260D02*
X12717D01*
X13110Y61391D02*
X13045Y61457D01*
X12913D01*
X12848Y61391D01*
Y61129D01*
X12913Y61063D01*
X13045D01*
X13110Y61129D01*
X101694Y27638D02*
X101812D01*
X101753D01*
Y27283D01*
X101694D01*
X101812D01*
X101989D02*
Y27638D01*
X102225Y27283D01*
Y27638D01*
X102343D02*
Y27283D01*
X102520D01*
X102579Y27343D01*
Y27579D01*
X102520Y27638D01*
X102343D01*
X103052D02*
X103288D01*
X103170D01*
Y27283D01*
X103406D02*
Y27638D01*
X103583D01*
X103642Y27579D01*
Y27461D01*
X103583Y27402D01*
X103406D01*
X103524D02*
X103642Y27283D01*
X103760Y27638D02*
X103878D01*
X103819D01*
Y27283D01*
X103760D01*
X103878D01*
X104291Y27579D02*
X104232Y27638D01*
X104114D01*
X104055Y27579D01*
Y27343D01*
X104114Y27283D01*
X104232D01*
X104291Y27343D01*
Y27461D01*
X104173D01*
X104646Y27579D02*
X104587Y27638D01*
X104469D01*
X104410Y27579D01*
Y27520D01*
X104469Y27461D01*
X104587D01*
X104646Y27402D01*
Y27343D01*
X104587Y27283D01*
X104469D01*
X104410Y27343D01*
X105728Y27579D02*
X105669Y27638D01*
X105551D01*
X105492Y27579D01*
Y27520D01*
X105551Y27461D01*
X105669D01*
X105728Y27402D01*
Y27343D01*
X105669Y27283D01*
X105551D01*
X105492Y27343D01*
X105846Y27638D02*
Y27579D01*
X105964Y27461D01*
X106082Y27579D01*
Y27638D01*
X105964Y27461D02*
Y27283D01*
X106201D02*
Y27638D01*
X106437Y27283D01*
Y27638D01*
X106791Y27579D02*
X106732Y27638D01*
X106614D01*
X106555Y27579D01*
Y27343D01*
X106614Y27283D01*
X106732D01*
X106791Y27343D01*
X107263Y27638D02*
X107499D01*
X107381D01*
Y27283D01*
X107617D02*
Y27638D01*
X107795D01*
X107854Y27579D01*
Y27461D01*
X107795Y27402D01*
X107617D01*
X107735D02*
X107854Y27283D01*
X107972Y27638D02*
X108090D01*
X108031D01*
Y27283D01*
X107972D01*
X108090D01*
X108503Y27579D02*
X108444Y27638D01*
X108326D01*
X108267Y27579D01*
Y27343D01*
X108326Y27283D01*
X108444D01*
X108503Y27343D01*
Y27461D01*
X108385D01*
X108857Y27579D02*
X108798Y27638D01*
X108680D01*
X108621Y27579D01*
Y27520D01*
X108680Y27461D01*
X108798D01*
X108857Y27402D01*
Y27343D01*
X108798Y27283D01*
X108680D01*
X108621Y27343D01*
X1365Y61409D02*
Y61081D01*
X1431Y61016D01*
X1562D01*
X1628Y61081D01*
Y61409D01*
X2021Y61344D02*
X1955Y61409D01*
X1824D01*
X1759Y61344D01*
Y61278D01*
X1824Y61212D01*
X1955D01*
X2021Y61147D01*
Y61081D01*
X1955Y61016D01*
X1824D01*
X1759Y61081D01*
X2152Y61409D02*
Y61016D01*
X2349D01*
X2415Y61081D01*
Y61147D01*
X2349Y61212D01*
X2152D01*
X2349D01*
X2415Y61278D01*
Y61344D01*
X2349Y61409D01*
X2152D01*
X2546Y61212D02*
X2808D01*
X3202Y61344D02*
X3136Y61409D01*
X3005D01*
X2939Y61344D01*
Y61081D01*
X3005Y61016D01*
X3136D01*
X3202Y61081D01*
X2152Y60748D02*
X2021D01*
X1955Y60682D01*
Y60420D01*
X2021Y60354D01*
X2152D01*
X2218Y60420D01*
Y60682D01*
X2152Y60748D01*
X2349D02*
Y60354D01*
Y60486D01*
X2611Y60748D01*
X2415Y60551D01*
X2611Y60354D01*
X14554Y62118D02*
X14291D01*
Y61921D01*
X14423D01*
X14291D01*
Y61724D01*
X14685D02*
Y62118D01*
X14882D01*
X14947Y62052D01*
Y61921D01*
X14882Y61855D01*
X14685D01*
X14816D02*
X14947Y61724D01*
X15275Y62118D02*
X15144D01*
X15078Y62052D01*
Y61790D01*
X15144Y61724D01*
X15275D01*
X15341Y61790D01*
Y62052D01*
X15275Y62118D01*
X15472Y61724D02*
Y62118D01*
X15603Y61987D01*
X15734Y62118D01*
Y61724D01*
X14554Y61457D02*
X14423D01*
X14488D01*
Y61129D01*
X14423Y61063D01*
X14357D01*
X14291Y61129D01*
X14685Y61063D02*
Y61325D01*
X14816Y61457D01*
X14947Y61325D01*
Y61063D01*
Y61260D01*
X14685D01*
X15341Y61391D02*
X15275Y61457D01*
X15144D01*
X15078Y61391D01*
Y61129D01*
X15144Y61063D01*
X15275D01*
X15341Y61129D01*
X15472Y61457D02*
Y61063D01*
Y61194D01*
X15734Y61457D01*
X15538Y61260D01*
X15734Y61063D01*
X8681Y61344D02*
X8747Y61409D01*
X8878D01*
X8944Y61344D01*
Y61278D01*
X8878Y61212D01*
X8813D01*
X8878D01*
X8944Y61147D01*
Y61081D01*
X8878Y61016D01*
X8747D01*
X8681Y61081D01*
X9075Y61016D02*
Y61081D01*
X9140D01*
Y61016D01*
X9075D01*
X9403Y61344D02*
X9468Y61409D01*
X9600D01*
X9665Y61344D01*
Y61278D01*
X9600Y61212D01*
X9534D01*
X9600D01*
X9665Y61147D01*
Y61081D01*
X9600Y61016D01*
X9468D01*
X9403Y61081D01*
X9796Y61409D02*
Y61147D01*
X9928Y61016D01*
X10059Y61147D01*
Y61409D01*
X9239Y60748D02*
X9108D01*
X9042Y60682D01*
Y60420D01*
X9108Y60354D01*
X9239D01*
X9304Y60420D01*
Y60682D01*
X9239Y60748D01*
X9436D02*
Y60354D01*
Y60486D01*
X9698Y60748D01*
X9501Y60551D01*
X9698Y60354D01*
X16404Y54527D02*
X16142D01*
Y54331D01*
X16273Y54396D01*
X16339D01*
X16404Y54331D01*
Y54199D01*
X16339Y54134D01*
X16207D01*
X16142Y54199D01*
X16535Y54527D02*
Y54265D01*
X16667Y54134D01*
X16798Y54265D01*
Y54527D01*
X16207Y51470D02*
X16142Y51535D01*
X16010D01*
X15945Y51470D01*
Y51207D01*
X16010Y51142D01*
X16142D01*
X16207Y51207D01*
Y51339D01*
X16076D01*
X16338Y51142D02*
Y51535D01*
X16601Y51142D01*
Y51535D01*
X16732D02*
Y51142D01*
X16929D01*
X16994Y51207D01*
Y51470D01*
X16929Y51535D01*
X16732D01*
X40223Y12972D02*
Y12579D01*
X40486D01*
X40879Y12972D02*
X40617D01*
Y12579D01*
X40879D01*
X40617Y12776D02*
X40748D01*
X41010Y12972D02*
Y12579D01*
X41207D01*
X41273Y12644D01*
Y12907D01*
X41207Y12972D01*
X41010D01*
X41404Y12907D02*
X41470Y12972D01*
X41601D01*
X41666Y12907D01*
Y12644D01*
X41601Y12579D01*
X41470D01*
X41404Y12644D01*
Y12907D01*
X44633Y12972D02*
Y12579D01*
X44895D01*
X45289Y12972D02*
X45026D01*
Y12579D01*
X45289D01*
X45026Y12776D02*
X45157D01*
X45420Y12972D02*
Y12579D01*
X45617D01*
X45682Y12644D01*
Y12907D01*
X45617Y12972D01*
X45420D01*
X45813Y12579D02*
X45945D01*
X45879D01*
Y12972D01*
X45813Y12907D01*
X48898Y12972D02*
Y12579D01*
X49160D01*
X49554Y12972D02*
X49291D01*
Y12579D01*
X49554D01*
X49291Y12776D02*
X49423D01*
X49685Y12972D02*
Y12579D01*
X49882D01*
X49947Y12644D01*
Y12907D01*
X49882Y12972D01*
X49685D01*
X50341Y12579D02*
X50078D01*
X50341Y12841D01*
Y12907D01*
X50275Y12972D01*
X50144D01*
X50078Y12907D01*
X66011Y12775D02*
Y12382D01*
X66208D01*
X66273Y12447D01*
Y12513D01*
X66208Y12579D01*
X66011D01*
X66208D01*
X66273Y12644D01*
Y12710D01*
X66208Y12775D01*
X66011D01*
X66405D02*
Y12447D01*
X66470Y12382D01*
X66601D01*
X66667Y12447D01*
Y12775D01*
X66798D02*
X67060D01*
X66929D01*
Y12382D01*
X67192Y12775D02*
X67454D01*
X67323D01*
Y12382D01*
X67782Y12775D02*
X67651D01*
X67585Y12710D01*
Y12447D01*
X67651Y12382D01*
X67782D01*
X67848Y12447D01*
Y12710D01*
X67782Y12775D01*
X67979Y12382D02*
Y12775D01*
X68241Y12382D01*
Y12775D01*
X68372Y12710D02*
X68438Y12775D01*
X68569D01*
X68635Y12710D01*
Y12447D01*
X68569Y12382D01*
X68438D01*
X68372Y12447D01*
Y12710D01*
X60578Y12775D02*
Y12382D01*
X60775D01*
X60840Y12447D01*
Y12513D01*
X60775Y12579D01*
X60578D01*
X60775D01*
X60840Y12644D01*
Y12710D01*
X60775Y12775D01*
X60578D01*
X60971D02*
Y12447D01*
X61037Y12382D01*
X61168D01*
X61234Y12447D01*
Y12775D01*
X61365D02*
X61627D01*
X61496D01*
Y12382D01*
X61758Y12775D02*
X62021D01*
X61890D01*
Y12382D01*
X62349Y12775D02*
X62218D01*
X62152Y12710D01*
Y12447D01*
X62218Y12382D01*
X62349D01*
X62414Y12447D01*
Y12710D01*
X62349Y12775D01*
X62546Y12382D02*
Y12775D01*
X62808Y12382D01*
Y12775D01*
X62939Y12382D02*
X63070D01*
X63005D01*
Y12775D01*
X62939Y12710D01*
X27506Y54639D02*
X27441Y54705D01*
X27310D01*
X27244Y54639D01*
Y54377D01*
X27310Y54311D01*
X27441D01*
X27506Y54377D01*
Y54508D01*
X27375D01*
X27638Y54311D02*
Y54705D01*
X27900Y54311D01*
Y54705D01*
X28031D02*
Y54311D01*
X28228D01*
X28294Y54377D01*
Y54639D01*
X28228Y54705D01*
X28031D01*
X27506Y55722D02*
X27441Y55787D01*
X27310D01*
X27244Y55722D01*
Y55459D01*
X27310Y55394D01*
X27441D01*
X27506Y55459D01*
Y55590D01*
X27375D01*
X27638Y55394D02*
Y55787D01*
X27900Y55394D01*
Y55787D01*
X28031D02*
Y55394D01*
X28228D01*
X28294Y55459D01*
Y55722D01*
X28228Y55787D01*
X28031D01*
X23471Y54737D02*
X23405Y54803D01*
X23274D01*
X23209Y54737D01*
Y54475D01*
X23274Y54409D01*
X23405D01*
X23471Y54475D01*
X23602Y54803D02*
Y54409D01*
Y54606D01*
X23865D01*
Y54803D01*
Y54409D01*
X24258D02*
X23996D01*
X24258Y54672D01*
Y54737D01*
X24193Y54803D01*
X24061D01*
X23996Y54737D01*
X23471Y55722D02*
X23405Y55787D01*
X23274D01*
X23209Y55722D01*
Y55459D01*
X23274Y55394D01*
X23405D01*
X23471Y55459D01*
X23602Y55787D02*
Y55394D01*
Y55590D01*
X23865D01*
Y55787D01*
Y55394D01*
X23996Y55722D02*
X24061Y55787D01*
X24193D01*
X24258Y55722D01*
Y55656D01*
X24193Y55590D01*
X24127D01*
X24193D01*
X24258Y55525D01*
Y55459D01*
X24193Y55394D01*
X24061D01*
X23996Y55459D01*
X14685Y80787D02*
Y80656D01*
X14751Y80591D01*
X15013D01*
X15079Y80656D01*
Y80787D01*
X15013Y80853D01*
X14751D01*
X14685Y80787D01*
X15079Y80984D02*
X14685D01*
X15079Y81247D01*
X14685D01*
Y82756D02*
Y82625D01*
X14751Y82559D01*
X15013D01*
X15079Y82625D01*
Y82756D01*
X15013Y82821D01*
X14751D01*
X14685Y82756D01*
Y83215D02*
Y82953D01*
X14882D01*
Y83084D01*
Y82953D01*
X15079D01*
X14685Y83609D02*
Y83346D01*
X14882D01*
Y83477D01*
Y83346D01*
X15079D01*
X13720Y46181D02*
X13589D01*
X13655D01*
Y46575D01*
X13720D01*
X13589D01*
X13392D02*
Y46181D01*
X13130Y46575D01*
Y46181D01*
X12999Y46575D02*
X12868D01*
X12933D01*
Y46181D01*
X12999Y46247D01*
X13720Y47165D02*
X13589D01*
X13655D01*
Y47559D01*
X13720D01*
X13589D01*
X13392D02*
Y47165D01*
X13130Y47559D01*
Y47165D01*
X12737Y47559D02*
X12999D01*
X12737Y47297D01*
Y47231D01*
X12802Y47165D01*
X12933D01*
X12999Y47231D01*
X13720Y48150D02*
X13589D01*
X13655D01*
Y48543D01*
X13720D01*
X13589D01*
X13392D02*
Y48150D01*
X13130Y48543D01*
Y48150D01*
X12999Y48215D02*
X12933Y48150D01*
X12802D01*
X12737Y48215D01*
Y48281D01*
X12802Y48347D01*
X12868D01*
X12802D01*
X12737Y48412D01*
Y48478D01*
X12802Y48543D01*
X12933D01*
X12999Y48478D01*
X13720Y49134D02*
X13589D01*
X13655D01*
Y49528D01*
X13720D01*
X13589D01*
X13392D02*
Y49134D01*
X13130Y49528D01*
Y49134D01*
X12802Y49528D02*
Y49134D01*
X12999Y49331D01*
X12737D01*
D12*
X62500Y14173D02*
G03*
X62500Y14173I-689J0D01*
G01*
X68012D02*
G03*
X68012Y14173I-689J0D01*
G01*
X17177Y82413D02*
Y83280D01*
X20697Y82413D02*
Y83280D01*
X17177Y84646D02*
X20697D01*
X60591Y13685D02*
Y14661D01*
X60713Y12953D02*
X62909D01*
X60713Y15394D02*
X62909D01*
X63032Y13685D02*
Y14661D01*
X66102Y13685D02*
Y14661D01*
X66224Y12953D02*
X68421D01*
X66224Y15394D02*
X68421D01*
X68543Y13685D02*
Y14661D01*
X63500Y44000D02*
Y45750D01*
X58500Y44000D02*
Y45750D01*
X55500Y44000D02*
Y45750D01*
X53500Y44000D02*
Y45750D01*
X51500Y44000D02*
Y45750D01*
X47500Y44000D02*
Y45750D01*
X45500Y44000D02*
Y45750D01*
X43500Y44000D02*
Y45750D01*
Y44000D02*
X63500D01*
X47500Y54250D02*
Y56250D01*
X45500Y54250D02*
Y56250D01*
X51500Y54250D02*
Y56250D01*
X43500Y54250D02*
Y56250D01*
X51500D01*
X53500D02*
X54500D01*
X53500Y54250D02*
Y56250D01*
X61500D02*
X63250D01*
Y54250D02*
Y56250D01*
X60500D02*
X61500D01*
Y54250D02*
Y56250D01*
X60500Y54250D02*
Y56250D01*
X57500D02*
X60500D01*
X57500Y54250D02*
Y56250D01*
X54500D02*
X57500D01*
X54500Y54250D02*
Y56250D01*
X12087Y76772D02*
Y78937D01*
X10118Y76772D02*
Y78937D01*
X47962Y54912D02*
X47923Y54950D01*
X47847D01*
X47808Y54912D01*
Y54758D01*
X47847Y54720D01*
X47923D01*
X47962Y54758D01*
X48192Y54912D02*
X48153Y54950D01*
X48077D01*
X48038Y54912D01*
Y54873D01*
X48077Y54835D01*
X48153D01*
X48192Y54797D01*
Y54758D01*
X48153Y54720D01*
X48077D01*
X48038Y54758D01*
X47693Y54324D02*
Y54477D01*
X47770Y54554D01*
X47847Y54477D01*
Y54324D01*
Y54439D01*
X47693D01*
X47923Y54324D02*
X48077Y54477D01*
X48307Y54516D02*
X48268Y54554D01*
X48192D01*
X48153Y54516D01*
Y54362D01*
X48192Y54324D01*
X48268D01*
X48307Y54362D01*
Y54439D01*
X48230D01*
X54667Y55700D02*
Y55867D01*
X54792D01*
X54833Y55825D01*
Y55700D01*
X55083Y55908D02*
X55042Y55950D01*
X54958D01*
X54917Y55908D01*
Y55742D01*
X54958Y55700D01*
X55042D01*
X55083Y55742D01*
X55333Y55950D02*
X55167D01*
Y55700D01*
X55333D01*
X55167Y55825D02*
X55250D01*
X54958Y55280D02*
X55042D01*
X55000D01*
Y55530D01*
X54958Y55488D01*
X45834Y43850D02*
X45667D01*
Y43600D01*
X45834D01*
X45667Y43725D02*
X45750D01*
X45917Y43600D02*
Y43850D01*
X46083Y43600D01*
Y43850D01*
X46333Y43808D02*
X46292Y43850D01*
X46208D01*
X46167Y43808D01*
Y43642D01*
X46208Y43600D01*
X46292D01*
X46333Y43642D01*
X46542Y43850D02*
X46458D01*
X46417Y43808D01*
Y43642D01*
X46458Y43600D01*
X46542D01*
X46583Y43642D01*
Y43808D01*
X46542Y43850D01*
X46667D02*
Y43600D01*
X46792D01*
X46833Y43642D01*
Y43808D01*
X46792Y43850D01*
X46667D01*
X47083D02*
X46917D01*
Y43600D01*
X47083D01*
X46917Y43725D02*
X47000D01*
X47166Y43600D02*
Y43850D01*
X47291D01*
X47333Y43808D01*
Y43725D01*
X47291Y43683D01*
X47166D01*
X47250D02*
X47333Y43600D01*
X55667Y55700D02*
Y55867D01*
X55792D01*
X55833Y55825D01*
Y55700D01*
X56083Y55908D02*
X56042Y55950D01*
X55958D01*
X55917Y55908D01*
Y55742D01*
X55958Y55700D01*
X56042D01*
X56083Y55742D01*
X56333Y55950D02*
X56167D01*
Y55700D01*
X56333D01*
X56167Y55825D02*
X56250D01*
X55917Y55488D02*
X55958Y55530D01*
X56042D01*
X56083Y55488D01*
Y55322D01*
X56042Y55280D01*
X55958D01*
X55917Y55322D01*
Y55488D01*
X52083Y43808D02*
X52042Y43850D01*
X51959D01*
X51917Y43808D01*
Y43767D01*
X51959Y43725D01*
X52042D01*
X52083Y43683D01*
Y43642D01*
X52042Y43600D01*
X51959D01*
X51917Y43642D01*
X52292Y43850D02*
X52208D01*
X52167Y43808D01*
Y43642D01*
X52208Y43600D01*
X52292D01*
X52333Y43642D01*
Y43808D01*
X52292Y43850D01*
X52417Y43600D02*
Y43850D01*
X52583Y43600D01*
Y43850D01*
X52667Y43600D02*
Y43767D01*
X52750Y43850D01*
X52833Y43767D01*
Y43600D01*
Y43725D01*
X52667D01*
X52917Y43600D02*
Y43850D01*
X53041D01*
X53083Y43808D01*
Y43725D01*
X53041Y43683D01*
X52917D01*
X53000D02*
X53083Y43600D01*
X60733Y45700D02*
X60867D01*
X60800D01*
Y45500D01*
X61067Y45667D02*
X61033Y45700D01*
X60967D01*
X60933Y45667D01*
Y45533D01*
X60967Y45500D01*
X61033D01*
X61067Y45533D01*
X61133Y45700D02*
Y45500D01*
Y45600D01*
X61267D01*
Y45700D01*
Y45500D01*
X60733Y45140D02*
Y45273D01*
X60833D01*
X60867Y45240D01*
Y45140D01*
X61067Y45307D02*
X61033Y45340D01*
X60967D01*
X60933Y45307D01*
Y45173D01*
X60967Y45140D01*
X61033D01*
X61067Y45173D01*
X61267Y45340D02*
X61133D01*
Y45140D01*
X61267D01*
X61133Y45240D02*
X61200D01*
X62883Y55750D02*
X62950D01*
X62917D01*
Y55950D01*
X62883Y55917D01*
X63050Y55750D02*
X63117D01*
X63083D01*
Y55950D01*
X63050Y55917D01*
X61563Y45450D02*
Y45700D01*
X61646Y45617D01*
X61729Y45700D01*
Y45450D01*
X61813Y45700D02*
X61896D01*
X61854D01*
Y45450D01*
X61813D01*
X61896D01*
X62187Y45658D02*
X62146Y45700D01*
X62062D01*
X62021Y45658D01*
Y45617D01*
X62062Y45575D01*
X62146D01*
X62187Y45533D01*
Y45492D01*
X62146Y45450D01*
X62062D01*
X62021Y45492D01*
X62396Y45700D02*
X62312D01*
X62271Y45658D01*
Y45492D01*
X62312Y45450D01*
X62396D01*
X62437Y45492D01*
Y45658D01*
X62396Y45700D01*
X61962Y55720D02*
X61808D01*
X61962Y55873D01*
Y55912D01*
X61923Y55950D01*
X61847D01*
X61808Y55912D01*
X62038Y55950D02*
X62192D01*
Y55912D01*
X62038Y55758D01*
Y55720D01*
X62923Y54912D02*
X62962Y54950D01*
X63038D01*
X63077Y54912D01*
Y54873D01*
X63038Y54835D01*
X63077Y54797D01*
Y54758D01*
X63038Y54720D01*
X62962D01*
X62923Y54758D01*
Y54797D01*
X62962Y54835D01*
X62923Y54873D01*
Y54912D01*
X62962Y54835D02*
X63038D01*
X56563Y43600D02*
Y43850D01*
X56688D01*
X56729Y43808D01*
Y43725D01*
X56688Y43683D01*
X56563D01*
X56646D02*
X56729Y43600D01*
X56979Y43850D02*
X56813D01*
Y43725D01*
X56896D01*
X56813D01*
Y43600D01*
X57062Y43850D02*
X57146D01*
X57104D01*
Y43600D01*
X57062D01*
X57146D01*
X57271Y43850D02*
Y43600D01*
X57396D01*
X57437Y43642D01*
Y43808D01*
X57396Y43850D01*
X57271D01*
X58867Y44667D02*
X58833Y44700D01*
X58767D01*
X58733Y44667D01*
Y44533D01*
X58767Y44500D01*
X58833D01*
X58867Y44533D01*
X58933Y44500D02*
Y44700D01*
X59033D01*
X59067Y44667D01*
Y44600D01*
X59033Y44567D01*
X58933D01*
X59000D02*
X59067Y44500D01*
X59133Y44700D02*
Y44500D01*
X59233D01*
X59267Y44533D01*
Y44667D01*
X59233Y44700D01*
X59133D01*
X58733Y44140D02*
Y44273D01*
X58833D01*
X58867Y44240D01*
Y44140D01*
X59067Y44307D02*
X59033Y44340D01*
X58967D01*
X58933Y44307D01*
Y44173D01*
X58967Y44140D01*
X59033D01*
X59067Y44173D01*
X59267Y44340D02*
X59133D01*
Y44140D01*
X59267D01*
X59133Y44240D02*
X59200D01*
X39058Y55856D02*
X39141D01*
X39099D01*
Y55606D01*
X39058D01*
X39141D01*
X39433D02*
X39266D01*
X39433Y55772D01*
Y55814D01*
X39391Y55856D01*
X39308D01*
X39266Y55814D01*
X39682D02*
X39641Y55856D01*
X39558D01*
X39516Y55814D01*
Y55647D01*
X39558Y55606D01*
X39641D01*
X39682Y55647D01*
X38579Y55102D02*
Y55352D01*
X38704D01*
X38745Y55311D01*
Y55227D01*
X38704Y55186D01*
X38579D01*
X38829Y55352D02*
Y55227D01*
X38870Y55186D01*
X38995D01*
Y55352D01*
X39079Y55186D02*
X39162D01*
X39120D01*
Y55436D01*
X39079D01*
X39287Y55186D02*
X39370D01*
X39328D01*
Y55436D01*
X39287D01*
X39495Y55311D02*
X39662D01*
X39745Y55352D02*
Y55227D01*
X39787Y55186D01*
X39912D01*
Y55352D01*
X39995Y55102D02*
Y55352D01*
X40120D01*
X40161Y55311D01*
Y55227D01*
X40120Y55186D01*
X39995D01*
X60867Y44667D02*
X60833Y44700D01*
X60767D01*
X60733Y44667D01*
Y44633D01*
X60767Y44600D01*
X60833D01*
X60867Y44567D01*
Y44533D01*
X60833Y44500D01*
X60767D01*
X60733Y44533D01*
X61067Y44667D02*
X61033Y44700D01*
X60967D01*
X60933Y44667D01*
Y44533D01*
X60967Y44500D01*
X61033D01*
X61067Y44533D01*
X61133Y44700D02*
Y44500D01*
Y44567D01*
X61267Y44700D01*
X61167Y44600D01*
X61267Y44500D01*
X59733Y45700D02*
Y45500D01*
X59867D01*
X60067Y45667D02*
X60033Y45700D01*
X59967D01*
X59933Y45667D01*
Y45533D01*
X59967Y45500D01*
X60033D01*
X60067Y45533D01*
X60133Y45700D02*
Y45500D01*
X60233D01*
X60267Y45533D01*
Y45667D01*
X60233Y45700D01*
X60133D01*
X59533Y45340D02*
Y45140D01*
X59633D01*
X59667Y45173D01*
Y45307D01*
X59633Y45340D01*
X59533D01*
X59867Y45307D02*
X59833Y45340D01*
X59767D01*
X59733Y45307D01*
Y45173D01*
X59767Y45140D01*
X59833D01*
X59867Y45173D01*
X59933Y45140D02*
X60067Y45273D01*
X60133Y45140D02*
Y45340D01*
X60233D01*
X60267Y45307D01*
Y45240D01*
X60233Y45207D01*
X60133D01*
X60200D02*
X60267Y45140D01*
X60467Y45307D02*
X60433Y45340D01*
X60367D01*
X60333Y45307D01*
Y45273D01*
X60367Y45240D01*
X60433D01*
X60467Y45207D01*
Y45173D01*
X60433Y45140D01*
X60367D01*
X60333Y45173D01*
X57667Y54700D02*
Y54867D01*
X57792D01*
X57833Y54825D01*
Y54700D01*
X58083Y54908D02*
X58042Y54950D01*
X57958D01*
X57917Y54908D01*
Y54742D01*
X57958Y54700D01*
X58042D01*
X58083Y54742D01*
X58333Y54950D02*
X58167D01*
Y54700D01*
X58333D01*
X58167Y54825D02*
X58250D01*
X57958Y54280D02*
X58042D01*
X58000D01*
Y54530D01*
X57958Y54488D01*
X50958Y55908D02*
X50917Y55950D01*
X50833D01*
X50792Y55908D01*
Y55742D01*
X50833Y55700D01*
X50917D01*
X50958Y55742D01*
X51208Y55908D02*
X51167Y55950D01*
X51083D01*
X51042Y55908D01*
Y55867D01*
X51083Y55825D01*
X51167D01*
X51208Y55783D01*
Y55742D01*
X51167Y55700D01*
X51083D01*
X51042Y55742D01*
X50917Y55280D02*
Y55530D01*
X51000Y55447D01*
X51083Y55530D01*
Y55280D01*
X62733Y44700D02*
X62867D01*
X62800D01*
Y44500D01*
X63067Y44667D02*
X63033Y44700D01*
X62967D01*
X62933Y44667D01*
Y44533D01*
X62967Y44500D01*
X63033D01*
X63067Y44533D01*
X63133Y44700D02*
Y44500D01*
Y44600D01*
X63267D01*
Y44700D01*
Y44500D01*
X62750Y44340D02*
X62817D01*
X62783D01*
Y44140D01*
X62750D01*
X62817D01*
X62917D02*
Y44340D01*
X63017D01*
X63050Y44307D01*
Y44240D01*
X63017Y44207D01*
X62917D01*
X62983D02*
X63050Y44140D01*
X63250Y44173D02*
Y44307D01*
X63217Y44340D01*
X63150D01*
X63117Y44307D01*
Y44173D01*
X63150Y44140D01*
X63217D01*
X63183Y44207D02*
X63250Y44140D01*
X63217D02*
X63250Y44173D01*
X57667Y55700D02*
Y55867D01*
X57792D01*
X57833Y55825D01*
Y55700D01*
X58083Y55908D02*
X58042Y55950D01*
X57958D01*
X57917Y55908D01*
Y55742D01*
X57958Y55700D01*
X58042D01*
X58083Y55742D01*
X58333Y55950D02*
X58167D01*
Y55700D01*
X58333D01*
X58167Y55825D02*
X58250D01*
X57917Y55488D02*
X57958Y55530D01*
X58042D01*
X58083Y55488D01*
Y55322D01*
X58042Y55280D01*
X57958D01*
X57917Y55322D01*
Y55488D01*
X44167Y43600D02*
Y43767D01*
X44250Y43850D01*
X44333Y43767D01*
Y43600D01*
Y43725D01*
X44167D01*
X44417Y43850D02*
Y43600D01*
X44542D01*
X44583Y43642D01*
Y43808D01*
X44542Y43850D01*
X44417D01*
X44833Y43808D02*
X44792Y43850D01*
X44708D01*
X44667Y43808D01*
Y43642D01*
X44708Y43600D01*
X44792D01*
X44833Y43642D01*
X50958Y54908D02*
X50917Y54950D01*
X50833D01*
X50792Y54908D01*
Y54742D01*
X50833Y54700D01*
X50917D01*
X50958Y54742D01*
X51208Y54908D02*
X51167Y54950D01*
X51083D01*
X51042Y54908D01*
Y54867D01*
X51083Y54825D01*
X51167D01*
X51208Y54783D01*
Y54742D01*
X51167Y54700D01*
X51083D01*
X51042Y54742D01*
X50667Y54280D02*
Y54447D01*
X50750Y54530D01*
X50833Y54447D01*
Y54280D01*
Y54405D01*
X50667D01*
X50917Y54530D02*
Y54280D01*
X51083D01*
X51167Y54530D02*
X51333D01*
X51250D01*
Y54280D01*
X48792Y43850D02*
Y43600D01*
Y43683D01*
X48959Y43850D01*
X48834Y43725D01*
X48959Y43600D01*
X49208Y43850D02*
X49042D01*
Y43600D01*
X49208D01*
X49042Y43725D02*
X49125D01*
X49292Y43850D02*
Y43808D01*
X49375Y43725D01*
X49458Y43808D01*
Y43850D01*
X49375Y43725D02*
Y43600D01*
X49542D02*
Y43850D01*
X49667D01*
X49708Y43808D01*
Y43725D01*
X49667Y43683D01*
X49542D01*
X49792Y43600D02*
Y43767D01*
X49875Y43850D01*
X49958Y43767D01*
Y43600D01*
Y43725D01*
X49792D01*
X50041Y43850D02*
Y43600D01*
X50166D01*
X50208Y43642D01*
Y43808D01*
X50166Y43850D01*
X50041D01*
X60188D02*
Y43600D01*
X60313D01*
X60354Y43642D01*
Y43808D01*
X60313Y43850D01*
X60188D01*
X60438D02*
X60521D01*
X60479D01*
Y43600D01*
X60438D01*
X60521D01*
X60813Y43808D02*
X60771Y43850D01*
X60688D01*
X60646Y43808D01*
Y43767D01*
X60688Y43725D01*
X60771D01*
X60813Y43683D01*
Y43642D01*
X60771Y43600D01*
X60688D01*
X60646Y43642D01*
X60896Y43600D02*
Y43850D01*
X61021D01*
X61062Y43808D01*
Y43725D01*
X61021Y43683D01*
X60896D01*
X61146Y43850D02*
Y43600D01*
X61312D01*
X61396D02*
Y43767D01*
X61479Y43850D01*
X61562Y43767D01*
Y43600D01*
Y43725D01*
X61396D01*
X61646Y43850D02*
Y43808D01*
X61729Y43725D01*
X61812Y43808D01*
Y43850D01*
X61729Y43725D02*
Y43600D01*
X54667Y54700D02*
Y54867D01*
X54792D01*
X54833Y54825D01*
Y54700D01*
X55083Y54908D02*
X55042Y54950D01*
X54958D01*
X54917Y54908D01*
Y54742D01*
X54958Y54700D01*
X55042D01*
X55083Y54742D01*
X55333Y54950D02*
X55167D01*
Y54700D01*
X55333D01*
X55167Y54825D02*
X55250D01*
X55083Y54280D02*
X54917D01*
X55083Y54447D01*
Y54488D01*
X55042Y54530D01*
X54958D01*
X54917Y54488D01*
X54104Y43808D02*
X54063Y43850D01*
X53979D01*
X53938Y43808D01*
Y43767D01*
X53979Y43725D01*
X54063D01*
X54104Y43683D01*
Y43642D01*
X54063Y43600D01*
X53979D01*
X53938Y43642D01*
X54313Y43850D02*
X54229D01*
X54188Y43808D01*
Y43642D01*
X54229Y43600D01*
X54313D01*
X54354Y43642D01*
Y43808D01*
X54313Y43850D01*
X54438Y43600D02*
Y43850D01*
X54604Y43600D01*
Y43850D01*
X54687D02*
X54771D01*
X54729D01*
Y43600D01*
X54687D01*
X54771D01*
X55062Y43808D02*
X55021Y43850D01*
X54937D01*
X54896Y43808D01*
Y43642D01*
X54937Y43600D01*
X55021D01*
X55062Y43642D01*
X49578Y54950D02*
Y54720D01*
X49693D01*
X49732Y54758D01*
Y54912D01*
X49693Y54950D01*
X49578D01*
X49808Y54720D02*
Y54950D01*
X49923D01*
X49962Y54912D01*
Y54835D01*
X49923Y54797D01*
X49808D01*
X49885D02*
X49962Y54720D01*
X50038Y54950D02*
Y54720D01*
X50153D01*
X50192Y54758D01*
Y54912D01*
X50153Y54950D01*
X50038D01*
X50268D02*
Y54912D01*
X50345Y54835D01*
X50422Y54912D01*
Y54950D01*
X50345Y54835D02*
Y54720D01*
X49923Y54324D02*
Y54554D01*
X50000Y54477D01*
X50077Y54554D01*
Y54324D01*
X58733Y45700D02*
Y45500D01*
X58867D01*
X59067Y45667D02*
X59033Y45700D01*
X58967D01*
X58933Y45667D01*
Y45533D01*
X58967Y45500D01*
X59033D01*
X59067Y45533D01*
X59133Y45700D02*
Y45500D01*
X59233D01*
X59267Y45533D01*
Y45667D01*
X59233Y45700D01*
X59133D01*
X58733Y45140D02*
Y45273D01*
X58833D01*
X58867Y45240D01*
Y45140D01*
X59067Y45307D02*
X59033Y45340D01*
X58967D01*
X58933Y45307D01*
Y45173D01*
X58967Y45140D01*
X59033D01*
X59067Y45173D01*
X59267Y45340D02*
X59133D01*
Y45140D01*
X59267D01*
X59133Y45240D02*
X59200D01*
X59733Y44700D02*
Y44500D01*
X59867D01*
X60067Y44667D02*
X60033Y44700D01*
X59967D01*
X59933Y44667D01*
Y44533D01*
X59967Y44500D01*
X60033D01*
X60067Y44533D01*
X60133Y44700D02*
Y44500D01*
X60233D01*
X60267Y44533D01*
Y44667D01*
X60233Y44700D01*
X60133D01*
X59733Y44140D02*
Y44340D01*
X59833D01*
X59867Y44307D01*
Y44240D01*
X59833Y44207D01*
X59733D01*
X59800D02*
X59867Y44140D01*
X60067Y44307D02*
X60033Y44340D01*
X59967D01*
X59933Y44307D01*
Y44273D01*
X59967Y44240D01*
X60033D01*
X60067Y44207D01*
Y44173D01*
X60033Y44140D01*
X59967D01*
X59933Y44173D01*
X60133Y44340D02*
X60267D01*
X60200D01*
Y44140D01*
X61962Y54720D02*
X61808D01*
X61962Y54873D01*
Y54912D01*
X61923Y54950D01*
X61847D01*
X61808Y54912D01*
X62192Y54950D02*
X62115Y54912D01*
X62038Y54835D01*
Y54758D01*
X62077Y54720D01*
X62153D01*
X62192Y54758D01*
Y54797D01*
X62153Y54835D01*
X62038D01*
X48167Y56450D02*
Y56700D01*
X48333Y56450D01*
Y56700D01*
X48417Y56450D02*
Y56617D01*
X48500Y56700D01*
X48583Y56617D01*
Y56450D01*
Y56575D01*
X48417D01*
X48667Y56700D02*
Y56533D01*
X48750Y56450D01*
X48833Y56533D01*
Y56700D01*
X46208Y56658D02*
X46167Y56700D01*
X46083D01*
X46042Y56658D01*
Y56492D01*
X46083Y56450D01*
X46167D01*
X46208Y56492D01*
Y56575D01*
X46125D01*
X46292Y56700D02*
Y56658D01*
X46375Y56575D01*
X46458Y56658D01*
Y56700D01*
X46375Y56575D02*
Y56450D01*
X46542D02*
Y56700D01*
X46667D01*
X46708Y56658D01*
Y56575D01*
X46667Y56533D01*
X46542D01*
X46625D02*
X46708Y56450D01*
X46917Y56700D02*
X46833D01*
X46792Y56658D01*
Y56492D01*
X46833Y56450D01*
X46917D01*
X46958Y56492D01*
Y56658D01*
X46917Y56700D01*
X43834Y56658D02*
X43792Y56700D01*
X43709D01*
X43667Y56658D01*
Y56617D01*
X43709Y56575D01*
X43792D01*
X43834Y56533D01*
Y56492D01*
X43792Y56450D01*
X43709D01*
X43667Y56492D01*
X43917Y56700D02*
X44083D01*
X44000D01*
Y56450D01*
X44333Y56700D02*
X44167D01*
Y56450D01*
X44333D01*
X44167Y56575D02*
X44250D01*
X44417Y56450D02*
Y56700D01*
X44542D01*
X44583Y56658D01*
Y56575D01*
X44542Y56533D01*
X44417D01*
X44667Y56450D02*
Y56700D01*
X44750Y56617D01*
X44833Y56700D01*
Y56450D01*
X44917Y56700D02*
X45083D01*
X45000D01*
Y56450D01*
X45166D02*
Y56700D01*
X45291D01*
X45333Y56658D01*
Y56575D01*
X45291Y56533D01*
X45166D01*
X45250D02*
X45333Y56450D01*
X53667D02*
Y56700D01*
X53792D01*
X53833Y56658D01*
Y56575D01*
X53792Y56533D01*
X53667D01*
X53917Y56700D02*
Y56450D01*
X54000Y56533D01*
X54083Y56450D01*
Y56700D01*
X54167Y56450D02*
Y56700D01*
X54292D01*
X54333Y56658D01*
Y56575D01*
X54292Y56533D01*
X54167D01*
X54250D02*
X54333Y56450D01*
X62229Y56658D02*
X62188Y56700D01*
X62104D01*
X62063Y56658D01*
Y56492D01*
X62104Y56450D01*
X62188D01*
X62229Y56492D01*
Y56575D01*
X62146D01*
X62313Y56450D02*
Y56700D01*
X62438D01*
X62479Y56658D01*
Y56575D01*
X62438Y56533D01*
X62313D01*
X62562Y56700D02*
X62646D01*
X62604D01*
Y56450D01*
X62562D01*
X62646D01*
X62896Y56700D02*
X62812D01*
X62771Y56658D01*
Y56492D01*
X62812Y56450D01*
X62896D01*
X62937Y56492D01*
Y56658D01*
X62896Y56700D01*
X60417D02*
Y56492D01*
X60459Y56450D01*
X60542D01*
X60583Y56492D01*
Y56700D01*
X60667Y56450D02*
Y56617D01*
X60750Y56700D01*
X60833Y56617D01*
Y56450D01*
Y56575D01*
X60667D01*
X60917Y56450D02*
Y56700D01*
X61042D01*
X61083Y56658D01*
Y56575D01*
X61042Y56533D01*
X60917D01*
X61000D02*
X61083Y56450D01*
X61167Y56700D02*
X61333D01*
X61250D01*
Y56450D01*
X61583Y56700D02*
X61417D01*
Y56575D01*
X61500Y56617D01*
X61541D01*
X61583Y56575D01*
Y56492D01*
X61541Y56450D01*
X61458D01*
X61417Y56492D01*
X58229Y56658D02*
X58188Y56700D01*
X58104D01*
X58063Y56658D01*
Y56617D01*
X58104Y56575D01*
X58188D01*
X58229Y56533D01*
Y56492D01*
X58188Y56450D01*
X58104D01*
X58063Y56492D01*
X58313Y56450D02*
Y56700D01*
X58438D01*
X58479Y56658D01*
Y56575D01*
X58438Y56533D01*
X58313D01*
X58562Y56700D02*
X58646D01*
X58604D01*
Y56450D01*
X58562D01*
X58646D01*
X58896D02*
Y56700D01*
X58771Y56575D01*
X58937D01*
X55771Y56658D02*
X55729Y56700D01*
X55646D01*
X55604Y56658D01*
Y56617D01*
X55646Y56575D01*
X55729D01*
X55771Y56533D01*
Y56492D01*
X55729Y56450D01*
X55646D01*
X55604Y56492D01*
X55854Y56450D02*
Y56700D01*
X55979D01*
X56021Y56658D01*
Y56575D01*
X55979Y56533D01*
X55854D01*
X56104Y56700D02*
X56187D01*
X56146D01*
Y56450D01*
X56104D01*
X56187D01*
X56312D02*
X56396D01*
X56354D01*
Y56700D01*
X56312Y56658D01*
X58650Y55750D02*
Y55950D01*
X58717Y55883D01*
X58783Y55950D01*
Y55750D01*
X58850Y55950D02*
X58917D01*
X58883D01*
Y55750D01*
X58850D01*
X58917D01*
X59150Y55917D02*
X59117Y55950D01*
X59050D01*
X59017Y55917D01*
Y55883D01*
X59050Y55850D01*
X59117D01*
X59150Y55817D01*
Y55783D01*
X59117Y55750D01*
X59050D01*
X59017Y55783D01*
X59317Y55950D02*
X59250D01*
X59217Y55917D01*
Y55783D01*
X59250Y55750D01*
X59317D01*
X59350Y55783D01*
Y55917D01*
X59317Y55950D01*
X58833Y54908D02*
X58792Y54950D01*
X58708D01*
X58667Y54908D01*
Y54867D01*
X58708Y54825D01*
X58792D01*
X58833Y54783D01*
Y54742D01*
X58792Y54700D01*
X58708D01*
X58667Y54742D01*
X59083Y54908D02*
X59042Y54950D01*
X58958D01*
X58917Y54908D01*
Y54742D01*
X58958Y54700D01*
X59042D01*
X59083Y54742D01*
X59167Y54950D02*
Y54700D01*
Y54783D01*
X59333Y54950D01*
X59208Y54825D01*
X59333Y54700D01*
X53958Y55950D02*
X53792D01*
Y55825D01*
X53875Y55867D01*
X53917D01*
X53958Y55825D01*
Y55742D01*
X53917Y55700D01*
X53833D01*
X53792Y55742D01*
X54042Y55950D02*
Y55783D01*
X54125Y55700D01*
X54208Y55783D01*
Y55950D01*
X56633Y55730D02*
Y55950D01*
X56707Y55877D01*
X56780Y55950D01*
Y55730D01*
X56963Y55950D02*
X56890D01*
X56853Y55913D01*
Y55767D01*
X56890Y55730D01*
X56963D01*
X57000Y55767D01*
Y55913D01*
X56963Y55950D01*
X57220Y55913D02*
X57183Y55950D01*
X57110D01*
X57073Y55913D01*
Y55877D01*
X57110Y55840D01*
X57183D01*
X57220Y55803D01*
Y55767D01*
X57183Y55730D01*
X57110D01*
X57073Y55767D01*
X57293Y55950D02*
X57367D01*
X57330D01*
Y55730D01*
X57293D01*
X57367D01*
X60792Y55950D02*
X60958D01*
X60875D01*
Y55700D01*
X61042Y55950D02*
X61208Y55700D01*
Y55950D02*
X61042Y55700D01*
X59833Y55908D02*
X59792Y55950D01*
X59708D01*
X59667Y55908D01*
Y55742D01*
X59708Y55700D01*
X59792D01*
X59833Y55742D01*
Y55825D01*
X59750D01*
X59917Y55700D02*
Y55950D01*
X60083Y55700D01*
Y55950D01*
X60167D02*
Y55700D01*
X60292D01*
X60333Y55742D01*
Y55908D01*
X60292Y55950D01*
X60167D01*
X59667Y54750D02*
Y54950D01*
X59733Y54883D01*
X59800Y54950D01*
Y54750D01*
X59967Y54950D02*
X59900D01*
X59867Y54917D01*
Y54783D01*
X59900Y54750D01*
X59967D01*
X60000Y54783D01*
Y54917D01*
X59967Y54950D01*
X60200Y54917D02*
X60167Y54950D01*
X60100D01*
X60067Y54917D01*
Y54883D01*
X60100Y54850D01*
X60167D01*
X60200Y54817D01*
Y54783D01*
X60167Y54750D01*
X60100D01*
X60067Y54783D01*
X60267Y54950D02*
X60333D01*
X60300D01*
Y54750D01*
X60267D01*
X60333D01*
X60792Y54700D02*
Y54950D01*
X60917D01*
X60958Y54908D01*
Y54825D01*
X60917Y54783D01*
X60792D01*
X60875D02*
X60958Y54700D01*
X61042Y54950D02*
X61208Y54700D01*
Y54950D02*
X61042Y54700D01*
X56650Y54750D02*
Y54950D01*
X56717Y54883D01*
X56783Y54950D01*
Y54750D01*
X56850Y54950D02*
X56917D01*
X56883D01*
Y54750D01*
X56850D01*
X56917D01*
X57150Y54917D02*
X57117Y54950D01*
X57050D01*
X57017Y54917D01*
Y54883D01*
X57050Y54850D01*
X57117D01*
X57150Y54817D01*
Y54783D01*
X57117Y54750D01*
X57050D01*
X57017Y54783D01*
X57317Y54950D02*
X57250D01*
X57217Y54917D01*
Y54783D01*
X57250Y54750D01*
X57317D01*
X57350Y54783D01*
Y54917D01*
X57317Y54950D01*
X55833Y54908D02*
X55792Y54950D01*
X55708D01*
X55667Y54908D01*
Y54867D01*
X55708Y54825D01*
X55792D01*
X55833Y54783D01*
Y54742D01*
X55792Y54700D01*
X55708D01*
X55667Y54742D01*
X56083Y54908D02*
X56042Y54950D01*
X55958D01*
X55917Y54908D01*
Y54742D01*
X55958Y54700D01*
X56042D01*
X56083Y54742D01*
X56167Y54950D02*
Y54700D01*
Y54783D01*
X56333Y54950D01*
X56208Y54825D01*
X56333Y54700D01*
X53667Y54908D02*
X53708Y54950D01*
X53792D01*
X53833Y54908D01*
Y54867D01*
X53792Y54825D01*
X53750D01*
X53792D01*
X53833Y54783D01*
Y54742D01*
X53792Y54700D01*
X53708D01*
X53667Y54742D01*
X53917Y54950D02*
Y54783D01*
X54000Y54700D01*
X54083Y54783D01*
Y54950D01*
X54167Y54908D02*
X54208Y54950D01*
X54292D01*
X54333Y54908D01*
Y54867D01*
X54292Y54825D01*
X54250D01*
X54292D01*
X54333Y54783D01*
Y54742D01*
X54292Y54700D01*
X54208D01*
X54167Y54742D01*
X55667Y44450D02*
Y44700D01*
X55792D01*
X55833Y44658D01*
Y44575D01*
X55792Y44533D01*
X55667D01*
X55750D02*
X55833Y44450D01*
X56083Y44658D02*
X56042Y44700D01*
X55958D01*
X55917Y44658D01*
Y44617D01*
X55958Y44575D01*
X56042D01*
X56083Y44533D01*
Y44492D01*
X56042Y44450D01*
X55958D01*
X55917Y44492D01*
X56167Y44700D02*
X56333D01*
X56250D01*
Y44450D01*
X56563D02*
Y44700D01*
X56646Y44617D01*
X56729Y44700D01*
Y44450D01*
X56813Y44700D02*
X56896D01*
X56854D01*
Y44450D01*
X56813D01*
X56896D01*
X57187Y44658D02*
X57146Y44700D01*
X57062D01*
X57021Y44658D01*
Y44617D01*
X57062Y44575D01*
X57146D01*
X57187Y44533D01*
Y44492D01*
X57146Y44450D01*
X57062D01*
X57021Y44492D01*
X57396Y44700D02*
X57312D01*
X57271Y44658D01*
Y44492D01*
X57312Y44450D01*
X57396D01*
X57437Y44492D01*
Y44658D01*
X57396Y44700D01*
X57833Y44658D02*
X57792Y44700D01*
X57708D01*
X57667Y44658D01*
Y44617D01*
X57708Y44575D01*
X57792D01*
X57833Y44533D01*
Y44492D01*
X57792Y44450D01*
X57708D01*
X57667Y44492D01*
X58083Y44658D02*
X58042Y44700D01*
X57958D01*
X57917Y44658D01*
Y44492D01*
X57958Y44450D01*
X58042D01*
X58083Y44492D01*
X58167Y44700D02*
Y44450D01*
Y44533D01*
X58333Y44700D01*
X58208Y44575D01*
X58333Y44450D01*
X61667Y44500D02*
Y44700D01*
X61733Y44633D01*
X61800Y44700D01*
Y44500D01*
X61967Y44700D02*
X61900D01*
X61867Y44667D01*
Y44533D01*
X61900Y44500D01*
X61967D01*
X62000Y44533D01*
Y44667D01*
X61967Y44700D01*
X62200Y44667D02*
X62167Y44700D01*
X62100D01*
X62067Y44667D01*
Y44633D01*
X62100Y44600D01*
X62167D01*
X62200Y44567D01*
Y44533D01*
X62167Y44500D01*
X62100D01*
X62067Y44533D01*
X62267Y44700D02*
X62333D01*
X62300D01*
Y44500D01*
X62267D01*
X62333D01*
X62833Y45658D02*
X62792Y45700D01*
X62708D01*
X62667Y45658D01*
Y45492D01*
X62708Y45450D01*
X62792D01*
X62833Y45492D01*
Y45575D01*
X62750D01*
X62917Y45450D02*
Y45700D01*
X63083Y45450D01*
Y45700D01*
X63167D02*
Y45450D01*
X63292D01*
X63333Y45492D01*
Y45658D01*
X63292Y45700D01*
X63167D01*
X57958Y45658D02*
X57917Y45700D01*
X57833D01*
X57792Y45658D01*
Y45617D01*
X57833Y45575D01*
X57917D01*
X57958Y45533D01*
Y45492D01*
X57917Y45450D01*
X57833D01*
X57792Y45492D01*
X58208Y45658D02*
X58167Y45700D01*
X58083D01*
X58042Y45658D01*
Y45617D01*
X58083Y45575D01*
X58167D01*
X58208Y45533D01*
Y45492D01*
X58167Y45450D01*
X58083D01*
X58042Y45492D01*
X56583Y45450D02*
Y45700D01*
X56667Y45617D01*
X56750Y45700D01*
Y45450D01*
X56958Y45700D02*
X56875D01*
X56833Y45658D01*
Y45492D01*
X56875Y45450D01*
X56958D01*
X57000Y45492D01*
Y45658D01*
X56958Y45700D01*
X57250Y45658D02*
X57208Y45700D01*
X57125D01*
X57083Y45658D01*
Y45617D01*
X57125Y45575D01*
X57208D01*
X57250Y45533D01*
Y45492D01*
X57208Y45450D01*
X57125D01*
X57083Y45492D01*
X57333Y45700D02*
X57417D01*
X57375D01*
Y45450D01*
X57333D01*
X57417D01*
X55688Y45700D02*
X55771D01*
X55729D01*
Y45450D01*
X55688D01*
X55771D01*
X55896D02*
Y45700D01*
X56021D01*
X56062Y45658D01*
Y45575D01*
X56021Y45533D01*
X55896D01*
X55979D02*
X56062Y45450D01*
X56312Y45492D02*
Y45658D01*
X56271Y45700D01*
X56187D01*
X56146Y45658D01*
Y45492D01*
X56187Y45450D01*
X56271D01*
X56229Y45533D02*
X56312Y45450D01*
X56271D02*
X56312Y45492D01*
X54667Y44700D02*
Y44450D01*
Y44575D01*
X54833D01*
Y44700D01*
Y44450D01*
X54917Y44658D02*
X54958Y44700D01*
X55042D01*
X55083Y44658D01*
Y44492D01*
X55042Y44450D01*
X54958D01*
X54917Y44492D01*
Y44658D01*
X55333Y44700D02*
X55167D01*
Y44450D01*
X55333D01*
X55167Y44575D02*
X55250D01*
X54667Y45700D02*
Y45450D01*
Y45575D01*
X54833D01*
Y45700D01*
Y45450D01*
X54917Y45658D02*
X54958Y45700D01*
X55042D01*
X55083Y45658D01*
Y45492D01*
X55042Y45450D01*
X54958D01*
X54917Y45492D01*
Y45658D01*
X55167Y45700D02*
X55333D01*
X55250D01*
Y45450D01*
X53688Y44700D02*
Y44450D01*
Y44575D01*
X53854D01*
Y44700D01*
Y44450D01*
X53938D02*
X54021D01*
X53979D01*
Y44700D01*
X53938Y44658D01*
X54146Y44700D02*
X54312D01*
X54229D01*
Y44450D01*
X53688Y45700D02*
Y45450D01*
Y45575D01*
X53854D01*
Y45700D01*
Y45450D01*
X53938D02*
X54021D01*
X53979D01*
Y45700D01*
X53938Y45658D01*
X54312Y45700D02*
X54146D01*
Y45450D01*
X54312D01*
X54146Y45575D02*
X54229D01*
X52792Y44700D02*
X52958D01*
X52875D01*
Y44450D01*
X53042Y44700D02*
X53208Y44450D01*
Y44700D02*
X53042Y44450D01*
X52667Y45450D02*
Y45700D01*
X52792D01*
X52833Y45658D01*
Y45575D01*
X52792Y45533D01*
X52667D01*
X52917Y45700D02*
Y45450D01*
X53000Y45533D01*
X53083Y45450D01*
Y45700D01*
X53167Y45450D02*
Y45700D01*
X53250Y45617D01*
X53333Y45700D01*
Y45450D01*
X51792Y44450D02*
Y44617D01*
X51875Y44700D01*
X51958Y44617D01*
Y44450D01*
Y44575D01*
X51792D01*
X52042Y44450D02*
Y44700D01*
X52208Y44450D01*
Y44700D01*
X48792Y44450D02*
Y44700D01*
X48917D01*
X48958Y44658D01*
Y44575D01*
X48917Y44533D01*
X48792D01*
X48875D02*
X48958Y44450D01*
X49042Y44658D02*
X49083Y44700D01*
X49167D01*
X49208Y44658D01*
Y44492D01*
X49167Y44450D01*
X49083D01*
X49042Y44492D01*
Y44658D01*
X49792Y44450D02*
Y44700D01*
X49917D01*
X49958Y44658D01*
Y44575D01*
X49917Y44533D01*
X49792D01*
X49875D02*
X49958Y44450D01*
X50042Y44658D02*
X50083Y44700D01*
X50167D01*
X50208Y44658D01*
Y44617D01*
X50167Y44575D01*
X50125D01*
X50167D01*
X50208Y44533D01*
Y44492D01*
X50167Y44450D01*
X50083D01*
X50042Y44492D01*
X50792Y44450D02*
Y44700D01*
X50917D01*
X50958Y44658D01*
Y44575D01*
X50917Y44533D01*
X50792D01*
X50875D02*
X50958Y44450D01*
X51208D02*
X51042D01*
X51208Y44617D01*
Y44658D01*
X51167Y44700D01*
X51083D01*
X51042Y44658D01*
X51792Y45450D02*
Y45700D01*
X51917D01*
X51958Y45658D01*
Y45575D01*
X51917Y45533D01*
X51792D01*
X51875D02*
X51958Y45450D01*
X52042Y45700D02*
X52208Y45450D01*
Y45700D02*
X52042Y45450D01*
X50833D02*
Y45700D01*
X50958D01*
X51000Y45658D01*
Y45575D01*
X50958Y45533D01*
X50833D01*
X50917D02*
X51000Y45450D01*
X51083D02*
X51167D01*
X51125D01*
Y45700D01*
X51083Y45658D01*
X49958D02*
X49917Y45700D01*
X49833D01*
X49792Y45658D01*
Y45492D01*
X49833Y45450D01*
X49917D01*
X49958Y45492D01*
X50208Y45450D02*
X50042D01*
X50208Y45617D01*
Y45658D01*
X50167Y45700D01*
X50083D01*
X50042Y45658D01*
X48958D02*
X48917Y45700D01*
X48833D01*
X48792Y45658D01*
Y45492D01*
X48833Y45450D01*
X48917D01*
X48958Y45492D01*
X49042Y45658D02*
X49083Y45700D01*
X49167D01*
X49208Y45658D01*
Y45492D01*
X49167Y45450D01*
X49083D01*
X49042Y45492D01*
Y45658D01*
X47833Y44658D02*
X47792Y44700D01*
X47708D01*
X47667Y44658D01*
Y44492D01*
X47708Y44450D01*
X47792D01*
X47833Y44492D01*
Y44575D01*
X47750D01*
X47917Y44450D02*
Y44700D01*
X48083Y44450D01*
Y44700D01*
X48167D02*
Y44450D01*
X48292D01*
X48333Y44492D01*
Y44658D01*
X48292Y44700D01*
X48167D01*
X48000Y45658D02*
X47958Y45700D01*
X47875D01*
X47833Y45658D01*
Y45492D01*
X47875Y45450D01*
X47958D01*
X48000Y45492D01*
X48083Y45450D02*
X48167D01*
X48125D01*
Y45700D01*
X48083Y45658D01*
X46667Y44700D02*
Y44450D01*
X46792D01*
X46833Y44492D01*
Y44533D01*
X46792Y44575D01*
X46667D01*
X46792D01*
X46833Y44617D01*
Y44658D01*
X46792Y44700D01*
X46667D01*
X46917D02*
X47083D01*
X47000D01*
Y44450D01*
X47167D02*
Y44700D01*
X47333Y44450D01*
Y44700D01*
X46833Y45658D02*
X46792Y45700D01*
X46708D01*
X46667Y45658D01*
Y45617D01*
X46708Y45575D01*
X46792D01*
X46833Y45533D01*
Y45492D01*
X46792Y45450D01*
X46708D01*
X46667Y45492D01*
X46917Y45700D02*
Y45450D01*
X47000Y45533D01*
X47083Y45450D01*
Y45700D01*
X47167D02*
X47333D01*
X47250D01*
Y45450D01*
X45917Y44450D02*
Y44617D01*
X46000Y44700D01*
X46083Y44617D01*
Y44450D01*
Y44575D01*
X45917D01*
Y45700D02*
Y45450D01*
X46042D01*
X46083Y45492D01*
Y45533D01*
X46042Y45575D01*
X45917D01*
X46042D01*
X46083Y45617D01*
Y45658D01*
X46042Y45700D01*
X45917D01*
X44667Y45450D02*
Y45700D01*
X44750Y45617D01*
X44833Y45700D01*
Y45450D01*
X44917Y45700D02*
Y45450D01*
X45042D01*
X45083Y45492D01*
Y45658D01*
X45042Y45700D01*
X44917D01*
X45333Y45658D02*
X45292Y45700D01*
X45208D01*
X45167Y45658D01*
Y45617D01*
X45208Y45575D01*
X45292D01*
X45333Y45533D01*
Y45492D01*
X45292Y45450D01*
X45208D01*
X45167Y45492D01*
X44667Y44450D02*
Y44700D01*
X44792D01*
X44833Y44658D01*
Y44575D01*
X44792Y44533D01*
X44667D01*
X44750D02*
X44833Y44450D01*
X45083Y44658D02*
X45042Y44700D01*
X44958D01*
X44917Y44658D01*
Y44617D01*
X44958Y44575D01*
X45042D01*
X45083Y44533D01*
Y44492D01*
X45042Y44450D01*
X44958D01*
X44917Y44492D01*
X45167Y44700D02*
X45333D01*
X45250D01*
Y44450D01*
X43633Y45500D02*
Y45633D01*
X43700Y45700D01*
X43767Y45633D01*
Y45500D01*
Y45600D01*
X43633D01*
X43833Y45700D02*
Y45500D01*
X43967D01*
X44033D02*
Y45700D01*
X44133D01*
X44167Y45667D01*
Y45600D01*
X44133Y45567D01*
X44033D01*
X44100D02*
X44167Y45500D01*
X44233Y45700D02*
X44367D01*
X44300D01*
Y45500D01*
X43688Y44700D02*
X43771D01*
X43729D01*
Y44450D01*
X43688D01*
X43771D01*
X43896D02*
Y44700D01*
X44062Y44450D01*
Y44700D01*
X44146D02*
X44312D01*
X44229D01*
Y44450D01*
X49688Y55950D02*
X49771D01*
X49729D01*
Y55700D01*
X49688D01*
X49771D01*
X49896D02*
Y55950D01*
X50062Y55700D01*
Y55950D01*
X50146D02*
X50312D01*
X50229D01*
Y55700D01*
X48732Y55912D02*
X48693Y55950D01*
X48617D01*
X48578Y55912D01*
Y55873D01*
X48617Y55835D01*
X48693D01*
X48732Y55797D01*
Y55758D01*
X48693Y55720D01*
X48617D01*
X48578Y55758D01*
X48962Y55912D02*
X48923Y55950D01*
X48847D01*
X48808Y55912D01*
Y55758D01*
X48847Y55720D01*
X48923D01*
X48962Y55758D01*
X49038Y55950D02*
Y55720D01*
X49192D01*
X49268Y55950D02*
Y55720D01*
Y55797D01*
X49422Y55950D01*
X49307Y55835D01*
X49422Y55720D01*
X48598Y54720D02*
Y54950D01*
X48674Y54873D01*
X48751Y54950D01*
Y54720D01*
X48828Y54950D02*
X48904D01*
X48866D01*
Y54720D01*
X48828D01*
X48904D01*
X49172Y54912D02*
X49134Y54950D01*
X49057D01*
X49019Y54912D01*
Y54873D01*
X49057Y54835D01*
X49134D01*
X49172Y54797D01*
Y54758D01*
X49134Y54720D01*
X49057D01*
X49019Y54758D01*
X49364Y54950D02*
X49287D01*
X49249Y54912D01*
Y54758D01*
X49287Y54720D01*
X49364D01*
X49402Y54758D01*
Y54912D01*
X49364Y54950D01*
X47667Y55750D02*
Y55950D01*
X47733Y55883D01*
X47800Y55950D01*
Y55750D01*
X47967Y55950D02*
X47900D01*
X47867Y55917D01*
Y55783D01*
X47900Y55750D01*
X47967D01*
X48000Y55783D01*
Y55917D01*
X47967Y55950D01*
X48200Y55917D02*
X48167Y55950D01*
X48100D01*
X48067Y55917D01*
Y55883D01*
X48100Y55850D01*
X48167D01*
X48200Y55817D01*
Y55783D01*
X48167Y55750D01*
X48100D01*
X48067Y55783D01*
X48267Y55950D02*
X48333D01*
X48300D01*
Y55750D01*
X48267D01*
X48333D01*
X46958Y55908D02*
X46917Y55950D01*
X46833D01*
X46792Y55908D01*
Y55742D01*
X46833Y55700D01*
X46917D01*
X46958Y55742D01*
X47208Y55908D02*
X47167Y55950D01*
X47083D01*
X47042Y55908D01*
Y55867D01*
X47083Y55825D01*
X47167D01*
X47208Y55783D01*
Y55742D01*
X47167Y55700D01*
X47083D01*
X47042Y55742D01*
X46833Y54908D02*
X46792Y54950D01*
X46708D01*
X46667Y54908D01*
Y54867D01*
X46708Y54825D01*
X46792D01*
X46833Y54783D01*
Y54742D01*
X46792Y54700D01*
X46708D01*
X46667Y54742D01*
X46917Y54950D02*
Y54700D01*
X47042D01*
X47083Y54742D01*
Y54908D01*
X47042Y54950D01*
X46917D01*
X47292D02*
X47208D01*
X47167Y54908D01*
Y54742D01*
X47208Y54700D01*
X47292D01*
X47333Y54742D01*
Y54908D01*
X47292Y54950D01*
X45688Y55950D02*
X45771D01*
X45729D01*
Y55700D01*
X45688D01*
X45771D01*
X45896D02*
Y55950D01*
X46062Y55700D01*
Y55950D01*
X46146D02*
X46312D01*
X46229D01*
Y55700D01*
X45792Y54950D02*
Y54700D01*
X45917D01*
X45958Y54742D01*
Y54908D01*
X45917Y54950D01*
X45792D01*
X46042Y54700D02*
Y54950D01*
X46167D01*
X46208Y54908D01*
Y54825D01*
X46167Y54783D01*
X46042D01*
X46125D02*
X46208Y54700D01*
X43688Y54950D02*
X43771D01*
X43729D01*
Y54700D01*
X43688D01*
X43771D01*
X43896D02*
Y54950D01*
X44062Y54700D01*
Y54950D01*
X44146Y54908D02*
X44187Y54950D01*
X44271D01*
X44312Y54908D01*
Y54867D01*
X44271Y54825D01*
X44229D01*
X44271D01*
X44312Y54783D01*
Y54742D01*
X44271Y54700D01*
X44187D01*
X44146Y54742D01*
X43688Y55950D02*
X43771D01*
X43729D01*
Y55700D01*
X43688D01*
X43771D01*
X43896D02*
Y55950D01*
X44062Y55700D01*
Y55950D01*
X44271Y55700D02*
Y55950D01*
X44146Y55825D01*
X44312D01*
X44729Y54950D02*
X44813D01*
X44771D01*
Y54700D01*
X44729D01*
X44813D01*
X44938D02*
Y54950D01*
X45104Y54700D01*
Y54950D01*
X45187Y54700D02*
X45271D01*
X45229D01*
Y54950D01*
X45187Y54908D01*
X44688Y55950D02*
X44771D01*
X44729D01*
Y55700D01*
X44688D01*
X44771D01*
X44896D02*
Y55950D01*
X45062Y55700D01*
Y55950D01*
X45312Y55700D02*
X45146D01*
X45312Y55867D01*
Y55908D01*
X45271Y55950D01*
X45187D01*
X45146Y55908D01*
D13*
X78967Y75020D02*
G03*
X78967Y75020I-49J0D01*
G01*
X21998Y63396D02*
G03*
X21998Y63396I-49J0D01*
G01*
X18356Y64075D02*
G03*
X18356Y64075I-49J0D01*
G01*
X13022Y78740D02*
G03*
X13022Y78740I-49J0D01*
G01*
X4754Y76890D02*
G03*
X4754Y76890I-49J0D01*
G01*
D14*
X78071Y75295D02*
G03*
X78071Y75295I-118J0D01*
G01*
D15*
X43465Y45976D02*
Y48024D01*
X63508D01*
X43465Y45976D02*
X63508D01*
X63508D02*
Y48024D01*
X43465Y54024D02*
X51508D01*
X43465Y51976D02*
Y54024D01*
Y51976D02*
X51508D01*
X51508D02*
Y54024D01*
X53465Y51976D02*
Y54024D01*
X63508D01*
X53465Y51976D02*
X63508D01*
X63508D02*
Y54024D01*
X38701Y54016D02*
Y54724D01*
Y54016D02*
X40118D01*
Y54724D01*
X38701D02*
X40118D01*
X38701Y52835D02*
Y53543D01*
Y52835D02*
X40118D01*
Y53543D01*
X38701D02*
X40118D01*
X37795Y27874D02*
Y28583D01*
X36378D02*
X37795D01*
X36378Y27874D02*
X37795D01*
X36378D02*
Y28583D01*
X70709Y24882D02*
Y25591D01*
X69291D02*
X70709D01*
X69291Y24882D02*
X70709D01*
X69291D02*
Y25591D01*
X70709Y32874D02*
Y33583D01*
X69291D02*
X70709D01*
X69291Y32874D02*
X70709D01*
X69291D02*
Y33583D01*
X70709Y34882D02*
Y35591D01*
X69291D02*
X70709D01*
X69291Y34882D02*
X70709D01*
X69291D02*
Y35591D01*
X5591Y37559D02*
X7008D01*
Y36850D02*
Y37559D01*
X5591Y36850D02*
X7008D01*
X5591D02*
Y37559D01*
X69961Y13937D02*
X71378D01*
Y13228D02*
Y13937D01*
X69961Y13228D02*
X71378D01*
X69961D02*
Y13937D01*
X48898Y15118D02*
X50315D01*
Y14409D02*
Y15118D01*
X48898Y14409D02*
X50315D01*
X48898D02*
Y15118D01*
X44567Y15118D02*
X45984D01*
Y14409D02*
Y15118D01*
X44567Y14409D02*
X45984D01*
X44567D02*
Y15118D01*
X40236Y15118D02*
X41654D01*
Y14409D02*
Y15118D01*
X40236Y14409D02*
X41654D01*
X40236D02*
Y15118D01*
X19370Y17047D02*
X20787D01*
Y16339D02*
Y17047D01*
X19370Y16339D02*
X20787D01*
X19370D02*
Y17047D01*
X17323D02*
X18740D01*
Y16339D02*
Y17047D01*
X17323Y16339D02*
X18740D01*
X17323D02*
Y17047D01*
X21378D02*
X22795D01*
Y16339D02*
Y17047D01*
X21378Y16339D02*
X22795D01*
X21378D02*
Y17047D01*
X32362Y7047D02*
X33780D01*
Y6339D02*
Y7047D01*
X32362Y6339D02*
X33780D01*
X32362D02*
Y7047D01*
Y5157D02*
X33780D01*
Y4449D02*
Y5157D01*
X32362Y4449D02*
X33780D01*
X32362D02*
Y5157D01*
X80551Y76339D02*
X81260D01*
Y77756D01*
X80551D02*
X81260D01*
X80551Y76339D02*
Y77756D01*
X79685Y76339D02*
X80394D01*
Y77756D01*
X79685D02*
X80394D01*
X79685Y76339D02*
Y77756D01*
X73780Y77756D02*
X75197D01*
Y78465D01*
X73780Y77756D02*
Y78465D01*
X75197D01*
X73780Y77047D02*
X75197D01*
Y77756D01*
X73780Y77047D02*
Y77756D01*
X75197D01*
X57559Y13228D02*
X58976D01*
X57559D02*
Y13937D01*
X58976D01*
Y13228D02*
Y13937D01*
X5591Y25630D02*
Y26339D01*
Y25630D02*
X7008D01*
Y26339D01*
X5591D02*
X7008D01*
X5591Y24685D02*
Y25394D01*
Y24685D02*
X7008D01*
Y25394D01*
X5591D02*
X7008D01*
X5591Y29173D02*
Y29882D01*
Y29173D02*
X7008D01*
Y29882D01*
X5591D02*
X7008D01*
Y35709D02*
Y36417D01*
X5591D02*
X7008D01*
X5591Y35709D02*
Y36417D01*
Y35709D02*
X7008D01*
X23622Y51732D02*
Y53150D01*
X22913Y51732D02*
X23622D01*
X22913D02*
Y53150D01*
X23622D01*
X25945Y51772D02*
X26654D01*
Y53189D01*
X25945D02*
X26654D01*
X25945Y51772D02*
Y53189D01*
X6693Y63583D02*
Y65000D01*
X7402D01*
Y63583D02*
Y65000D01*
X6693Y63583D02*
X7402D01*
X4331D02*
Y65000D01*
X5039D01*
Y63583D02*
Y65000D01*
X4331Y63583D02*
X5039D01*
X1969D02*
Y65000D01*
X2677D01*
Y63583D02*
Y65000D01*
X1969Y63583D02*
X2677D01*
X9055D02*
Y65000D01*
X9764D01*
Y63583D02*
Y65000D01*
X9055Y63583D02*
X9764D01*
X18661Y78661D02*
X19370D01*
X18661Y77244D02*
Y78661D01*
Y77244D02*
X19370D01*
Y78661D01*
X24764Y53976D02*
X26811D01*
X24764D02*
Y56047D01*
Y56047D02*
X26811D01*
Y53976D02*
Y56047D01*
X4673Y35563D02*
Y39606D01*
X2626D02*
X4673D01*
X2626Y35563D02*
Y39606D01*
Y35563D02*
X4673D01*
X2626Y24551D02*
X4673D01*
X2626Y24551D02*
Y30594D01*
X4673Y24551D02*
Y30594D01*
X2626D02*
X4673D01*
X7750Y53012D02*
Y52684D01*
X7816Y52618D01*
X7947D01*
X8013Y52684D01*
Y53012D01*
X8144D02*
Y52618D01*
X8406D01*
X8537D02*
Y53012D01*
X8800Y52618D01*
Y53012D01*
X9193Y52618D02*
X8931D01*
X9193Y52880D01*
Y52946D01*
X9128Y53012D01*
X8997D01*
X8931Y52946D01*
X9324D02*
X9390Y53012D01*
X9521D01*
X9587Y52946D01*
Y52684D01*
X9521Y52618D01*
X9390D01*
X9324Y52684D01*
Y52946D01*
X9718D02*
X9784Y53012D01*
X9915D01*
X9980Y52946D01*
Y52684D01*
X9915Y52618D01*
X9784D01*
X9718Y52684D01*
Y52946D01*
X10112D02*
X10177Y53012D01*
X10308D01*
X10374Y52946D01*
Y52880D01*
X10308Y52815D01*
X10243D01*
X10308D01*
X10374Y52749D01*
Y52684D01*
X10308Y52618D01*
X10177D01*
X10112Y52684D01*
X106766Y26791D02*
X106674Y26883D01*
Y26975D01*
X106766Y27067D01*
X106904D02*
Y26791D01*
Y26929D01*
X107087D01*
Y27067D01*
Y26791D01*
X107179Y27021D02*
X107225Y27067D01*
X107317D01*
X107363Y27021D01*
Y26837D01*
X107317Y26791D01*
X107225D01*
X107179Y26837D01*
Y27021D01*
X107730Y26791D02*
Y27067D01*
X107822Y26975D01*
X107914Y27067D01*
Y26791D01*
X108006D02*
Y26975D01*
X108097Y27067D01*
X108189Y26975D01*
Y26791D01*
Y26929D01*
X108006D01*
X108281Y27067D02*
X108373D01*
X108327D01*
Y26791D01*
X108281D01*
X108373D01*
X108511D02*
Y27067D01*
X108694Y26791D01*
Y27067D01*
X108786Y26791D02*
X108878Y26883D01*
Y26975D01*
X108786Y27067D01*
X21293Y83063D02*
X21161D01*
X21227D01*
Y82735D01*
X21161Y82669D01*
X21096D01*
X21030Y82735D01*
X21424Y82997D02*
X21489Y83063D01*
X21621D01*
X21686Y82997D01*
Y82932D01*
X21621Y82866D01*
X21555D01*
X21621D01*
X21686Y82801D01*
Y82735D01*
X21621Y82669D01*
X21489D01*
X21424Y82735D01*
X28063Y68756D02*
X28326D01*
X28457Y68559D02*
X28588D01*
X28523D01*
Y68953D01*
X28457Y68887D01*
X29047Y68953D02*
X28785D01*
Y68756D01*
X28916Y68821D01*
X28982D01*
X29047Y68756D01*
Y68625D01*
X28982Y68559D01*
X28851D01*
X28785Y68625D01*
X29179Y68953D02*
Y68690D01*
X29310Y68559D01*
X29441Y68690D01*
Y68953D01*
X28063Y69756D02*
X28326D01*
X28195Y69887D02*
Y69625D01*
X28457Y69559D02*
X28588D01*
X28523D01*
Y69953D01*
X28457Y69887D01*
X29047Y69953D02*
X28785D01*
Y69756D01*
X28916Y69821D01*
X28982D01*
X29047Y69756D01*
Y69625D01*
X28982Y69559D01*
X28851D01*
X28785Y69625D01*
X29179Y69953D02*
Y69690D01*
X29310Y69559D01*
X29441Y69690D01*
Y69953D01*
X28391Y70756D02*
X28654D01*
X28523Y70887D02*
Y70625D01*
X29047Y70953D02*
X28785D01*
Y70756D01*
X28916Y70821D01*
X28982D01*
X29047Y70756D01*
Y70625D01*
X28982Y70559D01*
X28851D01*
X28785Y70625D01*
X29179Y70953D02*
Y70690D01*
X29310Y70559D01*
X29441Y70690D01*
Y70953D01*
X28654Y71887D02*
X28588Y71953D01*
X28457D01*
X28391Y71887D01*
Y71625D01*
X28457Y71559D01*
X28588D01*
X28654Y71625D01*
Y71756D01*
X28523D01*
X28785Y71559D02*
Y71953D01*
X29047Y71559D01*
Y71953D01*
X29179D02*
Y71559D01*
X29375D01*
X29441Y71625D01*
Y71887D01*
X29375Y71953D01*
X29179D01*
X25899Y73084D02*
Y72821D01*
X26030Y72690D01*
X26161Y72821D01*
Y73084D01*
X26358Y72690D02*
X26489D01*
X26555Y72756D01*
Y72887D01*
X26489Y72953D01*
X26358D01*
X26292Y72887D01*
Y72756D01*
X26358Y72690D01*
X26686D02*
X26817D01*
X26752D01*
Y73084D01*
X26686D01*
X27080Y73018D02*
Y72953D01*
X27014D01*
X27145D01*
X27080D01*
Y72756D01*
X27145Y72690D01*
X27407Y72953D02*
X27539D01*
X27604Y72887D01*
Y72690D01*
X27407D01*
X27342Y72756D01*
X27407Y72821D01*
X27604D01*
X27867Y72559D02*
X27932D01*
X27998Y72625D01*
Y72953D01*
X27801D01*
X27735Y72887D01*
Y72756D01*
X27801Y72690D01*
X27998D01*
X28326D02*
X28195D01*
X28129Y72756D01*
Y72887D01*
X28195Y72953D01*
X28326D01*
X28391Y72887D01*
Y72821D01*
X28129D01*
X28916Y73084D02*
Y72690D01*
Y72887D01*
X29179D01*
Y73084D01*
Y72690D01*
X29310D02*
X29441D01*
X29375D01*
Y72953D01*
X29310D01*
X25374Y74084D02*
Y73821D01*
X25505Y73690D01*
X25636Y73821D01*
Y74084D01*
X25833Y73690D02*
X25964D01*
X26030Y73756D01*
Y73887D01*
X25964Y73953D01*
X25833D01*
X25768Y73887D01*
Y73756D01*
X25833Y73690D01*
X26161D02*
X26292D01*
X26227D01*
Y74084D01*
X26161D01*
X26555Y74018D02*
Y73953D01*
X26489D01*
X26620D01*
X26555D01*
Y73756D01*
X26620Y73690D01*
X26883Y73953D02*
X27014D01*
X27080Y73887D01*
Y73690D01*
X26883D01*
X26817Y73756D01*
X26883Y73821D01*
X27080D01*
X27342Y73559D02*
X27407D01*
X27473Y73625D01*
Y73953D01*
X27276D01*
X27211Y73887D01*
Y73756D01*
X27276Y73690D01*
X27473D01*
X27801D02*
X27670D01*
X27604Y73756D01*
Y73887D01*
X27670Y73953D01*
X27801D01*
X27867Y73887D01*
Y73821D01*
X27604D01*
X28391Y74084D02*
Y73690D01*
X28654D01*
X28851D02*
X28982D01*
X29047Y73756D01*
Y73887D01*
X28982Y73953D01*
X28851D01*
X28785Y73887D01*
Y73756D01*
X28851Y73690D01*
X29179Y73953D02*
Y73756D01*
X29244Y73690D01*
X29310Y73756D01*
X29375Y73690D01*
X29441Y73756D01*
Y73953D01*
X27670Y74559D02*
Y74821D01*
X27801Y74953D01*
X27932Y74821D01*
Y74559D01*
Y74756D01*
X27670D01*
X28326Y74887D02*
X28260Y74953D01*
X28129D01*
X28063Y74887D01*
Y74625D01*
X28129Y74559D01*
X28260D01*
X28326Y74625D01*
X28457Y74953D02*
Y74559D01*
Y74756D01*
X28719D01*
Y74953D01*
Y74559D01*
X28851D02*
X28982D01*
X28916D01*
Y74953D01*
X28851Y74887D01*
X29179Y74756D02*
X29441D01*
X29310Y74887D02*
Y74625D01*
X27604Y75559D02*
Y75821D01*
X27735Y75953D01*
X27867Y75821D01*
Y75559D01*
Y75756D01*
X27604D01*
X28260Y75887D02*
X28195Y75953D01*
X28063D01*
X27998Y75887D01*
Y75625D01*
X28063Y75559D01*
X28195D01*
X28260Y75625D01*
X28391Y75953D02*
Y75559D01*
Y75756D01*
X28654D01*
Y75953D01*
Y75559D01*
X28785Y75887D02*
X28851Y75953D01*
X28982D01*
X29047Y75887D01*
Y75625D01*
X28982Y75559D01*
X28851D01*
X28785Y75625D01*
Y75887D01*
X29179Y75756D02*
X29441D01*
X29310Y75887D02*
Y75625D01*
X26686Y77018D02*
X26620Y77084D01*
X26489D01*
X26424Y77018D01*
Y76953D01*
X26489Y76887D01*
X26620D01*
X26686Y76821D01*
Y76756D01*
X26620Y76690D01*
X26489D01*
X26424Y76756D01*
X26817Y76953D02*
Y76756D01*
X26883Y76690D01*
X27080D01*
Y76625D01*
X27014Y76559D01*
X26948D01*
X27080Y76690D02*
Y76953D01*
X27211Y76690D02*
Y76953D01*
X27407D01*
X27473Y76887D01*
Y76690D01*
X27867Y76953D02*
X27670D01*
X27604Y76887D01*
Y76756D01*
X27670Y76690D01*
X27867D01*
X28588Y77084D02*
X28457D01*
X28391Y77018D01*
Y76756D01*
X28457Y76690D01*
X28588D01*
X28654Y76756D01*
Y77018D01*
X28588Y77084D01*
X28785D02*
Y76756D01*
X28851Y76690D01*
X28982D01*
X29047Y76756D01*
Y77084D01*
X29179D02*
X29441D01*
X29310D01*
Y76690D01*
X26686Y77953D02*
X26424D01*
Y77756D01*
X26555D01*
X26424D01*
Y77559D01*
X26817Y77821D02*
Y77625D01*
X26883Y77559D01*
X27080D01*
Y77821D01*
X27211Y77559D02*
Y77821D01*
X27407D01*
X27473Y77756D01*
Y77559D01*
X27867Y77821D02*
X27670D01*
X27604Y77756D01*
Y77625D01*
X27670Y77559D01*
X27867D01*
X28588Y77953D02*
X28457D01*
X28391Y77887D01*
Y77625D01*
X28457Y77559D01*
X28588D01*
X28654Y77625D01*
Y77887D01*
X28588Y77953D01*
X28785D02*
Y77625D01*
X28851Y77559D01*
X28982D01*
X29047Y77625D01*
Y77953D01*
X29179D02*
X29441D01*
X29310D01*
Y77559D01*
X25571Y78887D02*
X25505Y78953D01*
X25374D01*
X25308Y78887D01*
Y78625D01*
X25374Y78559D01*
X25505D01*
X25571Y78625D01*
X25702Y78821D02*
Y78625D01*
X25768Y78559D01*
X25964D01*
Y78821D01*
X26096D02*
Y78559D01*
Y78690D01*
X26161Y78756D01*
X26227Y78821D01*
X26292D01*
X26489D02*
Y78559D01*
Y78690D01*
X26555Y78756D01*
X26620Y78821D01*
X26686D01*
X27080Y78559D02*
X26948D01*
X26883Y78625D01*
Y78756D01*
X26948Y78821D01*
X27080D01*
X27145Y78756D01*
Y78690D01*
X26883D01*
X27276Y78559D02*
Y78821D01*
X27473D01*
X27539Y78756D01*
Y78559D01*
X27735Y78887D02*
Y78821D01*
X27670D01*
X27801D01*
X27735D01*
Y78625D01*
X27801Y78559D01*
X28391Y78953D02*
Y78559D01*
X28654D01*
X28851D02*
X28982D01*
X29047Y78625D01*
Y78756D01*
X28982Y78821D01*
X28851D01*
X28785Y78756D01*
Y78625D01*
X28851Y78559D01*
X29179Y78821D02*
Y78625D01*
X29244Y78559D01*
X29310Y78625D01*
X29375Y78559D01*
X29441Y78625D01*
Y78821D01*
X26096Y79887D02*
X26030Y79953D01*
X25899D01*
X25833Y79887D01*
Y79625D01*
X25899Y79559D01*
X26030D01*
X26096Y79625D01*
X26227Y79821D02*
Y79625D01*
X26292Y79559D01*
X26489D01*
Y79821D01*
X26620D02*
Y79559D01*
Y79690D01*
X26686Y79756D01*
X26752Y79821D01*
X26817D01*
X27014D02*
Y79559D01*
Y79690D01*
X27080Y79756D01*
X27145Y79821D01*
X27211D01*
X27604Y79559D02*
X27473D01*
X27407Y79625D01*
Y79756D01*
X27473Y79821D01*
X27604D01*
X27670Y79756D01*
Y79690D01*
X27407D01*
X27801Y79559D02*
Y79821D01*
X27998D01*
X28063Y79756D01*
Y79559D01*
X28260Y79887D02*
Y79821D01*
X28195D01*
X28326D01*
X28260D01*
Y79625D01*
X28326Y79559D01*
X28916Y79953D02*
Y79559D01*
Y79756D01*
X29179D01*
Y79953D01*
Y79559D01*
X29310D02*
X29441D01*
X29375D01*
Y79821D01*
X29310D01*
X27145Y81018D02*
X27080Y81084D01*
X26948D01*
X26883Y81018D01*
Y80953D01*
X26948Y80887D01*
X27080D01*
X27145Y80821D01*
Y80756D01*
X27080Y80690D01*
X26948D01*
X26883Y80756D01*
X27276Y80953D02*
Y80756D01*
X27342Y80690D01*
X27539D01*
Y80953D01*
X27670Y80559D02*
Y80953D01*
X27867D01*
X27932Y80887D01*
Y80756D01*
X27867Y80690D01*
X27670D01*
X28063Y80559D02*
Y80953D01*
X28260D01*
X28326Y80887D01*
Y80756D01*
X28260Y80690D01*
X28063D01*
X28457D02*
X28588D01*
X28523D01*
Y81084D01*
X28457D01*
X28785Y80953D02*
Y80756D01*
X28851Y80690D01*
X29047D01*
Y80625D01*
X28982Y80559D01*
X28916D01*
X29047Y80690D02*
Y80953D01*
X29179Y80887D02*
X29441D01*
X27145Y82018D02*
X27080Y82084D01*
X26948D01*
X26883Y82018D01*
Y81953D01*
X26948Y81887D01*
X27080D01*
X27145Y81821D01*
Y81756D01*
X27080Y81690D01*
X26948D01*
X26883Y81756D01*
X27276Y81953D02*
Y81756D01*
X27342Y81690D01*
X27539D01*
Y81953D01*
X27670Y81559D02*
Y81953D01*
X27867D01*
X27932Y81887D01*
Y81756D01*
X27867Y81690D01*
X27670D01*
X28063Y81559D02*
Y81953D01*
X28260D01*
X28326Y81887D01*
Y81756D01*
X28260Y81690D01*
X28063D01*
X28457D02*
X28588D01*
X28523D01*
Y82084D01*
X28457D01*
X28785Y81953D02*
Y81756D01*
X28851Y81690D01*
X29047D01*
Y81625D01*
X28982Y81559D01*
X28916D01*
X29047Y81690D02*
Y81953D01*
X29179Y81887D02*
X29441D01*
X29310Y82018D02*
Y81756D01*
X43471Y48622D02*
X43734Y48228D01*
Y48622D02*
X43471Y48228D01*
X44127Y48556D02*
X44062Y48622D01*
X43930D01*
X43865Y48556D01*
Y48491D01*
X43930Y48425D01*
X44062D01*
X44127Y48360D01*
Y48294D01*
X44062Y48228D01*
X43930D01*
X43865Y48294D01*
X44455Y48228D02*
Y48622D01*
X44258Y48425D01*
X44521D01*
X43471Y51772D02*
X43734Y51378D01*
Y51772D02*
X43471Y51378D01*
X44127Y51706D02*
X44062Y51772D01*
X43930D01*
X43865Y51706D01*
Y51640D01*
X43930Y51575D01*
X44062D01*
X44127Y51509D01*
Y51444D01*
X44062Y51378D01*
X43930D01*
X43865Y51444D01*
X44258Y51706D02*
X44324Y51772D01*
X44455D01*
X44521Y51706D01*
Y51640D01*
X44455Y51575D01*
X44390D01*
X44455D01*
X44521Y51509D01*
Y51444D01*
X44455Y51378D01*
X44324D01*
X44258Y51444D01*
X15276Y52310D02*
X15669Y52572D01*
X15276D02*
X15669Y52310D01*
X15341Y52966D02*
X15276Y52900D01*
Y52769D01*
X15341Y52703D01*
X15407D01*
X15472Y52769D01*
Y52900D01*
X15538Y52966D01*
X15604D01*
X15669Y52900D01*
Y52769D01*
X15604Y52703D01*
X15669Y53359D02*
Y53097D01*
X15407Y53359D01*
X15341D01*
X15276Y53294D01*
Y53163D01*
X15341Y53097D01*
X69042Y35787D02*
Y36181D01*
X69239D01*
X69305Y36115D01*
Y35984D01*
X69239Y35919D01*
X69042D01*
X69173D02*
X69305Y35787D01*
X69436Y36115D02*
X69501Y36181D01*
X69633D01*
X69698Y36115D01*
Y36050D01*
X69633Y35984D01*
X69567D01*
X69633D01*
X69698Y35919D01*
Y35853D01*
X69633Y35787D01*
X69501D01*
X69436Y35853D01*
X69829Y36115D02*
X69895Y36181D01*
X70026D01*
X70092Y36115D01*
Y35853D01*
X70026Y35787D01*
X69895D01*
X69829Y35853D01*
Y36115D01*
X81398Y78117D02*
X81660D01*
X81791Y78248D01*
X81660Y78379D01*
X81398D01*
Y78511D02*
X81791D01*
Y78707D01*
X81726Y78773D01*
X81463D01*
X81398Y78707D01*
Y78511D01*
X81726Y78904D02*
X81791Y78970D01*
Y79101D01*
X81726Y79166D01*
X81463D01*
X81398Y79101D01*
Y78970D01*
X81463Y78904D01*
X81529D01*
X81594Y78970D01*
Y79166D01*
X79692Y74606D02*
Y74344D01*
X79823Y74213D01*
X79954Y74344D01*
Y74606D01*
X80085D02*
Y74213D01*
X80282D01*
X80348Y74278D01*
Y74541D01*
X80282Y74606D01*
X80085D01*
X80479Y74541D02*
X80545Y74606D01*
X80676D01*
X80741Y74541D01*
Y74475D01*
X80676Y74409D01*
X80741Y74344D01*
Y74278D01*
X80676Y74213D01*
X80545D01*
X80479Y74278D01*
Y74344D01*
X80545Y74409D01*
X80479Y74475D01*
Y74541D01*
X80545Y74409D02*
X80676D01*
X47802Y14173D02*
Y13911D01*
X47933Y13780D01*
X48064Y13911D01*
Y14173D01*
X48196D02*
Y13780D01*
X48392D01*
X48458Y13845D01*
Y14108D01*
X48392Y14173D01*
X48196D01*
X48589D02*
X48852D01*
Y14108D01*
X48589Y13845D01*
Y13780D01*
X43373Y14173D02*
Y13911D01*
X43504Y13780D01*
X43635Y13911D01*
Y14173D01*
X43766D02*
Y13780D01*
X43963D01*
X44029Y13845D01*
Y14108D01*
X43963Y14173D01*
X43766D01*
X44422D02*
X44291Y14108D01*
X44160Y13976D01*
Y13845D01*
X44226Y13780D01*
X44357D01*
X44422Y13845D01*
Y13911D01*
X44357Y13976D01*
X44160D01*
X39042Y14075D02*
Y13812D01*
X39173Y13681D01*
X39305Y13812D01*
Y14075D01*
X39436D02*
Y13681D01*
X39633D01*
X39698Y13747D01*
Y14009D01*
X39633Y14075D01*
X39436D01*
X40092D02*
X39829D01*
Y13878D01*
X39960Y13944D01*
X40026D01*
X40092Y13878D01*
Y13747D01*
X40026Y13681D01*
X39895D01*
X39829Y13747D01*
X104495Y24685D02*
Y25079D01*
X104692D01*
X104757Y25013D01*
Y24882D01*
X104692Y24816D01*
X104495D01*
X105151Y24685D02*
X104888D01*
X105151Y24947D01*
Y25013D01*
X105085Y25079D01*
X104954D01*
X104888Y25013D01*
X105282Y25079D02*
X105544D01*
Y25013D01*
X105282Y24751D01*
Y24685D01*
X27789Y63976D02*
X27526D01*
Y63780D01*
X27658D01*
X27526D01*
Y63583D01*
X28182Y63976D02*
X27920D01*
Y63780D01*
X28051Y63845D01*
X28117D01*
X28182Y63780D01*
Y63648D01*
X28117Y63583D01*
X27986D01*
X27920Y63648D01*
X30249Y63976D02*
X29987D01*
Y63780D01*
X30118D01*
X29987D01*
Y63583D01*
X30577D02*
Y63976D01*
X30381Y63780D01*
X30643D01*
X24790Y56340D02*
Y56734D01*
X24987D01*
X25052Y56668D01*
Y56537D01*
X24987Y56471D01*
X24790D01*
X25446Y56340D02*
X25184D01*
X25446Y56602D01*
Y56668D01*
X25380Y56734D01*
X25249D01*
X25184Y56668D01*
X25840Y56734D02*
X25708Y56668D01*
X25577Y56537D01*
Y56406D01*
X25643Y56340D01*
X25774D01*
X25840Y56406D01*
Y56471D01*
X25774Y56537D01*
X25577D01*
X73786Y81398D02*
X74049Y81004D01*
Y81398D02*
X73786Y81004D01*
X74180D02*
Y81398D01*
X74377D01*
X74442Y81332D01*
Y81201D01*
X74377Y81135D01*
X74180D01*
X74573Y81332D02*
X74639Y81398D01*
X74770D01*
X74836Y81332D01*
Y81266D01*
X74770Y81201D01*
X74705D01*
X74770D01*
X74836Y81135D01*
Y81070D01*
X74770Y81004D01*
X74639D01*
X74573Y81070D01*
X9580Y79528D02*
Y79134D01*
X9843D01*
X9974D02*
X10105D01*
X10039D01*
Y79528D01*
X9974Y79462D01*
X8819Y80446D02*
Y80315D01*
Y80381D01*
X9147D01*
X9213Y80315D01*
Y80249D01*
X9147Y80184D01*
X9213Y80840D02*
Y80577D01*
X8950Y80840D01*
X8885D01*
X8819Y80774D01*
Y80643D01*
X8885Y80577D01*
X17454Y64797D02*
X17388Y64862D01*
X17257D01*
X17192Y64797D01*
Y64534D01*
X17257Y64469D01*
X17388D01*
X17454Y64534D01*
X17782Y64469D02*
Y64862D01*
X17585Y64665D01*
X17848D01*
X29740Y83104D02*
X30002Y82710D01*
Y83104D02*
X29740Y82710D01*
X30134D02*
Y83104D01*
X30330D01*
X30396Y83038D01*
Y82907D01*
X30330Y82841D01*
X30134D01*
X30527Y82710D02*
X30658D01*
X30593D01*
Y83104D01*
X30527Y83038D01*
X25328Y63976D02*
X25066D01*
Y63780D01*
X25197D01*
X25066D01*
Y63583D01*
X25722D02*
X25459D01*
X25722Y63845D01*
Y63911D01*
X25656Y63976D01*
X25525D01*
X25459Y63911D01*
X6890Y78937D02*
X6627D01*
Y78740D01*
X6759D01*
X6627D01*
Y78543D01*
X7021D02*
X7152D01*
X7087D01*
Y78937D01*
X7021Y78871D01*
X1116Y75984D02*
Y76247D01*
X1247Y76378D01*
X1378Y76247D01*
Y75984D01*
Y76181D01*
X1116D01*
X1509Y75984D02*
X1640D01*
X1575D01*
Y76378D01*
X1509Y76312D01*
X12074Y64764D02*
X12336Y64370D01*
Y64764D02*
X12074Y64370D01*
X12467D02*
Y64764D01*
X12664D01*
X12730Y64698D01*
Y64567D01*
X12664Y64501D01*
X12467D01*
X13123Y64370D02*
X12861D01*
X13123Y64633D01*
Y64698D01*
X13058Y64764D01*
X12926D01*
X12861Y64698D01*
X8602Y62513D02*
X8812D01*
X8917Y62618D01*
X8812Y62723D01*
X8602D01*
Y62828D02*
X8917D01*
Y62986D01*
X8865Y63038D01*
X8655D01*
X8602Y62986D01*
Y62828D01*
X8917Y63300D02*
X8602D01*
X8760Y63143D01*
Y63353D01*
X6240Y62513D02*
X6450D01*
X6555Y62618D01*
X6450Y62723D01*
X6240D01*
Y62828D02*
X6555D01*
Y62986D01*
X6503Y63038D01*
X6293D01*
X6240Y62986D01*
Y62828D01*
X6293Y63143D02*
X6240Y63195D01*
Y63300D01*
X6293Y63353D01*
X6345D01*
X6398Y63300D01*
Y63248D01*
Y63300D01*
X6450Y63353D01*
X6503D01*
X6555Y63300D01*
Y63195D01*
X6503Y63143D01*
X3878Y62513D02*
X4088D01*
X4193Y62618D01*
X4088Y62723D01*
X3878D01*
Y62828D02*
X4193D01*
Y62986D01*
X4140Y63038D01*
X3930D01*
X3878Y62986D01*
Y62828D01*
X4193Y63353D02*
Y63143D01*
X3983Y63353D01*
X3930D01*
X3878Y63300D01*
Y63195D01*
X3930Y63143D01*
X1516Y62467D02*
X1726D01*
X1831Y62572D01*
X1726Y62677D01*
X1516D01*
Y62782D02*
X1831D01*
Y62940D01*
X1778Y62992D01*
X1568D01*
X1516Y62940D01*
Y62782D01*
X1831Y63097D02*
Y63202D01*
Y63150D01*
X1516D01*
X1568Y63097D01*
X11286Y80315D02*
X11221Y80249D01*
Y80118D01*
X11286Y80053D01*
X11352D01*
X11417Y80118D01*
Y80249D01*
X11483Y80315D01*
X11549D01*
X11614Y80249D01*
Y80118D01*
X11549Y80053D01*
X11221Y80446D02*
X11614D01*
X11483Y80577D01*
X11614Y80709D01*
X11221D01*
X11614Y80840D02*
Y80971D01*
Y80905D01*
X11221D01*
X11286Y80840D01*
X8819Y64501D02*
X8504D01*
Y64659D01*
X8556Y64711D01*
X8661D01*
X8714Y64659D01*
Y64501D01*
Y64606D02*
X8819Y64711D01*
X8504Y65026D02*
Y64816D01*
X8661D01*
X8609Y64921D01*
Y64974D01*
X8661Y65026D01*
X8766D01*
X8819Y64974D01*
Y64869D01*
X8766Y64816D01*
X6457Y64501D02*
X6142D01*
Y64659D01*
X6194Y64711D01*
X6299D01*
X6352Y64659D01*
Y64501D01*
Y64606D02*
X6457Y64711D01*
Y64974D02*
X6142D01*
X6299Y64816D01*
Y65026D01*
X4094Y64501D02*
X3780D01*
Y64659D01*
X3832Y64711D01*
X3937D01*
X3989Y64659D01*
Y64501D01*
Y64606D02*
X4094Y64711D01*
X3832Y64816D02*
X3780Y64869D01*
Y64974D01*
X3832Y65026D01*
X3885D01*
X3937Y64974D01*
Y64921D01*
Y64974D01*
X3989Y65026D01*
X4042D01*
X4094Y64974D01*
Y64869D01*
X4042Y64816D01*
X1732Y64554D02*
X1417D01*
Y64711D01*
X1470Y64764D01*
X1575D01*
X1627Y64711D01*
Y64554D01*
Y64659D02*
X1732Y64764D01*
Y64869D02*
Y64974D01*
Y64921D01*
X1417D01*
X1470Y64869D01*
X18668Y76575D02*
Y76968D01*
X18865D01*
X18930Y76903D01*
Y76772D01*
X18865Y76706D01*
X18668D01*
X18799D02*
X18930Y76575D01*
X19324D02*
X19062D01*
X19324Y76837D01*
Y76903D01*
X19258Y76968D01*
X19127D01*
X19062Y76903D01*
X5118Y79626D02*
X4987D01*
X5053D01*
Y79298D01*
X4987Y79232D01*
X4921D01*
X4856Y79298D01*
X5249Y79232D02*
X5380D01*
X5315D01*
Y79626D01*
X5249Y79560D01*
X19324Y64468D02*
Y64075D01*
X19521D01*
X19587Y64140D01*
Y64403D01*
X19521Y64468D01*
X19324D01*
X19718Y64075D02*
X19849D01*
X19783D01*
Y64468D01*
X19718Y64403D01*
X18143Y80151D02*
X18077Y80216D01*
X17946D01*
X17881Y80151D01*
Y79888D01*
X17946Y79823D01*
X18077D01*
X18143Y79888D01*
X18274D02*
X18340Y79823D01*
X18471D01*
X18537Y79888D01*
Y80151D01*
X18471Y80216D01*
X18340D01*
X18274Y80151D01*
Y80085D01*
X18340Y80020D01*
X18537D01*
X17356Y76903D02*
X17290Y76968D01*
X17159D01*
X17093Y76903D01*
Y76640D01*
X17159Y76575D01*
X17290D01*
X17356Y76640D01*
X17749Y76968D02*
X17618Y76903D01*
X17487Y76772D01*
Y76640D01*
X17552Y76575D01*
X17684D01*
X17749Y76640D01*
Y76706D01*
X17684Y76772D01*
X17487D01*
X11024Y64304D02*
X10958Y64370D01*
X10827D01*
X10761Y64304D01*
Y64042D01*
X10827Y63976D01*
X10958D01*
X11024Y64042D01*
X11155Y63976D02*
X11286D01*
X11220D01*
Y64370D01*
X11155Y64304D01*
X20505Y76903D02*
X20440Y76968D01*
X20308D01*
X20243Y76903D01*
Y76640D01*
X20308Y76575D01*
X20440D01*
X20505Y76640D01*
X20636Y76968D02*
X20899D01*
Y76903D01*
X20636Y76640D01*
Y76575D01*
X4068Y76509D02*
X4003Y76575D01*
X3871D01*
X3806Y76509D01*
Y76247D01*
X3871Y76181D01*
X4003D01*
X4068Y76247D01*
X4199Y76509D02*
X4265Y76575D01*
X4396D01*
X4462Y76509D01*
Y76444D01*
X4396Y76378D01*
X4331D01*
X4396D01*
X4462Y76312D01*
Y76247D01*
X4396Y76181D01*
X4265D01*
X4199Y76247D01*
X22474Y60269D02*
X22408Y60335D01*
X22277D01*
X22211Y60269D01*
Y60007D01*
X22277Y59941D01*
X22408D01*
X22474Y60007D01*
X22605Y59941D02*
X22736D01*
X22671D01*
Y60335D01*
X22605Y60269D01*
X22933Y59941D02*
X23064D01*
X22999D01*
Y60335D01*
X22933Y60269D01*
X19718Y80151D02*
X19652Y80216D01*
X19521D01*
X19455Y80151D01*
Y79888D01*
X19521Y79823D01*
X19652D01*
X19718Y79888D01*
X19849Y80151D02*
X19915Y80216D01*
X20046D01*
X20111Y80151D01*
Y80085D01*
X20046Y80020D01*
X20111Y79954D01*
Y79888D01*
X20046Y79823D01*
X19915D01*
X19849Y79888D01*
Y79954D01*
X19915Y80020D01*
X19849Y80085D01*
Y80151D01*
X19915Y80020D02*
X20046D01*
X8990Y76903D02*
X8924Y76968D01*
X8793D01*
X8727Y76903D01*
Y76640D01*
X8793Y76575D01*
X8924D01*
X8990Y76640D01*
X9383Y76968D02*
X9121D01*
Y76772D01*
X9252Y76837D01*
X9317D01*
X9383Y76772D01*
Y76640D01*
X9317Y76575D01*
X9186D01*
X9121Y76640D01*
X13714Y79265D02*
X13648Y79331D01*
X13517D01*
X13452Y79265D01*
Y79003D01*
X13517Y78937D01*
X13648D01*
X13714Y79003D01*
X14108Y78937D02*
X13845D01*
X14108Y79199D01*
Y79265D01*
X14042Y79331D01*
X13911D01*
X13845Y79265D01*
X22408Y64403D02*
X22343Y64468D01*
X22211D01*
X22146Y64403D01*
Y64140D01*
X22211Y64075D01*
X22343D01*
X22408Y64140D01*
X22539Y64075D02*
X22671D01*
X22605D01*
Y64468D01*
X22539Y64403D01*
X22867D02*
X22933Y64468D01*
X23064D01*
X23130Y64403D01*
Y64140D01*
X23064Y64075D01*
X22933D01*
X22867Y64140D01*
Y64403D01*
X36995Y28819D02*
Y29213D01*
X37192D01*
X37257Y29147D01*
Y29016D01*
X37192Y28950D01*
X36995D01*
X37126D02*
X37257Y28819D01*
X37388Y29147D02*
X37454Y29213D01*
X37585D01*
X37651Y29147D01*
Y29081D01*
X37585Y29016D01*
X37520D01*
X37585D01*
X37651Y28950D01*
Y28885D01*
X37585Y28819D01*
X37454D01*
X37388Y28885D01*
X37782Y29147D02*
X37848Y29213D01*
X37979D01*
X38044Y29147D01*
Y29081D01*
X37979Y29016D01*
X37913D01*
X37979D01*
X38044Y28950D01*
Y28885D01*
X37979Y28819D01*
X37848D01*
X37782Y28885D01*
X69003Y32284D02*
Y32677D01*
X69200D01*
X69265Y32612D01*
Y32480D01*
X69200Y32415D01*
X69003D01*
X69134D02*
X69265Y32284D01*
X69396Y32612D02*
X69462Y32677D01*
X69593D01*
X69659Y32612D01*
Y32546D01*
X69593Y32480D01*
X69528D01*
X69593D01*
X69659Y32415D01*
Y32349D01*
X69593Y32284D01*
X69462D01*
X69396Y32349D01*
X70052Y32284D02*
X69790D01*
X70052Y32546D01*
Y32612D01*
X69987Y32677D01*
X69856D01*
X69790Y32612D01*
X69147Y25748D02*
Y26142D01*
X69344D01*
X69410Y26076D01*
Y25945D01*
X69344Y25879D01*
X69147D01*
X69278D02*
X69410Y25748D01*
X69541Y26076D02*
X69606Y26142D01*
X69737D01*
X69803Y26076D01*
Y26010D01*
X69737Y25945D01*
X69672D01*
X69737D01*
X69803Y25879D01*
Y25814D01*
X69737Y25748D01*
X69606D01*
X69541Y25814D01*
X69934Y25748D02*
X70065D01*
X70000D01*
Y26142D01*
X69934Y26076D01*
X6562Y35039D02*
Y35433D01*
X6759D01*
X6824Y35367D01*
Y35236D01*
X6759Y35171D01*
X6562D01*
X6693D02*
X6824Y35039D01*
X7218D02*
X6955D01*
X7218Y35302D01*
Y35367D01*
X7152Y35433D01*
X7021D01*
X6955Y35367D01*
X7349Y35105D02*
X7415Y35039D01*
X7546D01*
X7611Y35105D01*
Y35367D01*
X7546Y35433D01*
X7415D01*
X7349Y35367D01*
Y35302D01*
X7415Y35236D01*
X7611D01*
X6562Y37795D02*
Y38189D01*
X6759D01*
X6824Y38123D01*
Y37992D01*
X6759Y37927D01*
X6562D01*
X6693D02*
X6824Y37795D01*
X7218D02*
X6955D01*
X7218Y38058D01*
Y38123D01*
X7152Y38189D01*
X7021D01*
X6955Y38123D01*
X7349D02*
X7415Y38189D01*
X7546D01*
X7611Y38123D01*
Y38058D01*
X7546Y37992D01*
X7611Y37927D01*
Y37861D01*
X7546Y37795D01*
X7415D01*
X7349Y37861D01*
Y37927D01*
X7415Y37992D01*
X7349Y38058D01*
Y38123D01*
X7415Y37992D02*
X7546D01*
X5873Y26575D02*
Y26968D01*
X6070D01*
X6135Y26903D01*
Y26772D01*
X6070Y26706D01*
X5873D01*
X6004D02*
X6135Y26575D01*
X6529D02*
X6266D01*
X6529Y26837D01*
Y26903D01*
X6463Y26968D01*
X6332D01*
X6266Y26903D01*
X6660Y26968D02*
X6922D01*
Y26903D01*
X6660Y26640D01*
Y26575D01*
X53576Y51378D02*
Y51772D01*
X53773D01*
X53839Y51706D01*
Y51575D01*
X53773Y51509D01*
X53576D01*
X53970Y51378D02*
X54101D01*
X54035D01*
Y51772D01*
X53970Y51706D01*
X6365Y30118D02*
Y30512D01*
X6562D01*
X6627Y30446D01*
Y30315D01*
X6562Y30249D01*
X6365D01*
X6496D02*
X6627Y30118D01*
X7021D02*
X6759D01*
X7021Y30381D01*
Y30446D01*
X6955Y30512D01*
X6824D01*
X6759Y30446D01*
X7415Y30512D02*
X7283Y30446D01*
X7152Y30315D01*
Y30184D01*
X7218Y30118D01*
X7349D01*
X7415Y30184D01*
Y30249D01*
X7349Y30315D01*
X7152D01*
X6562Y24016D02*
Y24409D01*
X6759D01*
X6824Y24344D01*
Y24213D01*
X6759Y24147D01*
X6562D01*
X6693D02*
X6824Y24016D01*
X7218D02*
X6955D01*
X7218Y24278D01*
Y24344D01*
X7152Y24409D01*
X7021D01*
X6955Y24344D01*
X7611Y24409D02*
X7349D01*
Y24213D01*
X7480Y24278D01*
X7546D01*
X7611Y24213D01*
Y24081D01*
X7546Y24016D01*
X7415D01*
X7349Y24081D01*
X32090Y3110D02*
Y3504D01*
X32287D01*
X32352Y3438D01*
Y3307D01*
X32287Y3241D01*
X32090D01*
X32221D02*
X32352Y3110D01*
X32484D02*
X32615D01*
X32549D01*
Y3504D01*
X32484Y3438D01*
X32812D02*
X32877Y3504D01*
X33008D01*
X33074Y3438D01*
Y3372D01*
X33008Y3307D01*
X32943D01*
X33008D01*
X33074Y3241D01*
Y3176D01*
X33008Y3110D01*
X32877D01*
X32812Y3176D01*
X16142Y15945D02*
Y16339D01*
X16339D01*
X16404Y16273D01*
Y16142D01*
X16339Y16076D01*
X16142D01*
X16273D02*
X16404Y15945D01*
X16535D02*
X16667D01*
X16601D01*
Y16339D01*
X16535Y16273D01*
X16863D02*
X16929Y16339D01*
X17060D01*
X17126Y16273D01*
Y16207D01*
X17060Y16142D01*
X17126Y16076D01*
Y16011D01*
X17060Y15945D01*
X16929D01*
X16863Y16011D01*
Y16076D01*
X16929Y16142D01*
X16863Y16207D01*
Y16273D01*
X16929Y16142D02*
X17060D01*
X15256Y16536D02*
Y16929D01*
X15453D01*
X15518Y16863D01*
Y16732D01*
X15453Y16667D01*
X15256D01*
X15387D02*
X15518Y16536D01*
X15650D02*
X15781D01*
X15715D01*
Y16929D01*
X15650Y16863D01*
X15978Y16929D02*
X16240D01*
Y16863D01*
X15978Y16601D01*
Y16536D01*
X23130D02*
Y16929D01*
X23327D01*
X23392Y16863D01*
Y16732D01*
X23327Y16667D01*
X23130D01*
X23261D02*
X23392Y16536D01*
X23524D02*
X23655D01*
X23589D01*
Y16929D01*
X23524Y16863D01*
X24114Y16929D02*
X23983Y16863D01*
X23852Y16732D01*
Y16601D01*
X23917Y16536D01*
X24048D01*
X24114Y16601D01*
Y16667D01*
X24048Y16732D01*
X23852D01*
X80249Y3150D02*
Y3543D01*
X80446D01*
X80512Y3478D01*
Y3346D01*
X80446Y3281D01*
X80249D01*
X80905Y3150D02*
X80643D01*
X80905Y3412D01*
Y3478D01*
X80840Y3543D01*
X80709D01*
X80643Y3478D01*
X81037Y3150D02*
X81168D01*
X81102D01*
Y3543D01*
X81037Y3478D01*
X23327Y17946D02*
X23261Y18012D01*
X23130D01*
X23064Y17946D01*
Y17684D01*
X23130Y17618D01*
X23261D01*
X23327Y17684D01*
X23720Y17618D02*
X23458D01*
X23720Y17881D01*
Y17946D01*
X23655Y18012D01*
X23524D01*
X23458Y17946D01*
X23852Y17618D02*
X23983D01*
X23917D01*
Y18012D01*
X23852Y17946D01*
X15486Y18340D02*
X15420Y18405D01*
X15289D01*
X15223Y18340D01*
Y18077D01*
X15289Y18012D01*
X15420D01*
X15486Y18077D01*
X15879Y18012D02*
X15617D01*
X15879Y18274D01*
Y18340D01*
X15814Y18405D01*
X15682D01*
X15617Y18340D01*
X16010D02*
X16076Y18405D01*
X16207D01*
X16273Y18340D01*
Y18077D01*
X16207Y18012D01*
X16076D01*
X16010Y18077D01*
Y18340D01*
X16404Y17651D02*
X16339Y17716D01*
X16207D01*
X16142Y17651D01*
Y17388D01*
X16207Y17323D01*
X16339D01*
X16404Y17388D01*
X16535Y17323D02*
X16667D01*
X16601D01*
Y17716D01*
X16535Y17651D01*
X16863Y17388D02*
X16929Y17323D01*
X17060D01*
X17126Y17388D01*
Y17651D01*
X17060Y17716D01*
X16929D01*
X16863Y17651D01*
Y17585D01*
X16929Y17520D01*
X17126D01*
X71590Y37070D02*
Y37464D01*
X71787D01*
X71852Y37398D01*
Y37267D01*
X71787Y37201D01*
X71590D01*
X72246Y37070D02*
X71984D01*
X72246Y37332D01*
Y37398D01*
X72180Y37464D01*
X72049D01*
X71984Y37398D01*
X72574Y37070D02*
Y37464D01*
X72377Y37267D01*
X72640D01*
X34470Y32110D02*
Y32504D01*
X34667D01*
X34732Y32438D01*
Y32307D01*
X34667Y32241D01*
X34470D01*
X35126Y32110D02*
X34864D01*
X35126Y32372D01*
Y32438D01*
X35060Y32504D01*
X34929D01*
X34864Y32438D01*
X35520Y32504D02*
X35257D01*
Y32307D01*
X35388Y32372D01*
X35454D01*
X35520Y32307D01*
Y32176D01*
X35454Y32110D01*
X35323D01*
X35257Y32176D01*
X3117Y40059D02*
Y40453D01*
X3314D01*
X3379Y40387D01*
Y40256D01*
X3314Y40190D01*
X3117D01*
X3773Y40059D02*
X3511D01*
X3773Y40321D01*
Y40387D01*
X3707Y40453D01*
X3576D01*
X3511Y40387D01*
X3904D02*
X3970Y40453D01*
X4101D01*
X4166Y40387D01*
Y40125D01*
X4101Y40059D01*
X3970D01*
X3904Y40125D01*
Y40387D01*
X102580Y17540D02*
Y17934D01*
X102777D01*
X102842Y17868D01*
Y17737D01*
X102777Y17671D01*
X102580D01*
X103236Y17540D02*
X102974D01*
X103236Y17802D01*
Y17868D01*
X103170Y17934D01*
X103039D01*
X102974Y17868D01*
X103367D02*
X103433Y17934D01*
X103564D01*
X103630Y17868D01*
Y17802D01*
X103564Y17737D01*
X103498D01*
X103564D01*
X103630Y17671D01*
Y17606D01*
X103564Y17540D01*
X103433D01*
X103367Y17606D01*
X94590Y7980D02*
Y8374D01*
X94787D01*
X94852Y8308D01*
Y8177D01*
X94787Y8111D01*
X94590D01*
X95246Y7980D02*
X94984D01*
X95246Y8242D01*
Y8308D01*
X95180Y8374D01*
X95049D01*
X94984Y8308D01*
X95640Y7980D02*
X95377D01*
X95640Y8242D01*
Y8308D01*
X95574Y8374D01*
X95443D01*
X95377Y8308D01*
X22310Y51083D02*
Y51476D01*
X22507D01*
X22572Y51411D01*
Y51280D01*
X22507Y51214D01*
X22310D01*
X22441D02*
X22572Y51083D01*
X22966D02*
X22703D01*
X22966Y51345D01*
Y51411D01*
X22900Y51476D01*
X22769D01*
X22703Y51411D01*
X23097D02*
X23163Y51476D01*
X23294D01*
X23359Y51411D01*
Y51345D01*
X23294Y51280D01*
X23228D01*
X23294D01*
X23359Y51214D01*
Y51148D01*
X23294Y51083D01*
X23163D01*
X23097Y51148D01*
X25788Y51083D02*
Y51476D01*
X25984D01*
X26050Y51411D01*
Y51280D01*
X25984Y51214D01*
X25788D01*
X25919D02*
X26050Y51083D01*
X26181D02*
X26312D01*
X26247D01*
Y51476D01*
X26181Y51411D01*
X26771Y51083D02*
X26509D01*
X26771Y51345D01*
Y51411D01*
X26706Y51476D01*
X26575D01*
X26509Y51411D01*
X31103Y6496D02*
Y6890D01*
X31299D01*
X31365Y6824D01*
Y6693D01*
X31299Y6627D01*
X31103D01*
X31234D02*
X31365Y6496D01*
X31496D02*
X31627D01*
X31562D01*
Y6890D01*
X31496Y6824D01*
X32086Y6890D02*
X31824D01*
Y6693D01*
X31955Y6759D01*
X32021D01*
X32086Y6693D01*
Y6562D01*
X32021Y6496D01*
X31890D01*
X31824Y6562D01*
X31103Y4626D02*
Y5020D01*
X31299D01*
X31365Y4954D01*
Y4823D01*
X31299Y4757D01*
X31103D01*
X31234D02*
X31365Y4626D01*
X31496D02*
X31627D01*
X31562D01*
Y5020D01*
X31496Y4954D01*
X32021Y4626D02*
Y5020D01*
X31824Y4823D01*
X32086D01*
X20768Y48721D02*
Y49114D01*
X20965D01*
X21030Y49049D01*
Y48917D01*
X20965Y48852D01*
X20768D01*
X21161Y48721D02*
X21293D01*
X21227D01*
Y49114D01*
X21161Y49049D01*
X21489D02*
X21555Y49114D01*
X21686D01*
X21752Y49049D01*
Y48983D01*
X21686Y48917D01*
X21621D01*
X21686D01*
X21752Y48852D01*
Y48786D01*
X21686Y48721D01*
X21555D01*
X21489Y48786D01*
X10040Y3051D02*
Y3445D01*
X10236D01*
X10302Y3379D01*
Y3248D01*
X10236Y3182D01*
X10040D01*
X10433Y3051D02*
X10564D01*
X10499D01*
Y3445D01*
X10433Y3379D01*
X11023Y3445D02*
X10761D01*
Y3248D01*
X10892Y3314D01*
X10958D01*
X11023Y3248D01*
Y3117D01*
X10958Y3051D01*
X10827D01*
X10761Y3117D01*
X2658Y19980D02*
Y20374D01*
X2854D01*
X2920Y20308D01*
Y20177D01*
X2854Y20112D01*
X2658D01*
X3051Y19980D02*
X3182D01*
X3117D01*
Y20374D01*
X3051Y20308D01*
X3642Y19980D02*
X3379D01*
X3642Y20243D01*
Y20308D01*
X3576Y20374D01*
X3445D01*
X3379Y20308D01*
X15630Y47579D02*
X15236D01*
Y47776D01*
X15302Y47841D01*
X15433D01*
X15499Y47776D01*
Y47579D01*
X15630Y47972D02*
Y48104D01*
Y48038D01*
X15236D01*
X15302Y47972D01*
X15236Y48563D02*
X15302Y48432D01*
X15433Y48300D01*
X15564D01*
X15630Y48366D01*
Y48497D01*
X15564Y48563D01*
X15499D01*
X15433Y48497D01*
Y48300D01*
X23130Y2165D02*
Y2559D01*
X23327D01*
X23392Y2493D01*
Y2362D01*
X23327Y2297D01*
X23130D01*
X23524Y2165D02*
X23655D01*
X23589D01*
Y2559D01*
X23524Y2493D01*
X23852D02*
X23917Y2559D01*
X24048D01*
X24114Y2493D01*
Y2428D01*
X24048Y2362D01*
X24114Y2297D01*
Y2231D01*
X24048Y2165D01*
X23917D01*
X23852Y2231D01*
Y2297D01*
X23917Y2362D01*
X23852Y2428D01*
Y2493D01*
X23917Y2362D02*
X24048D01*
X31365Y8497D02*
X31299Y8563D01*
X31168D01*
X31103Y8497D01*
Y8235D01*
X31168Y8169D01*
X31299D01*
X31365Y8235D01*
X31496Y8169D02*
X31627D01*
X31562D01*
Y8563D01*
X31496Y8497D01*
X31824D02*
X31890Y8563D01*
X32021D01*
X32086Y8497D01*
Y8432D01*
X32021Y8366D01*
X32086Y8301D01*
Y8235D01*
X32021Y8169D01*
X31890D01*
X31824Y8235D01*
Y8301D01*
X31890Y8366D01*
X31824Y8432D01*
Y8497D01*
X31890Y8366D02*
X32021D01*
X24147Y51411D02*
X24081Y51476D01*
X23950D01*
X23885Y51411D01*
Y51148D01*
X23950Y51083D01*
X24081D01*
X24147Y51148D01*
X24541Y51083D02*
X24278D01*
X24541Y51345D01*
Y51411D01*
X24475Y51476D01*
X24344D01*
X24278Y51411D01*
X24672D02*
X24737Y51476D01*
X24869D01*
X24934Y51411D01*
Y51345D01*
X24869Y51280D01*
X24803D01*
X24869D01*
X24934Y51214D01*
Y51148D01*
X24869Y51083D01*
X24737D01*
X24672Y51148D01*
X16240Y14567D02*
Y14961D01*
X16437D01*
X16503Y14895D01*
Y14764D01*
X16437Y14698D01*
X16240D01*
X16634Y14567D02*
X16765D01*
X16699D01*
Y14961D01*
X16634Y14895D01*
X17159Y14567D02*
Y14961D01*
X16962Y14764D01*
X17224D01*
X65584Y15879D02*
X65518Y15945D01*
X65387D01*
X65322Y15879D01*
Y15814D01*
X65387Y15748D01*
X65518D01*
X65584Y15682D01*
Y15617D01*
X65518Y15551D01*
X65387D01*
X65322Y15617D01*
X65715Y15945D02*
Y15551D01*
X65846Y15682D01*
X65978Y15551D01*
Y15945D01*
X66371Y15551D02*
X66109D01*
X66371Y15814D01*
Y15879D01*
X66306Y15945D01*
X66174D01*
X66109Y15879D01*
X60072D02*
X60007Y15945D01*
X59875D01*
X59810Y15879D01*
Y15814D01*
X59875Y15748D01*
X60007D01*
X60072Y15682D01*
Y15617D01*
X60007Y15551D01*
X59875D01*
X59810Y15617D01*
X60203Y15945D02*
Y15551D01*
X60335Y15682D01*
X60466Y15551D01*
Y15945D01*
X60597Y15879D02*
X60663Y15945D01*
X60794D01*
X60859Y15879D01*
Y15814D01*
X60794Y15748D01*
X60728D01*
X60794D01*
X60859Y15682D01*
Y15617D01*
X60794Y15551D01*
X60663D01*
X60597Y15617D01*
X3150Y30906D02*
Y31299D01*
X3347D01*
X3412Y31234D01*
Y31102D01*
X3347Y31037D01*
X3150D01*
X3543Y30906D02*
X3675D01*
X3609D01*
Y31299D01*
X3543Y31234D01*
X3871Y30971D02*
X3937Y30906D01*
X4068D01*
X4134Y30971D01*
Y31234D01*
X4068Y31299D01*
X3937D01*
X3871Y31234D01*
Y31168D01*
X3937Y31102D01*
X4134D01*
X38977Y14567D02*
Y14961D01*
X39173D01*
X39239Y14895D01*
Y14764D01*
X39173Y14698D01*
X38977D01*
X39108D02*
X39239Y14567D01*
X39370D02*
X39501D01*
X39436D01*
Y14961D01*
X39370Y14895D01*
X39698Y14633D02*
X39764Y14567D01*
X39895D01*
X39960Y14633D01*
Y14895D01*
X39895Y14961D01*
X39764D01*
X39698Y14895D01*
Y14829D01*
X39764Y14764D01*
X39960D01*
X47671Y14567D02*
Y14961D01*
X47868D01*
X47933Y14895D01*
Y14764D01*
X47868Y14698D01*
X47671D01*
X47802D02*
X47933Y14567D01*
X48327D02*
X48064D01*
X48327Y14829D01*
Y14895D01*
X48261Y14961D01*
X48130D01*
X48064Y14895D01*
X48458Y14567D02*
X48589D01*
X48524D01*
Y14961D01*
X48458Y14895D01*
X43176Y14567D02*
Y14961D01*
X43373D01*
X43438Y14895D01*
Y14764D01*
X43373Y14698D01*
X43176D01*
X43307D02*
X43438Y14567D01*
X43832D02*
X43570D01*
X43832Y14829D01*
Y14895D01*
X43766Y14961D01*
X43635D01*
X43570Y14895D01*
X43963D02*
X44029Y14961D01*
X44160D01*
X44226Y14895D01*
Y14633D01*
X44160Y14567D01*
X44029D01*
X43963Y14633D01*
Y14895D01*
X79725Y73622D02*
Y74016D01*
X79921D01*
X79987Y73950D01*
Y73819D01*
X79921Y73753D01*
X79725D01*
X79856D02*
X79987Y73622D01*
X80118D02*
X80249D01*
X80184D01*
Y74016D01*
X80118Y73950D01*
X80446D02*
X80512Y74016D01*
X80643D01*
X80709Y73950D01*
Y73688D01*
X80643Y73622D01*
X80512D01*
X80446Y73688D01*
Y73950D01*
X81890Y76936D02*
X81496D01*
Y77133D01*
X81562Y77198D01*
X81693D01*
X81759Y77133D01*
Y76936D01*
Y77067D02*
X81890Y77198D01*
Y77329D02*
Y77461D01*
Y77395D01*
X81496D01*
X81562Y77329D01*
X81890Y77657D02*
Y77789D01*
Y77723D01*
X81496D01*
X81562Y77657D01*
X75020Y24430D02*
Y24824D01*
X75217D01*
X75282Y24758D01*
Y24627D01*
X75217Y24561D01*
X75020D01*
X75414Y24430D02*
X75545D01*
X75479D01*
Y24824D01*
X75414Y24758D01*
X75742Y24824D02*
X76004D01*
Y24758D01*
X75742Y24496D01*
Y24430D01*
X71621Y14403D02*
X71555Y14337D01*
Y14206D01*
X71621Y14141D01*
X71883D01*
X71949Y14206D01*
Y14337D01*
X71883Y14403D01*
X71949Y14797D02*
Y14534D01*
X71686Y14797D01*
X71621D01*
X71555Y14731D01*
Y14600D01*
X71621Y14534D01*
X71949Y15190D02*
Y14928D01*
X71686Y15190D01*
X71621D01*
X71555Y15125D01*
Y14993D01*
X71621Y14928D01*
X58005Y15584D02*
X57940Y15650D01*
X57809D01*
X57743Y15584D01*
Y15322D01*
X57809Y15256D01*
X57940D01*
X58005Y15322D01*
X58399Y15256D02*
X58137D01*
X58399Y15518D01*
Y15584D01*
X58333Y15650D01*
X58202D01*
X58137Y15584D01*
X58727Y15256D02*
Y15650D01*
X58530Y15453D01*
X58792D01*
X74836Y83760D02*
X74705D01*
X74770D01*
Y83432D01*
X74705Y83366D01*
X74639D01*
X74574Y83432D01*
X75164Y83366D02*
Y83760D01*
X74967Y83563D01*
X75230D01*
X77198Y74705D02*
Y74377D01*
X77264Y74311D01*
X77395D01*
X77461Y74377D01*
Y74705D01*
X77592Y74311D02*
X77723D01*
X77657D01*
Y74705D01*
X77592Y74639D01*
X72802Y77953D02*
Y78346D01*
X72999D01*
X73064Y78281D01*
Y78150D01*
X72999Y78084D01*
X72802D01*
X72933D02*
X73064Y77953D01*
X73196Y78018D02*
X73261Y77953D01*
X73392D01*
X73458Y78018D01*
Y78281D01*
X73392Y78346D01*
X73261D01*
X73196Y78281D01*
Y78215D01*
X73261Y78150D01*
X73458D01*
X57743Y12598D02*
Y12992D01*
X57940D01*
X58005Y12926D01*
Y12795D01*
X57940Y12730D01*
X57743D01*
X57874D02*
X58005Y12598D01*
X58399D02*
X58137D01*
X58399Y12861D01*
Y12926D01*
X58333Y12992D01*
X58202D01*
X58137Y12926D01*
X58727Y12598D02*
Y12992D01*
X58530Y12795D01*
X58792D01*
X72802Y77165D02*
Y77559D01*
X72999D01*
X73064Y77493D01*
Y77362D01*
X72999Y77297D01*
X72802D01*
X72933D02*
X73064Y77165D01*
X73196Y77493D02*
X73261Y77559D01*
X73392D01*
X73458Y77493D01*
Y77428D01*
X73392Y77362D01*
X73458Y77297D01*
Y77231D01*
X73392Y77165D01*
X73261D01*
X73196Y77231D01*
Y77297D01*
X73261Y77362D01*
X73196Y77428D01*
Y77493D01*
X73261Y77362D02*
X73392D01*
X70145Y12598D02*
Y12992D01*
X70341D01*
X70407Y12926D01*
Y12795D01*
X70341Y12730D01*
X70145D01*
X70276D02*
X70407Y12598D01*
X70800D02*
X70538D01*
X70800Y12861D01*
Y12926D01*
X70735Y12992D01*
X70604D01*
X70538Y12926D01*
X71194Y12598D02*
X70932D01*
X71194Y12861D01*
Y12926D01*
X71128Y12992D01*
X70997D01*
X70932Y12926D01*
X79987Y73360D02*
X79921Y73425D01*
X79790D01*
X79725Y73360D01*
Y73097D01*
X79790Y73032D01*
X79921D01*
X79987Y73097D01*
X80118Y73032D02*
X80249D01*
X80184D01*
Y73425D01*
X80118Y73360D01*
X80709Y73425D02*
X80446D01*
Y73228D01*
X80577Y73294D01*
X80643D01*
X80709Y73228D01*
Y73097D01*
X80643Y73032D01*
X80512D01*
X80446Y73097D01*
X72999Y79265D02*
X72933Y79331D01*
X72802D01*
X72736Y79265D01*
Y79003D01*
X72802Y78937D01*
X72933D01*
X72999Y79003D01*
X73130Y78937D02*
X73261D01*
X73196D01*
Y79331D01*
X73130Y79265D01*
X73458Y79331D02*
X73720D01*
Y79265D01*
X73458Y79003D01*
Y78937D01*
X72507Y76148D02*
X72441Y76083D01*
Y75952D01*
X72507Y75886D01*
X72769D01*
X72835Y75952D01*
Y76083D01*
X72769Y76148D01*
X72835Y76280D02*
Y76411D01*
Y76345D01*
X72441D01*
X72507Y76280D01*
X72441Y76870D02*
X72507Y76739D01*
X72638Y76608D01*
X72769D01*
X72835Y76673D01*
Y76804D01*
X72769Y76870D01*
X72703D01*
X72638Y76804D01*
Y76608D01*
X73097Y76148D02*
X73032Y76083D01*
Y75952D01*
X73097Y75886D01*
X73360D01*
X73425Y75952D01*
Y76083D01*
X73360Y76148D01*
X73425Y76280D02*
Y76411D01*
Y76345D01*
X73032D01*
X73097Y76280D01*
Y76608D02*
X73032Y76673D01*
Y76804D01*
X73097Y76870D01*
X73163D01*
X73228Y76804D01*
Y76739D01*
Y76804D01*
X73294Y76870D01*
X73360D01*
X73425Y76804D01*
Y76673D01*
X73360Y76608D01*
X74672Y73852D02*
X74606Y73917D01*
X74475D01*
X74410Y73852D01*
Y73589D01*
X74475Y73524D01*
X74606D01*
X74672Y73589D01*
X74803Y73524D02*
X74934D01*
X74869D01*
Y73917D01*
X74803Y73852D01*
X75328Y73524D02*
Y73917D01*
X75131Y73720D01*
X75394D01*
X73097Y74377D02*
X73032Y74311D01*
Y74180D01*
X73097Y74114D01*
X73360D01*
X73425Y74180D01*
Y74311D01*
X73360Y74377D01*
X73425Y74508D02*
Y74639D01*
Y74573D01*
X73032D01*
X73097Y74508D01*
X73425Y75098D02*
Y74836D01*
X73163Y75098D01*
X73097D01*
X73032Y75033D01*
Y74901D01*
X73097Y74836D01*
X37822Y54213D02*
Y54606D01*
X38018D01*
X38084Y54541D01*
Y54409D01*
X38018Y54344D01*
X37822D01*
X37953D02*
X38084Y54213D01*
X38478Y54606D02*
X38346Y54541D01*
X38215Y54409D01*
Y54278D01*
X38281Y54213D01*
X38412D01*
X38478Y54278D01*
Y54344D01*
X38412Y54409D01*
X38215D01*
X37822Y52953D02*
Y53346D01*
X38018D01*
X38084Y53281D01*
Y53150D01*
X38018Y53084D01*
X37822D01*
X37953D02*
X38084Y52953D01*
X38215Y53346D02*
X38478D01*
Y53281D01*
X38215Y53018D01*
Y52953D01*
X76982Y53228D02*
X77244Y52835D01*
Y53228D02*
X76982Y52835D01*
X77638Y53163D02*
X77572Y53228D01*
X77441D01*
X77375Y53163D01*
Y53097D01*
X77441Y53032D01*
X77572D01*
X77638Y52966D01*
Y52900D01*
X77572Y52835D01*
X77441D01*
X77375Y52900D01*
X77769Y52835D02*
X77900D01*
X77835D01*
Y53228D01*
X77769Y53163D01*
X54462Y81693D02*
X54724Y81299D01*
Y81693D02*
X54462Y81299D01*
X54856D02*
X54987D01*
X54921D01*
Y81693D01*
X54856Y81627D01*
D16*
X15915Y45984D02*
Y50157D01*
X17096D01*
Y45984D02*
Y50157D01*
X15915Y45984D02*
X17096D01*
X78622Y53484D02*
Y73681D01*
X76457D02*
X78622D01*
X76457Y53484D02*
X78622D01*
X76457D02*
Y73681D01*
X105217Y27008D02*
X106083D01*
Y26772D02*
Y27008D01*
X104941Y26772D02*
Y27008D01*
X104075D02*
X104941D01*
X104075Y26772D02*
Y27008D01*
X105217Y26772D02*
Y27008D01*
X13858Y62756D02*
Y62835D01*
X13543Y62362D02*
Y62835D01*
X12677Y62362D02*
X13543D01*
X13858D02*
Y62756D01*
Y62362D02*
X14724D01*
Y62835D01*
X12677Y62362D02*
Y62835D01*
X1087Y65764D02*
Y75764D01*
X21087Y65764D02*
Y75764D01*
X1087D02*
X21087D01*
X1087Y65764D02*
X21087D01*
X105701Y72136D02*
X105801Y72036D01*
X106001D01*
X106101Y72136D01*
Y72536D01*
X106001Y72636D01*
X105801D01*
X105701Y72536D01*
X105501Y72636D02*
Y72036D01*
X105101Y72636D01*
Y72036D01*
X104901Y72536D02*
X104801Y72636D01*
X104601D01*
X104501Y72536D01*
Y72136D01*
X104601Y72036D01*
X104801D01*
X104901Y72136D01*
Y72236D01*
X104801Y72336D01*
X104501D01*
X87563Y72152D02*
X87663Y72052D01*
X87863D01*
X87963Y72152D01*
Y72552D01*
X87863Y72652D01*
X87663D01*
X87563Y72552D01*
X87363Y72652D02*
Y72052D01*
X86963Y72652D01*
Y72052D01*
X86763Y72652D02*
X86563D01*
X86663D01*
Y72052D01*
X86763Y72152D01*
X86264D02*
X86164Y72052D01*
X85964D01*
X85864Y72152D01*
Y72552D01*
X85964Y72652D01*
X86164D01*
X86264Y72552D01*
Y72152D01*
X87563Y42652D02*
X87663Y42552D01*
X87863D01*
X87963Y42652D01*
Y43052D01*
X87863Y43152D01*
X87663D01*
X87563Y43052D01*
X87363Y43152D02*
Y42552D01*
X86963Y43152D01*
Y42552D01*
X86763D02*
X86364D01*
Y42652D01*
X86763Y43052D01*
Y43152D01*
X105563Y46652D02*
X105663Y46552D01*
X105863D01*
X105963Y46652D01*
Y47052D01*
X105863Y47152D01*
X105663D01*
X105563Y47052D01*
X105363Y47152D02*
Y46552D01*
X104963Y47152D01*
Y46552D01*
X104763Y46652D02*
X104663Y46552D01*
X104463D01*
X104364Y46652D01*
Y46752D01*
X104463Y46852D01*
X104364Y46952D01*
Y47052D01*
X104463Y47152D01*
X104663D01*
X104763Y47052D01*
Y46952D01*
X104663Y46852D01*
X104763Y46752D01*
Y46652D01*
X104663Y46852D02*
X104463D01*
D17*
X24488Y68228D02*
X23898D01*
X24488Y68622D01*
X23898D01*
Y68819D02*
Y69015D01*
Y68917D01*
X24488D01*
Y68819D01*
Y69015D01*
X23898Y70295D02*
Y69901D01*
X24488D01*
Y70295D01*
X24193Y69901D02*
Y70098D01*
X23898Y70491D02*
X24488D01*
Y70885D01*
X23898Y71082D02*
X24291D01*
X24488Y71279D01*
X24291Y71475D01*
X23898D01*
Y71672D02*
Y71869D01*
Y71771D01*
X24488D01*
Y71672D01*
Y71869D01*
X23996Y72558D02*
X23898Y72459D01*
Y72262D01*
X23996Y72164D01*
X24095D01*
X24193Y72262D01*
Y72459D01*
X24291Y72558D01*
X24390D01*
X24488Y72459D01*
Y72262D01*
X24390Y72164D01*
X24488Y73345D02*
X23898D01*
Y73640D01*
X23996Y73738D01*
X24193D01*
X24291Y73640D01*
Y73345D01*
X23996Y74329D02*
X23898Y74230D01*
Y74034D01*
X23996Y73935D01*
X24390D01*
X24488Y74034D01*
Y74230D01*
X24390Y74329D01*
X23898Y74526D02*
Y74722D01*
Y74624D01*
X24488D01*
Y74526D01*
Y74722D01*
X906Y79449D02*
Y80039D01*
X1201D01*
X1299Y79941D01*
Y79744D01*
X1201Y79646D01*
X906D01*
X1791Y80039D02*
X1594D01*
X1496Y79941D01*
Y79547D01*
X1594Y79449D01*
X1791D01*
X1889Y79547D01*
Y79941D01*
X1791Y80039D01*
X2086D02*
Y79449D01*
X2283Y79646D01*
X2480Y79449D01*
Y80039D01*
X3070D02*
X2677D01*
Y79449D01*
X3070D01*
X2677Y79744D02*
X2873D01*
X3267Y79449D02*
Y80039D01*
X3562D01*
X3661Y79941D01*
Y79744D01*
X3562Y79646D01*
X3267D01*
X3464D02*
X3661Y79449D01*
X21378Y57402D02*
Y57795D01*
X21575Y57992D01*
X21772Y57795D01*
Y57402D01*
Y57697D01*
X21378D01*
X21968Y57992D02*
Y57402D01*
X22263D01*
X22362Y57500D01*
Y57894D01*
X22263Y57992D01*
X21968D01*
X22952Y57894D02*
X22854Y57992D01*
X22657D01*
X22559Y57894D01*
Y57795D01*
X22657Y57697D01*
X22854D01*
X22952Y57598D01*
Y57500D01*
X22854Y57402D01*
X22657D01*
X22559Y57500D01*
X23149Y57402D02*
X23346D01*
X23247D01*
Y57992D01*
X23149Y57894D01*
X23641Y57402D02*
X23838D01*
X23739D01*
Y57992D01*
X23641Y57894D01*
X24133Y57402D02*
X24330D01*
X24231D01*
Y57992D01*
X24133Y57894D01*
X25019Y57992D02*
X24625D01*
Y57697D01*
X24822Y57795D01*
X24920D01*
X25019Y57697D01*
Y57500D01*
X24920Y57402D01*
X24723D01*
X24625Y57500D01*
X35650Y41850D02*
Y41260D01*
X35945D01*
X36043Y41358D01*
Y41752D01*
X35945Y41850D01*
X35650D01*
X36240D02*
X36437D01*
X36338D01*
Y41260D01*
X36240D01*
X36437D01*
X37126Y41752D02*
X37027Y41850D01*
X36830D01*
X36732Y41752D01*
Y41653D01*
X36830Y41555D01*
X37027D01*
X37126Y41457D01*
Y41358D01*
X37027Y41260D01*
X36830D01*
X36732Y41358D01*
X37322Y41260D02*
Y41850D01*
X37617D01*
X37716Y41752D01*
Y41555D01*
X37617Y41457D01*
X37322D01*
X37913Y41850D02*
Y41260D01*
X38306D01*
X38503D02*
Y41653D01*
X38700Y41850D01*
X38897Y41653D01*
Y41260D01*
Y41555D01*
X38503D01*
X39093Y41850D02*
Y41752D01*
X39290Y41555D01*
X39487Y41752D01*
Y41850D01*
X39290Y41555D02*
Y41260D01*
X40274D02*
Y41850D01*
X40471Y41653D01*
X40668Y41850D01*
Y41260D01*
X41258Y41752D02*
X41160Y41850D01*
X40963D01*
X40864Y41752D01*
Y41653D01*
X40963Y41555D01*
X41160D01*
X41258Y41457D01*
Y41358D01*
X41160Y41260D01*
X40963D01*
X40864Y41358D01*
X41455Y41260D02*
Y41850D01*
X41750D01*
X41848Y41752D01*
Y41555D01*
X41750Y41457D01*
X41455D01*
X42045Y41752D02*
X42144Y41850D01*
X42340D01*
X42439Y41752D01*
Y41653D01*
X42340Y41555D01*
X42242D01*
X42340D01*
X42439Y41457D01*
Y41358D01*
X42340Y41260D01*
X42144D01*
X42045Y41358D01*
X43029Y41850D02*
X42636D01*
Y41555D01*
X42832Y41653D01*
X42931D01*
X43029Y41555D01*
Y41358D01*
X42931Y41260D01*
X42734D01*
X42636Y41358D01*
X43619Y41260D02*
X43226D01*
X43619Y41653D01*
Y41752D01*
X43521Y41850D01*
X43324D01*
X43226Y41752D01*
X43816D02*
X43915Y41850D01*
X44111D01*
X44210Y41752D01*
Y41358D01*
X44111Y41260D01*
X43915D01*
X43816Y41358D01*
Y41752D01*
X36437Y57894D02*
X36338Y57992D01*
X36142D01*
X36043Y57894D01*
Y57500D01*
X36142Y57402D01*
X36338D01*
X36437Y57500D01*
X36929Y57992D02*
X36732D01*
X36634Y57894D01*
Y57500D01*
X36732Y57402D01*
X36929D01*
X37027Y57500D01*
Y57894D01*
X36929Y57992D01*
X37224Y57402D02*
Y57992D01*
X37421Y57795D01*
X37618Y57992D01*
Y57402D01*
X37814D02*
Y57992D01*
X38011Y57795D01*
X38208Y57992D01*
Y57402D01*
X38405Y57992D02*
Y57500D01*
X38503Y57402D01*
X38700D01*
X38798Y57500D01*
Y57992D01*
X38995D02*
X39389D01*
X39192D01*
Y57402D01*
X39585D02*
Y57795D01*
X39782Y57992D01*
X39979Y57795D01*
Y57402D01*
Y57697D01*
X39585D01*
X40176Y57992D02*
X40569D01*
X40373D01*
Y57402D01*
X40766Y57992D02*
X40963D01*
X40865D01*
Y57402D01*
X40766D01*
X40963D01*
X41553Y57992D02*
X41357D01*
X41258Y57894D01*
Y57500D01*
X41357Y57402D01*
X41553D01*
X41652Y57500D01*
Y57894D01*
X41553Y57992D01*
X41849Y57402D02*
Y57992D01*
X42242Y57402D01*
Y57992D01*
X2480Y57894D02*
X2382Y57992D01*
X2185D01*
X2087Y57894D01*
Y57795D01*
X2185Y57697D01*
X2382D01*
X2480Y57598D01*
Y57500D01*
X2382Y57402D01*
X2185D01*
X2087Y57500D01*
X2677Y57992D02*
X3071D01*
X2874D01*
Y57402D01*
X3661Y57992D02*
X3267D01*
Y57402D01*
X3661D01*
X3267Y57697D02*
X3464D01*
X3858Y57402D02*
Y57992D01*
X4153D01*
X4251Y57894D01*
Y57697D01*
X4153Y57598D01*
X3858D01*
X5038Y57402D02*
Y57992D01*
X5235Y57795D01*
X5432Y57992D01*
Y57402D01*
X5924Y57992D02*
X5727D01*
X5629Y57894D01*
Y57500D01*
X5727Y57402D01*
X5924D01*
X6022Y57500D01*
Y57894D01*
X5924Y57992D01*
X6219D02*
X6613D01*
X6416D01*
Y57402D01*
X7105Y57992D02*
X6908D01*
X6809Y57894D01*
Y57500D01*
X6908Y57402D01*
X7105D01*
X7203Y57500D01*
Y57894D01*
X7105Y57992D01*
X7400Y57402D02*
Y57992D01*
X7695D01*
X7793Y57894D01*
Y57697D01*
X7695Y57598D01*
X7400D01*
X7597D02*
X7793Y57402D01*
X12323Y41850D02*
Y41260D01*
Y41457D01*
X12716Y41850D01*
X12421Y41555D01*
X12716Y41260D01*
X13307Y41850D02*
X12913D01*
Y41260D01*
X13307D01*
X12913Y41555D02*
X13110D01*
X13504Y41850D02*
Y41752D01*
X13700Y41555D01*
X13897Y41752D01*
Y41850D01*
X13700Y41555D02*
Y41260D01*
X14094Y41850D02*
Y41260D01*
X14389D01*
X14487Y41358D01*
Y41457D01*
X14389Y41555D01*
X14094D01*
X14389D01*
X14487Y41653D01*
Y41752D01*
X14389Y41850D01*
X14094D01*
X14979D02*
X14783D01*
X14684Y41752D01*
Y41358D01*
X14783Y41260D01*
X14979D01*
X15078Y41358D01*
Y41752D01*
X14979Y41850D01*
X15275Y41260D02*
Y41653D01*
X15471Y41850D01*
X15668Y41653D01*
Y41260D01*
Y41555D01*
X15275D01*
X15865Y41260D02*
Y41850D01*
X16160D01*
X16259Y41752D01*
Y41555D01*
X16160Y41457D01*
X15865D01*
X16062D02*
X16259Y41260D01*
X16455Y41850D02*
Y41260D01*
X16751D01*
X16849Y41358D01*
Y41752D01*
X16751Y41850D01*
X16455D01*
X18030Y41752D02*
X17931Y41850D01*
X17734D01*
X17636Y41752D01*
Y41358D01*
X17734Y41260D01*
X17931D01*
X18030Y41358D01*
X18522Y41850D02*
X18325D01*
X18226Y41752D01*
Y41358D01*
X18325Y41260D01*
X18522D01*
X18620Y41358D01*
Y41752D01*
X18522Y41850D01*
X18817Y41260D02*
Y41850D01*
X19014Y41653D01*
X19210Y41850D01*
Y41260D01*
X19407Y41555D02*
X19801D01*
X19998Y41752D02*
X20096Y41850D01*
X20293D01*
X20391Y41752D01*
Y41358D01*
X20293Y41260D01*
X20096D01*
X19998Y41358D01*
Y41752D01*
X20588D02*
X20686Y41850D01*
X20883D01*
X20981Y41752D01*
Y41653D01*
X20883Y41555D01*
X20981Y41457D01*
Y41358D01*
X20883Y41260D01*
X20686D01*
X20588Y41358D01*
Y41457D01*
X20686Y41555D01*
X20588Y41653D01*
Y41752D01*
X20686Y41555D02*
X20883D01*
X21572Y41850D02*
X21375Y41752D01*
X21178Y41555D01*
Y41358D01*
X21277Y41260D01*
X21473D01*
X21572Y41358D01*
Y41457D01*
X21473Y41555D01*
X21178D01*
X22162Y41850D02*
X21769D01*
Y41555D01*
X21965Y41653D01*
X22064D01*
X22162Y41555D01*
Y41358D01*
X22064Y41260D01*
X21867D01*
X21769Y41358D01*
X22359Y41752D02*
X22457Y41850D01*
X22654D01*
X22753Y41752D01*
Y41653D01*
X22654Y41555D01*
X22556D01*
X22654D01*
X22753Y41457D01*
Y41358D01*
X22654Y41260D01*
X22457D01*
X22359Y41358D01*
X2086Y41752D02*
X1988Y41850D01*
X1791D01*
X1693Y41752D01*
Y41358D01*
X1791Y41260D01*
X1988D01*
X2086Y41358D01*
Y41555D01*
X1890D01*
X2283Y41850D02*
Y41752D01*
X2480Y41555D01*
X2677Y41752D01*
Y41850D01*
X2480Y41555D02*
Y41260D01*
X2874D02*
Y41850D01*
X3169D01*
X3267Y41752D01*
Y41555D01*
X3169Y41457D01*
X2874D01*
X3070D02*
X3267Y41260D01*
X3759Y41850D02*
X3562D01*
X3464Y41752D01*
Y41358D01*
X3562Y41260D01*
X3759D01*
X3858Y41358D01*
Y41752D01*
X3759Y41850D01*
X5038Y41752D02*
X4940Y41850D01*
X4743D01*
X4645Y41752D01*
Y41358D01*
X4743Y41260D01*
X4940D01*
X5038Y41358D01*
Y41555D01*
X4841D01*
X5235Y41850D02*
Y41752D01*
X5432Y41555D01*
X5629Y41752D01*
Y41850D01*
X5432Y41555D02*
Y41260D01*
X5825Y41555D02*
X6219D01*
X6809Y41850D02*
X6416D01*
Y41555D01*
X6613Y41653D01*
X6711D01*
X6809Y41555D01*
Y41358D01*
X6711Y41260D01*
X6514D01*
X6416Y41358D01*
X7006Y41752D02*
X7105Y41850D01*
X7301D01*
X7400Y41752D01*
Y41358D01*
X7301Y41260D01*
X7105D01*
X7006Y41358D01*
Y41752D01*
X36339Y80827D02*
Y80236D01*
X36634D01*
X36732Y80335D01*
Y80433D01*
X36634Y80531D01*
X36339D01*
X36634D01*
X36732Y80630D01*
Y80728D01*
X36634Y80827D01*
X36339D01*
X36929Y80236D02*
Y80827D01*
X37224D01*
X37323Y80728D01*
Y80531D01*
X37224Y80433D01*
X36929D01*
X37126D02*
X37323Y80236D01*
X37913Y80827D02*
X37519D01*
Y80236D01*
X37913D01*
X37519Y80531D02*
X37716D01*
X38110Y80236D02*
Y80630D01*
X38306Y80827D01*
X38503Y80630D01*
Y80236D01*
Y80531D01*
X38110D01*
X38700Y80827D02*
Y80236D01*
X38995D01*
X39094Y80335D01*
Y80728D01*
X38995Y80827D01*
X38700D01*
X39290D02*
Y80236D01*
X39586D01*
X39684Y80335D01*
Y80433D01*
X39586Y80531D01*
X39290D01*
X39586D01*
X39684Y80630D01*
Y80728D01*
X39586Y80827D01*
X39290D01*
X40176D02*
X39979D01*
X39881Y80728D01*
Y80335D01*
X39979Y80236D01*
X40176D01*
X40274Y80335D01*
Y80728D01*
X40176Y80827D01*
X40471Y80236D02*
Y80630D01*
X40668Y80827D01*
X40865Y80630D01*
Y80236D01*
Y80531D01*
X40471D01*
X41061Y80236D02*
Y80827D01*
X41357D01*
X41455Y80728D01*
Y80531D01*
X41357Y80433D01*
X41061D01*
X41258D02*
X41455Y80236D01*
X41652Y80827D02*
Y80236D01*
X41947D01*
X42045Y80335D01*
Y80728D01*
X41947Y80827D01*
X41652D01*
X43226Y80728D02*
X43128Y80827D01*
X42931D01*
X42833Y80728D01*
Y80630D01*
X42931Y80531D01*
X43128D01*
X43226Y80433D01*
Y80335D01*
X43128Y80236D01*
X42931D01*
X42833Y80335D01*
X43423Y80827D02*
Y80728D01*
X43620Y80531D01*
X43816Y80728D01*
Y80827D01*
X43620Y80531D02*
Y80236D01*
X44013Y80827D02*
Y80236D01*
X44308D01*
X44407Y80335D01*
Y80433D01*
X44308Y80531D01*
X44013D01*
X44308D01*
X44407Y80630D01*
Y80728D01*
X44308Y80827D01*
X44013D01*
X44604Y80531D02*
X44997D01*
X45489Y80236D02*
Y80827D01*
X45194Y80531D01*
X45588D01*
X46178Y80827D02*
X45981Y80728D01*
X45784Y80531D01*
Y80335D01*
X45883Y80236D01*
X46080D01*
X46178Y80335D01*
Y80433D01*
X46080Y80531D01*
X45784D01*
X79016Y33058D02*
Y33189D01*
X78885Y33320D01*
X78229D01*
Y32926D01*
X78360Y32795D01*
X78622D01*
X78753Y32926D01*
Y33320D01*
Y33582D02*
Y33845D01*
Y33714D01*
X78229D01*
Y33582D01*
X78097Y34370D02*
X78229D01*
Y34238D01*
Y34501D01*
Y34370D01*
X78622D01*
X78753Y34501D01*
X77966Y34894D02*
X78753D01*
X78360D01*
X78229Y35026D01*
Y35288D01*
X78360Y35419D01*
X78753D01*
X78229Y35681D02*
X78622D01*
X78753Y35813D01*
Y36206D01*
X78229D01*
X77966Y36469D02*
X78753D01*
Y36862D01*
X78622Y36993D01*
X78491D01*
X78360D01*
X78229Y36862D01*
Y36469D01*
X78753Y37256D02*
X78622D01*
Y37387D01*
X78753D01*
Y37256D01*
X78229Y38437D02*
Y38043D01*
X78360Y37912D01*
X78622D01*
X78753Y38043D01*
Y38437D01*
Y38830D02*
Y39092D01*
X78622Y39224D01*
X78360D01*
X78229Y39092D01*
Y38830D01*
X78360Y38699D01*
X78622D01*
X78753Y38830D01*
Y39486D02*
X78229D01*
Y39617D01*
X78360Y39748D01*
X78753D01*
X78360D01*
X78229Y39880D01*
X78360Y40011D01*
X78753D01*
Y40273D02*
X78229Y40798D01*
X78753Y41060D02*
X77966D01*
X78229Y41323D01*
X77966Y41585D01*
X78753D01*
Y41847D02*
X77966D01*
Y42241D01*
X78097Y42372D01*
X78360D01*
X78491Y42241D01*
Y41847D01*
X78097Y43159D02*
X77966Y43028D01*
Y42766D01*
X78097Y42635D01*
X78229D01*
X78360Y42766D01*
Y43028D01*
X78491Y43159D01*
X78622D01*
X78753Y43028D01*
Y42766D01*
X78622Y42635D01*
X77966Y43422D02*
X78622D01*
X78753Y43553D01*
Y43815D01*
X78622Y43947D01*
X77966D01*
X78753Y44209D02*
X78229Y44734D01*
X77966Y45390D02*
Y45127D01*
X78097Y44996D01*
X78622D01*
X78753Y45127D01*
Y45390D01*
X78622Y45521D01*
X78097D01*
X77966Y45390D01*
X78097Y46308D02*
X77966Y46177D01*
Y45914D01*
X78097Y45783D01*
X78229D01*
X78360Y45914D01*
Y46177D01*
X78491Y46308D01*
X78622D01*
X78753Y46177D01*
Y45914D01*
X78622Y45783D01*
X78360Y46570D02*
Y47095D01*
X78753Y47358D02*
Y47620D01*
Y47489D01*
X78229D01*
Y47358D01*
X78753Y48013D02*
X78229D01*
Y48407D01*
X78360Y48538D01*
X78753D01*
Y48932D02*
X78097D01*
X78360D01*
Y48801D01*
Y49063D01*
Y48932D01*
X78097D01*
X77966Y49063D01*
X78753Y49588D02*
Y49850D01*
X78622Y49981D01*
X78360D01*
X78229Y49850D01*
Y49588D01*
X78360Y49457D01*
X78622D01*
X78753Y49588D01*
X99488Y13209D02*
X100079D01*
X99784D01*
Y13602D01*
X99488D01*
X100079D01*
Y13799D02*
Y13996D01*
Y13897D01*
X99488D01*
X99587Y13799D01*
X96083Y10748D02*
Y10157D01*
Y10453D01*
X96476D01*
Y10748D01*
Y10157D01*
X96673Y10649D02*
X96771Y10748D01*
X96968D01*
X97067Y10649D01*
Y10256D01*
X96968Y10157D01*
X96771D01*
X96673Y10256D01*
Y10649D01*
X99488Y15866D02*
X99980D01*
X100079Y15965D01*
Y16161D01*
X99980Y16260D01*
X99488D01*
Y16457D02*
X100079D01*
Y16850D01*
X99488Y17047D02*
Y17440D01*
Y17244D01*
X100079D01*
Y17637D02*
X99488D01*
Y17932D01*
X99587Y18031D01*
X99784D01*
X99882Y17932D01*
Y17637D01*
Y17834D02*
X100079Y18031D01*
Y18228D02*
X99685D01*
X99488Y18424D01*
X99685Y18621D01*
X100079D01*
X99784D01*
Y18228D01*
X99587Y19212D02*
X99488Y19113D01*
Y18916D01*
X99587Y18818D01*
X99685D01*
X99784Y18916D01*
Y19113D01*
X99882Y19212D01*
X99980D01*
X100079Y19113D01*
Y18916D01*
X99980Y18818D01*
X99488Y19703D02*
Y19507D01*
X99587Y19408D01*
X99980D01*
X100079Y19507D01*
Y19703D01*
X99980Y19802D01*
X99587D01*
X99488Y19703D01*
X100079Y19999D02*
X99488D01*
X100079Y20392D01*
X99488D01*
Y20589D02*
Y20786D01*
Y20687D01*
X100079D01*
Y20589D01*
Y20786D01*
X99587Y21475D02*
X99488Y21376D01*
Y21179D01*
X99587Y21081D01*
X99980D01*
X100079Y21179D01*
Y21376D01*
X99980Y21475D01*
X99488Y22262D02*
X100079D01*
X99784D01*
Y22655D01*
X99488D01*
X100079D01*
X99587Y23246D02*
X99488Y23147D01*
Y22950D01*
X99587Y22852D01*
X99980D01*
X100079Y22950D01*
Y23147D01*
X99980Y23246D01*
X99784Y23442D02*
Y23836D01*
X99587Y24426D02*
X99488Y24328D01*
Y24131D01*
X99587Y24033D01*
X99685D01*
X99784Y24131D01*
Y24328D01*
X99882Y24426D01*
X99980D01*
X100079Y24328D01*
Y24131D01*
X99980Y24033D01*
X100079Y24623D02*
X99488D01*
Y24918D01*
X99587Y25017D01*
X99784D01*
X99882Y24918D01*
Y24623D01*
Y24820D02*
X100079Y25017D01*
X99587Y25214D02*
X99488Y25312D01*
Y25509D01*
X99587Y25607D01*
X99980D01*
X100079Y25509D01*
Y25312D01*
X99980Y25214D01*
X99587D01*
X100079Y26099D02*
X99488D01*
X99784Y25804D01*
Y26197D01*
X76102Y28268D02*
Y28858D01*
X76398D01*
X76496Y28760D01*
Y28563D01*
X76398Y28465D01*
X76102D01*
X76299D02*
X76496Y28268D01*
X77086Y28858D02*
X76693D01*
Y28563D01*
X76890D01*
X76693D01*
Y28268D01*
X77283Y28858D02*
X77480D01*
X77381D01*
Y28268D01*
X77283D01*
X77480D01*
X77775Y28858D02*
Y28268D01*
X78070D01*
X78169Y28366D01*
Y28760D01*
X78070Y28858D01*
X77775D01*
X78956Y28268D02*
Y28858D01*
X79251D01*
X79349Y28760D01*
Y28563D01*
X79251Y28465D01*
X78956D01*
X79153D02*
X79349Y28268D01*
X79940Y28760D02*
X79841Y28858D01*
X79645D01*
X79546Y28760D01*
Y28366D01*
X79645Y28268D01*
X79841D01*
X79940Y28366D01*
X80530Y28858D02*
X80136D01*
Y28563D01*
X80333Y28661D01*
X80432D01*
X80530Y28563D01*
Y28366D01*
X80432Y28268D01*
X80235D01*
X80136Y28366D01*
X81120Y28268D02*
X80727D01*
X81120Y28661D01*
Y28760D01*
X81022Y28858D01*
X80825D01*
X80727Y28760D01*
X81711Y28268D02*
X81317D01*
X81711Y28661D01*
Y28760D01*
X81612Y28858D01*
X81416D01*
X81317Y28760D01*
X57598Y17047D02*
Y16457D01*
X57894D01*
X57992Y16555D01*
Y16653D01*
X57894Y16752D01*
X57598D01*
X57894D01*
X57992Y16850D01*
Y16949D01*
X57894Y17047D01*
X57598D01*
X58189D02*
Y16555D01*
X58287Y16457D01*
X58484D01*
X58582Y16555D01*
Y17047D01*
X58779D02*
X59173D01*
X58976D01*
Y16457D01*
X59370Y17047D02*
X59763D01*
X59566D01*
Y16457D01*
X60255Y17047D02*
X60058D01*
X59960Y16949D01*
Y16555D01*
X60058Y16457D01*
X60255D01*
X60353Y16555D01*
Y16949D01*
X60255Y17047D01*
X60550Y16457D02*
Y17047D01*
X60944Y16457D01*
Y17047D01*
X61534Y16949D02*
X61436Y17047D01*
X61239D01*
X61141Y16949D01*
Y16850D01*
X61239Y16752D01*
X61436D01*
X61534Y16653D01*
Y16555D01*
X61436Y16457D01*
X61239D01*
X61141Y16555D01*
X38701Y17047D02*
Y16457D01*
X39094D01*
X39685Y17047D02*
X39291D01*
Y16457D01*
X39685D01*
X39291Y16752D02*
X39488D01*
X39882Y17047D02*
Y16457D01*
X40177D01*
X40275Y16555D01*
Y16949D01*
X40177Y17047D01*
X39882D01*
X40865Y16949D02*
X40767Y17047D01*
X40570D01*
X40472Y16949D01*
Y16850D01*
X40570Y16752D01*
X40767D01*
X40865Y16653D01*
Y16555D01*
X40767Y16457D01*
X40570D01*
X40472Y16555D01*
X1299Y21181D02*
Y21771D01*
X1594D01*
X1693Y21673D01*
Y21476D01*
X1594Y21378D01*
X1299D01*
X1890Y21181D02*
Y21771D01*
X2086Y21575D01*
X2283Y21771D01*
Y21181D01*
X2775Y21771D02*
X2578D01*
X2480Y21673D01*
Y21279D01*
X2578Y21181D01*
X2775D01*
X2874Y21279D01*
Y21673D01*
X2775Y21771D01*
X3070D02*
Y21181D01*
X3365D01*
X3464Y21279D01*
Y21673D01*
X3365Y21771D01*
X3070D01*
X4645Y21673D02*
X4546Y21771D01*
X4349D01*
X4251Y21673D01*
Y21279D01*
X4349Y21181D01*
X4546D01*
X4645Y21279D01*
X5137Y21771D02*
X4940D01*
X4841Y21673D01*
Y21279D01*
X4940Y21181D01*
X5137D01*
X5235Y21279D01*
Y21673D01*
X5137Y21771D01*
X5432D02*
Y21181D01*
X5825D01*
X6317Y21771D02*
X6120D01*
X6022Y21673D01*
Y21279D01*
X6120Y21181D01*
X6317D01*
X6416Y21279D01*
Y21673D01*
X6317Y21771D01*
X6612Y21181D02*
Y21771D01*
X6908D01*
X7006Y21673D01*
Y21476D01*
X6908Y21378D01*
X6612D01*
X6809D02*
X7006Y21181D01*
X2087Y32205D02*
Y32795D01*
X2382D01*
X2480Y32697D01*
Y32500D01*
X2382Y32402D01*
X2087D01*
X2677Y32205D02*
Y32795D01*
X2874Y32598D01*
X3071Y32795D01*
Y32205D01*
X3563Y32795D02*
X3366D01*
X3267Y32697D01*
Y32303D01*
X3366Y32205D01*
X3563D01*
X3661Y32303D01*
Y32697D01*
X3563Y32795D01*
X3858D02*
Y32205D01*
X4153D01*
X4251Y32303D01*
Y32697D01*
X4153Y32795D01*
X3858D01*
X5038Y32205D02*
Y32795D01*
X5432Y32205D01*
Y32795D01*
X5629Y32205D02*
Y32598D01*
X5826Y32795D01*
X6022Y32598D01*
Y32205D01*
Y32500D01*
X5629D01*
X6219Y32795D02*
Y32402D01*
X6416Y32205D01*
X6613Y32402D01*
Y32795D01*
X31841Y10649D02*
X31743Y10748D01*
X31546D01*
X31447Y10649D01*
Y10256D01*
X31546Y10157D01*
X31743D01*
X31841Y10256D01*
Y10453D01*
X31644D01*
X32038Y10748D02*
Y10157D01*
X32431D01*
X33022Y10748D02*
X32628D01*
Y10453D01*
X32825Y10551D01*
X32923D01*
X33022Y10453D01*
Y10256D01*
X32923Y10157D01*
X32726D01*
X32628Y10256D01*
X33612Y10748D02*
X33218D01*
Y10453D01*
X33415Y10551D01*
X33514D01*
X33612Y10453D01*
Y10256D01*
X33514Y10157D01*
X33317D01*
X33218Y10256D01*
X33809Y10157D02*
X34006D01*
X33907D01*
Y10748D01*
X33809Y10649D01*
X34694Y10748D02*
X34498Y10649D01*
X34301Y10453D01*
Y10256D01*
X34399Y10157D01*
X34596D01*
X34694Y10256D01*
Y10354D01*
X34596Y10453D01*
X34301D01*
X6811Y10748D02*
X6417D01*
Y10157D01*
X6811D01*
X6417Y10453D02*
X6614D01*
X7008Y10157D02*
Y10748D01*
X7401Y10157D01*
Y10748D01*
X7992Y10649D02*
X7893Y10748D01*
X7696D01*
X7598Y10649D01*
Y10256D01*
X7696Y10157D01*
X7893D01*
X7992Y10256D01*
X8484Y10748D02*
X8287D01*
X8188Y10649D01*
Y10256D01*
X8287Y10157D01*
X8484D01*
X8582Y10256D01*
Y10649D01*
X8484Y10748D01*
X8779D02*
Y10157D01*
X9074D01*
X9172Y10256D01*
Y10649D01*
X9074Y10748D01*
X8779D01*
X9763D02*
X9369D01*
Y10157D01*
X9763D01*
X9369Y10453D02*
X9566D01*
X9959Y10157D02*
Y10748D01*
X10255D01*
X10353Y10649D01*
Y10453D01*
X10255Y10354D01*
X9959D01*
X10156D02*
X10353Y10157D01*
X11140D02*
Y10748D01*
X11435D01*
X11534Y10649D01*
Y10453D01*
X11435Y10354D01*
X11140D01*
X11731Y10157D02*
Y10748D01*
X11927Y10551D01*
X12124Y10748D01*
Y10157D01*
X12616Y10748D02*
X12419D01*
X12321Y10649D01*
Y10256D01*
X12419Y10157D01*
X12616D01*
X12715Y10256D01*
Y10649D01*
X12616Y10748D01*
X12911D02*
Y10157D01*
X13206D01*
X13305Y10256D01*
Y10649D01*
X13206Y10748D01*
X12911D01*
X13895D02*
X13502D01*
Y10157D01*
X13895D01*
X13502Y10453D02*
X13698D01*
X14092Y10157D02*
Y10748D01*
X14486Y10157D01*
Y10748D01*
X15076Y10649D02*
X14978Y10748D01*
X14781D01*
X14682Y10649D01*
Y10256D01*
X14781Y10157D01*
X14978D01*
X15076Y10256D01*
X18622Y10157D02*
Y10748D01*
X18819Y10551D01*
X19016Y10748D01*
Y10157D01*
X19212Y10748D02*
X19409D01*
X19311D01*
Y10157D01*
X19212D01*
X19409D01*
X20098Y10649D02*
X20000Y10748D01*
X19803D01*
X19704Y10649D01*
Y10256D01*
X19803Y10157D01*
X20000D01*
X20098Y10256D01*
X20295Y10157D02*
Y10748D01*
X20590D01*
X20688Y10649D01*
Y10453D01*
X20590Y10354D01*
X20295D01*
X20492D02*
X20688Y10157D01*
X21180Y10748D02*
X20983D01*
X20885Y10649D01*
Y10256D01*
X20983Y10157D01*
X21180D01*
X21279Y10256D01*
Y10649D01*
X21180Y10748D01*
X21475Y10157D02*
Y10748D01*
X21771D01*
X21869Y10649D01*
Y10453D01*
X21771Y10354D01*
X21475D01*
X22066Y10748D02*
Y10157D01*
Y10453D01*
X22459D01*
Y10748D01*
Y10157D01*
X22951Y10748D02*
X22755D01*
X22656Y10649D01*
Y10256D01*
X22755Y10157D01*
X22951D01*
X23050Y10256D01*
Y10649D01*
X22951Y10748D01*
X23247Y10157D02*
Y10748D01*
X23640Y10157D01*
Y10748D01*
X24230D02*
X23837D01*
Y10157D01*
X24230D01*
X23837Y10453D02*
X24034D01*
X25018Y10748D02*
Y10157D01*
Y10354D01*
X25411Y10748D01*
X25116Y10453D01*
X25411Y10157D01*
X25608Y10748D02*
Y10649D01*
X25805Y10453D01*
X26002Y10649D01*
Y10748D01*
X25805Y10453D02*
Y10157D01*
X26198Y10453D02*
X26592D01*
X26789Y10649D02*
X26887Y10748D01*
X27084D01*
X27182Y10649D01*
Y10256D01*
X27084Y10157D01*
X26887D01*
X26789Y10256D01*
Y10649D01*
X27379D02*
X27477Y10748D01*
X27674D01*
X27773Y10649D01*
Y10551D01*
X27674Y10453D01*
X27576D01*
X27674D01*
X27773Y10354D01*
Y10256D01*
X27674Y10157D01*
X27477D01*
X27379Y10256D01*
X27969Y10649D02*
X28068Y10748D01*
X28265D01*
X28363Y10649D01*
Y10551D01*
X28265Y10453D01*
X28363Y10354D01*
Y10256D01*
X28265Y10157D01*
X28068D01*
X27969Y10256D01*
Y10354D01*
X28068Y10453D01*
X27969Y10551D01*
Y10649D01*
X28068Y10453D02*
X28265D01*
X76102Y10157D02*
Y10748D01*
X76398D01*
X76496Y10649D01*
Y10453D01*
X76398Y10354D01*
X76102D01*
X76693Y10157D02*
Y10748D01*
X76890Y10551D01*
X77086Y10748D01*
Y10157D01*
X77578Y10748D02*
X77381D01*
X77283Y10649D01*
Y10256D01*
X77381Y10157D01*
X77578D01*
X77677Y10256D01*
Y10649D01*
X77578Y10748D01*
X77873D02*
Y10157D01*
X78169D01*
X78267Y10256D01*
Y10649D01*
X78169Y10748D01*
X77873D01*
X79054Y10157D02*
Y10748D01*
X79251Y10551D01*
X79448Y10748D01*
Y10157D01*
X79645D02*
Y10551D01*
X79841Y10748D01*
X80038Y10551D01*
Y10157D01*
Y10453D01*
X79645D01*
X80235Y10748D02*
X80628Y10157D01*
Y10748D02*
X80235Y10157D01*
X81219Y10649D02*
X81120Y10748D01*
X80924D01*
X80825Y10649D01*
Y10551D01*
X80924Y10453D01*
X81120D01*
X81219Y10354D01*
Y10256D01*
X81120Y10157D01*
X80924D01*
X80825Y10256D01*
X81711Y10748D02*
X81514D01*
X81416Y10649D01*
Y10256D01*
X81514Y10157D01*
X81711D01*
X81809Y10256D01*
Y10649D01*
X81711Y10748D01*
X82006Y10157D02*
Y10748D01*
X82400Y10157D01*
Y10748D01*
X82596Y10157D02*
Y10551D01*
X82793Y10748D01*
X82990Y10551D01*
Y10157D01*
Y10453D01*
X82596D01*
X83187Y10157D02*
Y10748D01*
X83482D01*
X83580Y10649D01*
Y10453D01*
X83482Y10354D01*
X83187D01*
X83383D02*
X83580Y10157D01*
D18*
X76509Y33399D02*
X76378Y33268D01*
Y33005D01*
X76509Y32874D01*
X76641D01*
X76772Y33005D01*
Y33268D01*
X76903Y33399D01*
X77034D01*
X77165Y33268D01*
Y33005D01*
X77034Y32874D01*
X76509Y33792D02*
X76641D01*
Y33661D01*
Y33924D01*
Y33792D01*
X77034D01*
X77165Y33924D01*
X76641Y34448D02*
Y34711D01*
X76772Y34842D01*
X77165D01*
Y34448D01*
X77034Y34317D01*
X76903Y34448D01*
Y34842D01*
X77165Y35104D02*
X76641D01*
Y35498D01*
X76772Y35629D01*
X77165D01*
X76378Y36416D02*
X77165D01*
Y36023D01*
X77034Y35891D01*
X76772D01*
X76641Y36023D01*
Y36416D01*
X76378Y37072D02*
Y36810D01*
X76509Y36679D01*
X77034D01*
X77165Y36810D01*
Y37072D01*
X77034Y37203D01*
X76509D01*
X76378Y37072D01*
X76509Y37990D02*
X76378Y37859D01*
Y37597D01*
X76509Y37466D01*
X76641D01*
X76772Y37597D01*
Y37859D01*
X76903Y37990D01*
X77034D01*
X77165Y37859D01*
Y37597D01*
X77034Y37466D01*
X76641Y39040D02*
X77165Y39302D01*
X76641Y39565D01*
X77165Y39827D02*
Y40090D01*
Y39958D01*
X76378D01*
X76509Y39827D01*
X77165Y41795D02*
Y41270D01*
X76641Y41795D01*
X76509D01*
X76378Y41664D01*
Y41401D01*
X76509Y41270D01*
Y42057D02*
X76378Y42189D01*
Y42451D01*
X76509Y42582D01*
X77034D01*
X77165Y42451D01*
Y42189D01*
X77034Y42057D01*
X76509D01*
X77165Y43369D02*
Y42845D01*
X76641Y43369D01*
X76509D01*
X76378Y43238D01*
Y42976D01*
X76509Y42845D01*
X77165Y44156D02*
Y43632D01*
X76641Y44156D01*
X76509D01*
X76378Y44025D01*
Y43763D01*
X76509Y43632D01*
M02*
