G04*
G04 #@! TF.GenerationSoftware,Altium Limited,Altium Designer,22.6.1 (34)*
G04*
G04 Layer_Color=8388736*
%FSLAX24Y24*%
%MOIN*%
G70*
G04*
G04 #@! TF.SameCoordinates,A296E85E-032B-4658-9172-692AFBF221AA*
G04*
G04*
G04 #@! TF.FilePolarity,Negative*
G04*
G01*
G75*
%ADD19R,0.0434X0.0592*%
%ADD20R,0.0690X0.0592*%
%ADD21R,0.0832X0.1182*%
%ADD22R,0.0395X0.0375*%
%ADD23R,0.0592X0.0434*%
%ADD24O,0.0907X0.0218*%
%ADD25R,0.0631X0.0513*%
%ADD26R,0.0375X0.0395*%
%ADD27R,0.1182X0.0832*%
%ADD28R,0.0474X0.0926*%
%ADD29R,0.1360X0.0926*%
%ADD30R,0.1025X0.1104*%
%ADD31R,0.0198X0.0356*%
%ADD32R,0.0474X0.0356*%
%ADD33R,0.1104X0.1025*%
%ADD34R,0.1497X0.1064*%
%ADD35R,0.1379X0.1025*%
%ADD36R,0.0438X0.2529*%
%ADD37R,0.0710X0.0710*%
%ADD38C,0.0710*%
%ADD39C,0.0669*%
%ADD40R,0.0669X0.0669*%
%ADD41O,0.1655X0.0867*%
%ADD42O,0.0867X0.1655*%
%ADD43O,0.1891X0.0867*%
%ADD44R,0.0669X0.0669*%
%ADD45C,0.1386*%
%ADD46C,0.0634*%
%ADD47R,0.0634X0.0634*%
%ADD48C,0.0749*%
%ADD49R,0.0749X0.0749*%
%ADD50R,0.0748X0.0433*%
%ADD51C,0.0512*%
%ADD52C,0.1261*%
%ADD53R,0.0749X0.0749*%
%ADD54O,0.0551X0.0630*%
G36*
X17223Y80902D02*
X17209Y80903D01*
X17196Y80905D01*
X17183Y80907D01*
X17170Y80910D01*
X17157Y80914D01*
X17144Y80919D01*
X17132Y80924D01*
X17120Y80930D01*
X17108Y80936D01*
X17097Y80943D01*
X17086Y80950D01*
X17075Y80959D01*
X17065Y80967D01*
X17055Y80976D01*
X17046Y80986D01*
X17037Y80996D01*
X17029Y81007D01*
X17022Y81018D01*
X17015Y81030D01*
X17008Y81041D01*
X17002Y81054D01*
X16997Y81066D01*
X16993Y81078D01*
X16989Y81091D01*
X16986Y81104D01*
X16983Y81117D01*
X16982Y81131D01*
X16981Y81144D01*
X16980Y81157D01*
Y81551D01*
X16981Y81565D01*
X16982Y81578D01*
X16983Y81591D01*
X16986Y81604D01*
X16989Y81617D01*
X16993Y81630D01*
X16997Y81643D01*
X17002Y81655D01*
X17008Y81667D01*
X17015Y81679D01*
X17022Y81691D01*
X17029Y81702D01*
X17037Y81712D01*
X17046Y81722D01*
X17055Y81732D01*
X17065Y81741D01*
X17075Y81750D01*
X17086Y81758D01*
X17097Y81766D01*
X17108Y81773D01*
X17120Y81779D01*
X17132Y81785D01*
X17144Y81790D01*
X17157Y81794D01*
X17170Y81798D01*
X17183Y81802D01*
X17196Y81804D01*
X17209Y81806D01*
X17223Y81807D01*
X17236Y81807D01*
X17250Y81807D01*
X17263Y81806D01*
X17276Y81804D01*
X17289Y81802D01*
X17302Y81798D01*
X17315Y81794D01*
X17328Y81790D01*
X17340Y81785D01*
X17352Y81779D01*
X17364Y81773D01*
X17376Y81766D01*
X17387Y81758D01*
X17397Y81750D01*
X17407Y81741D01*
X17417Y81732D01*
X17426Y81722D01*
X17435Y81712D01*
X17443Y81702D01*
X17451Y81691D01*
X17458Y81679D01*
X17464Y81667D01*
X17470Y81655D01*
X17475Y81643D01*
X17480Y81630D01*
X17483Y81617D01*
X17487Y81604D01*
X17489Y81591D01*
X17491Y81578D01*
X17492Y81565D01*
X17492Y81551D01*
Y81157D01*
X17492Y81144D01*
X17491Y81131D01*
X17489Y81117D01*
X17487Y81104D01*
X17483Y81091D01*
X17480Y81078D01*
X17475Y81066D01*
X17470Y81054D01*
X17464Y81041D01*
X17458Y81030D01*
X17451Y81018D01*
X17443Y81007D01*
X17435Y80996D01*
X17426Y80986D01*
X17417Y80976D01*
X17407Y80967D01*
X17397Y80959D01*
X17387Y80950D01*
X17376Y80943D01*
X17364Y80936D01*
X17352Y80930D01*
X17340Y80924D01*
X17328Y80919D01*
X17315Y80914D01*
X17302Y80910D01*
X17289Y80907D01*
X17276Y80905D01*
X17263Y80903D01*
X17250Y80902D01*
X17236Y80902D01*
X17223Y80902D01*
D02*
G37*
G36*
Y82934D02*
X17209Y82935D01*
X17195Y82938D01*
X17182Y82941D01*
X17169Y82944D01*
X17155Y82949D01*
X17142Y82954D01*
X17130Y82960D01*
X17117Y82966D01*
X17105Y82973D01*
X17094Y82981D01*
X17082Y82989D01*
X17072Y82998D01*
X17061Y83007D01*
X17052Y83017D01*
X17043Y83028D01*
X17034Y83039D01*
X17026Y83050D01*
X17018Y83062D01*
X17011Y83074D01*
X17005Y83087D01*
X17000Y83099D01*
X16994Y83112D01*
X16991Y83126D01*
X16987Y83139D01*
X16984Y83153D01*
X16982Y83167D01*
X16981Y83180D01*
X16980Y83194D01*
Y83209D01*
Y83720D01*
Y83735D01*
X16981Y83749D01*
X16982Y83763D01*
X16984Y83776D01*
X16987Y83790D01*
X16991Y83804D01*
X16994Y83817D01*
X17000Y83830D01*
X17005Y83843D01*
X17011Y83855D01*
X17018Y83867D01*
X17026Y83879D01*
X17034Y83891D01*
X17043Y83901D01*
X17052Y83912D01*
X17061Y83922D01*
X17072Y83931D01*
X17082Y83940D01*
X17094Y83948D01*
X17105Y83956D01*
X17117Y83963D01*
X17130Y83969D01*
X17142Y83975D01*
X17155Y83980D01*
X17169Y83985D01*
X17182Y83988D01*
X17195Y83991D01*
X17209Y83994D01*
X17223Y83995D01*
X17236Y83996D01*
X17250Y83995D01*
X17263Y83994D01*
X17277Y83991D01*
X17291Y83988D01*
X17304Y83985D01*
X17317Y83980D01*
X17330Y83975D01*
X17343Y83969D01*
X17355Y83963D01*
X17367Y83956D01*
X17379Y83948D01*
X17390Y83940D01*
X17401Y83931D01*
X17411Y83922D01*
X17421Y83912D01*
X17430Y83901D01*
X17439Y83891D01*
X17447Y83879D01*
X17454Y83867D01*
X17461Y83855D01*
X17467Y83843D01*
X17473Y83830D01*
X17478Y83817D01*
X17482Y83804D01*
X17485Y83790D01*
X17488Y83776D01*
X17490Y83763D01*
X17492Y83749D01*
X17492Y83735D01*
Y83720D01*
Y83209D01*
Y83194D01*
X17492Y83180D01*
X17490Y83167D01*
X17488Y83153D01*
X17485Y83139D01*
X17482Y83126D01*
X17478Y83112D01*
X17473Y83099D01*
X17467Y83087D01*
X17461Y83074D01*
X17454Y83062D01*
X17447Y83050D01*
X17439Y83039D01*
X17430Y83028D01*
X17421Y83017D01*
X17411Y83007D01*
X17401Y82998D01*
X17390Y82989D01*
X17379Y82981D01*
X17367Y82973D01*
X17355Y82966D01*
X17343Y82960D01*
X17330Y82954D01*
X17317Y82949D01*
X17304Y82944D01*
X17291Y82941D01*
X17277Y82938D01*
X17263Y82935D01*
X17250Y82934D01*
X17236Y82933D01*
X17223Y82934D01*
D02*
G37*
G36*
X20624Y80902D02*
X20611Y80903D01*
X20598Y80905D01*
X20585Y80907D01*
X20572Y80910D01*
X20559Y80914D01*
X20546Y80919D01*
X20534Y80924D01*
X20522Y80930D01*
X20510Y80936D01*
X20498Y80943D01*
X20487Y80950D01*
X20477Y80959D01*
X20467Y80967D01*
X20457Y80976D01*
X20448Y80986D01*
X20439Y80996D01*
X20431Y81007D01*
X20423Y81018D01*
X20416Y81030D01*
X20410Y81041D01*
X20404Y81054D01*
X20399Y81066D01*
X20394Y81078D01*
X20391Y81091D01*
X20387Y81104D01*
X20385Y81117D01*
X20383Y81131D01*
X20382Y81144D01*
X20382Y81157D01*
Y81551D01*
X20382Y81565D01*
X20383Y81578D01*
X20385Y81591D01*
X20387Y81604D01*
X20391Y81617D01*
X20394Y81630D01*
X20399Y81643D01*
X20404Y81655D01*
X20410Y81667D01*
X20416Y81679D01*
X20423Y81691D01*
X20431Y81702D01*
X20439Y81712D01*
X20448Y81722D01*
X20457Y81732D01*
X20467Y81741D01*
X20477Y81750D01*
X20487Y81758D01*
X20498Y81766D01*
X20510Y81773D01*
X20522Y81779D01*
X20534Y81785D01*
X20546Y81790D01*
X20559Y81794D01*
X20572Y81798D01*
X20585Y81802D01*
X20598Y81804D01*
X20611Y81806D01*
X20624Y81807D01*
X20638Y81807D01*
X20652D01*
X20665Y81807D01*
X20678Y81806D01*
X20691Y81804D01*
X20703Y81801D01*
X20715Y81798D01*
X20728Y81794D01*
X20740Y81789D01*
X20752Y81784D01*
X20763Y81778D01*
X20774Y81772D01*
X20785Y81765D01*
X20796Y81758D01*
X20806Y81750D01*
X20816Y81741D01*
X20825Y81732D01*
X20833Y81722D01*
X20842Y81713D01*
X20849Y81702D01*
X20856Y81691D01*
X20863Y81680D01*
X20869Y81669D01*
X20874Y81657D01*
X20879Y81645D01*
X20883Y81633D01*
X20887Y81620D01*
X20889Y81608D01*
X20891Y81595D01*
X20893Y81583D01*
X20894Y81571D01*
Y81177D01*
Y81163D01*
X20893Y81149D01*
X20892Y81135D01*
X20890Y81121D01*
X20887Y81107D01*
X20883Y81094D01*
X20880Y81081D01*
X20874Y81068D01*
X20869Y81055D01*
X20863Y81043D01*
X20856Y81030D01*
X20848Y81018D01*
X20840Y81007D01*
X20831Y80996D01*
X20822Y80986D01*
X20813Y80976D01*
X20802Y80967D01*
X20792Y80958D01*
X20780Y80950D01*
X20769Y80942D01*
X20757Y80935D01*
X20744Y80928D01*
X20732Y80922D01*
X20719Y80917D01*
X20706Y80913D01*
X20692Y80909D01*
X20679Y80906D01*
X20665Y80904D01*
X20651Y80902D01*
X20638Y80902D01*
X20624Y80902D01*
D02*
G37*
G36*
Y82914D02*
X20611Y82916D01*
X20597Y82918D01*
X20583Y82921D01*
X20570Y82925D01*
X20557Y82929D01*
X20544Y82934D01*
X20531Y82940D01*
X20519Y82946D01*
X20507Y82954D01*
X20495Y82961D01*
X20484Y82970D01*
X20473Y82978D01*
X20463Y82988D01*
X20453Y82998D01*
X20444Y83008D01*
X20435Y83019D01*
X20427Y83030D01*
X20420Y83042D01*
X20413Y83054D01*
X20407Y83067D01*
X20401Y83080D01*
X20396Y83093D01*
X20392Y83106D01*
X20389Y83119D01*
X20386Y83133D01*
X20384Y83147D01*
X20382Y83161D01*
X20382Y83174D01*
Y83189D01*
Y83740D01*
Y83755D01*
X20382Y83769D01*
X20384Y83782D01*
X20386Y83796D01*
X20389Y83810D01*
X20392Y83823D01*
X20396Y83837D01*
X20401Y83850D01*
X20407Y83862D01*
X20413Y83875D01*
X20420Y83887D01*
X20427Y83899D01*
X20435Y83910D01*
X20444Y83921D01*
X20453Y83932D01*
X20463Y83941D01*
X20473Y83951D01*
X20484Y83959D01*
X20495Y83968D01*
X20507Y83976D01*
X20519Y83983D01*
X20531Y83989D01*
X20544Y83995D01*
X20557Y84000D01*
X20570Y84004D01*
X20583Y84008D01*
X20597Y84011D01*
X20611Y84013D01*
X20624Y84015D01*
X20638Y84016D01*
X20651Y84015D01*
X20665Y84013D01*
X20679Y84011D01*
X20692Y84008D01*
X20706Y84004D01*
X20719Y84000D01*
X20732Y83995D01*
X20744Y83989D01*
X20757Y83983D01*
X20769Y83976D01*
X20780Y83968D01*
X20792Y83959D01*
X20802Y83951D01*
X20813Y83941D01*
X20822Y83932D01*
X20831Y83921D01*
X20840Y83910D01*
X20848Y83899D01*
X20856Y83887D01*
X20863Y83875D01*
X20869Y83862D01*
X20874Y83850D01*
X20880Y83837D01*
X20883Y83823D01*
X20887Y83810D01*
X20890Y83796D01*
X20892Y83782D01*
X20893Y83769D01*
X20894Y83755D01*
Y83740D01*
Y83189D01*
Y83174D01*
X20893Y83161D01*
X20892Y83147D01*
X20890Y83133D01*
X20887Y83119D01*
X20883Y83106D01*
X20880Y83093D01*
X20874Y83080D01*
X20869Y83067D01*
X20863Y83054D01*
X20856Y83042D01*
X20848Y83030D01*
X20840Y83019D01*
X20831Y83008D01*
X20822Y82998D01*
X20813Y82988D01*
X20802Y82978D01*
X20792Y82970D01*
X20780Y82961D01*
X20769Y82954D01*
X20757Y82946D01*
X20744Y82940D01*
X20732Y82934D01*
X20719Y82929D01*
X20706Y82925D01*
X20692Y82921D01*
X20679Y82918D01*
X20665Y82916D01*
X20651Y82914D01*
X20638Y82913D01*
X20624Y82914D01*
D02*
G37*
D19*
X37539Y28228D02*
D03*
X36634D02*
D03*
X70453Y25236D02*
D03*
X69547D02*
D03*
X70453Y33228D02*
D03*
X69547D02*
D03*
X70453Y35236D02*
D03*
X69547D02*
D03*
X5846Y37205D02*
D03*
X6752D02*
D03*
X70217Y13583D02*
D03*
X71122D02*
D03*
X49154Y14764D02*
D03*
X50059D02*
D03*
X44823Y14764D02*
D03*
X45728D02*
D03*
X40492Y14764D02*
D03*
X41398D02*
D03*
X19626Y16693D02*
D03*
X20531D02*
D03*
X17579D02*
D03*
X18484D02*
D03*
X21634D02*
D03*
X22539D02*
D03*
X32618Y6693D02*
D03*
X33524D02*
D03*
X32618Y4803D02*
D03*
X33524D02*
D03*
X74902Y72047D02*
D03*
X75807D02*
D03*
X74902Y71024D02*
D03*
X75807D02*
D03*
X57815Y14764D02*
D03*
X58720D02*
D03*
X17579Y17795D02*
D03*
X18484D02*
D03*
X74035Y78819D02*
D03*
X74941D02*
D03*
Y78110D02*
D03*
X74035D02*
D03*
X74941Y77402D02*
D03*
X74035D02*
D03*
X71122Y14764D02*
D03*
X70217D02*
D03*
X58720Y13583D02*
D03*
X57815D02*
D03*
X19626Y17795D02*
D03*
X20531D02*
D03*
X22539D02*
D03*
X21634D02*
D03*
X33524Y8346D02*
D03*
X32618D02*
D03*
X6752Y25984D02*
D03*
X5846D02*
D03*
X6752Y25039D02*
D03*
X5846D02*
D03*
X6752Y29528D02*
D03*
X5846D02*
D03*
Y36063D02*
D03*
X6752D02*
D03*
D20*
X63376Y13287D02*
D03*
Y15059D02*
D03*
X60246Y13287D02*
D03*
Y15059D02*
D03*
X68888Y13287D02*
D03*
Y15059D02*
D03*
X65758Y13287D02*
D03*
Y15059D02*
D03*
D21*
X7795Y77756D02*
D03*
X5827D02*
D03*
D22*
X80039Y78238D02*
D03*
Y78848D02*
D03*
X80906Y78238D02*
D03*
Y78848D02*
D03*
X7047Y62254D02*
D03*
Y62864D02*
D03*
X4685D02*
D03*
Y62254D02*
D03*
X2323D02*
D03*
Y62864D02*
D03*
X9409Y62254D02*
D03*
Y62864D02*
D03*
D23*
X80906Y77500D02*
D03*
Y76594D02*
D03*
X80039Y77500D02*
D03*
Y76594D02*
D03*
Y75925D02*
D03*
Y75020D02*
D03*
X74882Y76713D02*
D03*
Y75807D02*
D03*
X74016Y76713D02*
D03*
Y75807D02*
D03*
X74882Y74311D02*
D03*
Y75217D02*
D03*
X23268Y52894D02*
D03*
Y51988D02*
D03*
X24331D02*
D03*
Y52894D02*
D03*
X26299Y52933D02*
D03*
Y52028D02*
D03*
X7047Y63839D02*
D03*
Y64744D02*
D03*
X4685Y63839D02*
D03*
Y64744D02*
D03*
X2323Y63839D02*
D03*
Y64744D02*
D03*
X9409Y63839D02*
D03*
Y64744D02*
D03*
X22677Y60768D02*
D03*
Y61673D02*
D03*
X10984Y63524D02*
D03*
Y62618D02*
D03*
X20591Y77480D02*
D03*
Y78386D02*
D03*
X19803Y79350D02*
D03*
Y78445D02*
D03*
X19016Y77500D02*
D03*
Y78406D02*
D03*
X18228Y78445D02*
D03*
Y79350D02*
D03*
X17441Y77500D02*
D03*
Y78406D02*
D03*
X9055Y78445D02*
D03*
Y77539D02*
D03*
X22677Y63622D02*
D03*
Y62717D02*
D03*
D24*
X78917Y75305D02*
D03*
Y75561D02*
D03*
Y75817D02*
D03*
Y76073D02*
D03*
Y76329D02*
D03*
Y76585D02*
D03*
Y76841D02*
D03*
Y77096D02*
D03*
Y77352D02*
D03*
Y77608D02*
D03*
Y77864D02*
D03*
Y78120D02*
D03*
Y78376D02*
D03*
Y78632D02*
D03*
X76201Y75305D02*
D03*
Y75561D02*
D03*
Y75817D02*
D03*
Y76073D02*
D03*
Y76329D02*
D03*
Y76585D02*
D03*
Y76841D02*
D03*
Y77096D02*
D03*
Y77352D02*
D03*
Y77608D02*
D03*
Y77864D02*
D03*
Y78120D02*
D03*
Y78376D02*
D03*
Y78632D02*
D03*
D25*
X74016Y74350D02*
D03*
Y74941D02*
D03*
D26*
X49301Y13583D02*
D03*
X49911D02*
D03*
X45581Y13583D02*
D03*
X44970D02*
D03*
X41250D02*
D03*
X40640D02*
D03*
D27*
X30354Y62835D02*
D03*
Y60866D02*
D03*
X27874D02*
D03*
Y62835D02*
D03*
X25354Y60866D02*
D03*
Y62835D02*
D03*
D28*
X21535Y63396D02*
D03*
X20630D02*
D03*
X19724D02*
D03*
D29*
X20630Y61093D02*
D03*
D30*
X17402Y61063D02*
D03*
Y63583D02*
D03*
D31*
X20118Y81193D02*
D03*
X19921D02*
D03*
X19724D02*
D03*
X19528D02*
D03*
X19331D02*
D03*
X19134D02*
D03*
X18740D02*
D03*
X18543D02*
D03*
X18346D02*
D03*
X18150D02*
D03*
X17953D02*
D03*
X17756D02*
D03*
X18051Y81705D02*
D03*
X18248D02*
D03*
X18445D02*
D03*
X18642D02*
D03*
X18839D02*
D03*
X19035D02*
D03*
X19232D02*
D03*
X19429D02*
D03*
X19626D02*
D03*
X19823D02*
D03*
D32*
X17717D02*
D03*
X20157D02*
D03*
D33*
X13465Y77835D02*
D03*
X15984D02*
D03*
X4213Y77795D02*
D03*
X1693D02*
D03*
D34*
X11102Y78780D02*
D03*
Y76929D02*
D03*
D35*
X10197Y83533D02*
D03*
Y80797D02*
D03*
D36*
X70232Y83421D02*
D03*
X69732D02*
D03*
X69232D02*
D03*
X68732D02*
D03*
X68232D02*
D03*
X67732D02*
D03*
X67232D02*
D03*
X66732D02*
D03*
X66232D02*
D03*
X65732D02*
D03*
X65232D02*
D03*
X63732D02*
D03*
X63232D02*
D03*
X62732D02*
D03*
X62232D02*
D03*
X61732D02*
D03*
X61232D02*
D03*
X60732D02*
D03*
X60232D02*
D03*
X59732D02*
D03*
X59232D02*
D03*
X58732D02*
D03*
X58232D02*
D03*
X57732D02*
D03*
X57232D02*
D03*
X56732D02*
D03*
X56232D02*
D03*
X55732D02*
D03*
X55232D02*
D03*
X54732D02*
D03*
X54232D02*
D03*
X53732D02*
D03*
X53232D02*
D03*
X52732D02*
D03*
X52232D02*
D03*
X51732D02*
D03*
X51232D02*
D03*
X50732D02*
D03*
X50232D02*
D03*
X49732D02*
D03*
X49232D02*
D03*
X48732D02*
D03*
X48232D02*
D03*
X47732D02*
D03*
X47232D02*
D03*
X46732D02*
D03*
X46232D02*
D03*
X44732D02*
D03*
X44232D02*
D03*
X43732D02*
D03*
X43232D02*
D03*
X42732D02*
D03*
X42232D02*
D03*
X41732D02*
D03*
X41232D02*
D03*
X40732D02*
D03*
X40232D02*
D03*
X39732D02*
D03*
D37*
X104118Y25984D02*
D03*
X87563Y44252D02*
D03*
Y55252D02*
D03*
X105563Y57252D02*
D03*
Y48252D02*
D03*
X12701Y63622D02*
D03*
D38*
X105118Y25984D02*
D03*
X106118D02*
D03*
X86563Y53252D02*
D03*
X87563D02*
D03*
X86563Y52252D02*
D03*
X87563D02*
D03*
X86563Y51252D02*
D03*
X87563D02*
D03*
X86563Y50252D02*
D03*
X87563D02*
D03*
X86563Y49252D02*
D03*
X87563D02*
D03*
X86563Y48252D02*
D03*
X87563D02*
D03*
X86563Y47252D02*
D03*
X87563D02*
D03*
X86563Y46252D02*
D03*
X87563D02*
D03*
X86563Y45252D02*
D03*
X87563D02*
D03*
X86563Y44252D02*
D03*
Y71252D02*
D03*
X87563D02*
D03*
X86563Y70252D02*
D03*
X87563D02*
D03*
X86563Y69252D02*
D03*
X87563D02*
D03*
X86563Y68252D02*
D03*
X87563D02*
D03*
X86563Y67252D02*
D03*
X87563D02*
D03*
X86563Y66252D02*
D03*
X87563D02*
D03*
X86563Y65252D02*
D03*
X87563D02*
D03*
X86563Y64252D02*
D03*
X87563D02*
D03*
X86563Y63252D02*
D03*
X87563D02*
D03*
X86563Y62252D02*
D03*
X87563D02*
D03*
X86563Y61252D02*
D03*
X87563D02*
D03*
X86563Y60252D02*
D03*
X87563D02*
D03*
X86563Y59252D02*
D03*
X87563D02*
D03*
X86563Y58252D02*
D03*
X87563D02*
D03*
X86563Y57252D02*
D03*
X87563D02*
D03*
X86563Y56252D02*
D03*
X87563D02*
D03*
X86563Y55252D02*
D03*
X104563Y71252D02*
D03*
X105563D02*
D03*
X104563Y70252D02*
D03*
X105563D02*
D03*
X104563Y69252D02*
D03*
X105563D02*
D03*
X104563Y68252D02*
D03*
X105563D02*
D03*
X104563Y67252D02*
D03*
X105563D02*
D03*
X104563Y66252D02*
D03*
X105563D02*
D03*
X104563Y65252D02*
D03*
X105563D02*
D03*
X104563Y64252D02*
D03*
X105563D02*
D03*
X104563Y63252D02*
D03*
X105563D02*
D03*
X104563Y62252D02*
D03*
X105563D02*
D03*
X104563Y61252D02*
D03*
X105563D02*
D03*
X104563Y60252D02*
D03*
X105563D02*
D03*
X104563Y59252D02*
D03*
X105563D02*
D03*
X104563Y58252D02*
D03*
X105563D02*
D03*
X104563Y57252D02*
D03*
Y55252D02*
D03*
X105563D02*
D03*
X104563Y54252D02*
D03*
X105563D02*
D03*
X104563Y53252D02*
D03*
X105563D02*
D03*
X104563Y52252D02*
D03*
X105563D02*
D03*
X104563Y51252D02*
D03*
X105563D02*
D03*
X104563Y50252D02*
D03*
X105563D02*
D03*
X104563Y49252D02*
D03*
X105563D02*
D03*
X104563Y48252D02*
D03*
X74358Y80197D02*
D03*
X73358D02*
D03*
X13701Y63622D02*
D03*
X14701D02*
D03*
D39*
X103150Y14657D02*
D03*
Y15657D02*
D03*
Y16657D02*
D03*
X78059Y68083D02*
D03*
Y67083D02*
D03*
Y65083D02*
D03*
Y64083D02*
D03*
Y66083D02*
D03*
Y72083D02*
D03*
Y71083D02*
D03*
Y73083D02*
D03*
Y70083D02*
D03*
Y69083D02*
D03*
X77059Y70083D02*
D03*
X78059Y55083D02*
D03*
Y54083D02*
D03*
Y56083D02*
D03*
Y61083D02*
D03*
Y60083D02*
D03*
Y63083D02*
D03*
Y62083D02*
D03*
Y58083D02*
D03*
Y57083D02*
D03*
Y59083D02*
D03*
X77059Y66083D02*
D03*
Y64083D02*
D03*
Y63083D02*
D03*
Y65083D02*
D03*
Y72083D02*
D03*
Y71083D02*
D03*
Y68083D02*
D03*
Y67083D02*
D03*
Y69083D02*
D03*
Y56083D02*
D03*
Y55083D02*
D03*
Y54083D02*
D03*
Y61083D02*
D03*
Y60083D02*
D03*
Y62083D02*
D03*
Y58083D02*
D03*
Y57083D02*
D03*
Y59083D02*
D03*
X80209Y4528D02*
D03*
X79209D02*
D03*
X81209D02*
D03*
X82209D02*
D03*
X83209D02*
D03*
X24063Y14764D02*
D03*
X23063D02*
D03*
X22063D02*
D03*
X21063D02*
D03*
X19063D02*
D03*
X20063D02*
D03*
X24122Y3543D02*
D03*
X23122D02*
D03*
X22122D02*
D03*
X10130Y4370D02*
D03*
X9130D02*
D03*
X11130D02*
D03*
X12130D02*
D03*
X13130D02*
D03*
X72165Y32224D02*
D03*
Y31224D02*
D03*
Y30224D02*
D03*
Y29224D02*
D03*
Y28224D02*
D03*
Y27224D02*
D03*
Y26224D02*
D03*
Y24224D02*
D03*
Y25224D02*
D03*
Y33224D02*
D03*
Y34224D02*
D03*
Y35224D02*
D03*
Y36224D02*
D03*
X30300Y49900D02*
D03*
X29300D02*
D03*
X28300D02*
D03*
X27300D02*
D03*
X26300D02*
D03*
X25300D02*
D03*
X24300D02*
D03*
X22300D02*
D03*
X23300D02*
D03*
X98154Y7087D02*
D03*
X97154D02*
D03*
X96154D02*
D03*
X35039Y31224D02*
D03*
Y30224D02*
D03*
Y29224D02*
D03*
X75591Y18579D02*
D03*
Y19579D02*
D03*
Y20579D02*
D03*
Y22579D02*
D03*
Y21579D02*
D03*
Y17579D02*
D03*
Y16579D02*
D03*
D40*
X103150Y13657D02*
D03*
X72165Y23224D02*
D03*
X35039Y28224D02*
D03*
X75591Y23579D02*
D03*
D41*
X6732Y82362D02*
D03*
D42*
X4843Y81181D02*
D03*
D43*
X6732Y80000D02*
D03*
D44*
X77059Y73083D02*
D03*
X78209Y4528D02*
D03*
X18063Y14764D02*
D03*
X25122Y3543D02*
D03*
X8130Y4370D02*
D03*
X21300Y49900D02*
D03*
X95154Y7087D02*
D03*
D45*
X75976Y81890D02*
D03*
X80717D02*
D03*
D46*
X78839Y80039D02*
D03*
X77854Y80827D02*
D03*
X78839D02*
D03*
D47*
X77854Y80039D02*
D03*
D48*
X57000Y52500D02*
D03*
Y53500D02*
D03*
X54000D02*
D03*
X55000D02*
D03*
Y52500D02*
D03*
X56000Y53500D02*
D03*
Y52500D02*
D03*
X58000D02*
D03*
Y53500D02*
D03*
X59000Y52500D02*
D03*
Y53500D02*
D03*
X60000Y52500D02*
D03*
Y53500D02*
D03*
X61000Y52500D02*
D03*
Y53500D02*
D03*
X62000Y52500D02*
D03*
Y53500D02*
D03*
X63000Y52500D02*
D03*
Y53500D02*
D03*
X50000Y52500D02*
D03*
Y53500D02*
D03*
X49000Y52500D02*
D03*
Y53500D02*
D03*
X48000D02*
D03*
X51000D02*
D03*
Y52500D02*
D03*
X46000Y53500D02*
D03*
X47000D02*
D03*
Y52500D02*
D03*
X45000D02*
D03*
Y53500D02*
D03*
X44000D02*
D03*
X25287Y54512D02*
D03*
Y55512D02*
D03*
X26287D02*
D03*
X4150Y38098D02*
D03*
X3150D02*
D03*
X4150Y37098D02*
D03*
X3150D02*
D03*
Y36098D02*
D03*
Y39098D02*
D03*
X4150D02*
D03*
X44000Y47500D02*
D03*
X45000D02*
D03*
Y46500D02*
D03*
X46000Y47500D02*
D03*
X47000D02*
D03*
Y46500D02*
D03*
X50000D02*
D03*
Y47500D02*
D03*
X49000Y46500D02*
D03*
Y47500D02*
D03*
X48000D02*
D03*
X51000D02*
D03*
Y46500D02*
D03*
X58000D02*
D03*
Y47500D02*
D03*
X57000Y46500D02*
D03*
Y47500D02*
D03*
X56000D02*
D03*
X62000Y46500D02*
D03*
Y47500D02*
D03*
X59000D02*
D03*
X60000D02*
D03*
Y46500D02*
D03*
X61000Y47500D02*
D03*
Y46500D02*
D03*
X63000D02*
D03*
Y47500D02*
D03*
X53000Y46500D02*
D03*
Y47500D02*
D03*
X52000D02*
D03*
X55000Y46500D02*
D03*
Y47500D02*
D03*
X54000D02*
D03*
X4150Y25059D02*
D03*
X3150D02*
D03*
X4150Y26059D02*
D03*
X3150D02*
D03*
Y28059D02*
D03*
X4150D02*
D03*
X3150Y29059D02*
D03*
X4150D02*
D03*
Y30059D02*
D03*
Y27059D02*
D03*
X3150D02*
D03*
X30315Y77835D02*
D03*
Y80835D02*
D03*
Y79835D02*
D03*
Y78835D02*
D03*
Y76835D02*
D03*
Y75835D02*
D03*
Y74835D02*
D03*
Y73835D02*
D03*
Y72835D02*
D03*
Y71835D02*
D03*
Y70835D02*
D03*
Y69835D02*
D03*
Y68835D02*
D03*
X16506Y49575D02*
D03*
Y48575D02*
D03*
Y47575D02*
D03*
X3150Y15035D02*
D03*
Y18035D02*
D03*
Y17035D02*
D03*
Y16035D02*
D03*
Y14035D02*
D03*
D49*
X54000Y52500D02*
D03*
X48000D02*
D03*
X46000D02*
D03*
X44000D02*
D03*
Y46500D02*
D03*
X46000D02*
D03*
X48000D02*
D03*
X56000D02*
D03*
X59000D02*
D03*
X52000D02*
D03*
X54000D02*
D03*
X30315Y81835D02*
D03*
X16506Y46575D02*
D03*
X3150Y19035D02*
D03*
D50*
X13032Y80374D02*
D03*
Y83720D02*
D03*
D51*
Y81260D02*
D03*
Y82047D02*
D03*
Y82835D02*
D03*
D52*
X15087Y66764D02*
D03*
Y70764D02*
D03*
X7087Y69764D02*
D03*
Y71764D02*
D03*
X15087Y74764D02*
D03*
X7087D02*
D03*
D53*
X26287Y54512D02*
D03*
X4150Y36098D02*
D03*
X3150Y30059D02*
D03*
D54*
X32402Y1969D02*
D03*
X33740D02*
D03*
M02*
