M48
;Layer_Color=9474304
;FILE_FORMAT=4:4
METRIC,LZ
;TYPE=PLATED
T1F00S00C0.3000
T2F00S00C0.4000
T3F00S00C0.5000
T6F00S00C0.8000
T7F00S00C0.9000
T8F00S00C1.0000
T10F00S00C1.0200
T11F00S00C1.1000
T13F00S00C1.5000
T14F00S00C2.3000
%
T01
X001Y001
Y003
X002
X0025Y002
X0035
X0045
X0055
X0065
X0075
X007Y003
X006
X005
X004
X006Y001
X007
X008
X009
Y003
X01
X011
X008
X012
X013
X014
X015
X016
X017
X018
X01807Y00387
X01800757Y00393757
X01896Y00394
X01903Y00387
X019Y001
X02Y003
X021
X022
X023
X0235Y002
X0225
X0245
X02468Y00226
X025Y003
X026
X0255Y002
X026Y001
X027
X0275Y002
X024Y003
X0245Y004
X0255
X02575Y00401
X0265Y004
X0275
Y006
X027Y007
X026
X025
X024
X0245Y006
X0255
X026Y005
X025
X024
X023
X022
X021
X02
X0205Y006
X0215
X0225
X0235
X023Y007
X022
X021
X0215Y004
X0225
X0235
X0205
X0189Y004
X01884Y00406
X01879Y00412
X01788Y00406
X01794Y004
X01782Y00412
X018Y005
X0175Y006
X017Y007
X019
X016Y005
X015
X014
X013
X012
X0125Y006
X0135
X0145
X0155
X01551Y00781
X01545Y00787
X01539Y00793
X01407Y00787
X01401Y00793
X01413Y00781
X014Y007
X013
X012
X011
X01
X009
X008
X00821Y00783
X00829Y00792
X0085Y006
X0095
X0105
X0115
X011Y005
X01
X0105Y004
X0095
X0085
X008Y005
X007
X006
X005
X004
X0045Y006
X0065
X0075
Y004
X0065
X0025
X003Y005
X002
X001
X0025Y006
X0035
X00184Y0075
X0025Y008
X0035
X003Y009
X0035Y01
X0025
X00186Y00941
X001Y011
X0045Y01
X0055
X0065
X0075
X007Y011
X00648Y011845
X006Y009
X007
X0065Y008
X0055
X0045
X005Y009
X004
X00821Y00978
X00829Y00971
X0085Y01
X009Y011
X008
X011
X0105Y01
X011Y009
X0115Y008
X0105
X0095
X0085
X0125
X0135
X013Y009
X012
X0125Y01
X013Y011
X01336459Y01125
X01498Y01126
X015Y011
X0155Y01
X0145
X015Y009
X0155Y008
X016Y009
X017
X01701Y00857
X01696243Y00850757
X01701Y00845
X01729Y00845
Y00857
X01737Y00837
X01747243Y00847243
X01760771Y008693
X0176Y00879
X0175Y00895
X0175Y01
X0185
X019Y009
X0195Y008
X0185
X017Y011
X02Y009
X021
X02224Y00918
X02252
X02246Y0094
X02282Y00924
X02288Y00918
X02294Y00924
X023Y009
X02318Y00913
X02324Y00919
X02312Y00946
X023Y00968
X02306Y01035
X02276Y0104
X0224Y01045
Y0111
X02246Y01115
X02252Y0111
X02258Y01115
X02264Y0111
X0227Y01115
X02276Y0111
X02282Y01115
X02288Y0111
X02294Y01115
X023Y0111
X02306Y01115
X02312Y0111
X02318Y01115
X02324Y0111
X0233Y01115
X02336Y0111
X02342Y01115
X02348Y0111
X02354Y01115
X0236Y0111
X02366Y01115
X02372Y0111
X02378Y01115
X0236Y01097
X02354Y01091
X02366Y01085
X02348Y01055
X02336Y01062
X02342Y01025
X0233Y01019
X0235Y01
X02372Y01036
X02378Y01042
X0227Y00903
X02264Y00876
X02258Y00881
X0225Y008
X0235
X0215
X0245
X0255
X0265
X027Y009
X026
X025
X024
X0245Y01
X0239Y01043
X02396Y01058
X02408Y01072
X02414Y01081
X0242Y01087
Y0111
X02414Y01115
X02408Y0111
X02402Y01115
X02396Y0111
X0239Y01115
X02384Y0111
X02402Y01097
X02384Y01078
X025Y011
X027
X02692485Y01132
X02682Y01121515
X02668Y01155
X02641Y01161
X02696Y01174
X02697243Y01184757
X0265Y01
Y012
X0267Y012
X0255Y012
X0245
Y014
X024Y015
X02720617Y01505
X02715Y01543
X02726Y01557
X026Y013
X0225Y014
X02155Y0145
X02172Y01467
X021Y015
X02063Y01533
X02061Y01544
X02054Y01551
X02076Y01563
X02Y015
X0205Y014
X02056Y01278
X02054Y01269
X0205Y012
X02091Y01232
X02102
X021Y013
X02
X0215Y012
X023Y015
X0185Y014
X0175
X01759Y01293
X01762Y01281
X01752515Y01282
X01778Y01299
X01792Y01295
X018Y013
X019
X0195Y012
X0165
X01649Y01326
X01658
X01614Y01409
X016Y01403
X01588Y01445
X016Y015
X015
X014
X0135Y014
X0125
X01271Y01306
X01283Y01307
X01295
X01308Y01311
X01313Y01325
X01434485Y01379
X01447Y01396
X01459Y01396
X01473Y01391
X01486
X01499Y01398
X01511
X01536Y0141
X01549Y01416
X01562Y01423
X01575Y01391
X01131Y01382
X01125Y01375
X01028Y01382
X01027Y0135
X01Y013
X01028225Y01264775
X009Y013
X0095Y014
X009Y015
X008
X0085Y012
X0075
X0064Y01191
X00617Y01217
X0058
Y01249
X006Y013
X007
X0075Y014
X006Y015
X00606Y0158
X00544Y01579
X00513Y01583
X00501
X00474
X005Y015
X004
X0045Y014
X005Y013
X004
X0045Y012
X0055
X0035
X0025
X0015
X002Y013
X003
X0025Y014
X0015
X002Y015
X003
X00268Y01578
X001Y015
Y013
X0015Y016
X00194Y01643
X002Y017
X003
X00257Y01637
X00266Y01624
X0025Y016
X00257Y01592
X0035Y016
X0025Y018
X0015
X002Y019
X003
X001Y017
X005
X006
X007
X0075Y018
X0065
X0055
X0045
X005Y019
X006
X007
X0075Y016
X00513Y01592
X00482Y01603
X008Y017
X009
X01
X011
X0115Y018
X0105
X011Y019
X01
X009
X0095Y016
X0105
X0115
X0125
X013Y017
X014
X0145Y018
X0155
X015Y019
X014
X013
X012
X0125Y018
X0135
X012Y017
X0145Y016
X0155
X0165
X0175
X01831Y0164
X01856Y01665
X01869Y01691
Y01716
Y01742
Y01766
X0185Y018
X0175
X0165
X017Y019
X018
X01969Y01929
X01981Y0193825
X01967Y0195
Y01976
X016Y019
X02
X021
X022
X023
X0235Y018
X0225
X0215
X0205
X02061Y01769
X02069Y0177
X02076Y01716
X021Y017
X02054Y0167
X02003Y01665
Y0164
Y01691
X02Y017
X02003Y01716
Y01742
Y01766
X02061Y01615
X02069Y01619
X0215Y016
X0235
X02344Y0167
X02315
X023Y017
X024
X02464Y0167
X02506
X025Y017
X026
X0273Y01699
X0272Y01679
X02697Y01754
X027Y01771
X0275Y018
X027Y019
X025
X024
X0245Y018
X0255
Y016
X0245
X0275
Y02
X0265
X0255
X0245
X0235
X0225
X0215
X0195
X0185
X0175
X01685Y02043
X01657Y02044
X01505Y0206
X0075Y02
X0065
X0055
T02
X00308Y00311
X00268Y00351
X00545Y00113
X01633Y00372
X02117Y00154
X02392
X02457
X01755Y00427
X01745Y00525
X01633Y00427
X01895Y00609
X01864Y00703
X00973479Y00762688
X00197Y0078
X00155
X00197Y00695
X00154Y00612
X00155Y00507
Y00476
Y00445
X00176Y00443
X00155Y00895
X00197Y00916
X00237Y00956
X00156Y01013
X0066Y0117
X00956Y01118
X00973Y0102
X01222Y01049
X0133Y00941
X01423Y00848
X01727Y01374
X01629Y01472
X01277Y01454
X01262Y01443
X0123199Y0147401
X01243Y01488
X00972Y01303
X00948
X00955Y01211
X00973
X00807Y01305
X00676Y01546
Y01596
X01771Y02041
X00523Y02016
X00481
X0023Y02008
T03
X00383Y01949
T06
X00823Y0005
X00857
X00072Y01946
X00415Y01648
X00406Y02009
X00331Y02064
Y02084
Y02104
T07
X020025Y02033
Y02053
X019775
Y02033
T08
X021987Y01124
Y011494
Y011748
X022241
Y011494
Y01124
X026559Y012256
Y01251
Y012764
Y013018
Y013272
Y013526
Y01378
Y014034
X026813
Y01378
Y013526
Y013272
Y013018
Y012764
Y01251
Y012256
Y014542
Y014796
Y01505
Y015304
Y015558
Y015812
X026559
Y015558
Y015304
Y01505
Y014796
Y014542
X022241
Y014796
Y01505
Y015304
Y015558
Y015812
X021987
Y015558
Y015304
Y01505
Y014796
Y014542
Y014288
X022241
Y014034
X021987
Y013526
X022241
Y013272
X021987
Y013018
X022241
Y012764
X021987
Y01251
X022241
Y012256
X021987
Y012002
X022241
Y016066
Y01632
Y016574
Y016828
Y017082
Y017336
Y01759
Y017844
Y018098
X021987
Y017844
Y01759
Y017336
Y017082
Y016828
Y016574
Y01632
Y016066
X026559
Y01632
Y016574
Y016828
Y017082
Y017336
Y01759
Y017844
Y018098
X026813
Y017844
Y01759
Y017336
Y017082
Y016828
Y016574
Y01632
Y016066
T10
X019573Y013737
X019827
Y013991
Y014245
Y014499
Y014753
Y015007
Y015261
Y015515
Y015769
X019573
Y015515
Y015261
Y015007
Y014753
Y014499
Y014245
Y013991
Y016023
X019827
Y016277
Y016531
Y016785
Y017039
Y017293
Y017547
Y017801
Y018055
Y018309
Y018563
X019573
Y018309
Y018055
Y017801
Y017547
Y017293
Y017039
Y016785
Y016531
Y016277
T11
X002065Y00111
X002319
X002573
X002827
X003081
X003335
X0008Y003565
Y003819
X004588Y00375
X004842
X005096
X00535
X005604
X005858
X006112
X006127Y0009
X006381
X005873
X005619
X019865Y00115
X020119
X020373
X020627
X020881
X021135
X024169Y0018
X024423
X024677
X024931
X0262Y003469
Y003723
Y003977
Y004231
X026446Y0066
X0267
X026954
X0192Y005989
Y005735
Y005481
Y005227
Y004973
Y004719
Y004465
Y004211
X01833Y005899
Y006153
Y006407
Y006661
Y006915
Y007169
Y007423
Y007677
Y007931
X0089Y007931
Y007677
Y007423
Y007169
X001054Y007127
X0008
Y007381
X001054
Y007635
X0008
Y006873
Y006619
Y006365
X001054
Y006619
Y006873
X0008Y004835
Y004581
Y004327
Y004073
Y009169
Y009423
Y009677
X001054
Y009423
Y009169
Y009931
X0008
X0041925Y01183
X011176Y011811
X01143
X011684
X011938
X012192
X012446
X0127
X012954
X013208
X013462
X013716
X01397
X014224
X014478
X014732
X014986
X01524
X015494
X015748
X016002
X01833Y009201
Y008947
Y008693
Y008439
Y008185
X016002Y012065
Y013335
Y013589
X015748
X015494
X01524
X014986
X014732
X014478
Y013335
X014224
X01397
X013716
Y013589
X01397
X014224
X014732Y013335
X014986
X01524
X015494
X015748
Y012065
X015494
X01524
X014986
X014732
X014478
X014224
X01397
X013716
X013462
X013208
X012954
X0127
X012446
X012192
X011938
Y013335
Y013589
X012192
Y013335
X012446
Y013589
X0127
Y013335
X012954
Y013589
X011684
X01143
X011176
Y013335
X01143
X011684
Y012065
X01143
X011176
X0076962Y0126746
X0074422
X0071882
X0069342
X0066802
X0064262
X0061722
X0059182
X0056642
X0054102
X0041925Y012592
Y012338
Y012084
X00419Y013296
Y01355
X006423Y013846
X006677
Y0141
X006423
X003734Y01616
X00348
X003226
X0077Y017484
Y017738
Y017992
Y018246
Y0185
Y018754
Y019008
Y019262
Y019516
Y01977
X018633Y02037
X018887
X0077Y020278
Y020532
Y020786
Y020024
T13
X0018Y01772
Y018228
Y01899
X003832
Y017974
Y016958
T14
X020502Y0208
X019298
M30
