**ABCDEFGHIJKLMNOPQRSTUVWXYZabcdefghijklmnopqrstuvwxyz**************************
**PARASOLID !"#$%&'()*+,-./:;<=>?@[\]^_`{|}~0123456789**************************
**PART1;
MC=AMD64;
MC_MODEL=Intel64 Family 6 Model 60 Stepping 3, GenuineIntel;
MC_ID=unknown;
OS=Windows_NT;
OS_RELEASE=unknown;
FRU=Parasolid Version 31.1, build 290,  3- 9-2020;
APPL=SOLIDWORKS 2020-2020196;
SITE=;
USER=unknown;
FORMAT=text;
GUISE=transmit;
KEY=KY-038_bed;
FILE=KY-038_bed.x_t;
DATE=Sun Jul 31 13:11:20 2022;
**PART2;
SCH=SCH_3101290_31100;
USFLD_SIZE=0;
**PART3;
**END_OF_HEADER*****************************************************************
T51 : TRANSMIT FILE created by modeller version 310129023 SCH_3101290_31100_1300
6222 0 12 34 CCCCCCI4 mesh1006 0 I8 polyline1008 0 CCCCCCCDI5 owner1040 0 CCCCCC
I13 boundary_mesh1006 0 I17 boundary_polyline1008 0 CCCA16 index_map_offset0 0 1
 dA9 index_map82 0 A17 node_id_index_map82 0 A20 schema_embedding_map82 0 A5 chi
ld12 0 A14 lowest_node_id0 0 1 dA16 mesh_offset_data206 0 Z1 1769 2 3 4 0 0 0 0
 0 1e3 1e-8 0 5 0 1 0 1 1 6 7 8 9 0 0 10 11 12 0 0 0 0 0 0 0 81 255 2 2 1727 13
 1 14 0 0 0 0 15 70 11 CI9 list_type0 0 1 uI10 notransmit0 0 1 lCCCDCCDI12 finge
r_index0 0 1 dI12 finger_block1012 0 CZ3 0 4 T1 0 0 9 20 1 16 16 50 255 4 1115 0
 1 17 0 0 +.026 .0075 -.02 0 -1 0 0 0 -1 13 255 6 183 0 1 0 18 0 0 19 0 54 255 7
 420 0 20 21 0 0 +.004 .014 -.02 0 -1 0 .002 .002 0 0 -1 30 255 8 1151 0 11 22 0
 0 +.0205 -1000000000001e-18 -.01075 0 -1 0 29 255 9 1130 0 12 23 0 .0079 .0095
 -.01175 19 8 CCCCCCCA5 owner12 0 Z10 61 0 1 19 0 24 V0 16 255 11 1149 0 ?25 0 2
6 8 0 0 1 18 255 12 1128 0 27 0 28 9 ?1 17 255 27 0 29 30 31 12 32 33 0 34 -18 2
8 1119 0 35 12 36 23 ?1 17 35 0 37 38 39 28 40 41 0 42 +18 36 964 0 43 28 44 45
 ?1 29 23 1121 0 28 45 9 .0221 .016 -.01175 29 45 966 0 36 46 23 .0095 .0085 -.0
1175 29 46 824 0 44 47 45 .0073 .016 -.01325 18 44 822 0 48 36 49 46 ?1 29 47 68
6 0 49 50 46 .0095 .016 -.0065 18 49 684 0 51 44 52 47 ?1 29 50 663 0 52 53 47 .
0205 0 -.0065 18 52 661 0 54 49 55 50 ?1 29 53 338 0 55 56 50 .03 .014 -.02 18 5
5 336 0 57 52 58 53 ?1 29 56 330 0 58 59 53 .026 .014 -.024 18 58 328 0 60 55 61
 56 ?1 29 59 322 0 61 62 56 .004 .014 -.024 18 61 320 0 63 58 64 59 ?1 29 62 314
 0 64 65 59 -867361737988404e-33 .014 -.02 18 64 312 0 66 61 67 62 ?1 29 65 306
 0 67 68 62 0 .014 -.004 18 67 304 0 69 64 70 65 ?1 29 68 298 0 70 71 65 .004 .0
14 0 18 70 296 0 72 67 73 68 ?1 29 71 290 0 73 74 68 .026 .014 0 18 73 288 0 75
 70 76 71 ?1 29 74 287 0 76 77 71 .03 .014 -.004 18 76 285 0 78 73 79 74 ?1 29 7
7 278 0 79 80 74 .026 .016 -.002 18 79 276 0 81 76 82 77 ?1 29 80 274 0 82 83 77
 .004 .016 -.002 18 82 272 0 84 79 85 80 ?1 29 83 270 0 85 86 80 .002 .016 -.004
 18 85 268 0 87 82 88 83 ?1 29 86 266 0 88 89 83 .002 .016 -.02 18 88 264 0 90 8
5 91 86 ?1 29 89 262 0 91 92 86 .004 .016 -.022 18 91 260 0 93 88 94 89 ?1 29 92
 258 0 94 95 89 .026 .016 -.022 18 94 256 0 96 91 97 92 ?1 29 95 254 0 97 98 92
 .028 .016 -.02 18 97 252 0 99 94 100 95 ?1 29 98 251 0 100 101 95 .028 .016 -.0
04 18 100 249 0 102 97 103 98 ?1 29 101 135 0 103 104 98 .03 0 -.02 18 103 118 0
 105 100 106 101 ?1 29 104 136 0 106 107 101 .03 0 -.004 18 106 119 0 108 103 10
9 104 ?1 29 107 137 0 109 110 104 .026 0 0 18 109 120 0 111 106 112 107 ?1 29 11
0 138 0 112 113 107 .004 0 0 18 112 121 0 114 109 115 110 ?1 29 113 139 0 115 11
6 110 0 0 -.004 18 115 122 0 117 112 118 113 ?1 29 116 140 0 118 119 113 -867361
737988404e-33 0 -.02 18 118 123 0 120 115 121 116 ?1 29 119 141 0 121 122 116 .0
04 0 -.024 18 121 124 0 123 118 124 119 ?1 29 122 142 0 124 125 119 .026 0 -.024
 18 124 125 0 126 121 127 122 ?1 29 125 775 0 127 128 122 .0205 .016 -.0065 18 1
27 725 0 129 124 130 125 ?1 29 128 777 0 130 131 125 .0095 0 -.0095 18 130 726 0
 132 127 133 128 ?1 29 131 778 0 133 134 128 .0205 0 -.0095 18 133 727 0 135 130
 136 131 ?1 29 134 779 0 136 137 131 .0095 0 -.0065 18 136 729 0 138 133 139 134
 ?1 29 137 910 0 140 141 134 .0073 .008 -.01175 18 140 863 0 142 143 144 137 ?1
 29 141 911 0 145 146 137 .0227 .008 -.01325 18 145 861 0 147 144 148 141 ?1 29
 146 912 0 148 149 141 .0073 .008 -.01325 18 148 860 0 150 145 151 146 ?1 29 149
 913 0 139 152 146 .0073 .016 -.01175 18 139 867 0 153 136 154 149 ?1 29 152 914
 0 143 155 149 .0227 .016 -.01175 18 143 864 0 156 154 140 152 ?1 29 155 915 0 1
54 157 152 .0227 .016 -.01325 18 154 865 0 158 139 143 155 ?1 29 157 917 0 144 1
59 155 .0227 .008 -.01175 18 144 862 0 160 140 145 157 ?1 29 159 1066 0 151 161
 157 .0095 .0085 -.0095 18 151 1019 0 162 148 163 159 ?1 29 161 1067 0 164 165 1
59 .0205 .0085 -.01175 18 164 1017 0 166 163 167 161 ?1 29 165 1073 0 163 168 16
1 .0205 .0085 -.0095 18 163 1018 0 169 151 164 165 ?1 29 168 1323 0 167 170 165
 .0205 .0095 -.01075 18 167 1231 0 171 164 172 168 ?1 29 170 1324 0 172 173 168
 .0095 .0095 -.01075 18 172 1240 0 174 167 175 170 ?1 29 173 1325 0 175 176 170
 .0095 .0095 -.01175 18 175 1233 0 177 172 178 173 ?1 29 176 1326 0 178 179 173
 .0205 .0095 -.01175 18 178 1244 0 180 175 181 176 ?1 29 179 1329 0 181 182 176
 .0205 .016 -.01075 18 181 1241 0 183 178 184 179 ?1 29 182 1330 0 184 185 179 .
0095 .016 -.01075 18 184 1230 0 186 181 187 182 ?1 29 185 1331 0 188 189 182 .00
79 .0095 -.01075 18 188 1236 0 190 191 192 185 ?1 29 189 1332 0 193 194 185 .022
1 .0095 -.01175 18 193 1237 0 38 192 0 189 ?1 29 194 1334 0 187 195 189 .0079 .0
16 -.01075 18 187 1245 0 196 184 197 194 ?1 29 195 1335 0 191 198 194 .0221 .016
 -.01075 18 191 1239 0 199 197 188 195 ?1 29 198 1337 0 197 200 195 .0079 .016 -
.01175 18 197 1238 0 30 187 191 198 ?1 29 200 1338 0 192 0 198 .0221 .0095 -.010
75 18 192 1232 0 201 188 193 200 ?1 17 201 0 202 203 171 192 204 205 0 206 +15 2
55 202 1267 0 201 207 0 17 203 0 202 180 201 193 206 208 0 209 +17 171 0 202 201
 180 167 210 211 0 204 -17 204 0 212 183 213 167 201 205 0 25 -16 205 1189 0 ?20
1 214 41 215 214 214 1 17 206 0 37 39 38 192 203 208 0 213 -15 37 1287 0 39 216
 0 17 39 0 37 35 206 191 213 217 0 40 +17 38 0 37 206 35 193 42 218 0 203 -16 20
8 1225 0 ?203 218 217 219 0 0 1 17 213 0 212 204 199 192 39 217 0 0 -15 212 1253
 0 199 220 0 17 199 0 212 213 183 191 221 222 0 39 +16 217 1190 0 ?39 208 214 22
3 0 0 1 16 214 1186 0 ?224 217 205 215 205 205 1 30 223 1312 0 217 225 226 0 +.0
221 -.0057351677194194 -.01075 0 1 0 30 225 1313 0 218 227 223 0 +.0221 -.005735
1677194194 -.01175 0 1 0 30 226 1311 0 228 223 229 0 +.0079 -.0057351677194194 -
.01075 0 1 0 16 228 1229 0 ?196 211 33 226 0 0 1 30 229 1308 0 211 226 230 0 +.0
205 .0095 -.0095 115648231731787e-29 0 -1 16 211 1197 0 ?210 231 228 229 0 0 1 3
0 230 1307 0 231 229 232 0 +.0095 .0095 -.0095 578241158658936e-30 0 1 16 231 11
96 0 ?233 234 211 230 0 0 1 30 232 1304 0 234 230 235 0 +.0095 -1000000000001e-1
8 -.01075 0 1 0 16 234 1187 0 ?236 237 231 232 0 0 1 30 235 1061 0 237 232 238 0
 +.0095 .0085 -.0095 1 0 0 16 237 1008 0 ?239 240 234 235 0 0 1 30 238 1060 0 24
1 235 242 0 +.0095 .0085 -.0095 0 0 1 16 241 1014 0 ?162 243 244 238 0 0 1 30 24
2 1059 0 245 238 246 0 +.0095 .0085 -.01175 -1 0 0 16 245 1012 0 ?43 244 247 242
 0 0 1 30 246 1058 0 240 242 248 0 +.0205 .0085 -.0095 0 0 -1 16 240 1010 0 ?249
 247 237 246 0 0 1 30 248 1057 0 244 246 250 0 +.0095 -.003227755786442815 -.011
75 0 1 0 16 244 1013 0 ?251 241 245 248 0 0 1 30 250 1056 0 247 248 252 0 +.0205
 -.003227755786442815 -.01175 0 1 0 16 247 1011 0 ?253 245 240 250 0 0 1 30 252
 909 0 254 250 255 0 +.0073 .016 -.01325 -1 0 0 16 254 849 0 ?48 256 257 252 0 0
 1 30 255 908 0 257 252 258 0 +.0227 .016 -.01325 0 0 -1 16 257 846 0 ?259 254 2
60 255 0 0 1 30 258 907 0 260 255 261 0 +.0073 .016 -.01175 1 0 0 16 260 843 0 ?
262 257 263 258 263 263 1 30 261 906 0 243 258 264 0 +.0073 .016 -.01325 0 0 1 1
6 243 840 0 ?265 263 241 261 0 0 1 30 264 905 0 256 261 266 0 +.0073 .008 -.0117
5 1 0 0 16 256 852 0 ?267 268 254 264 0 0 1 30 266 904 0 269 264 270 0 +.0073 .0
08 -.01325 0 0 1 16 269 858 0 ?271 272 273 266 0 0 1 30 270 903 0 274 266 275 0
 +.0073 .008 -.01325 -1 0 0 16 274 856 0 ?276 273 277 270 0 0 1 30 275 902 0 278
 270 279 0 +.0227 .008 -.01325 0 0 -1 16 278 854 0 ?280 277 268 275 0 0 1 30 279
 901 0 273 275 281 0 +.0073 -.0154728794993046 -.01325 0 1 0 16 273 857 0 ?282 2
69 274 279 0 0 1 30 281 900 0 277 279 283 0 +.0227 -.0154728794993046 -.01325 0
 1 0 16 277 855 0 ?158 274 278 281 0 0 1 30 283 899 0 268 281 284 0 +.0227 -.015
4728794993046 -.01175 0 1 0 16 268 853 0 ?285 278 256 283 0 0 1 30 284 898 0 272
 283 286 0 +.0073 -.0154728794993046 -.01175 0 1 0 16 272 859 0 ?153 287 269 284
 0 0 1 30 286 771 0 287 284 288 0 +.0205 0 -.0095 115648231731787e-29 0 -1 16 28
7 706 0 ?289 290 272 286 0 0 1 30 288 770 0 290 286 291 0 +.0095 0 -.0095 -1 0 0
 16 290 704 0 ?292 293 287 288 0 0 1 30 291 769 0 293 288 294 0 +.0095 0 -.0095
 578241158658936e-30 0 1 16 293 702 0 ?295 296 290 291 0 0 1 30 294 768 0 296 29
1 297 0 +.0095 .016 -.0095 578241158658936e-30 0 1 16 296 1158 0 ?51 298 293 294
 0 0 1 30 297 767 0 298 294 299 0 +.0095 .016 -.0065 1 0 0 16 298 713 0 ?300 301
 296 297 0 0 1 30 299 766 0 301 297 302 0 +.0205 .016 -.0095 115648231731787e-29
 0 -1 16 301 716 0 ?303 304 298 299 0 0 1 30 302 764 0 305 299 306 0 +.0095 -100
0000000001e-18 -.0095 0 1 0 16 305 705 0 ?307 308 309 302 0 0 1 30 306 763 0 309
 302 310 0 +.0205 -1000000000001e-18 -.0095 0 1 0 16 309 707 0 ?311 305 312 306
 0 0 1 30 310 762 0 312 306 313 0 +.0205 -1000000000001e-18 -.0065 0 1 0 16 312
 709 0 ?129 309 304 310 0 0 1 30 313 761 0 304 310 314 0 +.0095 -1000000000001e-
18 -.0065 0 1 0 16 304 703 0 ?315 312 301 313 0 0 1 30 314 760 0 308 313 316 0 +
.0095 0 -.0065 1 0 0 16 308 708 0 ?317 318 305 314 0 0 1 31 255 316 621 0 319 31
4 320 0 +.026 .007 -.004 0 -1 0 0 0 -1 9e-4 16 319 559 0 ?321 322 323 316 0 0 1
 31 320 620 0 323 316 324 0 +.026 0 -.004 0 -1 0 0 0 -1 9e-4 16 323 562 0 ?325 3
19 326 320 0 0 1 31 324 619 0 326 320 327 0 +.026 .007 -.02 0 -1 0 0 0 -1 9e-4 1
6 326 541 0 ?328 323 329 324 0 0 1 31 327 618 0 329 324 330 0 +.026 0 -.02 0 -1
 0 0 0 -1 9e-4 16 329 544 0 ?331 326 332 327 0 0 1 31 330 617 0 332 327 333 0 +.
004 .007 -.02 0 -1 0 0 0 -1 9e-4 16 332 523 0 ?334 329 318 330 0 0 1 31 333 616
 0 318 330 335 0 +.004 0 -.02 0 -1 0 0 0 -1 9e-4 16 318 526 0 ?336 332 308 333 0
 0 1 31 335 615 0 337 333 338 0 +.004 .007 -.004 0 -1 0 0 0 -1 9e-4 16 337 577 0
 ?339 340 322 335 0 0 1 31 338 614 0 322 335 341 0 +.004 0 -.004 0 -1 0 0 0 -1 9
e-4 16 322 580 0 ?342 337 319 338 0 0 1 31 341 134 0 343 338 344 0 +.026 0 -.02
 0 1 0 0 0 -1 .004 16 343 114 0 ?345 346 347 341 0 0 1 30 344 133 0 346 341 348
 0 +.004 0 -.024 -1 0 0 16 346 110 0 ?349 350 343 344 0 0 1 31 348 132 0 350 344
 351 0 +.004 0 -.02 0 1 0 0 0 -1 .004 16 350 106 0 ?352 353 346 348 0 0 1 30 351
 131 0 353 348 354 0 +0 0 -.004 0 0 1 16 353 102 0 ?355 356 350 351 0 0 1 31 354
 130 0 356 351 357 0 +.004 0 -.004 0 1 0 0 0 -1 .004 16 356 98 0 ?358 359 353 35
4 0 0 1 30 357 129 0 359 354 360 0 +.004 0 0 1 0 0 16 359 94 0 ?361 362 356 357
 0 0 1 31 360 128 0 362 357 363 0 +.026 0 -.004 0 1 0 0 0 1 .004 16 362 90 0 ?36
4 365 359 360 0 0 1 30 363 127 0 365 360 366 0 +.03 0 -.004 0 0 -1 16 365 86 0 ?
367 368 362 363 0 0 1 30 366 175 0 368 363 369 0 +.03 .016 -.02 0 -1 0 16 368 33
7 0 ?105 370 365 366 0 0 1 30 369 176 0 370 366 371 0 +.03 .016 -.004 0 -1 0 16
 370 286 0 ?108 372 368 369 0 0 1 30 371 177 0 372 369 373 0 +.026 .016 0 0 -1 0
 16 372 289 0 ?111 374 370 371 0 0 1 30 373 178 0 374 371 375 0 +.004 .016 0 0 -
1 0 16 374 297 0 ?114 376 372 373 0 0 1 30 375 179 0 376 373 377 0 +0 .016 -.004
 0 -1 0 16 376 305 0 ?117 378 374 375 0 0 1 30 377 180 0 378 375 379 0 +-8673617
37988404e-33 .016 -.02 0 -1 0 16 378 313 0 ?120 380 376 377 0 0 1 30 379 181 0 3
80 377 381 0 +.004 .016 -.024 0 -1 0 16 380 321 0 ?123 382 378 379 0 0 1 30 381
 182 0 382 379 383 0 +.026 .016 -.024 0 -1 0 16 382 329 0 ?126 384 380 381 0 0 1
 30 383 255 0 384 381 385 0 +.028 .016 -.02 0 0 -1 16 384 253 0 ?99 386 382 383
 0 0 1 31 385 259 0 386 383 387 0 -.026 .016 -.02 0 -1 0 0 0 -1 .002 16 386 257
 0 ?96 388 384 385 0 0 1 30 387 263 0 388 385 389 0 +.026 .016 -.022 -1 0 0 16 3
88 261 0 ?93 390 386 387 0 0 1 31 389 267 0 390 387 391 0 -.004 .016 -.02 0 -1 0
 0 0 -1 .002 16 390 265 0 ?90 392 388 389 0 0 1 30 391 271 0 392 389 393 0 +.002
 .016 -.02 0 0 1 16 392 269 0 ?87 394 390 391 0 0 1 31 393 275 0 394 391 395 0 -
.004 .016 -.004 0 -1 0 0 0 -1 .002 16 394 273 0 ?84 396 392 393 0 0 1 30 395 279
 0 396 393 397 0 +.026 .016 -.002 1 0 0 16 396 277 0 ?81 398 394 395 0 0 1 31 39
7 282 0 398 395 399 0 -.026 .016 -.004 0 -1 0 0 0 -1 .002 16 398 280 0 ?400 401
 396 397 0 0 1 31 399 293 0 401 397 402 0 +.026 .014 -.004 0 -1 0 0 0 -1 .004 16
 401 291 0 ?403 404 398 399 0 0 1 30 402 301 0 404 399 405 0 -.004 .014 0 1 0 0
 16 404 299 0 ?72 406 401 402 0 0 1 31 405 309 0 406 402 407 0 +.004 .014 -.004
 0 -1 0 0 0 -1 .004 16 406 307 0 ?69 408 404 405 0 0 1 30 407 317 0 408 405 409
 0 -0 .014 -.004 0 0 1 16 408 315 0 ?66 410 406 407 0 0 1 31 409 325 0 410 407 4
11 0 +.004 .014 -.02 0 -1 0 0 0 -1 .004 16 410 323 0 ?63 412 408 409 0 0 1 30 41
1 333 0 412 409 413 0 -.004 .014 -.024 -1 0 0 16 412 331 0 ?60 414 410 411 0 0 1
 31 413 341 0 414 411 415 0 +.026 .014 -.02 0 -1 0 0 0 -1 .004 16 414 339 0 ?57
 416 412 413 0 0 1 30 415 346 0 416 413 417 0 -.03 .014 -.004 0 0 -1 16 416 344
 0 ?78 26 414 415 0 0 1 31 417 435 0 340 415 418 0 +.028 .014 -.004 0 -693889390
390723e-29 1 0 -1 -693889390390723e-29 .002 16 340 403 0 ?102 419 337 417 0 0 1
 31 418 434 0 419 417 420 0 +.026 .014 -.002 1 0 693889390390724e-29 69388939039
0724e-29 0 -1 .002 16 419 401 0 ?75 421 340 418 0 0 1 31 420 433 0 421 418 422 0
 +.028 .014 -.02 -693889390390722e-29 0 1 1 0 693889390390722e-29 .002 16 421 39
8 0 ?423 424 419 420 0 0 1 31 422 432 0 424 420 425 0 +.004 .014 -.002 1 0 0 0 0
 -1 .002 16 424 395 0 ?426 427 421 422 0 0 1 31 425 431 0 427 422 428 0 +.026 .0
14 -.022 1 0 0 0 0 -1 .002 16 427 392 0 ?429 430 424 425 0 0 1 31 428 430 0 430
 425 431 0 +.002 .014 -.004 -737257477290144e-29 0 1 1 0 737257477290144e-29 .00
2 16 430 389 0 ?432 433 427 428 0 0 1 31 431 429 0 433 428 434 0 +.004 .014 -.02
2 1 0 737257477290142e-29 737257477290142e-29 0 -1 .002 16 433 386 0 ?435 347 43
0 431 0 0 1 31 434 428 0 347 431 22 0 +.002 .014 -.02 0 0 1 1 0 0 .002 16 347 38
3 0 ?436 343 433 434 0 0 1 30 22 1134 0 26 434 8 0 +.0073 .0095 -.01175 1 0 0 16
 26 1132 0 ?437 11 416 22 0 0 1 17 437 0 438 439 440 175 34 26 0 251 +15 438 877
 0 253 441 0 17 439 0 438 442 437 36 251 244 0 0 -17 440 0 438 437 262 12 30 443
 0 0 -17 34 0 444 32 177 12 437 26 0 440 -17 251 0 445 233 446 175 439 244 0 0 +
15 445 733 0 251 447 0 17 233 0 445 236 251 172 177 231 0 0 +17 446 0 445 251 30
7 36 162 241 0 439 -17 307 0 445 446 132 151 448 305 0 0 +17 162 0 449 239 43 15
1 446 241 0 450 +15 449 1026 0 162 451 0 17 239 0 449 249 162 163 450 237 0 311
 +17 43 0 449 162 249 36 442 245 0 446 +17 450 0 452 448 311 151 239 237 0 307 -
15 452 737 0 311 453 0 17 448 0 452 135 450 130 307 305 0 292 -17 311 0 452 450
 135 163 454 309 0 0 +17 135 0 452 311 448 133 292 290 0 454 -17 454 0 455 456 1
69 133 311 309 0 289 -15 455 741 0 25 457 0 17 456 0 455 129 454 52 289 287 0 31
7 -17 169 0 455 454 166 163 249 240 0 239 -17 289 0 458 292 317 133 456 287 0 0
 +15 458 677 0 295 459 460 17 292 0 458 295 289 130 135 290 0 0 +17 317 0 458 28
9 295 52 138 308 0 0 +17 295 0 458 317 292 136 132 293 0 0 +17 138 0 461 315 54
 136 317 308 0 462 -15 461 745 0 315 463 0 17 315 0 461 300 138 49 462 304 0 464
 +17 54 0 461 138 300 52 129 312 0 456 -17 462 0 445 132 51 136 315 304 0 295 -1
7 132 0 445 307 462 130 295 293 0 448 -17 51 0 445 462 236 49 465 296 0 315 +17
 236 0 445 51 233 184 174 234 0 465 +17 465 0 466 467 464 184 51 296 0 0 -15 466
 682 0 40 468 469 17 467 0 466 470 465 187 186 471 0 0 -17 464 0 466 465 472 49
 300 298 0 0 -17 472 0 466 464 221 127 303 301 0 0 -17 300 0 461 54 315 127 464
 298 0 472 +17 221 0 466 472 40 181 199 222 0 303 -17 303 0 455 25 129 181 472 3
01 0 0 +17 25 0 455 210 303 167 183 11 0 0 +17 129 0 455 303 456 127 54 312 0 30
0 +17 210 0 455 166 25 178 171 211 0 253 +17 183 0 212 199 204 181 25 11 0 221 -
17 166 0 455 169 210 164 253 247 0 249 -17 253 0 438 209 442 178 166 247 0 0 +17
 209 0 438 42 253 193 180 473 0 0 -17 442 0 438 253 439 164 43 245 0 0 -17 42 0
 438 156 209 28 38 218 0 474 +17 180 0 202 171 203 178 209 473 0 210 +16 473 119
4 0 ?180 443 218 475 0 0 1 16 443 1193 0 ?30 33 473 227 0 0 1 16 218 1226 0 ?42
 473 208 225 0 0 1 30 475 1316 0 473 476 219 0 +.0079 .0095 -.01175 -1 0 0 30 47
6 1317 0 33 215 475 0 +.0079 .0095 -.01175 0 0 1 30 219 1315 0 208 475 227 0 +.0
221 .0095 -.01175 0 0 -1 30 227 1314 0 443 219 225 0 +.0079 -.0057351677194194 -
.01175 0 1 0 16 33 1228 0 ?32 228 443 476 0 0 1 30 215 1318 0 214 477 476 0 +.00
79 .0095 -.01075 1 0 0 30 477 1319 0 478 479 215 0 +.0079 .016 -.01175 0 0 1 16
 478 1205 0 ?480 222 0 477 0 0 1 30 479 1320 0 471 481 477 0 +.0079 .016 -.01075
 1 0 0 16 471 1198 0 ?186 41 222 479 222 222 1 30 481 1321 0 41 0 479 0 +.0221 .
016 -.01175 0 0 -1 16 41 1215 0 ?35 205 471 481 0 0 1 17 186 0 482 174 196 184 4
67 471 0 236 +16 222 1212 0 ?199 471 478 479 471 471 1 15 482 1249 0 190 483 0 1
7 174 0 482 190 186 172 236 234 0 224 -17 196 0 482 186 190 187 31 228 0 480 +17
 190 0 482 196 174 188 224 214 0 32 -17 31 0 29 27 480 188 196 228 0 0 -17 480 0
 29 31 30 187 470 478 0 467 +15 29 1295 0 30 484 0 17 30 0 29 480 27 197 440 443
 0 470 +17 470 0 466 485 467 197 480 478 0 262 -17 485 0 466 486 470 139 262 260
 0 0 -17 262 0 438 440 153 197 485 260 0 0 +17 153 0 438 262 142 139 487 272 0 2
65 +17 142 0 438 153 488 140 267 256 0 271 -17 487 0 489 150 265 140 153 272 0 0
 -17 265 0 489 487 282 139 486 243 0 485 +15 489 889 0 282 490 0 17 282 0 489 26
5 150 44 491 273 0 486 +17 486 0 466 492 485 44 265 243 0 0 -17 492 0 466 493 48
6 154 48 254 0 0 -17 493 0 466 474 492 143 259 257 0 0 -17 48 0 494 491 158 44 4
92 254 0 282 +15 494 885 0 158 495 0 17 491 0 494 147 48 148 282 273 0 276 -17 1
58 0 494 48 147 154 496 277 0 259 +17 147 0 494 158 491 145 276 274 0 496 -17 49
6 0 497 160 259 145 158 277 0 280 -17 259 0 497 496 285 154 493 257 0 492 +15 49
7 881 0 285 498 0 17 285 0 497 259 160 143 488 268 0 493 +17 160 0 497 285 496 1
44 280 278 0 488 -17 488 0 438 142 156 144 285 268 0 267 -17 156 0 438 488 42 14
3 474 263 0 285 +17 267 0 499 280 271 144 142 256 0 0 +15 499 870 0 271 500 0 17
 280 0 499 276 267 145 160 278 0 0 +17 271 0 499 267 276 140 150 269 0 487 +17 2
76 0 499 271 280 148 147 274 0 0 +17 150 0 489 282 487 148 271 269 0 491 -14 255
 500 868 501 ?441 463 499 6 502 -0 0 441 463 24 81 1 501 1728 503 500 504 0 0 50
5 506 14 441 874 505 ?498 500 438 6 507 -0 0 498 500 24 14 463 742 508 ?500 457
 461 6 509 -0 0 500 457 24 50 502 892 0 500 507 510 0 +.026 .008 -.02 0 -1 0 0 0
 -1 13 24 62 0 0 0 0 0 0 10 18 14 18 166 511 ?512 0 513 6 514 -0 0 512 0 24 81 1
 511 1731 503 18 515 0 508 516 517 14 512 164 516 ?518 18 519 6 520 -0 0 518 18
 24 15 513 165 0 521 18 0 51 255 514 174 0 18 520 522 0 -.026 .016 -.02 0 -1 0 .
004 0 0 -1 50 520 173 0 512 523 514 0 +.004 .016 -.024 0 0 1 1 0 0 54 522 427 0
 524 514 525 0 +.026 .014 -.004 0 -1 0 .002 .002 0 0 -1 14 524 376 526 ?527 528
 529 6 522 +0 0 527 528 24 51 525 426 0 528 522 530 0 +.028 .014 -.02 0 0 -1 .00
2 -1 0 0 14 528 374 531 ?524 532 533 6 525 +0 0 524 532 24 51 530 425 0 532 525
 534 0 +.026 .014 -.002 1 0 0 .002 0 0 -1 14 532 372 535 ?528 536 537 6 530 +0 0
 528 536 24 54 534 424 0 536 530 538 0 +.026 .014 -.02 0 -1 0 .002 .002 0 0 -1 1
4 536 370 539 ?532 540 541 6 534 +0 0 532 540 24 54 538 423 0 540 534 542 0 +.00
4 .014 -.004 0 -1 0 .002 .002 0 0 -1 14 540 368 543 ?536 544 545 6 538 +0 0 536
 544 24 51 542 422 0 544 538 21 0 +.026 .014 -.022 -1 0 0 .002 0 0 1 14 544 366
 546 ?540 547 548 6 542 +0 0 540 547 24 51 21 421 0 547 542 7 0 +.002 .014 -.02
 0 0 1 .002 1 0 0 14 547 364 549 ?544 20 550 6 21 +0 0 544 20 24 81 1 549 1739 5
03 547 551 0 546 552 553 14 20 362 552 ?547 459 554 6 7 +0 0 547 459 24 15 550 3
65 0 436 547 0 17 436 0 550 555 556 64 557 347 0 0 +17 555 0 550 558 436 67 66 4
08 0 432 -17 556 0 550 436 558 88 87 392 0 0 -17 557 0 554 559 560 88 436 347 0
 556 -15 554 363 0 561 20 0 17 559 0 554 561 557 91 90 390 0 435 -17 560 0 554 5
57 561 64 63 410 0 436 -17 561 0 554 560 559 61 435 433 0 562 -17 63 0 563 123 5
64 61 560 410 0 565 +15 563 161 0 564 518 0 17 123 0 563 352 63 121 565 380 0 34
9 +17 564 0 563 63 352 64 120 378 0 560 -17 565 0 519 60 349 61 123 380 0 561 -1
5 519 163 0 565 512 0 17 60 0 519 126 565 58 562 412 0 521 +17 349 0 519 565 126
 121 566 346 0 567 +17 126 0 519 349 60 124 521 382 0 566 +17 566 0 568 569 567
 124 349 346 0 345 -17 567 0 568 566 570 121 352 350 0 0 -15 568 85 0 569 459 0
 17 570 0 568 567 571 118 355 353 0 0 -17 352 0 563 564 123 118 567 350 0 570 +1
7 571 0 568 570 572 115 358 356 0 0 -17 355 0 573 574 120 115 570 353 0 571 +15
 573 159 0 574 575 0 17 574 0 573 66 355 67 117 376 0 555 -17 120 0 573 355 66 1
18 564 378 0 352 +17 66 0 573 120 574 64 555 408 0 564 +17 117 0 576 358 69 115
 574 376 0 355 +15 576 157 0 577 578 0 17 358 0 576 577 117 112 571 356 0 572 +1
7 69 0 576 117 577 67 579 406 0 574 +17 577 0 576 69 358 70 114 374 0 579 -17 57
9 0 545 580 432 70 69 406 0 426 -15 545 369 0 432 540 0 17 580 0 545 581 579 82
 426 424 0 582 -17 432 0 545 579 581 67 558 430 0 0 +17 426 0 537 583 582 70 580
 424 0 0 +15 537 373 0 426 532 0 17 583 0 537 584 426 73 72 404 0 403 -17 582 0
 537 426 584 82 81 396 0 0 -17 584 0 537 582 583 79 75 419 0 585 -17 81 0 469 40
0 84 79 582 396 0 584 +15 469 250 0 81 468 0 17 400 0 469 99 81 100 585 398 0 0
 +17 84 0 469 81 87 82 581 394 0 580 +17 87 0 469 84 90 85 556 392 0 558 +17 581
 0 545 432 580 85 84 394 0 0 -17 90 0 469 87 93 88 559 390 0 557 +17 558 0 550 5
56 555 85 432 430 0 581 -17 93 0 469 90 96 91 586 388 0 559 +17 96 0 469 93 99 9
4 587 386 0 586 +17 586 0 548 588 435 94 93 388 0 429 -15 548 367 0 435 544 0 17
 588 0 548 562 586 58 429 427 0 589 -17 435 0 548 586 562 91 561 433 0 0 +17 429
 0 541 587 589 94 588 427 0 0 +15 541 371 0 429 536 0 17 587 0 541 590 429 97 96
 386 0 423 -17 589 0 541 429 590 58 57 414 0 0 -17 590 0 541 589 587 55 423 421
 0 591 -17 57 0 513 105 521 55 589 414 0 592 +17 105 0 513 345 57 103 592 368 0
 367 +17 521 0 513 57 345 58 126 382 0 588 -17 592 0 593 78 367 55 105 368 0 590
 -15 593 151 0 592 594 0 17 78 0 593 108 592 76 591 416 0 595 +17 367 0 593 592
 108 103 596 365 0 569 +17 108 0 593 367 78 106 595 370 0 364 +17 596 0 568 597
 569 106 367 365 0 0 -17 569 0 568 596 566 103 345 343 0 0 -17 345 0 513 521 105
 124 569 343 0 0 +17 597 0 568 572 596 109 364 362 0 0 -17 572 0 568 571 597 112
 361 359 0 0 -17 364 0 598 595 111 106 597 362 0 596 +15 598 153 0 595 599 0 17
 595 0 598 403 364 76 108 370 0 600 -17 111 0 598 364 403 109 601 372 0 361 +17
 403 0 598 111 595 73 600 401 0 601 +17 601 0 602 72 361 73 111 372 0 0 -17 361
 0 602 601 114 109 572 359 0 597 +15 602 155 0 601 603 0 17 114 0 602 361 72 112
 577 374 0 358 +17 72 0 602 114 601 70 583 404 0 577 +14 603 156 604 ?599 578 60
2 6 605 -0 0 599 578 24 81 1 604 1741 503 603 606 0 552 607 608 14 599 154 607 ?
594 603 598 6 609 -0 0 594 603 24 14 578 158 610 ?603 575 576 6 611 -0 0 603 575
 24 50 605 169 0 603 609 611 0 +.004 .016 0 0 0 -1 -1 0 0 51 609 168 0 599 612 6
05 0 -.026 .016 -.004 0 -1 0 .004 0 0 -1 51 611 170 0 578 605 613 0 -.004 .016 -
.004 0 -1 0 .004 0 0 -1 50 613 171 0 575 611 523 0 +0 .016 -.004 1 0 0 0 0 -1 14
 575 160 614 ?578 518 573 6 613 -0 0 578 518 24 51 523 172 0 518 613 520 0 -.004
 .016 -.02 0 -1 0 .004 0 0 -1 14 518 162 615 ?575 512 563 6 523 -0 0 575 512 24
 81 1 615 1745 503 518 616 0 614 617 618 80 255 1 503 619 620 9000 1 1 1 1 1 1 1
 1 0 FFFFTFTFFFFFFF1 81 1 616 1599 621 518 0 615 622 623 624 81 1 614 1744 503 5
75 623 0 610 615 625 81 1 617 1746 503 594 626 0 615 627 628 82 255 1 618 790364
480 14 594 152 617 ?468 599 593 6 612 -0 0 468 599 24 81 1 626 1604 621 594 0 61
7 629 630 631 81 1 627 1747 503 527 632 0 617 633 634 82 1 628 789053760 14 527
 583 627 ?635 524 636 6 637 -0 0 635 524 24 81 1 632 1615 621 527 0 627 638 639
 640 81 1 633 1748 503 635 639 0 627 641 642 82 1 634 -1123942078 14 635 588 633
 ?643 527 644 6 645 +0 0 643 527 24 81 1 639 1616 621 635 0 633 632 646 647 81 1
 641 1749 503 643 646 0 633 648 649 82 1 642 -1125908158 14 643 565 641 ?650 635
 651 6 652 -0 0 650 635 24 81 1 646 1617 621 643 0 641 639 653 654 81 1 648 1750
 503 650 653 0 641 655 656 82 1 649 -1119944382 14 650 570 648 ?657 643 658 6 65
9 +0 0 657 643 24 81 1 653 1618 621 650 0 648 646 660 661 81 1 655 1751 503 657
 660 0 648 662 663 82 1 656 -1121910462 14 657 547 655 ?664 650 665 6 666 -0 0 6
64 650 24 81 1 660 1619 621 657 0 655 653 667 668 81 1 662 1752 503 664 667 0 65
5 669 670 82 1 663 -1116012222 14 664 552 662 ?671 657 672 6 673 +0 0 671 657 24
 81 1 667 1620 621 664 0 662 660 674 675 81 1 669 1753 503 671 674 0 662 676 677
 82 1 670 -1117978302 14 671 529 669 ?678 664 679 6 680 -0 0 678 664 24 81 1 674
 1621 621 671 0 669 667 681 682 81 1 676 1754 503 678 681 0 669 683 684 82 1 677
 -1112080062 14 678 534 676 ?447 671 685 6 686 +0 0 447 671 24 81 1 681 1622 621
 678 0 676 674 687 688 81 1 683 1755 503 459 689 0 676 690 691 82 1 684 -1114046
142 14 459 84 683 ?20 468 458 6 692 +0 0 20 468 24 81 1 689 1606 621 459 0 683 6
30 693 694 81 1 690 1756 503 498 695 0 683 696 697 82 1 691 787349828 14 498 878
 690 ?495 441 497 6 698 -0 0 495 441 24 81 1 695 1629 621 498 0 690 699 700 701
 81 1 696 1757 503 495 700 0 690 702 703 82 1 697 -875298448 14 495 882 696 ?490
 498 494 6 704 -0 0 490 498 24 81 1 700 1630 621 495 0 696 695 705 706 81 1 702
 1758 503 490 705 0 696 707 708 82 1 703 -874512016 14 490 886 702 ?451 495 489
 6 709 -0 0 451 495 24 81 1 705 1631 621 490 0 702 700 710 711 81 1 707 1759 503
 453 712 0 702 713 714 82 1 708 -874053264 14 453 734 707 ?457 447 452 6 510 -0
 0 457 447 24 81 1 712 1624 621 453 0 707 687 715 716 81 1 713 1760 503 451 710
 0 707 717 718 82 1 714 -379387534 14 451 1024 713 ?484 490 449 6 719 -0 0 484 4
90 24 81 1 710 1632 621 451 0 713 705 720 721 81 1 717 1761 503 468 630 0 713 72
2 723 82 1 718 -819527310 14 468 1 717 ?459 594 466 6 724 -0 0 459 594 24 81 1 6
30 1605 621 468 0 717 626 689 725 81 1 722 1762 503 447 687 0 717 726 727 82 1 7
23 -378863244 14 447 730 722 ?453 678 445 6 728 -0 0 453 678 24 81 1 687 1623 62
1 447 0 722 681 712 729 81 1 726 1763 503 457 715 0 722 730 731 82 1 727 -378601
100 14 457 738 726 ?463 453 455 6 732 -0 0 463 453 24 81 1 715 1625 621 457 0 72
6 712 733 734 81 1 730 1764 503 484 720 0 726 735 736 82 1 731 -378338956 14 484
 1292 730 ?737 451 29 6 738 -0 0 737 451 24 81 1 720 1633 621 484 0 730 710 739
 740 81 1 735 1765 503 737 739 0 730 741 742 82 1 736 -733806220 14 737 1262 735
 ?483 484 444 6 743 -207 207 483 484 24 81 1 739 1634 621 737 0 735 720 744 745
 81 1 741 1766 503 483 744 0 735 746 747 82 1 742 -712834700 14 483 1246 741 ?22
0 737 482 6 748 -220 220 220 737 24 81 1 744 1635 621 483 0 741 739 749 750 81 1
 746 1767 503 220 749 0 741 751 752 82 1 747 -709688972 14 220 1250 746 ?207 483
 212 6 748 -483 483 207 483 24 81 1 749 1636 621 220 0 746 744 753 754 81 1 751
 1768 503 207 753 0 746 755 756 82 1 752 -710213260 14 207 1265 751 ?216 220 202
 6 743 -737 737 216 220 24 81 1 753 1637 621 207 0 751 749 757 758 81 1 755 1769
 503 216 757 0 751 0 759 82 1 756 -713293452 14 216 1284 755 ?0 207 37 6 760 -0
 0 0 207 24 81 1 757 1638 621 216 0 755 753 0 761 82 1 759 -735051404 80 1 621 0
 762 8001 0 0 0 0 3 5 0 0 0 FFFFTFTFFFFFFF2 83 255 3 761 .694117647058824 .09803
92156862745 .0980392156862745 79 255 15 762 SDL/TYSA_COLOUR50 760 1300 0 216 738
 748 0 +.0221 -.0057351677194194 -.01175 1 0 0 0 0 -1 50 738 1302 0 484 0 760 0
 +.0079 -.0057351677194194 -.01175 -1 0 0 0 0 1 50 748 1299 0 483 760 743 0 +.00
79 -.0057351677194194 -.01075 0 0 1 1 0 0 50 743 1298 0 737 748 719 0 +.026 .009
5 -.02 0 -1 0 0 0 -1 50 719 1048 0 451 743 709 0 +.026 .0085 -.02 0 -1 0 0 0 -1
 50 709 896 0 490 719 704 0 +.0073 -.0154728794993046 -.01325 -1 0 0 0 0 1 50 70
4 895 0 495 709 698 0 +.0073 -.0154728794993046 -.01325 0 0 -1 -1 0 0 50 698 894
 0 498 704 507 0 +.0227 -.0154728794993046 -.01325 1 0 0 0 0 -1 50 507 893 0 441
 698 502 0 +.0073 -.0154728794993046 -.01175 0 0 1 1 0 0 83 3 758 .6941176470588
24 .0980392156862745 .0980392156862745 83 3 754 .694117647058824 .09803921568627
45 .0980392156862745 83 3 750 .694117647058824 .0980392156862745 .09803921568627
45 83 3 745 .694117647058824 .0980392156862745 .0980392156862745 15 444 1264 0 3
4 737 0 83 3 740 .694117647058824 .0980392156862745 .0980392156862745 81 1 733 1
626 621 463 0 508 715 504 763 83 3 734 .694117647058824 .0980392156862745 .09803
92156862745 81 1 508 1730 503 463 733 0 505 511 764 81 1 504 1627 621 500 0 501
 733 699 765 83 3 763 .694117647058824 .0980392156862745 .0980392156862745 81 1
 699 1628 621 441 0 505 504 695 766 83 3 765 .694117647058824 .0980392156862745
 .0980392156862745 81 1 505 1729 503 441 699 0 501 508 767 83 3 766 .69411764705
8824 .0980392156862745 .0980392156862745 82 1 767 -877788812 82 1 764 -107767366
0 50 732 756 0 457 510 509 0 +.0205 -1000000000001e-18 -.0095 1 0 11564823173178
7e-29 115648231731787e-29 0 -1 50 510 757 0 453 502 732 0 +.0095 -1000000000001e
-18 -.0095 0 0 -1 -1 0 0 50 509 755 0 463 732 728 0 +.0095 -1000000000001e-18 -.
0065 0 0 1 1 0 0 50 728 754 0 447 509 659 0 +.0095 -1000000000001e-18 -.0095 -1
 0 578241158658936e-30 578241158658936e-30 0 1 50 659 613 0 650 728 652 0 +.026
 .007 -.004 0 -1 0 0 0 -1 51 652 611 0 643 659 673 0 +.026 .007 -.004 0 -1 0 9e-
4 0 0 -1 50 673 610 0 664 652 666 0 +.026 .007 -.02 0 -1 0 0 0 -1 51 666 608 0 6
57 673 686 0 +.026 .007 -.02 0 -1 0 9e-4 0 0 -1 50 686 607 0 678 666 680 0 +.004
 .007 -.02 0 -1 0 0 0 -1 51 680 605 0 671 686 645 0 +.004 .007 -.02 0 -1 0 9e-4
 0 0 -1 50 645 604 0 635 680 637 0 +.004 .007 -.004 0 -1 0 0 0 -1 51 637 602 0 5
27 645 724 0 +.004 .007 -.004 0 -1 0 9e-4 0 0 -1 50 724 3 0 468 637 692 0 +.026
 .016 -.02 0 -1 0 0 0 -1 50 692 126 0 459 724 612 0 +.026 0 -.02 0 -1 0 0 0 -1 5
0 612 167 0 594 692 609 0 +.03 .016 -.004 -1 0 0 0 0 1 83 3 729 .694117647058824
 .0980392156862745 .0980392156862745 83 3 725 .694117647058824 .0980392156862745
 .0980392156862745 83 3 721 .694117647058824 .0980392156862745 .0980392156862745
 83 3 716 .694117647058824 .0980392156862745 .0980392156862745 83 3 711 .6941176
47058824 .0980392156862745 .0980392156862745 83 3 706 .694117647058824 .09803921
56862745 .0980392156862745 83 3 701 .694117647058824 .0980392156862745 .09803921
56862745 81 1 693 1607 621 20 0 552 689 551 768 83 3 694 .694117647058824 .09803
92156862745 .0980392156862745 81 1 552 1740 503 20 693 0 549 604 769 81 1 551 16
08 621 547 0 549 693 770 771 83 3 768 .694117647058824 .0980392156862745 .098039
2156862745 81 1 770 1609 621 544 0 546 551 772 773 83 3 771 .694117647058824 .09
80392156862745 .0980392156862745 81 1 546 1738 503 544 770 0 543 549 774 81 1 77
2 1610 621 540 0 543 770 775 776 83 3 773 .694117647058824 .0980392156862745 .09
80392156862745 81 1 543 1737 503 540 772 0 539 546 777 81 1 775 1611 621 536 0 5
39 772 778 779 83 3 776 .694117647058824 .0980392156862745 .0980392156862745 81
 1 539 1736 503 536 775 0 535 543 780 81 1 778 1612 621 532 0 535 775 781 782 83
 3 779 .694117647058824 .0980392156862745 .0980392156862745 81 1 535 1735 503 53
2 778 0 531 539 783 81 1 781 1613 621 528 0 531 778 638 784 83 3 782 .6941176470
58824 .0980392156862745 .0980392156862745 81 1 531 1734 503 528 781 0 526 535 78
5 81 1 638 1614 621 524 0 526 781 632 786 83 3 784 .694117647058824 .09803921568
62745 .0980392156862745 81 1 526 1733 503 524 638 0 516 531 787 83 3 786 .694117
647058824 .0980392156862745 .0980392156862745 81 1 516 1732 503 512 622 0 511 52
6 788 82 1 787 -1167064768 81 1 622 1598 621 512 0 516 515 616 789 82 1 788 7906
26624 81 1 515 1597 621 18 0 511 0 622 790 83 3 789 .694117647058824 .0980392156
862745 .0980392156862745 83 3 790 .694117647058824 .0980392156862745 .0980392156
862745 82 1 785 -1165491904 82 1 783 -1164312256 82 1 780 -1163198144 82 1 777 -
1162084032 82 1 774 -1160969920 82 1 769 -1158741696 83 3 688 .694117647058824 .
0980392156862745 .0980392156862745 15 685 536 0 334 678 0 17 334 0 685 334 334 0
 791 332 0 0 +17 791 0 679 791 791 0 334 332 0 0 -15 679 532 0 791 671 792 15 79
2 533 0 336 671 0 17 336 0 792 336 336 0 793 318 0 0 +17 793 0 460 793 793 0 336
 318 0 0 -15 460 518 0 793 459 794 15 794 512 0 795 459 796 17 795 0 794 795 795
 0 331 329 0 0 -15 796 506 0 797 459 798 17 797 0 796 797 797 0 325 323 0 0 -15
 798 500 0 799 459 568 17 799 0 798 799 799 0 342 322 0 0 -17 342 0 800 342 342
 0 799 322 0 0 +15 800 587 0 342 527 0 17 325 0 801 325 325 0 797 323 0 0 +15 80
1 569 0 325 643 0 17 331 0 802 331 331 0 795 329 0 0 +15 802 551 0 331 657 0 83
 3 682 .694117647058824 .0980392156862745 .0980392156862745 83 3 675 .6941176470
58824 .0980392156862745 .0980392156862745 15 672 554 0 328 664 0 17 328 0 672 32
8 328 0 803 326 0 0 +17 803 0 665 803 803 0 328 326 0 0 -15 665 550 0 803 657 80
2 83 3 668 .694117647058824 .0980392156862745 .0980392156862745 83 3 661 .694117
647058824 .0980392156862745 .0980392156862745 15 658 572 0 321 650 0 17 321 0 65
8 321 321 0 804 319 0 0 +17 804 0 651 804 804 0 321 319 0 0 -15 651 568 0 804 64
3 801 83 3 654 .694117647058824 .0980392156862745 .0980392156862745 83 3 647 .69
4117647058824 .0980392156862745 .0980392156862745 15 644 590 0 339 635 0 17 339
 0 644 339 339 0 805 337 0 0 +17 805 0 636 805 805 0 339 337 0 0 -15 636 586 0 8
05 527 800 83 3 640 .694117647058824 .0980392156862745 .0980392156862745 81 1 62
9 1603 621 599 0 607 606 626 806 83 3 631 .694117647058824 .0980392156862745 .09
80392156862745 81 1 607 1742 503 599 629 0 604 610 807 81 1 606 1602 621 603 0 6
04 808 629 809 83 3 806 .694117647058824 .0980392156862745 .0980392156862745 81
 1 808 1601 621 578 0 610 623 606 810 83 3 809 .694117647058824 .098039215686274
5 .0980392156862745 81 1 610 1743 503 578 808 0 607 614 811 81 1 623 1600 621 57
5 0 614 616 808 812 83 3 810 .694117647058824 .0980392156862745 .098039215686274
5 83 3 812 .694117647058824 .0980392156862745 .0980392156862745 82 1 811 7898401
92 82 1 807 789315904 82 1 625 790102336 83 3 624 .694117647058824 .098039215686
2745 .0980392156862745 79 14 620 SWEntUnchanged82 1 608 789578048 17 600 0 529 1
02 75 76 403 401 0 813 -15 529 377 0 75 524 0 17 102 0 529 585 600 100 813 340 0
 814 +17 75 0 529 600 585 73 584 419 0 583 +17 813 0 533 591 814 76 102 340 0 0
 -15 533 375 0 423 528 0 17 591 0 533 423 813 55 78 416 0 0 -17 814 0 533 813 42
3 100 99 384 0 400 -17 423 0 533 814 591 97 590 421 0 0 +17 99 0 469 96 400 97 8
14 384 0 587 +17 585 0 529 75 102 79 400 398 0 0 -17 562 0 548 435 588 61 60 412
 0 0 -82 1 553 -1159855808 82 1 517 790888768 82 1 506 -888667792 17 474 0 466 4
0 493 28 156 263 0 0 -16 263 1120 0 ?156 260 243 258 260 260 1 17 40 0 466 221 4
74 191 35 41 0 0 -17 224 0 444 177 32 172 190 214 0 233 +17 32 0 444 224 34 188
 27 33 0 31 +17 177 0 444 34 224 175 233 231 0 437 -17 249 0 449 43 239 164 169
 240 0 442 +19 19 184 0 1 0 10 6 S0 50 17 1113 0 1 815 4 0 +.026 .0075 -.02 0 -1
 0 0 0 -1 50 815 957 0 1 816 17 0 +.026 .0075 -.02 0 -1 0 0 0 -1 50 816 955 0 1
 817 815 0 +.026 .0075 -.02 0 -1 0 0 0 -1 50 817 818 0 1 818 816 0 +.026 .008 -.
02 0 -1 0 0 0 -1 50 818 816 0 1 819 817 0 +.026 .008 -.02 0 -1 0 0 0 -1 50 819 8
15 0 1 820 818 0 +.026 .008 -.02 0 -1 0 0 0 -1 50 820 814 0 1 0 819 0 +.026 .008
 -.02 0 -1 0 0 0 -1 74 4 CI16 index_map_offset0 0 1 dCCZ20 16 9 0 0 821 822 755
 823 824 825 14 757 2 0 0 0 0 0 0 0 0 0 0 0 81 2 821 224 826 1 0 822 0 0 0 827 8
1 2 822 228 828 1 821 823 0 0 0 829 81 2 823 800 830 1 822 824 0 0 0 0 81 1 824
 1371 831 1 823 825 0 0 832 81 2 825 1415 833 1 824 14 0 0 834 0 81 2 14 1596 83
5 1 825 2 0 0 0 836 80 2 835 837 838 9000 0 0 0 0 3 5 0 0 0 FFTFFFFFFFFFFF9 1 82
 1 836 1 79 24 838 BODY_IN_LIGHTWEIGHT_PERM80 2 833 839 840 8004 0 0 0 0 3 5 0 0
 0 FFTFFFFFFFFFFF2 3 83 1 834 78e2 79 16 840 SDL/TYSA_DENSITY80 1 831 841 842 90
00 1 1 1 1 1 1 1 1 0 FFTFFFFFFFFFFF1 82 1 832 648915 79 10 842 BODY_MATCH80 2 83
0 843 844 9000 0 0 0 0 3 5 0 0 0 FFTFFFFFFFFFFF9 1 79 16 844 BODY_RECIPE_200180
 2 828 845 846 9000 0 0 0 0 3 5 0 0 0 FFTFFFFFFFFFFF9 1 82 1 829 189 79 30 846 L
AST_BODY_MODIFYING_FEATURE_ID80 2 826 847 848 9000 0 0 0 0 3 5 0 0 0 FFTFFFFFFFF
FFT9 1 82 1 827 319 79 19 848 ENT_TIME_STAMP_200180 2 13 849 850 9000 0 0 0 0 3
 5 0 0 0 FFTFFFFFFFFFFF9 1 82 1 15 111 79 12 850 ATOM_ID_20011 0 
