**ABCDEFGHIJKLMNOPQRSTUVWXYZabcdefghijklmnopqrstuvwxyz**************************
**PARASOLID !"#$%&'()*+,-./:;<=>?@[\]^_`{|}~0123456789**************************
**PART1;
MC=AMD64;
MC_MODEL=Intel64 Family 6 Model 60 Stepping 3, GenuineIntel;
MC_ID=unknown;
OS=Windows_NT;
OS_RELEASE=unknown;
FRU=Parasolid Version 31.1, build 290,  3- 9-2020;
APPL=SOLIDWORKS 2020-2020196;
SITE=;
USER=unknown;
FORMAT=text;
GUISE=transmit;
KEY=PMODENC_bed;
FILE=PMODENC_bed.x_t;
DATE=Sun Jul 31 13:27:57 2022;
**PART2;
SCH=SCH_3101290_31100;
USFLD_SIZE=0;
**PART3;
**END_OF_HEADER*****************************************************************
T51 : TRANSMIT FILE created by modeller version 310129023 SCH_3101290_31100_1300
6222 0 12 34 CCCCCCI4 mesh1006 0 I8 polyline1008 0 CCCCCCCDI5 owner1040 0 CCCCCC
I13 boundary_mesh1006 0 I17 boundary_polyline1008 0 CCCA16 index_map_offset0 0 1
 dA9 index_map82 0 A17 node_id_index_map82 0 A20 schema_embedding_map82 0 A5 chi
ld12 0 A14 lowest_node_id0 0 1 dA16 mesh_offset_data206 0 Z1 1553 2 3 4 0 0 0 0
 0 1e3 1e-8 0 5 0 1 0 1 1 6 7 8 9 0 0 10 11 12 0 0 0 0 0 0 0 81 255 2 2 1513 13
 1 14 0 0 0 0 15 70 11 CI9 list_type0 0 1 uI10 notransmit0 0 1 lCCCDCCDI12 finge
r_index0 0 1 dI12 finger_block1012 0 CZ3 0 4 T1 0 0 9 20 1 16 16 50 255 4 1048 0
 1 17 0 0 +.026 .0047 -.02 0 -1 0 0 0 -1 13 255 6 183 0 1 0 18 0 0 19 0 54 255 7
 420 0 20 21 0 0 +.004 .018 -.02 0 -1 0 .002 .002 0 0 -1 30 255 8 830 0 11 22 0
 0 +.023 .008 -.0114 0 0 -1 29 255 9 1054 0 12 23 0 .007 .02 -.013 19 8 CCCCCCCA
5 owner12 0 Z10 61 0 1 19 0 24 V0 16 255 11 828 0 ?25 0 26 8 0 0 1 18 255 12 105
2 0 27 0 28 9 ?1 17 255 27 0 29 30 31 12 32 33 0 34 +18 28 824 0 35 12 36 23 ?1
 17 35 0 37 38 39 28 40 41 0 42 -18 36 684 0 43 28 44 45 ?1 29 23 826 0 28 45 9
 .023 .008 -.011 29 45 686 0 36 46 23 .007 .02 -.0084 29 46 663 0 44 47 45 .023
 0 -.0084 18 44 661 0 48 36 49 46 ?1 29 47 338 0 49 50 46 .03 .018 -.02 18 49 33
6 0 51 44 52 47 ?1 29 50 330 0 52 53 47 .026 .018 -.024 18 52 328 0 54 49 55 50
 ?1 29 53 322 0 55 56 50 .004 .018 -.024 18 55 320 0 57 52 58 53 ?1 29 56 314 0
 58 59 53 -867361737988404e-33 .018 -.02 18 58 312 0 60 55 61 56 ?1 29 59 306 0
 61 62 56 0 .018 -.004 18 61 304 0 63 58 64 59 ?1 29 62 298 0 64 65 59 .004 .018
 0 18 64 296 0 66 61 67 62 ?1 29 65 290 0 67 68 62 .026 .018 0 18 67 288 0 69 64
 70 65 ?1 29 68 287 0 70 71 65 .03 .018 -.004 18 70 285 0 72 67 73 68 ?1 29 71 2
78 0 73 74 68 .026 .02 -.002 18 73 276 0 75 70 76 71 ?1 29 74 274 0 76 77 71 .00
4 .02 -.002 18 76 272 0 78 73 79 74 ?1 29 77 270 0 79 80 74 .002 .02 -.004 18 79
 268 0 81 76 82 77 ?1 29 80 266 0 82 83 77 .002 .02 -.02 18 82 264 0 84 79 85 80
 ?1 29 83 262 0 85 86 80 .004 .02 -.022 18 85 260 0 87 82 88 83 ?1 29 86 258 0 8
8 89 83 .026 .02 -.022 18 88 256 0 90 85 91 86 ?1 29 89 254 0 91 92 86 .028 .02
 -.02 18 91 252 0 93 88 94 89 ?1 29 92 251 0 94 95 89 .028 .02 -.004 18 94 249 0
 96 91 97 92 ?1 29 95 135 0 97 98 92 .03 0 -.02 18 97 118 0 99 94 100 95 ?1 29 9
8 136 0 100 101 95 .03 0 -.004 18 100 119 0 102 97 103 98 ?1 29 101 137 0 103 10
4 98 .026 0 0 18 103 120 0 105 100 106 101 ?1 29 104 138 0 106 107 101 .004 0 0
 18 106 121 0 108 103 109 104 ?1 29 107 139 0 109 110 104 0 0 -.004 18 109 122 0
 111 106 112 107 ?1 29 110 140 0 112 113 107 -867361737988404e-33 0 -.02 18 112
 123 0 114 109 115 110 ?1 29 113 141 0 115 116 110 .004 0 -.024 18 115 124 0 117
 112 118 113 ?1 29 116 142 0 118 119 113 .026 0 -.024 18 118 125 0 120 115 121 1
16 ?1 29 119 775 0 121 122 116 .023 .02 -.0084 18 121 725 0 123 118 124 119 ?1 2
9 122 777 0 124 125 119 .007 0 -.0114 18 124 726 0 126 121 127 122 ?1 29 125 778
 0 127 128 122 .023 0 -.0114 18 127 727 0 129 124 130 125 ?1 29 128 779 0 130 13
1 125 .007 0 -.0084 18 130 729 0 132 127 133 128 ?1 29 131 986 0 133 134 128 .00
7 .008 -.0114 18 133 917 0 135 130 136 131 ?1 29 134 987 0 136 137 131 .023 .008
 -.0114 18 136 918 0 138 133 139 134 ?1 29 137 990 0 139 140 134 .023 .02 -.011
 18 139 914 0 38 136 141 137 ?1 29 140 991 0 141 142 137 .007 .02 -.011 18 141 9
20 0 143 139 144 140 ?1 29 142 993 0 144 145 140 .007 .008 -.011 18 144 908 0 14
6 141 147 142 ?1 29 145 994 0 148 149 142 .0045 .008 -.011 18 148 909 0 150 151
 152 145 ?1 29 149 995 0 153 154 145 .0255 .008 -.013 18 153 911 0 155 152 156 1
49 ?1 29 154 996 0 156 157 149 .0045 .008 -.013 18 156 910 0 158 153 159 154 ?1
 29 157 997 0 147 160 154 .0045 .02 -.011 18 147 923 0 161 144 162 157 ?1 29 160
 998 0 151 163 157 .0255 .02 -.011 18 151 915 0 164 165 148 160 ?1 29 163 999 0
 165 166 160 .0255 .02 -.013 18 165 921 0 167 162 151 163 ?1 29 166 1000 0 162 1
68 163 .0045 .02 -.013 18 162 922 0 169 147 165 166 ?1 29 168 1001 0 152 170 166
 .0255 .008 -.011 18 152 916 0 40 148 153 168 ?1 29 170 1152 0 171 172 168 .007
 .0113 -.013 18 171 1105 0 173 174 175 170 ?1 29 172 1153 0 176 177 170 .023 .01
13 -.015 18 176 1103 0 178 175 179 172 ?1 29 177 1154 0 179 180 172 .007 .0113 -
.015 18 179 1102 0 181 176 0 177 ?1 29 180 1156 0 174 182 177 .023 .02 -.013 18
 174 1106 0 183 184 171 180 ?1 29 182 1157 0 184 185 180 .023 .02 -.015 18 184 1
107 0 186 159 174 182 ?1 29 185 1158 0 159 187 182 .007 .02 -.015 18 159 1108 0
 31 156 184 185 ?1 29 187 1159 0 175 0 185 .023 .0113 -.013 18 175 1104 0 188 17
1 176 187 ?1 17 188 0 189 183 190 175 191 192 0 193 -15 255 189 1123 0 183 194 0
 17 183 0 189 195 188 174 196 197 0 198 +17 190 0 189 188 195 176 186 199 0 191
 -17 191 0 200 201 193 176 188 192 0 0 +16 192 1096 0 ?191 199 197 202 0 0 1 17
 193 0 200 191 173 175 203 204 0 196 +15 200 1112 0 173 205 0 17 173 0 200 193 2
01 171 181 206 0 30 +17 203 0 207 34 196 171 193 204 0 0 -16 204 1094 0 ?193 197
 208 209 0 0 1 17 196 0 207 203 210 175 183 197 0 0 -15 207 955 0 210 211 0 17 2
10 0 207 196 167 174 212 213 0 0 +16 197 1095 0 ?183 192 204 214 0 0 1 30 214 11
41 0 197 215 216 0 +.023 -.0081245154965971 -.013 0 1 0 30 215 1142 0 199 217 21
4 0 +.023 -.0081245154965971 -.015 0 1 0 30 216 1140 0 218 214 219 0 +.007 -.008
1245154965971 -.013 0 1 0 16 218 1101 0 ?34 220 206 216 0 0 1 30 219 985 0 213 2
16 221 0 +.0045 .02 -.013 -1 0 0 16 213 887 0 ?210 41 222 219 222 222 1 30 221 9
84 0 223 219 224 0 +.0255 .02 -.013 0 0 -1 16 223 884 0 ?225 222 226 221 0 0 1 3
0 224 983 0 226 221 227 0 +.0045 .02 -.011 1 0 0 16 226 875 0 ?143 223 228 224 2
28 228 1 30 227 982 0 220 224 229 0 +.0045 .02 -.013 0 0 1 16 220 890 0 ?230 228
 218 227 0 0 1 30 229 981 0 231 227 232 0 +.0045 .008 -.011 1 0 0 16 231 893 0 ?
233 234 41 229 41 41 1 30 232 980 0 235 229 236 0 +.0045 .008 -.013 0 0 1 16 235
 906 0 ?237 238 239 232 0 0 1 30 236 979 0 240 232 241 0 +.0045 .008 -.013 -1 0
 0 16 240 904 0 ?242 239 243 236 0 0 1 30 241 978 0 244 236 245 0 +.0255 .008 -.
013 0 0 -1 16 244 902 0 ?246 243 234 241 0 0 1 30 245 977 0 239 241 247 0 +.0045
 -.021095023109729 -.013 0 1 0 16 239 905 0 ?248 235 240 245 0 0 1 30 247 976 0
 243 245 249 0 +.0255 -.021095023109729 -.013 0 1 0 16 243 903 0 ?167 240 244 24
7 0 0 1 30 249 975 0 234 247 250 0 +.0255 -.021095023109729 -.011 0 1 0 16 234 8
97 0 ?251 244 231 249 0 0 1 30 250 974 0 238 249 252 0 +.0045 -.021095023109729
 -.011 0 1 0 16 238 907 0 ?161 253 235 250 0 0 1 30 252 973 0 253 250 254 0 +.00
7 -1000000000001e-18 -.011 0 1 0 16 253 894 0 ?255 256 238 252 0 0 1 30 254 969
 0 256 252 257 0 +.007 .008 -.0114 -1 0 0 16 256 872 0 ?258 259 253 254 0 0 1 30
 257 968 0 259 254 260 0 +.007 .008 -.0114 578241158658936e-30 0 1 16 259 873 0
 ?261 262 256 257 0 0 1 30 260 771 0 262 257 263 0 +.023 0 -.0114 0 0 -1 16 262
 706 0 ?264 265 259 260 0 0 1 30 263 770 0 265 260 266 0 +.007 0 -.0114 -1 0 0 1
6 265 704 0 ?267 268 262 263 0 0 1 30 266 769 0 268 263 269 0 +.007 0 -.0114 578
241158658936e-30 0 1 16 268 702 0 ?270 271 265 266 0 0 1 30 269 768 0 271 266 27
2 0 +.007 .02 -.0114 578241158658936e-30 0 1 16 271 841 0 ?43 273 268 269 0 0 1
 30 272 767 0 273 269 274 0 +.007 .02 -.0084 1 0 0 16 273 713 0 ?275 276 271 272
 0 0 1 30 274 766 0 276 272 277 0 +.023 .02 -.0114 0 0 -1 16 276 716 0 ?278 279
 273 274 0 0 1 30 277 764 0 280 274 281 0 +.007 -1000000000001e-18 -.0114 0 1 0
 16 280 705 0 ?282 283 284 277 0 0 1 30 281 763 0 284 277 285 0 +.023 -100000000
0001e-18 -.0114 0 1 0 16 284 707 0 ?286 280 287 281 0 0 1 30 285 762 0 287 281 2
88 0 +.023 -1000000000001e-18 -.0084 0 1 0 16 287 709 0 ?123 284 279 285 0 0 1 3
0 288 761 0 279 285 289 0 +.007 -1000000000001e-18 -.0084 0 1 0 16 279 703 0 ?29
0 287 276 288 0 0 1 30 289 760 0 283 288 291 0 +.007 0 -.0084 1 0 0 16 283 708 0
 ?292 293 280 289 0 0 1 31 255 291 621 0 294 289 295 0 +.026 .007 -.004 0 -1 0 0
 0 -1 9e-4 16 294 559 0 ?296 297 298 291 0 0 1 31 295 620 0 298 291 299 0 +.026
 0 -.004 0 -1 0 0 0 -1 9e-4 16 298 562 0 ?300 294 301 295 0 0 1 31 299 619 0 301
 295 302 0 +.026 .007 -.02 0 -1 0 0 0 -1 9e-4 16 301 541 0 ?303 298 304 299 0 0
 1 31 302 618 0 304 299 305 0 +.026 0 -.02 0 -1 0 0 0 -1 9e-4 16 304 544 0 ?306
 301 307 302 0 0 1 31 305 617 0 307 302 308 0 +.004 .007 -.02 0 -1 0 0 0 -1 9e-4
 16 307 523 0 ?309 304 293 305 0 0 1 31 308 616 0 293 305 310 0 +.004 0 -.02 0 -
1 0 0 0 -1 9e-4 16 293 526 0 ?311 307 283 308 0 0 1 31 310 615 0 312 308 313 0 +
.004 .007 -.004 0 -1 0 0 0 -1 9e-4 16 312 577 0 ?314 315 297 310 0 0 1 31 313 61
4 0 297 310 316 0 +.004 0 -.004 0 -1 0 0 0 -1 9e-4 16 297 580 0 ?317 312 294 313
 0 0 1 31 316 134 0 318 313 319 0 +.026 0 -.02 0 1 0 0 0 -1 .004 16 318 114 0 ?3
20 321 322 316 0 0 1 30 319 133 0 321 316 323 0 +.004 0 -.024 -1 0 0 16 321 110
 0 ?324 325 318 319 0 0 1 31 323 132 0 325 319 326 0 +.004 0 -.02 0 1 0 0 0 -1 .
004 16 325 106 0 ?327 328 321 323 0 0 1 30 326 131 0 328 323 329 0 +0 0 -.004 0
 0 1 16 328 102 0 ?330 331 325 326 0 0 1 31 329 130 0 331 326 332 0 +.004 0 -.00
4 0 1 0 0 0 -1 .004 16 331 98 0 ?333 334 328 329 0 0 1 30 332 129 0 334 329 335
 0 +.004 0 0 1 0 0 16 334 94 0 ?336 337 331 332 0 0 1 31 335 128 0 337 332 338 0
 +.026 0 -.004 0 1 0 0 0 1 .004 16 337 90 0 ?339 340 334 335 0 0 1 30 338 127 0
 340 335 341 0 +.03 0 -.004 0 0 -1 16 340 86 0 ?342 343 337 338 0 0 1 30 341 175
 0 343 338 344 0 +.03 .02 -.02 0 -1 0 16 343 337 0 ?99 345 340 341 0 0 1 30 344
 176 0 345 341 346 0 +.03 .02 -.004 0 -1 0 16 345 286 0 ?102 347 343 344 0 0 1 3
0 346 177 0 347 344 348 0 +.026 .02 0 0 -1 0 16 347 289 0 ?105 349 345 346 0 0 1
 30 348 178 0 349 346 350 0 +.004 .02 0 0 -1 0 16 349 297 0 ?108 351 347 348 0 0
 1 30 350 179 0 351 348 352 0 +0 .02 -.004 0 -1 0 16 351 305 0 ?111 353 349 350
 0 0 1 30 352 180 0 353 350 354 0 +-867361737988404e-33 .02 -.02 0 -1 0 16 353 3
13 0 ?114 355 351 352 0 0 1 30 354 181 0 355 352 356 0 +.004 .02 -.024 0 -1 0 16
 355 321 0 ?117 357 353 354 0 0 1 30 356 182 0 357 354 358 0 +.026 .02 -.024 0 -
1 0 16 357 329 0 ?120 359 355 356 0 0 1 30 358 255 0 359 356 360 0 +.028 .02 -.0
2 0 0 -1 16 359 253 0 ?93 361 357 358 0 0 1 31 360 259 0 361 358 362 0 -.026 .02
 -.02 0 -1 0 0 0 -1 .002 16 361 257 0 ?90 363 359 360 0 0 1 30 362 263 0 363 360
 364 0 +.026 .02 -.022 -1 0 0 16 363 261 0 ?87 365 361 362 0 0 1 31 364 267 0 36
5 362 366 0 -.004 .02 -.02 0 -1 0 0 0 -1 .002 16 365 265 0 ?84 367 363 364 0 0 1
 30 366 271 0 367 364 368 0 +.002 .02 -.02 0 0 1 16 367 269 0 ?81 369 365 366 0
 0 1 31 368 275 0 369 366 370 0 -.004 .02 -.004 0 -1 0 0 0 -1 .002 16 369 273 0
 ?78 371 367 368 0 0 1 30 370 279 0 371 368 372 0 +.026 .02 -.002 1 0 0 16 371 2
77 0 ?75 373 369 370 0 0 1 31 372 282 0 373 370 374 0 -.026 .02 -.004 0 -1 0 0 0
 -1 .002 16 373 280 0 ?375 376 371 372 0 0 1 31 374 293 0 376 372 377 0 +.026 .0
18 -.004 0 -1 0 0 0 -1 .004 16 376 291 0 ?378 379 373 374 0 0 1 30 377 301 0 379
 374 380 0 -.004 .018 0 1 0 0 16 379 299 0 ?66 381 376 377 0 0 1 31 380 309 0 38
1 377 382 0 +.004 .018 -.004 0 -1 0 0 0 -1 .004 16 381 307 0 ?63 383 379 380 0 0
 1 30 382 317 0 383 380 384 0 -0 .018 -.004 0 0 1 16 383 315 0 ?60 385 381 382 0
 0 1 31 384 325 0 385 382 386 0 +.004 .018 -.02 0 -1 0 0 0 -1 .004 16 385 323 0
 ?57 387 383 384 0 0 1 30 386 333 0 387 384 388 0 -.004 .018 -.024 -1 0 0 16 387
 331 0 ?54 389 385 386 0 0 1 31 388 341 0 389 386 390 0 +.026 .018 -.02 0 -1 0 0
 0 -1 .004 16 389 339 0 ?51 391 387 388 0 0 1 30 390 346 0 391 388 392 0 -.03 .0
18 -.004 0 0 -1 16 391 344 0 ?72 26 389 390 0 0 1 31 392 435 0 315 390 393 0 +.0
28 .018 -.004 0 -693889390390724e-29 1 0 -1 -693889390390724e-29 .002 16 315 403
 0 ?96 394 312 392 0 0 1 31 393 434 0 394 392 395 0 +.026 .018 -.002 1 0 6938893
90390724e-29 693889390390724e-29 0 -1 .002 16 394 401 0 ?69 396 315 393 0 0 1 31
 395 433 0 396 393 397 0 +.028 .018 -.02 -693889390390722e-29 0 1 1 0 6938893903
90722e-29 .002 16 396 398 0 ?398 399 394 395 0 0 1 31 397 432 0 399 395 400 0 +.
004 .018 -.002 1 0 0 0 0 -1 .002 16 399 395 0 ?401 402 396 397 0 0 1 31 400 431
 0 402 397 403 0 +.026 .018 -.022 1 0 0 0 0 -1 .002 16 402 392 0 ?404 405 399 40
0 0 0 1 31 403 430 0 405 400 406 0 +.002 .018 -.004 -737257477290144e-29 0 1 1 0
 737257477290144e-29 .002 16 405 389 0 ?407 408 402 403 0 0 1 31 406 429 0 408 4
03 409 0 +.004 .018 -.022 1 0 737257477290143e-29 737257477290143e-29 0 -1 .002
 16 408 386 0 ?410 322 405 406 0 0 1 31 409 428 0 322 406 22 0 +.002 .018 -.02 0
 0 1 1 0 0 .002 16 322 383 0 ?411 318 408 409 0 0 1 30 22 827 0 26 409 8 0 +.023
 -1000000000001e-18 -.011 0 -1 0 16 26 825 0 ?412 11 391 22 0 0 1 17 412 0 413 2
5 278 28 38 26 0 0 +15 413 741 0 412 414 0 17 25 0 413 415 412 136 42 11 0 286 +
17 278 0 413 412 123 139 416 276 0 0 +17 38 0 37 164 35 139 412 26 0 417 -15 37
 937 0 164 418 0 17 164 0 37 39 38 151 417 228 0 251 +17 417 0 419 416 420 139 1
64 228 0 278 -15 419 682 0 421 422 423 17 416 0 419 424 417 121 278 276 0 0 -17
 420 0 419 417 212 151 225 223 0 0 -16 228 881 0 ?164 226 220 224 226 226 1 17 2
12 0 419 420 198 165 210 213 0 0 -17 225 0 425 426 251 165 420 223 0 212 +15 425
 951 0 251 427 0 17 426 0 425 428 225 153 167 243 0 246 -17 251 0 425 225 428 15
1 39 234 0 420 +17 428 0 425 251 426 152 246 244 0 39 -17 39 0 37 35 164 152 251
 234 0 0 -17 246 0 429 242 40 153 428 244 0 0 +15 429 926 0 138 430 0 17 242 0 4
29 237 246 156 155 240 0 0 +17 40 0 429 246 42 152 35 41 0 428 +17 42 0 429 40 1
38 28 25 11 0 412 -16 41 896 0 ?40 231 213 229 231 231 1 17 138 0 429 42 135 136
 258 256 0 25 -17 135 0 429 138 233 133 261 259 0 258 -17 258 0 431 432 286 133
 138 256 0 282 +15 431 737 0 286 433 0 17 432 0 431 129 258 124 282 280 0 267 -1
7 286 0 431 258 129 136 415 284 0 0 +17 282 0 434 261 126 133 432 280 0 0 +15 43
4 733 0 282 435 0 17 261 0 434 255 282 144 135 259 0 0 +17 126 0 434 282 436 124
 270 268 0 432 -17 436 0 434 126 43 130 290 279 0 270 -17 270 0 437 292 267 130
 126 268 0 0 +15 437 677 0 270 438 439 17 292 0 437 264 270 44 132 283 0 0 +17 2
67 0 437 270 264 124 129 265 0 0 +17 264 0 437 267 292 127 440 262 0 0 +17 129 0
 431 286 432 127 267 265 0 415 -17 415 0 413 440 25 127 286 284 0 264 -17 440 0
 413 123 415 44 264 262 0 292 -17 123 0 413 278 440 121 48 287 0 275 +17 48 0 44
1 132 275 44 123 287 0 440 -17 275 0 441 48 290 121 424 273 0 416 +15 441 745 0
 290 442 0 17 290 0 441 275 132 36 436 279 0 424 +17 424 0 419 443 416 36 275 27
3 0 0 -17 443 0 419 444 424 141 43 271 0 0 -17 444 0 419 445 443 147 143 226 0 0
 -17 43 0 434 436 255 36 443 271 0 290 +17 255 0 434 43 261 141 146 253 0 443 +1
7 146 0 446 150 143 144 255 253 0 233 -15 446 933 0 150 447 0 17 150 0 446 161 1
46 148 233 231 0 237 -17 143 0 446 146 161 141 444 226 0 255 +17 233 0 429 135 2
37 144 150 231 0 261 +17 237 0 429 233 242 148 158 235 0 448 +17 158 0 449 248 4
48 156 237 235 0 450 -17 448 0 449 158 230 148 161 238 0 0 -15 449 959 0 248 451
 0 17 230 0 449 448 248 147 445 220 0 444 +17 161 0 446 143 150 147 448 238 0 23
0 +17 248 0 449 230 158 162 450 239 0 445 +17 445 0 419 452 444 162 230 220 0 0
 -17 452 0 419 32 445 12 169 222 0 0 -17 32 0 419 421 452 159 27 33 0 0 -17 169
 0 207 450 34 162 452 222 0 248 +16 222 1053 0 ?169 213 223 219 213 213 1 17 450
 0 207 155 169 156 248 239 0 242 -17 34 0 207 169 203 12 30 218 0 452 +17 30 0 2
9 181 27 171 34 218 0 203 -15 29 1131 0 31 453 0 17 181 0 29 31 30 179 173 206 0
 454 -17 31 0 29 27 181 159 454 455 0 456 +16 206 1100 0 ?173 218 455 457 0 0 1
 17 454 0 458 178 456 179 31 455 0 201 -15 458 1127 0 186 459 0 17 178 0 458 186
 454 176 201 460 0 190 -17 456 0 458 454 186 159 421 208 0 32 +16 455 1099 0 ?31
 206 460 217 0 0 1 17 201 0 200 173 191 179 178 460 0 0 +16 460 1098 0 ?201 455
 199 461 0 0 1 16 199 1097 0 ?186 460 192 215 0 0 1 30 461 1145 0 460 457 202 0
 +.007 .0113 -.015 -1 0 0 30 457 1146 0 206 209 461 0 +.007 .0113 -.013 86736173
7988404e-30 0 1 30 202 1144 0 192 461 217 0 +.023 .0113 -.013 0 0 -1 30 217 1143
 0 455 202 215 0 +.007 -.0081245154965971 -.015 0 1 0 30 209 1147 0 204 462 457
 0 +.007 .0113 -.013 1 0 0 30 462 1148 0 33 463 209 0 +.007 .02 -.013 8673617379
88404e-30 0 1 16 33 1082 0 ?27 464 0 462 0 0 1 30 463 1150 0 464 465 462 0 +.023
 .02 -.013 0 0 -1 16 464 1088 0 ?195 208 33 463 0 0 1 30 465 1151 0 208 0 463 0
 +.007 .02 -.015 -1 0 0 16 208 1091 0 ?456 204 464 465 0 0 1 17 195 0 189 190 18
3 184 198 464 0 421 +17 198 0 419 212 421 174 195 464 0 210 -17 421 0 419 198 32
 184 456 208 0 0 -17 186 0 458 456 178 184 190 199 0 195 +14 255 459 1124 466 ?4
53 194 458 6 467 -0 0 453 194 24 81 1 466 1514 468 459 469 0 0 470 471 14 453 11
28 470 ?0 459 29 6 472 -0 0 0 459 24 14 194 1120 473 ?459 205 189 6 474 -0 0 459
 205 24 50 467 1137 0 459 472 474 0 +.007 -.0081245154965971 -.015 0 0 -1 -1 0 0
 13 24 62 0 0 0 0 0 0 10 18 14 18 166 475 ?476 0 477 6 478 -0 0 476 0 24 81 1 47
5 1517 468 18 479 0 473 480 481 14 476 164 480 ?482 18 483 6 484 -0 0 482 18 24
 15 477 165 0 485 18 0 51 255 478 174 0 18 484 486 0 -.026 .02 -.02 0 -1 0 .004
 0 0 -1 50 484 173 0 476 487 478 0 +.004 .02 -.024 0 0 1 1 0 0 54 486 427 0 488
 478 489 0 +.026 .018 -.004 0 -1 0 .002 .002 0 0 -1 14 488 376 490 ?491 492 493
 6 486 +0 0 491 492 24 51 489 426 0 492 486 494 0 +.028 .018 -.02 0 0 -1 .002 -1
 0 0 14 492 374 495 ?488 496 497 6 489 +0 0 488 496 24 51 494 425 0 496 489 498
 0 +.026 .018 -.002 1 0 0 .002 0 0 -1 14 496 372 499 ?492 500 501 6 494 +0 0 492
 500 24 54 498 424 0 500 494 502 0 +.026 .018 -.02 0 -1 0 .002 .002 0 0 -1 14 50
0 370 503 ?496 504 505 6 498 +0 0 496 504 24 54 502 423 0 504 498 506 0 +.004 .0
18 -.004 0 -1 0 .002 .002 0 0 -1 14 504 368 507 ?500 508 509 6 502 +0 0 500 508
 24 51 506 422 0 508 502 21 0 +.026 .018 -.022 -1 0 0 .002 0 0 1 14 508 366 510
 ?504 511 512 6 506 +0 0 504 511 24 51 21 421 0 511 506 7 0 +.002 .018 -.02 0 0
 1 .002 1 0 0 14 511 364 513 ?508 20 514 6 21 +0 0 508 20 24 81 1 513 1525 468 5
11 515 0 510 516 517 14 20 362 516 ?511 438 518 6 7 +0 0 511 438 24 15 514 365 0
 411 511 0 17 411 0 514 519 520 58 521 322 0 0 +17 519 0 514 522 411 61 60 383 0
 407 -17 520 0 514 411 522 82 81 367 0 0 -17 521 0 518 523 524 82 411 322 0 520
 -15 518 363 0 525 20 0 17 523 0 518 525 521 85 84 365 0 410 -17 524 0 518 521 5
25 58 57 385 0 411 -17 525 0 518 524 523 55 410 408 0 526 -17 57 0 527 117 528 5
5 524 385 0 529 +15 527 161 0 528 482 0 17 117 0 527 327 57 115 529 355 0 324 +1
7 528 0 527 57 327 58 114 353 0 524 -17 529 0 483 54 324 55 117 355 0 525 -15 48
3 163 0 529 476 0 17 54 0 483 120 529 52 526 387 0 485 +17 324 0 483 529 120 115
 530 321 0 531 +17 120 0 483 324 54 118 485 357 0 530 +17 530 0 532 533 531 118
 324 321 0 320 -17 531 0 532 530 534 115 327 325 0 0 -15 532 85 0 533 438 0 17 5
34 0 532 531 535 112 330 328 0 0 -17 327 0 527 528 117 112 531 325 0 534 +17 535
 0 532 534 536 109 333 331 0 0 -17 330 0 537 538 114 109 534 328 0 535 +15 537 1
59 0 538 539 0 17 538 0 537 60 330 61 111 351 0 519 -17 114 0 537 330 60 112 528
 353 0 327 +17 60 0 537 114 538 58 519 383 0 528 +17 111 0 540 333 63 109 538 35
1 0 330 +15 540 157 0 541 542 0 17 333 0 540 541 111 106 535 331 0 536 +17 63 0
 540 111 541 61 543 381 0 538 +17 541 0 540 63 333 64 108 349 0 543 -17 543 0 50
9 544 407 64 63 381 0 401 -15 509 369 0 407 504 0 17 544 0 509 545 543 76 401 39
9 0 546 -17 407 0 509 543 545 61 522 405 0 0 +17 401 0 501 547 546 64 544 399 0
 0 +15 501 373 0 401 496 0 17 547 0 501 548 401 67 66 379 0 378 -17 546 0 501 40
1 548 76 75 371 0 0 -17 548 0 501 546 547 73 69 394 0 549 -17 75 0 423 375 78 73
 546 371 0 548 +15 423 250 0 75 422 0 17 375 0 423 93 75 94 549 373 0 0 +17 78 0
 423 75 81 76 545 369 0 544 +17 81 0 423 78 84 79 520 367 0 522 +17 545 0 509 40
7 544 79 78 369 0 0 -17 84 0 423 81 87 82 523 365 0 521 +17 522 0 514 520 519 79
 407 405 0 545 -17 87 0 423 84 90 85 550 363 0 523 +17 90 0 423 87 93 88 551 361
 0 550 +17 550 0 512 552 410 88 87 363 0 404 -15 512 367 0 410 508 0 17 552 0 51
2 526 550 52 404 402 0 553 -17 410 0 512 550 526 85 525 408 0 0 +17 404 0 505 55
1 553 88 552 402 0 0 +15 505 371 0 404 500 0 17 551 0 505 554 404 91 90 361 0 39
8 -17 553 0 505 404 554 52 51 389 0 0 -17 554 0 505 553 551 49 398 396 0 555 -17
 51 0 477 99 485 49 553 389 0 556 +17 99 0 477 320 51 97 556 343 0 342 +17 485 0
 477 51 320 52 120 357 0 552 -17 556 0 557 72 342 49 99 343 0 554 -15 557 151 0
 556 558 0 17 72 0 557 102 556 70 555 391 0 559 +17 342 0 557 556 102 97 560 340
 0 533 +17 102 0 557 342 72 100 559 345 0 339 +17 560 0 532 561 533 100 342 340
 0 0 -17 533 0 532 560 530 97 320 318 0 0 -17 320 0 477 485 99 118 533 318 0 0 +
17 561 0 532 536 560 103 339 337 0 0 -17 536 0 532 535 561 106 336 334 0 0 -17 3
39 0 562 559 105 100 561 337 0 560 +15 562 153 0 559 563 0 17 559 0 562 378 339
 70 102 345 0 564 -17 105 0 562 339 378 103 565 347 0 336 +17 378 0 562 105 559
 67 564 376 0 565 +17 565 0 566 66 336 67 105 347 0 0 -17 336 0 566 565 108 103
 536 334 0 561 +15 566 155 0 565 567 0 17 108 0 566 336 66 106 541 349 0 333 +17
 66 0 566 108 565 64 547 379 0 541 +14 567 156 568 ?563 542 566 6 569 -0 0 563 5
42 24 81 1 568 1527 468 567 570 0 516 571 572 14 563 154 571 ?558 567 562 6 573
 -0 0 558 567 24 14 542 158 574 ?567 539 540 6 575 -0 0 567 539 24 50 569 169 0
 567 573 575 0 +.004 .02 0 0 0 -1 -1 0 0 51 573 168 0 563 576 569 0 -.026 .02 -.
004 0 -1 0 .004 0 0 -1 51 575 170 0 542 569 577 0 -.004 .02 -.004 0 -1 0 .004 0
 0 -1 50 577 171 0 539 575 487 0 +0 .02 -.004 1 0 0 0 0 -1 14 539 160 578 ?542 4
82 537 6 577 -0 0 542 482 24 51 487 172 0 482 577 484 0 -.004 .02 -.02 0 -1 0 .0
04 0 0 -1 14 482 162 579 ?539 476 527 6 487 -0 0 539 476 24 81 1 579 1531 468 48
2 580 0 578 581 582 80 255 1 468 583 584 9000 1 1 1 1 1 1 1 1 0 FFFFTFTFFFFFFF1
 81 1 580 1393 585 482 0 579 586 587 588 81 1 578 1530 468 539 587 0 574 579 589
 81 1 581 1532 468 558 590 0 579 591 592 82 255 1 582 1106641312 14 558 152 581
 ?422 563 557 6 576 -0 0 422 563 24 81 1 590 1398 585 558 0 581 593 594 595 81 1
 591 1533 468 491 596 0 581 597 598 82 1 592 1105330592 14 491 583 591 ?599 488
 600 6 601 -0 0 599 488 24 81 1 596 1409 585 491 0 591 602 603 604 81 1 597 1534
 468 599 603 0 591 605 606 82 1 598 1159659938 14 599 588 597 ?607 491 608 6 609
 +0 0 607 491 24 81 1 603 1410 585 599 0 597 596 610 611 81 1 605 1535 468 607 6
10 0 597 612 613 82 1 606 1157693858 14 607 565 605 ?614 599 615 6 616 -0 0 614
 599 24 81 1 610 1411 585 607 0 605 603 617 618 81 1 612 1536 468 614 617 0 605
 619 620 82 1 613 1163657634 14 614 570 612 ?621 607 622 6 623 +0 0 621 607 24 8
1 1 617 1412 585 614 0 612 610 624 625 81 1 619 1537 468 621 624 0 612 626 627 8
2 1 620 1161691554 14 621 547 619 ?628 614 629 6 630 -0 0 628 614 24 81 1 624 14
13 585 621 0 619 617 631 632 81 1 626 1538 468 628 631 0 619 633 634 82 1 627 11
67589794 14 628 552 626 ?635 621 636 6 637 +0 0 635 621 24 81 1 631 1414 585 628
 0 626 624 638 639 81 1 633 1539 468 635 638 0 626 640 641 82 1 634 1165623714 1
4 635 529 633 ?642 628 643 6 644 -0 0 642 628 24 81 1 638 1415 585 635 0 633 631
 645 646 81 1 640 1540 468 642 645 0 633 647 648 82 1 641 1171521954 14 642 534
 640 ?435 635 649 6 650 +0 0 435 635 24 81 1 645 1416 585 642 0 640 638 651 652
 81 1 647 1541 468 438 653 0 640 654 655 82 1 648 1169555874 14 438 84 647 ?20 4
22 437 6 656 +0 0 20 422 24 81 1 653 1400 585 438 0 647 594 657 658 81 1 654 154
2 468 442 659 0 647 660 661 82 1 655 1103626661 14 442 742 654 ?430 414 441 6 66
2 -0 0 430 414 24 81 1 659 1420 585 442 0 654 663 664 665 81 1 660 1543 468 430
 664 0 654 666 667 82 1 661 1205928357 14 430 924 660 ?447 442 429 6 668 -0 0 44
7 442 24 81 1 664 1421 585 430 0 660 659 669 670 81 1 666 1544 468 447 669 0 660
 671 672 82 1 667 247333309 14 447 930 666 ?418 430 446 6 673 -418 418 418 430 2
4 81 1 669 1422 585 447 0 666 664 674 675 81 1 671 1545 468 418 674 0 666 676 67
7 82 1 672 244842941 14 418 934 671 ?427 447 37 6 673 -447 447 427 447 24 81 1 6
74 1423 585 418 0 671 669 678 679 81 1 676 1546 468 427 678 0 671 680 681 82 1 6
77 244318653 14 427 948 676 ?211 418 425 6 682 -0 0 211 418 24 81 1 678 1424 585
 427 0 676 674 683 684 81 1 680 1547 468 451 685 0 676 686 687 82 1 681 22695161
3 14 451 956 680 ?205 211 449 6 688 -0 0 205 211 24 81 1 685 1426 585 451 0 680
 683 689 690 81 1 686 1548 468 422 594 0 680 691 692 82 1 687 228196797 14 422 1
 686 ?438 558 419 6 693 -0 0 438 558 24 81 1 594 1399 585 422 0 686 590 653 694
 81 1 691 1549 468 211 683 0 686 695 696 82 1 692 1093271999 14 211 952 691 ?451
 427 207 6 697 -0 0 451 427 24 81 1 683 1425 585 211 0 691 678 685 698 81 1 695
 1550 468 205 689 0 691 699 700 82 1 696 227738047 14 205 1110 695 ?194 451 200
 6 701 -0 0 194 451 24 81 1 689 1427 585 205 0 695 685 702 703 81 1 699 1551 468
 433 704 0 695 705 706 82 1 700 291766719 14 433 734 699 ?414 435 431 6 707 -0 0
 414 435 24 81 1 704 1418 585 433 0 699 651 663 708 81 1 705 1552 468 414 663 0
 699 709 710 82 1 706 1205666237 14 414 738 705 ?442 433 413 6 711 -0 0 442 433
 24 81 1 663 1419 585 414 0 705 704 659 712 81 1 709 1553 468 435 651 0 705 0 71
3 82 1 710 1205797309 14 435 730 709 ?433 642 434 6 714 -0 0 433 642 24 81 1 651
 1417 585 435 0 709 645 704 715 82 1 713 1206059453 80 1 585 0 716 8001 0 0 0 0
 3 5 0 0 0 FFFFTFTFFFFFFF2 83 255 3 715 .00784313725490196 .23921568627451 .8235
29411764706 79 255 15 716 SDL/TYSA_COLOUR50 714 754 0 435 662 623 0 +.007 -10000
00000001e-18 -.0114 -1 0 578241158658936e-30 578241158658936e-30 0 1 50 662 755
 0 442 711 714 0 +.007 -1000000000001e-18 -.0084 0 0 1 1 0 0 50 623 613 0 614 71
4 616 0 +.026 .007 -.004 0 -1 0 0 0 -1 51 616 611 0 607 623 637 0 +.026 .007 -.0
04 0 -1 0 9e-4 0 0 -1 50 637 610 0 628 616 630 0 +.026 .007 -.02 0 -1 0 0 0 -1 5
1 630 608 0 621 637 650 0 +.026 .007 -.02 0 -1 0 9e-4 0 0 -1 50 650 607 0 642 63
0 644 0 +.004 .007 -.02 0 -1 0 0 0 -1 51 644 605 0 635 650 609 0 +.004 .007 -.02
 0 -1 0 9e-4 0 0 -1 50 609 604 0 599 644 601 0 +.004 .007 -.004 0 -1 0 0 0 -1 51
 601 602 0 491 609 693 0 +.004 .007 -.004 0 -1 0 9e-4 0 0 -1 50 693 3 0 422 601
 656 0 +.026 .02 -.02 0 -1 0 0 0 -1 50 656 126 0 438 693 576 0 +.026 0 -.02 0 -1
 0 0 0 -1 50 576 167 0 558 656 573 0 +.03 .02 -.004 -1 0 0 0 0 1 50 711 756 0 41
4 707 662 0 +.023 -1000000000001e-18 -.0114 1 0 0 0 0 -1 50 707 757 0 433 668 71
1 0 +.007 -1000000000001e-18 -.0114 0 0 -1 -1 0 0 50 668 962 0 430 673 707 0 +.0
26 .008 -.02 0 -1 0 0 0 -1 50 673 963 0 447 682 668 0 +.0045 -.021095023109729 -
.011 0 0 1 1 0 0 50 682 964 0 427 697 673 0 +.0255 -.021095023109729 -.013 1 0 0
 0 0 -1 50 697 965 0 211 688 682 0 +.0045 -.021095023109729 -.013 0 0 -1 -1 0 0
 50 688 966 0 451 701 697 0 +.0045 -.021095023109729 -.013 -1 0 0 0 0 1 50 701 1
134 0 205 474 688 0 +.026 .0113 -.02 0 -1 0 0 0 -1 50 474 1136 0 194 467 701 0 +
.023 -.0081245154965971 -.013 1 0 0 0 0 -1 83 3 712 .00784313725490196 .23921568
627451 .823529411764706 83 3 708 .00784313725490196 .23921568627451 .82352941176
4706 81 1 702 1428 585 194 0 473 689 469 717 83 3 703 .00784313725490196 .239215
68627451 .823529411764706 81 1 473 1516 468 194 702 0 470 475 718 81 1 469 1429
 585 459 0 466 702 719 720 83 3 717 .00784313725490196 .23921568627451 .82352941
1764706 81 1 719 1430 585 453 0 470 469 0 721 83 3 720 .00784313725490196 .23921
568627451 .823529411764706 81 1 470 1515 468 453 719 0 466 473 722 83 3 721 .007
84313725490196 .23921568627451 .823529411764706 82 1 722 306381247 82 1 718 3051
36063 83 3 698 .00784313725490196 .23921568627451 .823529411764706 83 3 694 .007
84313725490196 .23921568627451 .823529411764706 83 3 690 .00784313725490196 .239
21568627451 .823529411764706 83 3 684 .00784313725490196 .23921568627451 .823529
411764706 83 3 679 .00784313725490196 .23921568627451 .823529411764706 83 3 675
 .00784313725490196 .23921568627451 .823529411764706 83 3 670 .00784313725490196
 .23921568627451 .823529411764706 83 3 665 .00784313725490196 .23921568627451 .8
23529411764706 81 1 657 1401 585 20 0 516 653 515 723 83 3 658 .0078431372549019
6 .23921568627451 .823529411764706 81 1 516 1526 468 20 657 0 513 568 724 81 1 5
15 1402 585 511 0 513 657 725 726 83 3 723 .00784313725490196 .23921568627451 .8
23529411764706 81 1 725 1403 585 508 0 510 515 727 728 83 3 726 .007843137254901
96 .23921568627451 .823529411764706 81 1 510 1524 468 508 725 0 507 513 729 81 1
 727 1404 585 504 0 507 725 730 731 83 3 728 .00784313725490196 .23921568627451
 .823529411764706 81 1 507 1523 468 504 727 0 503 510 732 81 1 730 1405 585 500
 0 503 727 733 734 83 3 731 .00784313725490196 .23921568627451 .823529411764706
 81 1 503 1522 468 500 730 0 499 507 735 81 1 733 1406 585 496 0 499 730 736 737
 83 3 734 .00784313725490196 .23921568627451 .823529411764706 81 1 499 1521 468
 496 733 0 495 503 738 81 1 736 1407 585 492 0 495 733 602 739 83 3 737 .0078431
3725490196 .23921568627451 .823529411764706 81 1 495 1520 468 492 736 0 490 499
 740 81 1 602 1408 585 488 0 490 736 596 741 83 3 739 .00784313725490196 .239215
68627451 .823529411764706 81 1 490 1519 468 488 602 0 480 495 742 83 3 741 .0078
4313725490196 .23921568627451 .823529411764706 81 1 480 1518 468 476 586 0 475 4
90 743 82 1 742 1116537248 81 1 586 1392 585 476 0 480 479 580 744 82 1 743 1106
903456 81 1 479 1391 585 18 0 475 0 586 745 83 3 744 .00784313725490196 .2392156
8627451 .823529411764706 83 3 745 .00784313725490196 .23921568627451 .8235294117
64706 82 1 740 1118110112 82 1 738 1119289760 82 1 735 1120403872 82 1 732 11215
17984 82 1 729 1122632096 82 1 724 1124860320 83 3 652 .00784313725490196 .23921
568627451 .823529411764706 15 649 536 0 309 642 0 17 309 0 649 309 309 0 746 307
 0 0 +17 746 0 643 746 746 0 309 307 0 0 -15 643 532 0 746 635 747 15 747 533 0
 311 635 0 17 311 0 747 311 311 0 748 293 0 0 +17 748 0 439 748 748 0 311 293 0
 0 -15 439 518 0 748 438 749 15 749 512 0 750 438 751 17 750 0 749 750 750 0 306
 304 0 0 -15 751 506 0 752 438 753 17 752 0 751 752 752 0 300 298 0 0 -15 753 50
0 0 754 438 532 17 754 0 753 754 754 0 317 297 0 0 -17 317 0 755 317 317 0 754 2
97 0 0 +15 755 587 0 317 491 0 17 300 0 756 300 300 0 752 298 0 0 +15 756 569 0
 300 607 0 17 306 0 757 306 306 0 750 304 0 0 +15 757 551 0 306 621 0 83 3 646 .
00784313725490196 .23921568627451 .823529411764706 83 3 639 .00784313725490196 .
23921568627451 .823529411764706 15 636 554 0 303 628 0 17 303 0 636 303 303 0 75
8 301 0 0 +17 758 0 629 758 758 0 303 301 0 0 -15 629 550 0 758 621 757 83 3 632
 .00784313725490196 .23921568627451 .823529411764706 83 3 625 .00784313725490196
 .23921568627451 .823529411764706 15 622 572 0 296 614 0 17 296 0 622 296 296 0
 759 294 0 0 +17 759 0 615 759 759 0 296 294 0 0 -15 615 568 0 759 607 756 83 3
 618 .00784313725490196 .23921568627451 .823529411764706 83 3 611 .0078431372549
0196 .23921568627451 .823529411764706 15 608 590 0 314 599 0 17 314 0 608 314 31
4 0 760 312 0 0 +17 760 0 600 760 760 0 314 312 0 0 -15 600 586 0 760 491 755 83
 3 604 .00784313725490196 .23921568627451 .823529411764706 81 1 593 1397 585 563
 0 571 570 590 761 83 3 595 .00784313725490196 .23921568627451 .823529411764706
 81 1 571 1528 468 563 593 0 568 574 762 81 1 570 1396 585 567 0 568 763 593 764
 83 3 761 .00784313725490196 .23921568627451 .823529411764706 81 1 763 1395 585
 542 0 574 587 570 765 83 3 764 .00784313725490196 .23921568627451 .823529411764
706 81 1 574 1529 468 542 763 0 571 578 766 81 1 587 1394 585 539 0 578 580 763
 767 83 3 765 .00784313725490196 .23921568627451 .823529411764706 83 3 767 .0078
4313725490196 .23921568627451 .823529411764706 82 1 766 1106117024 82 1 762 1105
592736 82 1 589 1106379168 83 3 588 .00784313725490196 .23921568627451 .82352941
1764706 79 14 584 SWEntUnchanged82 1 572 1105854880 17 564 0 493 96 69 70 378 37
6 0 768 -15 493 377 0 69 488 0 17 96 0 493 549 564 94 768 315 0 769 +17 69 0 493
 564 549 67 548 394 0 547 +17 768 0 497 555 769 70 96 315 0 0 -15 497 375 0 398
 492 0 17 555 0 497 398 768 49 72 391 0 0 -17 769 0 497 768 398 94 93 359 0 375
 -17 398 0 497 769 555 91 554 396 0 0 +17 93 0 423 90 375 91 769 359 0 551 +17 5
49 0 493 69 96 73 375 373 0 0 -17 526 0 512 410 552 55 54 387 0 0 -82 1 517 1123
746208 82 1 481 1107165600 50 472 1138 0 453 0 467 0 +.007 -.0081245154965971 -.
013 -1 0 867361737988403e-30 867361737988404e-30 0 1 82 1 471 305922495 17 155 0
 207 167 450 153 242 240 0 426 -17 167 0 207 210 155 165 426 243 0 225 +17 132 0
 441 290 48 130 292 283 0 436 -19 19 184 0 1 0 10 6 S0 50 17 1046 0 1 770 4 0 +.
026 .0047 -.02 0 -1 0 0 0 -1 50 770 817 0 1 771 17 0 +.026 .008 -.02 0 -1 0 0 0
 -1 50 771 815 0 1 772 770 0 +.026 .008 -.02 0 -1 0 0 0 -1 50 772 814 0 1 773 77
1 0 +.026 .008 -.02 0 -1 0 0 0 -1 50 773 813 0 1 0 772 0 +.026 .008 -.02 0 -1 0
 0 0 -1 74 4 CI16 index_map_offset0 0 1 dCCZ20 16 9 0 0 774 775 709 776 777 778
 14 719 2 0 0 0 0 0 0 0 0 0 0 0 81 2 774 224 779 1 0 775 0 0 0 780 81 2 775 228
 781 1 774 776 0 0 0 782 81 2 776 800 783 1 775 777 0 0 0 0 81 1 777 1177 784 1
 776 778 0 0 785 81 2 778 1219 786 1 777 14 0 0 787 0 81 2 14 1390 788 1 778 2 0
 0 0 789 80 2 788 790 791 9000 0 0 0 0 3 5 0 0 0 FFTFFFFFFFFFFF9 1 82 1 789 1 79
 24 791 BODY_IN_LIGHTWEIGHT_PERM80 2 786 792 793 8004 0 0 0 0 3 5 0 0 0 FFTFFFFF
FFFFFF2 3 83 1 787 78e2 79 16 793 SDL/TYSA_DENSITY80 1 784 794 795 9000 1 1 1 1
 1 1 1 1 0 FFTFFFFFFFFFFF1 82 1 785 999720 79 10 795 BODY_MATCH80 2 783 796 797
 9000 0 0 0 0 3 5 0 0 0 FFTFFFFFFFFFFF9 1 79 16 797 BODY_RECIPE_200180 2 781 798
 799 9000 0 0 0 0 3 5 0 0 0 FFTFFFFFFFFFFF9 1 82 1 782 210 79 30 799 LAST_BODY_M
ODIFYING_FEATURE_ID80 2 779 800 801 9000 0 0 0 0 3 5 0 0 0 FFTFFFFFFFFFFT9 1 82
 1 780 388 79 19 801 ENT_TIME_STAMP_200180 2 13 802 803 9000 0 0 0 0 3 5 0 0 0 F
FTFFFFFFFFFFF9 1 82 1 15 112 79 12 803 ATOM_ID_20011 0 
