**ABCDEFGHIJKLMNOPQRSTUVWXYZabcdefghijklmnopqrstuvwxyz**************************
**PARASOLID !"#$%&'()*+,-./:;<=>?@[\]^_`{|}~0123456789**************************
**PART1;
MC=AMD64;
MC_MODEL=Intel64 Family 6 Model 60 Stepping 3, GenuineIntel;
MC_ID=unknown;
OS=Windows_NT;
OS_RELEASE=unknown;
FRU=Parasolid Version 31.1, build 290,  3- 9-2020;
APPL=SOLIDWORKS 2020-2020196;
SITE=;
USER=unknown;
FORMAT=text;
GUISE=transmit;
KEY=Pmod_MAXSONAR_bed;
FILE=Pmod_MAXSONAR_bed.x_t;
DATE=Sun Jul 31 13:29:49 2022;
**PART2;
SCH=SCH_3101290_31100;
USFLD_SIZE=0;
**PART3;
**END_OF_HEADER*****************************************************************
T51 : TRANSMIT FILE created by modeller version 310129023 SCH_3101290_31100_1300
6222 0 12 34 CCCCCCI4 mesh1006 0 I8 polyline1008 0 CCCCCCCDI5 owner1040 0 CCCCCC
I13 boundary_mesh1006 0 I17 boundary_polyline1008 0 CCCA16 index_map_offset0 0 1
 dA9 index_map82 0 A17 node_id_index_map82 0 A20 schema_embedding_map82 0 A5 chi
ld12 0 A14 lowest_node_id0 0 1 dA16 mesh_offset_data206 0 Z1 1951 2 3 4 0 0 0 0
 0 1e3 1e-8 0 5 0 1 0 1 1 6 7 8 9 0 0 10 11 12 0 0 0 0 0 0 0 81 255 2 2 1903 13
 1 14 0 0 0 0 15 70 11 CI9 list_type0 0 1 uI10 notransmit0 0 1 lCCCDCCDI12 finge
r_index0 0 1 dI12 finger_block1012 0 CZ3 0 4 T1 0 0 9 20 1 16 16 50 255 4 748 0
 1 17 0 0 +.026 .018 -.02 0 -1 0 0 0 -1 13 255 6 183 0 1 0 18 0 0 19 0 51 255 7
 1414 0 20 21 0 22 +.026 .018 -.002 1 0 0 .002 0 0 -1 31 255 8 1423 0 23 24 0 0
 +.004 .018 -.002 -1 0 0 0 0 1 .002 29 255 9 1323 0 12 25 0 .03 .018 -.02 19 8 C
CCCCCCA5 owner12 0 Z10 61 0 1 19 0 26 V0 16 255 11 1329 0 ?27 0 28 29 0 0 1 18 2
55 12 1321 0 30 0 31 9 ?1 17 255 30 0 32 33 34 12 35 28 0 36 +18 31 1313 0 37 12
 38 25 ?1 17 37 0 39 40 41 31 42 43 0 34 +18 38 1305 0 44 31 45 46 ?1 29 25 1315
 0 31 46 9 .026 .018 -.024 29 46 1307 0 38 47 25 .004 .018 -.024 29 47 1299 0 45
 48 46 -867361737988404e-33 .018 -.02 18 45 1297 0 49 38 50 47 ?1 29 48 1291 0 5
0 51 47 0 .018 -.004 18 50 1289 0 52 45 53 48 ?1 29 51 1283 0 53 54 48 .03 .018
 -.004 18 53 1281 0 27 50 55 51 ?1 29 54 1260 0 55 56 51 .026 .018 0 18 55 1258
 0 57 53 58 54 ?1 29 56 1257 0 58 59 54 .004 .018 0 18 58 1255 0 60 55 61 56 ?1
 29 59 1254 0 61 62 56 .015 .018 0 18 61 1252 0 63 58 64 59 ?1 29 62 1245 0 64 6
5 59 .026 .02 -.002 18 64 1243 0 66 61 67 62 ?1 29 65 1239 0 67 68 62 .004 .02 -
.002 18 67 1237 0 69 64 70 65 ?1 29 68 1235 0 70 71 65 .002 .02 -.004 18 70 1233
 0 72 67 73 68 ?1 29 71 1231 0 73 74 68 .002 .02 -.02 18 73 1229 0 75 70 76 71 ?
1 29 74 1227 0 76 77 71 .004 .02 -.022 18 76 1225 0 78 73 79 74 ?1 29 77 1223 0
 79 80 74 .026 .02 -.022 18 79 1221 0 81 76 82 77 ?1 29 80 1219 0 82 83 77 .028
 .02 -.02 18 82 1217 0 84 79 85 80 ?1 29 83 1216 0 85 86 80 .028 .02 -.004 18 85
 1214 0 87 82 88 83 ?1 29 86 1213 0 88 89 83 .00990098048640722 .02 -.002 18 88
 1211 0 90 85 91 86 ?1 29 89 1210 0 91 92 86 .0200990195135928 .02 -.002 18 91 1
208 0 93 88 94 89 ?1 29 92 1111 0 94 95 89 .0200990195135928 .02 -.009 18 94 110
9 0 96 91 97 92 ?1 29 95 789 0 97 98 92 .0055 .018 -.012 18 97 787 0 99 94 100 9
5 ?1 29 98 770 0 100 101 95 .0245 .02 -.012 18 100 768 0 102 97 103 98 ?1 29 101
 754 0 103 104 98 .0055 .02 -.0135 18 103 752 0 105 100 106 101 ?1 29 104 565 0
 106 107 101 .0228 .0105 -.012 18 106 563 0 108 103 109 104 ?1 29 107 444 0 109
 110 104 .0072 .02 -.009 18 109 442 0 111 106 112 107 ?1 29 110 421 0 112 113 10
7 .0228 0 -.009 18 112 419 0 114 109 115 110 ?1 29 113 135 0 115 116 110 .03 0 -
.02 18 115 118 0 33 112 117 113 ?1 29 116 136 0 117 118 113 .03 0 -.004 18 117 1
19 0 119 115 120 116 ?1 29 118 137 0 120 121 116 .026 0 0 18 120 120 0 122 117 1
23 118 ?1 29 121 138 0 123 124 118 .004 0 0 18 123 121 0 125 120 126 121 ?1 29 1
24 139 0 126 127 121 0 0 -.004 18 126 122 0 128 123 129 124 ?1 29 127 140 0 129
 130 124 -867361737988404e-33 0 -.02 18 129 123 0 131 126 132 127 ?1 29 130 141
 0 132 133 127 .004 0 -.024 18 132 124 0 134 129 135 130 ?1 29 133 142 0 135 136
 130 .026 0 -.024 18 135 125 0 40 132 137 133 ?1 29 136 533 0 137 138 133 .0228
 .02 -.009 18 137 483 0 139 135 140 136 ?1 29 138 535 0 140 141 136 .0072 0 -.01
2 18 140 484 0 142 137 143 138 ?1 29 141 536 0 143 144 138 .0228 0 -.012 18 143
 485 0 145 140 146 141 ?1 29 144 537 0 146 147 141 .0072 0 -.009 18 146 487 0 14
8 143 149 144 ?1 29 147 693 0 149 150 144 .0072 .0105 -.012 18 149 633 0 151 146
 152 147 ?1 29 150 694 0 153 154 147 .005 .0105 -.012 18 153 631 0 155 156 157 1
50 ?1 29 154 695 0 158 159 150 .025 .0105 -.0135 18 158 630 0 160 157 161 154 ?1
 29 159 696 0 161 162 154 .005 .0105 -.0135 18 161 629 0 163 158 164 159 ?1 29 1
62 697 0 152 165 159 .005 .02 -.012 18 152 637 0 166 149 167 162 ?1 29 165 698 0
 156 168 162 .025 .02 -.012 18 156 632 0 169 170 153 165 ?1 29 168 699 0 170 171
 165 .025 .02 -.0135 18 170 635 0 172 167 156 168 ?1 29 171 700 0 167 173 168 .0
05 .02 -.0135 18 167 636 0 174 152 170 171 ?1 29 173 701 0 157 175 171 .025 .010
5 -.012 18 157 628 0 176 153 158 173 ?1 29 175 1024 0 164 177 173 .0072 .018 -.0
12 18 164 919 0 178 161 179 175 ?1 29 177 1025 0 179 180 175 .0228 .018 -.012 18
 179 907 0 181 164 182 177 ?1 29 180 1026 0 182 183 177 .0228 .018 -.011 18 182
 905 0 184 179 185 180 ?1 29 183 1027 0 185 186 180 .0072 .018 -.011 18 185 925
 0 187 182 188 183 ?1 29 186 1030 0 188 189 183 .0228 .02 -.011 18 188 926 0 190
 185 191 186 ?1 29 189 1031 0 191 192 186 .0072 .02 -.011 18 191 904 0 193 188 1
94 189 ?1 29 192 1032 0 194 195 189 .0245 .02 -.0135 18 194 915 0 196 191 197 19
2 ?1 29 195 1034 0 197 198 192 .0245 .018 -.0135 18 197 921 0 199 194 200 195 ?1
 29 198 1035 0 200 201 195 .0245 .018 -.012 18 200 908 0 202 197 203 198 ?1 29 2
01 1036 0 203 204 198 .0055 .02 -.012 18 203 912 0 205 200 206 201 ?1 29 204 103
9 0 206 207 201 .0055 .018 -.0135 18 206 909 0 208 203 209 204 ?1 29 207 1040 0
 210 211 204 .0055 .018 -.011 18 210 918 0 212 213 214 207 ?1 29 211 1041 0 215
 216 207 .0245 .018 -.0145 18 215 917 0 217 214 218 211 ?1 29 216 1042 0 218 219
 211 .0055 .018 -.0145 18 218 910 0 220 215 221 216 ?1 29 219 1043 0 209 222 216
 .0055 .02 -.011 18 209 913 0 223 206 224 219 ?1 29 222 1044 0 213 225 219 .0245
 .02 -.011 18 213 914 0 226 227 210 222 ?1 29 225 1045 0 227 228 222 .0245 .02 -
.0145 18 227 916 0 229 224 213 225 ?1 29 228 1046 0 224 230 225 .0055 .02 -.0145
 18 224 927 0 231 209 227 228 ?1 29 230 1047 0 214 232 228 .0245 .018 -.011 18 2
14 906 0 233 210 215 230 ?1 29 232 1187 0 221 0 230 .00990098048640721 .02 -.009
 18 221 1149 0 234 218 0 232 ?1 17 234 0 235 236 90 221 237 238 0 239 +15 255 23
5 1215 0 240 241 0 17 236 0 235 242 234 109 243 244 0 0 -17 90 0 235 234 69 88 2
45 246 0 237 +17 237 0 247 63 239 88 234 238 0 248 -16 238 1212 0 ?234 249 250 2
51 0 0 1 17 239 0 247 237 96 221 252 250 0 243 +15 247 1161 0 63 253 0 17 96 0 2
47 239 93 94 240 249 0 252 -17 252 0 254 139 243 94 239 250 0 255 -16 250 1138 0
 ?239 238 23 256 0 0 1 17 243 0 254 252 257 221 236 244 0 0 +15 254 503 0 243 25
8 0 17 257 0 254 243 148 109 259 260 0 236 +16 244 471 0 ?243 261 262 263 262 26
2 1 16 261 474 0 ?264 260 244 265 0 0 1 16 262 1110 0 ?139 244 266 263 244 244 1
 30 255 263 525 0 244 267 265 0 +.0072 .02 -.009 1 0 -222400445638052e-30 30 267
 526 0 266 268 263 0 +.0072 .02 -.012 867361737988402e-30 0 1 30 265 524 0 261 2
63 269 0 +.0228 .02 -.012 0 0 -1 30 269 522 0 270 265 271 0 +.0072 -100000000000
1e-18 -.012 0 1 0 16 270 463 0 ?272 273 274 269 0 0 1 30 271 521 0 274 269 275 0
 +.0228 -1000000000001e-18 -.012 0 1 0 16 274 465 0 ?276 270 277 271 277 277 1 3
0 275 520 0 278 271 279 0 +.0228 -1000000000001e-18 -.009 0 1 0 16 278 467 0 ?28
0 277 260 275 0 0 1 30 279 519 0 260 275 281 0 +.0072 -1000000000001e-18 -.009 0
 1 0 16 260 461 0 ?257 278 261 279 0 0 1 30 281 518 0 273 279 282 0 +.0072 0 -.0
09 1 0 -222400445638052e-30 16 273 466 0 ?283 284 270 281 0 0 1 31 282 379 0 285
 281 286 0 +.026 .007 -.004 0 -1 0 0 0 -1 9e-4 16 285 317 0 ?287 288 289 282 0 0
 1 31 286 378 0 289 282 290 0 +.026 0 -.004 0 -1 0 0 0 -1 9e-4 16 289 320 0 ?291
 285 292 286 0 0 1 31 290 377 0 292 286 293 0 +.026 .007 -.02 0 -1 0 0 0 -1 9e-4
 16 292 299 0 ?294 289 295 290 0 0 1 31 293 376 0 295 290 296 0 +.026 0 -.02 0 -
1 0 0 0 -1 9e-4 16 295 302 0 ?297 292 298 293 0 0 1 31 296 375 0 298 293 299 0 +
.004 .007 -.02 0 -1 0 0 0 -1 9e-4 16 298 281 0 ?300 295 284 296 0 0 1 31 299 374
 0 284 296 301 0 +.004 0 -.02 0 -1 0 0 0 -1 9e-4 16 284 284 0 ?302 298 273 299 0
 0 1 31 301 373 0 303 299 304 0 +.004 .007 -.004 0 -1 0 0 0 -1 9e-4 16 303 335 0
 ?305 306 288 301 0 0 1 31 304 372 0 288 301 307 0 +.004 0 -.004 0 -1 0 0 0 -1 9
e-4 16 288 338 0 ?308 303 285 304 0 0 1 31 307 134 0 306 304 309 0 +.026 0 -.02
 0 1 0 0 0 -1 .004 16 306 114 0 ?310 311 303 307 0 0 1 30 309 133 0 311 307 312
 0 +.004 0 -.024 -1 0 0 16 311 110 0 ?313 314 306 309 0 0 1 31 312 132 0 314 309
 315 0 +.004 0 -.02 0 1 0 0 0 -1 .004 16 314 106 0 ?316 317 311 312 0 0 1 30 315
 131 0 317 312 318 0 +0 0 -.004 0 0 1 16 317 102 0 ?319 320 314 315 0 0 1 31 318
 130 0 320 315 321 0 +.004 0 -.004 0 1 0 0 0 -1 .004 16 320 98 0 ?322 323 317 31
8 0 0 1 30 321 129 0 323 318 324 0 +.004 0 0 1 0 0 16 323 94 0 ?325 326 320 321
 0 0 1 31 324 128 0 326 321 327 0 +.026 0 -.004 0 1 0 0 0 1 .004 16 326 90 0 ?32
8 329 323 324 0 0 1 30 327 127 0 329 324 330 0 +.03 0 -.004 0 0 -1 16 329 86 0 ?
331 332 326 327 0 0 1 30 330 175 0 332 327 333 0 +.03 .02 -.02 0 -1 0 16 332 132
2 0 ?33 334 329 330 0 0 1 30 333 176 0 334 330 335 0 +.03 .02 -.004 0 -1 0 16 33
4 1282 0 ?119 336 332 333 0 0 1 30 335 177 0 336 333 337 0 +.026 .02 0 0 -1 0 16
 336 1259 0 ?122 338 334 335 0 0 1 30 337 178 0 338 335 339 0 +.004 .02 0 0 -1 0
 16 338 1256 0 ?125 340 336 337 0 0 1 30 339 179 0 340 337 341 0 +0 .02 -.004 0
 -1 0 16 340 1290 0 ?128 342 338 339 0 0 1 30 341 180 0 342 339 343 0 +-86736173
7988404e-33 .02 -.02 0 -1 0 16 342 1298 0 ?131 344 340 341 0 0 1 30 343 181 0 34
4 341 345 0 +.004 .02 -.024 0 -1 0 16 344 1306 0 ?134 346 342 343 0 0 1 30 345 1
82 0 346 343 347 0 +.026 .02 -.024 0 -1 0 16 346 1314 0 ?40 348 344 345 0 0 1 30
 347 758 0 348 345 349 0 +.0055 -.0200561711201316 -.0135 0 1 0 16 348 756 0 ?35
0 351 346 347 0 0 1 30 349 762 0 351 347 352 0 +.005 .018 -.0135 -1 0 0 16 351 7
60 0 ?353 354 348 349 0 0 1 30 352 765 0 354 349 355 0 +.0245 -.0200561711201316
 -.0135 0 -1 0 16 354 763 0 ?356 357 351 352 0 0 1 30 355 800 0 357 352 358 0 +.
0228 -1000000000001e-18 -.011 0 -1 0 16 357 798 0 ?359 360 354 355 0 0 1 30 358
 1220 0 360 355 361 0 +.028 .02 -.02 0 0 -1 16 360 1218 0 ?84 362 357 358 0 0 1
 31 361 1224 0 362 358 363 0 -.026 .02 -.02 0 -1 0 0 0 -1 .002 16 362 1222 0 ?81
 364 360 361 0 0 1 30 363 1228 0 364 361 365 0 +.026 .02 -.022 -1 0 0 16 364 122
6 0 ?78 366 362 363 0 0 1 31 365 1232 0 366 363 367 0 -.004 .02 -.02 0 -1 0 0 0
 -1 .002 16 366 1230 0 ?75 368 364 365 0 0 1 30 367 1236 0 368 365 369 0 +.002 .
02 -.02 0 0 1 16 368 1234 0 ?72 370 366 367 0 0 1 31 369 1240 0 370 367 371 0 -.
004 .02 -.004 0 -1 0 0 0 -1 .002 16 370 1238 0 ?69 246 368 369 0 0 1 30 371 1242
 0 246 369 372 0 +.026 .02 -.002 1 0 0 16 246 1241 0 ?90 373 370 371 0 0 1 31 37
2 1246 0 373 371 374 0 -.026 .02 -.004 0 -1 0 0 0 -1 .002 16 373 1244 0 ?87 375
 246 372 0 0 1 30 374 1249 0 375 372 376 0 +.026 .02 -.002 1 0 0 16 375 1247 0 ?
377 378 373 374 0 0 1 30 376 1263 0 378 374 379 0 -.004 .018 0 1 0 0 16 378 1261
 0 ?60 380 375 376 0 0 1 30 379 1268 0 380 376 381 0 -.004 .018 0 1 0 0 16 380 1
266 0 ?382 383 378 379 0 0 1 38 12 CCCCCCCCCCCA17 intersection_data204 0 Z381 12
73 0 383 379 384 0 +7 385 386 387 388 389 16 383 1271 0 ?63 390 380 381 0 0 1 38
 384 1278 0 390 381 391 0 +392 385 393 394 395 396 51 385 1176 0 253 0 397 398 +
.015 .0255 -.0302132034355964 0 0 1 .0075 1 0 0 40 255 7 386 0 1 7 .000355392178
2963735 .3628770350198315 ??.00990098048640722 .02 -.002 .00996855406388344 .019
9381161651886 -.00150633439431678 .01015782423653338 .0197725805221115 -.0010737
396194207 .01054829070489188 .0194640838017872 -.000637480781293555 .01128918726
07315 .01898234176915645 -.0002578735268154055 .0127533203472797 .01834441263500
665 -2987819238306605e-20 .015 .018 811546366478256e-32 41 3 CI8 term_use0 0 1 c
CZ1 387 L?.00990098048640722 .02 -.002 41 1 388 L?.015 .018 811546366478256e-32
 204 2 17 INTERSECTION_DATA17 Intersection data7 uv_type0 0 1 u6 values0 1 1 fT2
8 389 4 1.570796326794895 -.0160990195135928 3.96480463071567 .0282132034355964
 1.820206889138225 -.01603144593611655 3.977021851214065 .02870686904127965 2.05
2320068716485 -.0158421757634666 4.01054959637944 .0291394638161757 2.3202782661
38575 -.0154517092951081 4.076912262086165 .02957572265430285 2.6281592077133 -.
0147108127392685 4.194813043136095 .029955329908781 2.968523643155565 -.01324667
96527203 4.408160381818255 .03018332524321335 3.141592653589795 -.011 4.71238898
038469 .03021320343559645 14 255 253 1158 399 ?20 400 247 6 385 -0 0 20 400 26 5
0 397 998 0 400 385 401 0 +.0055 -.01931967908636165 -.0145 -1 0 0 0 0 1 141 255
 398 381 402 402 385 141 402 384 398 398 385 14 400 962 403 ?253 404 405 6 397 -
406 406 253 404 26 50 401 997 0 407 397 408 0 +.0055 -.01931967908636165 -.0145
 0 0 -1 -1 0 0 14 407 984 409 ?410 411 412 6 401 -0 0 410 411 26 50 408 996 0 41
0 401 413 0 +.0245 -.01931967908636165 -.0145 1 0 0 0 0 -1 14 410 954 414 ?415 4
07 416 6 408 -417 417 415 407 26 50 413 995 0 418 408 419 0 +.0055 -.01931967908
636165 -.011 0 0 1 1 0 0 14 418 928 420 ?404 421 422 6 413 -421 421 404 421 26 5
0 419 994 0 404 413 423 0 +.026 .018 -.02 0 -1 0 0 0 -1 14 404 936 424 ?400 418
 425 6 419 -415 411 400 418 26 50 423 674 0 426 419 427 0 +.005 -.02005617112013
16 -.0135 -1 0 0 0 0 1 14 426 664 428 ?406 429 430 6 423 -0 0 406 429 26 50 427
 673 0 429 423 431 0 +.005 -.0200561711201316 -.0135 0 0 -1 -1 0 0 14 429 660 43
2 ?426 433 434 6 427 -0 0 426 433 26 50 431 672 0 433 427 435 0 +.025 -.02005617
11201316 -.0135 1 0 0 0 0 -1 14 433 656 436 ?429 437 438 6 431 -0 0 429 437 26 5
0 435 671 0 439 431 440 0 +.005 -.0200561711201316 -.012 0 0 1 1 0 0 14 439 638
 441 ?442 258 443 6 435 -442 442 442 258 26 50 440 670 0 437 435 444 0 +.026 .01
05 -.02 0 -1 0 0 0 -1 14 437 646 445 ?433 442 446 6 440 -0 0 433 442 26 50 444 5
15 0 447 440 448 0 +.0072 -1000000000001e-18 -.012 -222400445638052e-30 0 -1 -1
 0 222400445638052e-30 14 447 492 449 ?450 451 452 6 444 -0 0 450 451 26 50 448
 514 0 450 444 453 0 +.0228 -1000000000001e-18 -.012 1 0 0 0 0 -1 14 450 496 454
 ?258 447 455 6 448 -0 0 258 447 26 50 453 513 0 258 448 456 0 +.0072 -100000000
0001e-18 -.009 222400445638052e-30 0 1 1 0 -222400445638052e-30 14 258 500 457 ?
439 450 254 6 453 -0 0 439 450 26 50 456 512 0 451 453 458 0 +.0072 -10000000000
01e-18 -.012 -1 0 867361737988402e-30 867361737988402e-30 0 1 14 451 488 459 ?44
7 460 461 6 456 -0 0 447 460 26 50 458 371 0 462 456 463 0 +.026 .007 -.004 0 -1
 0 0 0 -1 14 462 328 464 ?465 466 467 6 458 +0 0 465 466 26 51 463 369 0 466 458
 468 0 +.026 .007 -.004 0 -1 0 9e-4 0 0 -1 14 466 323 469 ?462 470 471 6 463 -0
 0 462 470 26 50 468 368 0 472 463 473 0 +.026 .007 -.02 0 -1 0 0 0 -1 14 472 31
0 474 ?475 465 476 6 468 +0 0 475 465 26 51 473 366 0 465 468 477 0 +.026 .007 -
.02 0 -1 0 9e-4 0 0 -1 14 465 305 478 ?472 462 479 6 473 -0 0 472 462 26 50 477
 365 0 460 473 480 0 +.004 .007 -.02 0 -1 0 0 0 -1 14 460 292 481 ?451 475 482 6
 477 +0 0 451 475 26 51 480 363 0 475 477 483 0 +.004 .007 -.02 0 -1 0 9e-4 0 0
 -1 14 475 287 484 ?460 472 485 6 480 -0 0 460 472 26 50 483 362 0 470 480 486 0
 +.004 .007 -.004 0 -1 0 0 0 -1 14 470 346 487 ?466 488 489 6 483 +0 0 466 488 2
6 51 486 360 0 488 483 490 0 +.004 .007 -.004 0 -1 0 9e-4 0 0 -1 14 488 341 491
 ?470 492 493 6 486 -0 0 470 492 26 50 490 3 0 241 486 494 0 +.026 .02 -.02 0 -1
 0 0 0 -1 14 241 1 495 ?492 496 235 6 490 -0 0 492 496 26 50 494 126 0 492 490 4
97 0 +.026 0 -.02 0 -1 0 0 0 -1 14 492 84 498 ?488 241 499 6 494 +0 0 488 241 26
 50 497 167 0 496 494 500 0 +.03 .02 -.004 -1 0 0 0 0 1 14 496 152 501 ?241 502
 503 6 497 -0 0 241 502 26 51 500 168 0 502 497 504 0 -.026 .02 -.004 0 -1 0 .00
4 0 0 -1 14 502 154 505 ?496 506 507 6 500 -0 0 496 506 26 50 504 169 0 506 500
 508 0 +.004 .02 0 0 0 -1 -1 0 0 14 506 156 509 ?502 510 511 6 504 -0 0 502 510
 26 51 508 170 0 510 504 512 0 -.004 .02 -.004 0 -1 0 .004 0 0 -1 14 510 158 513
 ?506 514 515 6 508 -0 0 506 514 26 50 512 171 0 514 508 516 0 +0 .02 -.004 1 0
 0 0 0 -1 14 514 160 517 ?510 518 519 6 512 -0 0 510 518 26 51 516 172 0 518 512
 520 0 -.004 .02 -.02 0 -1 0 .004 0 0 -1 14 518 162 521 ?514 522 523 6 516 -0 0
 514 522 26 50 520 173 0 522 516 524 0 +.004 .02 -.024 0 0 1 1 0 0 14 522 164 52
5 ?518 18 39 6 520 -0 0 518 18 26 51 524 174 0 18 520 392 0 -.026 .02 -.02 0 -1
 0 .004 0 0 -1 14 18 166 526 ?522 0 32 6 524 -0 0 522 0 26 51 392 1422 0 527 524
 528 529 +.026 .018 -.002 1 0 0 .002 0 0 -1 14 527 1362 530 ?0 531 532 6 392 +0
 0 0 531 26 54 255 528 1421 0 531 392 533 0 +.026 .018 -.004 0 -1 0 .002 .002 0
 0 -1 141 529 384 529 529 392 14 531 1360 534 ?527 535 536 6 528 +0 0 527 535 26
 51 533 1420 0 535 528 537 0 +.028 .018 -.02 0 0 -1 .002 -1 0 0 14 535 1358 538
 ?531 539 540 6 533 +0 0 531 539 26 54 537 1419 0 539 533 541 0 +.026 .018 -.02
 0 -1 0 .002 .002 0 0 -1 14 539 1356 542 ?535 543 544 6 537 +0 0 535 543 26 51 5
41 1418 0 543 537 545 0 +.026 .018 -.022 -1 0 0 .002 0 0 1 14 543 1354 546 ?539
 547 548 6 541 +0 0 539 547 26 54 545 1417 0 547 541 549 0 +.004 .018 -.02 0 -1
 0 .002 .002 0 0 -1 14 547 1352 550 ?543 551 552 6 545 +0 0 543 551 26 51 549 14
16 0 551 545 21 0 +.002 .018 -.02 0 0 1 .002 1 0 0 14 551 1350 553 ?547 554 555
 6 549 +0 0 547 554 26 54 21 1415 0 554 549 7 0 +.004 .018 -.004 0 -1 0 .002 .00
2 0 0 -1 14 554 1348 556 ?551 20 557 6 21 +0 0 551 20 26 81 1 556 1944 558 554 5
59 0 553 560 561 14 20 1346 560 ?554 253 562 6 7 +0 0 554 253 26 15 557 1349 0 5
63 554 0 13 26 62 0 0 0 0 0 0 10 18 17 563 0 557 564 565 67 566 23 0 0 +17 564 0
 557 567 563 70 69 370 0 568 -17 565 0 557 563 567 58 52 569 0 0 -17 566 0 562 5
70 245 58 563 23 0 565 -16 23 1370 0 ?563 250 571 8 0 0 1 16 571 1373 0 ?568 23
 572 24 0 0 1 17 568 0 555 573 574 70 567 571 0 0 +16 572 1376 0 ?575 571 576 57
7 0 0 1 31 24 1424 0 571 577 8 0 +.002 .018 -.004 737257477290143e-29 0 -1 -1 0
 -737257477290143e-29 .002 31 577 1425 0 572 578 24 0 +.002 .018 -.02 0 0 -1 -1
 0 0 .002 31 578 1426 0 576 579 577 0 +.004 .018 -.022 1 0 737257477290143e-29 7
37257477290143e-29 0 -1 .002 16 576 1379 0 ?580 572 581 578 0 0 1 31 579 1427 0
 581 582 578 0 +.026 .018 -.022 1 0 0 0 0 -1 .002 16 581 1382 0 ?583 576 584 579
 0 0 1 31 582 1428 0 584 585 579 0 +.028 .018 -.02 -693889390390722e-29 0 1 1 0
 693889390390722e-29 .002 16 584 1385 0 ?586 581 587 582 0 0 1 31 585 1429 0 587
 588 582 0 +.028 .018 -.004 0 -693889390390724e-29 1 0 -1 -693889390390724e-29 .
002 16 587 1388 0 ?589 584 590 585 0 0 1 31 588 1430 0 590 29 585 0 +.026 .018 -
.002 -1 -693889390390724e-29 -693889390390723e-29 693889390390724e-29 -1 0 .002
 16 590 1393 0 ?66 587 0 588 0 0 1 30 29 1331 0 11 591 588 0 -.03 .018 -.004 0 0
 -1 31 591 1326 0 28 592 29 0 +.026 .018 -.02 0 -1 0 0 0 -1 .004 16 28 1324 0 ?3
0 11 43 591 0 0 1 30 592 1318 0 43 593 591 0 -.004 .018 -.024 -1 0 0 16 43 1316
 0 ?37 28 594 592 0 0 1 31 593 1310 0 594 595 592 0 +.004 .018 -.02 0 -1 0 0 0 -
1 .004 16 594 1308 0 ?44 43 596 593 0 0 1 30 595 1302 0 596 597 593 0 -0 .018 -.
004 0 0 1 16 596 1300 0 ?49 594 569 595 0 0 1 31 597 1294 0 569 391 595 0 +.004
 .018 -.004 0 -1 0 0 0 -1 .004 16 569 1292 0 ?52 596 598 597 0 0 1 31 391 1286 0
 598 384 597 0 +.026 .018 -.004 0 -1 0 0 0 -1 .004 16 598 1284 0 ?57 569 390 391
 0 0 1 17 57 0 507 122 599 55 600 598 0 601 +16 390 1276 0 ?93 598 383 384 0 0 1
 17 93 0 247 96 63 91 602 390 0 240 +17 63 0 247 93 237 61 248 383 0 382 +17 602
 0 532 603 604 61 93 390 0 0 -17 240 0 235 377 255 91 96 249 0 604 +17 377 0 235
 87 240 64 604 375 0 0 +17 255 0 235 240 605 94 139 262 0 0 -16 249 1139 0 ?240
 606 238 607 0 0 1 17 604 0 532 602 66 91 377 375 0 0 -15 532 1363 0 602 527 0 1
7 66 0 532 604 603 64 608 590 0 609 +17 603 0 532 66 602 55 382 380 0 608 -17 60
8 0 536 600 609 55 66 590 0 0 -17 609 0 536 608 589 64 87 373 0 377 -15 536 1361
 0 589 531 0 17 589 0 536 609 600 85 610 587 0 0 +17 87 0 235 84 377 85 609 373
 0 611 +17 84 0 235 81 87 82 611 360 0 612 +17 611 0 540 610 586 85 84 360 0 589
 -15 540 1359 0 586 535 0 17 610 0 540 613 611 53 589 587 0 600 -17 586 0 540 61
1 613 82 614 584 0 0 +17 613 0 540 586 610 12 27 11 0 0 -17 614 0 544 35 612 12
 586 584 0 613 -15 544 1357 0 583 539 0 17 35 0 544 583 614 31 30 28 0 0 -17 612
 0 544 614 583 82 81 362 0 586 -17 583 0 544 612 35 79 615 581 0 0 +17 81 0 235
 78 84 79 612 362 0 616 +17 78 0 235 75 81 76 616 364 0 617 +17 616 0 548 615 58
0 79 78 364 0 583 -15 548 1355 0 580 543 0 17 615 0 548 42 616 31 583 581 0 35 -
17 580 0 548 616 42 76 618 576 0 0 +17 42 0 548 580 615 38 37 43 0 0 -17 618 0 5
52 619 617 38 580 576 0 42 -15 552 1353 0 575 547 0 17 619 0 552 575 618 45 44 5
94 0 0 -17 617 0 552 618 575 76 75 366 0 580 -17 575 0 552 617 619 73 620 572 0
 0 +17 75 0 235 72 78 73 617 366 0 573 +17 72 0 235 69 75 70 573 368 0 564 +17 5
73 0 555 620 568 73 72 368 0 575 -15 555 1351 0 568 551 0 17 620 0 555 574 573 4
5 575 572 0 619 -17 574 0 555 568 620 50 49 596 0 0 -17 49 0 519 131 621 45 574
 596 0 622 +15 519 159 0 621 514 0 17 131 0 519 319 49 129 622 342 0 316 +17 621
 0 519 49 319 50 128 340 0 567 -17 622 0 523 44 316 45 131 342 0 620 -15 523 161
 0 622 518 0 17 44 0 523 134 622 38 619 594 0 41 +17 316 0 523 622 134 129 623 3
14 0 624 +17 134 0 523 316 44 132 41 344 0 313 +17 623 0 625 626 624 132 316 314
 0 0 -17 624 0 625 623 627 129 319 317 0 0 -15 625 85 0 628 492 0 17 627 0 625 6
24 629 126 322 320 0 0 -17 319 0 519 621 131 126 624 317 0 627 +17 629 0 625 627
 630 123 325 323 0 0 -17 322 0 515 631 128 123 627 320 0 629 +15 515 157 0 631 5
10 0 17 631 0 515 52 322 58 125 338 0 566 -17 128 0 515 322 52 126 621 340 0 319
 +17 52 0 515 128 631 50 565 569 0 621 +17 125 0 511 325 60 123 631 338 0 322 +1
5 511 155 0 601 506 0 17 325 0 511 601 125 120 629 323 0 630 +17 60 0 511 125 38
2 58 570 378 0 631 +17 382 0 511 60 601 61 603 380 0 570 +17 570 0 562 248 566 6
1 60 378 0 602 -15 562 1347 0 248 20 0 17 248 0 562 245 570 88 63 383 0 0 -17 24
5 0 562 566 248 67 90 246 0 563 -17 601 0 511 382 325 55 122 336 0 603 -17 122 0
 507 328 57 120 601 336 0 325 +15 507 153 0 599 502 0 17 328 0 507 599 122 117 6
30 326 0 632 +17 599 0 507 57 328 53 119 334 0 610 -17 630 0 625 629 632 120 328
 326 0 0 -17 632 0 625 630 628 117 331 329 0 0 -17 628 0 625 632 626 115 310 306
 0 0 -17 331 0 503 36 119 115 632 329 0 628 +15 503 151 0 36 496 0 17 36 0 503 2
7 331 12 33 332 0 614 -17 119 0 503 331 27 117 599 334 0 328 +17 27 0 503 119 36
 53 613 11 0 599 +17 33 0 32 310 30 115 36 332 0 331 +15 32 165 0 34 18 0 17 310
 0 32 34 33 135 628 306 0 0 +17 34 0 32 30 310 31 40 346 0 615 -17 40 0 39 313 3
7 135 34 346 0 626 +15 39 163 0 41 522 0 17 313 0 39 41 40 132 626 311 0 623 +17
 626 0 625 628 623 135 313 311 0 310 -17 41 0 39 37 313 38 134 344 0 618 -17 567
 0 557 565 564 50 568 571 0 574 -17 69 0 235 90 72 67 564 370 0 245 +17 600 0 53
6 589 608 53 57 598 0 0 -16 606 859 0 ?223 633 249 634 633 633 1 30 607 1181 0 2
49 251 635 0 +.0200990195135928 .02 -.0302132034355964 0 0 1 30 251 1182 0 238 2
56 607 0 -.00990098048640722 .02 -.0302132034355964 0 0 1 30 635 1023 0 636 607
 637 0 +.0055 .02 -.0145 -1 0 0 16 636 877 0 ?638 639 640 635 0 0 1 30 637 1022
 0 640 635 641 0 +.0245 .02 -.0145 0 0 -1 16 640 867 0 ?102 636 642 637 642 642
 1 30 641 1021 0 643 637 634 0 +.0055 .02 -.011 1 0 0 16 643 854 0 ?193 642 644
 641 644 644 1 30 634 1020 0 633 641 645 0 +.0055 .02 -.0145 0 0 1 16 633 870 0
 ?105 644 606 634 606 606 1 30 645 1019 0 646 634 647 0 +.0055 .018 -.011 1 0 0
 16 646 844 0 ?648 649 639 645 639 639 1 30 647 1018 0 650 645 651 0 +.0055 .018
 -.0145 0 0 1 16 650 888 0 ?652 653 654 647 654 654 1 30 651 1017 0 655 647 656
 0 +.0055 .018 -.0145 -1 0 0 16 655 901 0 ?657 658 659 651 0 0 1 30 656 1016 0 6
60 651 661 0 +.0245 .018 -.0145 0 0 -1 16 660 880 0 ?662 659 663 656 663 663 1 3
0 661 1015 0 658 656 664 0 +.0055 -.01931967908636165 -.0145 0 1 0 16 658 902 0
 ?231 654 655 661 0 0 1 30 664 1014 0 659 661 665 0 +.0245 -.01931967908636165 -
.0145 0 1 0 16 659 884 0 ?666 655 660 664 0 0 1 30 665 1013 0 649 664 667 0 +.02
45 -.01931967908636165 -.011 0 1 0 16 649 848 0 ?668 663 646 665 0 0 1 30 667 10
12 0 653 665 669 0 +.0055 -.01931967908636165 -.011 0 1 0 16 653 887 0 ?670 671
 650 667 0 0 1 30 669 1011 0 671 667 672 0 +.0055 -.0200561711201316 -.012 0 -1
 0 16 671 885 0 ?673 674 653 669 0 0 1 30 672 1010 0 674 669 675 0 +.0245 -.0200
561711201316 -.012 0 1 0 16 674 881 0 ?676 677 671 672 0 0 1 30 675 1004 0 677 6
72 678 0 +.005 .018 -.012 1 0 0 16 677 852 0 ?679 680 674 675 0 0 1 30 678 1003
 0 680 675 681 0 +.0228 .018 -.012 0 0 -1 16 680 851 0 ?682 683 677 678 0 0 1 30
 681 1002 0 683 678 684 0 +.005 .018 -.012 1 0 0 16 683 849 0 ?685 686 680 681 0
 0 1 30 684 1001 0 686 681 687 0 +.0072 .018 -.012 867361737988402e-30 0 1 16 68
6 850 0 ?688 689 683 684 0 0 1 30 687 1000 0 689 684 690 0 +.0072 -1000000000001
e-18 -.011 0 1 0 16 689 845 0 ?691 692 686 687 0 0 1 30 690 689 0 693 687 694 0
 +.005 .02 -.0135 -1 0 0 16 693 616 0 ?695 696 697 690 697 697 1 30 694 688 0 69
8 690 699 0 +.025 .02 -.0135 0 0 -1 16 698 613 0 ?700 697 701 694 0 0 1 30 699 6
87 0 701 694 702 0 +.005 .02 -.012 1 0 0 16 701 604 0 ?703 698 704 699 704 704 1
 30 702 686 0 692 699 705 0 +.005 .02 -.0135 0 0 1 16 692 601 0 ?706 704 689 702
 0 0 1 30 705 685 0 707 702 708 0 +.005 .0105 -.012 1 0 0 16 707 596 0 ?709 710
 711 705 696 711 1 30 708 684 0 712 705 713 0 +.005 .0105 -.0135 0 0 1 16 712 62
4 0 ?714 715 716 708 0 0 1 30 713 683 0 717 708 718 0 +.005 .0105 -.0135 -1 0 0
 16 717 622 0 ?719 716 720 713 0 0 1 30 718 682 0 721 713 722 0 +.025 .0105 -.01
35 0 0 -1 16 721 620 0 ?723 720 710 718 0 0 1 30 722 681 0 716 718 724 0 +.005 -
.0200561711201316 -.0135 0 1 0 16 716 623 0 ?725 712 717 722 0 0 1 30 724 680 0
 720 722 726 0 +.025 -.0200561711201316 -.0135 0 1 0 16 720 621 0 ?172 717 721 7
24 0 0 1 30 726 679 0 710 724 727 0 +.025 -.0200561711201316 -.012 0 1 0 16 710
 600 0 ?728 721 707 726 0 0 1 30 727 678 0 715 726 729 0 +.005 -.020056171120131
6 -.012 0 1 0 16 715 625 0 ?166 730 712 727 0 0 1 30 729 676 0 730 727 731 0 +.0
072 -1000000000001e-18 -.012 0 1 0 16 730 597 0 ?732 733 715 729 0 0 1 30 731 52
9 0 733 729 734 0 +.0228 0 -.012 0 0 -1 16 733 464 0 ?735 736 730 731 0 0 1 30 7
34 528 0 736 731 268 0 +.0072 0 -.012 -1 0 222400445638052e-30 16 736 462 0 ?737
 738 733 734 0 0 1 30 268 527 0 738 734 267 0 +.0072 0 -.012 867361737988402e-30
 0 1 16 738 460 0 ?739 266 736 268 0 0 1 17 739 0 499 283 737 146 142 738 0 0 +1
6 266 806 0 ?111 262 738 267 0 0 1 17 111 0 461 259 691 109 242 266 0 257 +15 46
1 491 0 732 451 0 17 259 0 461 142 111 146 257 260 0 739 -17 691 0 461 111 688 1
91 187 689 0 242 +17 242 0 235 740 236 191 111 266 0 0 -17 740 0 235 741 242 209
 193 643 0 0 -17 741 0 235 742 740 203 223 606 0 703 -17 193 0 422 187 670 191 7
40 643 0 691 +15 422 931 0 743 418 0 17 187 0 422 743 193 185 691 689 0 648 -17
 670 0 422 193 743 209 744 653 0 740 +17 743 0 422 670 187 210 648 646 0 744 -17
 744 0 405 99 223 210 670 653 0 0 -15 405 965 0 223 400 0 17 99 0 405 205 744 97
 212 654 0 745 -17 223 0 405 744 205 209 741 606 0 670 +17 205 0 405 223 99 203
 673 671 0 741 -17 673 0 443 685 703 97 205 671 0 0 +15 443 641 0 673 439 0 17 6
85 0 443 151 673 164 745 683 0 732 +17 703 0 443 673 166 203 742 701 0 0 +17 166
 0 443 703 155 152 746 715 0 706 +17 742 0 235 747 741 152 703 701 0 0 -17 747 0
 235 748 742 167 706 692 0 0 -17 748 0 235 749 747 103 174 697 0 0 -17 706 0 430
 746 725 152 747 692 0 742 +15 430 667 0 725 426 0 17 746 0 430 163 706 153 166
 715 0 0 -17 725 0 430 706 163 167 750 716 0 747 +17 163 0 430 725 746 161 714 7
12 0 750 -17 750 0 434 160 174 161 725 716 0 719 -15 434 663 0 695 429 0 17 160
 0 434 172 750 158 719 717 0 751 -17 174 0 434 750 350 167 748 697 0 725 +17 719
 0 446 714 723 161 160 717 0 0 +15 446 648 0 714 437 0 17 714 0 446 709 719 153
 163 712 0 746 +17 723 0 446 719 176 158 752 721 0 0 +17 176 0 446 723 108 157 7
53 696 0 752 +17 752 0 438 728 751 157 723 721 0 754 -15 438 659 0 728 433 0 17
 728 0 438 700 752 156 754 710 0 755 +17 751 0 438 752 700 158 172 720 0 723 -17
 754 0 756 753 169 157 728 710 0 0 -15 756 645 0 757 442 0 17 753 0 756 757 754
 106 176 696 0 758 -17 169 0 756 754 676 156 759 704 0 728 +17 676 0 756 169 679
 100 202 674 0 759 +17 759 0 235 760 755 100 169 704 0 0 -16 704 769 0 ?169 701
 692 699 701 701 1 17 760 0 235 761 759 213 102 640 0 0 -17 755 0 235 759 762 15
6 700 698 0 0 -17 762 0 235 755 763 170 695 693 0 0 -17 700 0 438 751 728 170 75
5 698 0 762 +17 763 0 235 762 764 194 229 642 0 695 -17 695 0 434 356 172 194 76
2 693 0 0 +17 356 0 434 353 695 197 196 354 0 0 +17 172 0 434 695 160 170 751 72
0 0 700 +17 353 0 434 350 356 206 199 351 0 0 +17 196 0 765 229 766 194 356 354
 0 763 -15 765 961 0 229 417 0 17 229 0 765 767 196 227 763 642 0 666 +17 766 0
 765 196 767 197 217 663 0 356 -17 767 0 765 766 229 215 666 659 0 0 -17 217 0 7
68 657 199 215 766 663 0 769 +16 663 883 0 ?217 660 649 656 660 660 1 15 768 944
 0 217 411 0 17 657 0 768 652 217 218 769 655 0 0 +17 199 0 768 217 652 197 353
 351 0 766 -17 769 0 412 666 770 215 657 655 0 767 -15 412 987 0 666 407 0 17 66
6 0 412 638 769 227 767 659 0 764 +17 770 0 412 769 638 218 231 658 0 657 -17 63
8 0 412 770 666 224 764 636 0 749 +17 231 0 771 105 220 224 770 658 0 638 +15 77
1 969 0 220 406 0 17 105 0 771 208 231 103 749 633 0 350 +17 220 0 771 231 208 2
18 652 650 0 770 -17 208 0 771 220 105 206 350 348 0 652 -17 652 0 768 199 657 2
06 220 650 0 353 +17 350 0 434 174 353 103 208 348 0 748 +17 749 0 235 764 748 2
24 105 633 0 0 -17 764 0 235 763 749 227 638 636 0 0 -14 406 966 772 ?417 426 77
1 6 397 -400 400 417 426 26 81 1 772 1946 558 406 773 0 560 774 775 14 417 958 7
74 ?411 406 765 6 408 -410 410 411 406 26 81 1 774 1947 558 417 776 0 772 777 77
8 14 411 942 777 ?407 417 768 6 419 -404 415 407 417 26 81 1 777 1948 558 411 77
9 0 774 780 781 14 415 939 780 ?421 410 782 6 419 -411 404 421 410 26 81 1 780 1
949 558 415 783 0 777 784 785 14 421 932 784 ?418 415 786 6 413 -418 418 418 415
 26 15 782 941 0 233 415 0 17 233 0 782 662 184 214 787 639 0 788 +17 662 0 782
 181 233 200 788 660 0 679 +17 184 0 782 233 181 182 682 680 0 787 -17 787 0 786
 190 789 182 233 639 0 359 -16 639 847 0 ?233 646 636 645 646 646 1 17 788 0 416
 668 202 214 662 660 0 789 -15 416 957 0 788 410 0 17 668 0 416 102 788 213 789
 649 0 760 +17 202 0 416 788 102 200 676 674 0 662 -17 789 0 786 787 226 214 668
 649 0 0 -15 786 935 0 226 421 0 17 226 0 786 789 190 213 761 644 0 668 +17 190
 0 786 226 787 188 359 357 0 761 -17 761 0 235 605 760 188 226 644 0 264 -16 644
 864 0 ?226 643 633 641 643 643 1 17 605 0 235 255 761 137 264 261 0 0 -17 264 0
 455 359 280 188 605 261 0 0 +15 455 499 0 359 450 0 17 359 0 455 682 264 182 19
0 357 0 0 +17 280 0 455 264 790 137 114 278 0 605 +17 790 0 455 280 791 112 735
 733 0 283 -17 114 0 254 148 139 112 280 278 0 790 -17 148 0 254 257 114 146 283
 273 0 259 -17 139 0 254 114 252 137 255 262 0 280 +17 283 0 499 735 739 112 148
 273 0 0 +15 499 435 0 739 492 792 17 735 0 499 737 283 143 790 733 0 0 +17 737
 0 499 739 735 140 145 736 0 0 +17 145 0 452 276 793 143 737 736 0 791 -15 452 4
95 0 276 447 0 17 276 0 452 794 145 106 791 274 0 0 +17 793 0 452 145 794 140 27
2 270 0 737 -17 791 0 455 790 758 143 276 274 0 735 -17 758 0 455 791 682 106 75
7 277 0 276 -17 682 0 455 758 359 179 184 680 0 757 +17 757 0 756 679 753 179 75
8 277 0 0 +16 277 564 0 ?757 274 278 271 274 274 1 17 679 0 756 676 757 200 181
 677 0 0 +17 181 0 782 184 662 179 679 677 0 682 -17 794 0 452 793 276 149 108 7
11 0 272 -17 272 0 461 732 142 149 793 270 0 0 +17 732 0 461 688 272 164 151 730
 0 0 +17 142 0 461 272 259 140 739 738 0 793 -17 688 0 461 691 732 185 178 686 0
 0 +17 151 0 443 155 685 149 732 730 0 709 -17 155 0 443 166 151 153 709 707 0 7
14 -17 709 0 446 108 714 149 155 707 0 794 +17 108 0 446 176 709 106 794 711 0 7
53 +16 711 619 0 ?108 707 696 705 707 696 1 16 696 599 0 ?176 711 693 705 711 70
7 1 17 178 0 425 745 648 164 688 686 0 685 -15 425 938 0 745 404 0 17 745 0 425
 212 178 97 685 683 0 673 -17 648 0 425 178 212 185 743 646 0 688 +17 212 0 425
 648 745 210 99 654 0 743 +16 654 886 0 ?212 650 658 647 650 650 1 15 792 276 0
 795 492 796 17 795 0 792 795 795 0 302 284 0 0 -15 796 270 0 797 492 798 17 797
 0 796 797 797 0 297 295 0 0 -15 798 264 0 799 492 800 17 799 0 798 799 799 0 29
1 289 0 0 -15 800 258 0 801 492 625 17 801 0 800 801 801 0 308 288 0 0 -17 308 0
 802 308 308 0 801 288 0 0 +15 802 345 0 308 488 0 17 291 0 803 291 291 0 799 28
9 0 0 +15 803 327 0 291 466 0 17 297 0 804 297 297 0 797 295 0 0 +15 804 309 0 2
97 465 0 17 302 0 805 302 302 0 795 284 0 0 +15 805 291 0 302 475 0 17 102 0 416
 202 668 100 760 640 0 676 +81 1 784 1950 558 421 806 0 780 807 808 80 255 1 558
 809 810 9000 1 1 1 1 1 1 1 1 0 FFFFTFTFFFFFFF1 81 1 806 1792 811 421 0 784 783
 812 813 81 1 807 1951 558 442 814 0 784 0 815 82 255 1 808 277938425 14 442 642
 807 ?437 439 756 6 435 -439 439 437 439 26 81 1 814 1781 811 442 0 807 816 817
 818 82 1 815 189464825 80 1 811 0 819 8001 0 0 0 0 3 5 0 0 0 FFFFTFTFFFFFFF2 81
 1 816 1780 811 439 0 441 820 814 821 81 1 817 1782 811 437 0 445 814 822 823 83
 255 3 818 .2862745098039215 .662745098039216 .3294117647058825 81 1 445 1914 55
8 437 817 0 441 449 824 81 1 822 1783 811 433 0 436 817 825 826 83 3 823 .286274
5098039215 .662745098039216 .3294117647058825 81 1 436 1912 558 433 822 0 432 44
1 827 81 1 825 1784 811 429 0 432 822 828 829 83 3 826 .2862745098039215 .662745
098039216 .3294117647058825 81 1 432 1911 558 429 825 0 428 436 830 81 1 828 178
5 811 426 0 428 825 773 831 83 3 829 .2862745098039215 .662745098039216 .3294117
647058825 81 1 428 1910 558 426 828 0 424 432 832 81 1 773 1786 811 406 0 772 82
8 776 833 83 3 831 .2862745098039215 .662745098039216 .3294117647058825 81 1 776
 1787 811 417 0 774 773 779 834 83 3 833 .2862745098039215 .662745098039216 .329
4117647058825 81 1 779 1788 811 411 0 777 776 835 836 83 3 834 .2862745098039215
 .662745098039216 .3294117647058825 81 1 835 1789 811 407 0 409 779 837 838 83 3
 836 .2862745098039215 .662745098039216 .3294117647058825 81 1 409 1906 558 407
 835 0 403 414 839 81 1 837 1790 811 410 0 414 835 783 840 83 3 838 .28627450980
39215 .662745098039216 .3294117647058825 81 1 414 1907 558 410 837 0 409 420 841
 81 1 783 1791 811 415 0 780 837 806 842 83 3 840 .2862745098039215 .66274509803
9216 .3294117647058825 83 3 842 .2862745098039215 .662745098039216 .329411764705
8825 81 1 420 1908 558 418 812 0 414 424 843 82 1 841 267780345 81 1 812 1793 81
1 418 0 420 806 844 845 81 1 424 1909 558 404 844 0 420 428 846 82 1 843 2784627
13 81 1 844 1794 811 404 0 424 812 847 848 82 1 846 273678585 81 1 847 1795 811
 400 0 403 844 849 850 83 3 848 .2862745098039215 .662745098039216 .329411764705
8825 81 1 403 1905 558 400 847 0 399 409 851 81 1 849 1796 811 253 0 399 847 852
 853 83 3 850 .2862745098039215 .662745098039216 .3294117647058825 81 1 399 1904
 558 253 849 0 0 403 854 81 1 852 1797 811 20 0 560 849 559 855 83 3 853 .286274
5098039215 .662745098039216 .3294117647058825 81 1 560 1945 558 20 852 0 556 772
 856 81 1 559 1798 811 554 0 556 852 857 858 83 3 855 .2862745098039215 .6627450
98039216 .3294117647058825 81 1 857 1799 811 551 0 553 559 859 860 83 3 858 .286
2745098039215 .662745098039216 .3294117647058825 81 1 553 1943 558 551 857 0 550
 556 861 81 1 859 1800 811 547 0 550 857 862 863 83 3 860 .2862745098039215 .662
745098039216 .3294117647058825 81 1 550 1942 558 547 859 0 546 553 864 81 1 862
 1801 811 543 0 546 859 865 866 83 3 863 .2862745098039215 .662745098039216 .329
4117647058825 81 1 546 1941 558 543 862 0 542 550 867 81 1 865 1802 811 539 0 54
2 862 868 869 83 3 866 .2862745098039215 .662745098039216 .3294117647058825 81 1
 542 1940 558 539 865 0 538 546 870 81 1 868 1803 811 535 0 538 865 871 872 83 3
 869 .2862745098039215 .662745098039216 .3294117647058825 81 1 538 1939 558 535
 868 0 534 542 873 81 1 871 1804 811 531 0 534 868 874 875 83 3 872 .28627450980
39215 .662745098039216 .3294117647058825 81 1 534 1938 558 531 871 0 530 538 876
 81 1 874 1805 811 527 0 530 871 0 877 83 3 875 .2862745098039215 .6627450980392
16 .3294117647058825 81 1 530 1937 558 527 874 0 526 534 878 83 3 877 .286274509
8039215 .662745098039216 .3294117647058825 81 1 526 1936 558 18 879 0 525 530 88
0 82 1 878 320274684 81 1 879 1758 811 18 0 526 0 881 882 81 1 525 1935 558 522
 881 0 521 526 883 82 1 880 -327428 81 1 881 1759 811 522 0 525 879 884 885 81 1
 521 1934 558 518 884 0 517 525 886 82 1 883 -589572 81 1 884 1760 811 518 0 521
 881 887 888 81 1 517 1933 558 514 887 0 513 521 889 82 1 886 -851716 81 1 887 1
761 811 514 0 517 884 890 891 81 1 513 1932 558 510 890 0 509 517 892 82 1 889 -
1113860 81 1 890 1762 811 510 0 513 887 893 894 81 1 509 1931 558 506 893 0 505
 513 895 82 1 892 -1376004 81 1 893 1763 811 506 0 509 890 896 897 81 1 505 1930
 558 502 896 0 501 509 898 82 1 895 -1638148 81 1 896 1764 811 502 0 505 893 899
 900 81 1 501 1929 558 496 899 0 498 505 901 82 1 898 -1900292 81 1 899 1765 811
 496 0 501 896 902 903 81 1 498 1928 558 492 904 0 495 501 905 82 1 901 -2162436
 81 1 904 1767 811 492 0 498 902 906 907 81 1 495 1927 558 241 902 0 491 498 908
 82 1 905 -3866379 81 1 902 1766 811 241 0 495 899 904 909 81 1 491 1926 558 488
 906 0 487 495 910 82 1 908 -14221060 81 1 906 1768 811 488 0 491 904 911 912 81
 1 487 1925 558 470 911 0 484 491 913 82 1 910 30671090 81 1 911 1769 811 470 0
 487 906 914 915 81 1 484 1924 558 475 916 0 481 487 917 82 1 913 28705010 81 1
 916 1774 811 475 0 484 918 919 920 81 1 481 1923 558 460 919 0 478 484 921 82 1
 917 42533106 81 1 919 1775 811 460 0 481 916 922 923 81 1 478 1922 558 465 924
 0 474 481 925 82 1 921 40567026 81 1 924 1772 811 465 0 478 926 918 927 81 1 47
4 1921 558 472 918 0 469 478 928 82 1 925 38600946 81 1 918 1773 811 472 0 474 9
24 916 929 81 1 469 1920 558 466 914 0 464 474 930 82 1 928 36634866 81 1 914 17
70 811 466 0 469 911 926 931 81 1 464 1919 558 462 926 0 459 469 932 82 1 930 34
668786 81 1 926 1771 811 462 0 464 914 924 933 81 1 459 1918 558 451 922 0 457 4
64 934 82 1 932 32702706 81 1 922 1776 811 451 0 459 919 935 936 81 1 457 1917 5
58 258 820 0 454 459 937 82 1 934 77070585 81 1 820 1779 811 258 0 457 938 816 9
39 81 1 454 1916 558 450 938 0 449 457 940 82 1 937 76939515 81 1 938 1778 811 4
50 0 454 935 820 941 81 1 449 1915 558 447 935 0 445 454 942 82 1 940 76808441 8
1 1 935 1777 811 447 0 449 922 938 943 82 1 942 76677366 83 3 943 .2862745098039
215 .662745098039216 .3294117647058825 83 3 941 .2862745098039215 .6627450980392
16 .3294117647058825 83 3 939 .2862745098039215 .662745098039216 .32941176470588
25 83 3 936 .2862745098039215 .662745098039216 .3294117647058825 83 3 933 .28627
45098039215 .662745098039216 .3294117647058825 83 3 931 .2862745098039215 .66274
5098039216 .3294117647058825 83 3 929 .2862745098039215 .662745098039216 .329411
7647058825 83 3 927 .2862745098039215 .662745098039216 .3294117647058825 83 3 92
3 .2862745098039215 .662745098039216 .3294117647058825 83 3 920 .286274509803921
5 .662745098039216 .3294117647058825 83 3 915 .2862745098039215 .662745098039216
 .3294117647058825 83 3 912 .2862745098039215 .662745098039216 .3294117647058825
 83 3 909 .2862745098039215 .662745098039216 .3294117647058825 83 3 907 .2862745
098039215 .662745098039216 .3294117647058825 83 3 903 .2862745098039215 .6627450
98039216 .3294117647058825 83 3 900 .2862745098039215 .662745098039216 .32941176
47058825 83 3 897 .2862745098039215 .662745098039216 .3294117647058825 83 3 894
 .2862745098039215 .662745098039216 .3294117647058825 83 3 891 .2862745098039215
 .662745098039216 .3294117647058825 83 3 888 .2862745098039215 .662745098039216
 .3294117647058825 83 3 885 .2862745098039215 .662745098039216 .3294117647058825
 83 3 882 .2862745098039215 .662745098039216 .3294117647058825 82 1 876 32178201
2 82 1 873 322961660 82 1 870 324075772 82 1 867 325189884 82 1 864 326303996 82
 1 861 327418108 82 1 856 329646332 82 1 854 312541436 82 1 851 265224441 83 3 8
45 .2862745098039215 .662745098039216 .3294117647058825 82 1 839 247726329 82 1
 832 174457078 82 1 830 173998329 81 1 441 1913 558 439 816 0 436 445 944 82 1 8
27 173211894 82 1 944 189989113 82 1 824 159842550 83 3 821 .2862745098039215 .6
62745098039216 .3294117647058825 79 255 15 819 SDL/TYSA_COLOUR83 3 813 .28627450
98039215 .662745098039216 .3294117647058825 79 14 810 SWEntUnchanged82 1 785 272
826617 82 1 781 271974649 82 1 778 267256057 82 1 775 264700153 16 642 874 0 ?22
9 640 643 637 640 640 1 16 697 753 0 ?174 693 698 690 693 693 1 31 256 1183 0 25
0 0 251 0 -.015 .0255 -.009 222400445638052e-30 0 1 1 0 -222400445638052e-30 .00
75 82 1 561 328532220 15 493 344 0 945 488 802 17 945 0 493 945 945 0 305 303 0
 0 -17 305 0 489 305 305 0 945 303 0 0 +15 489 348 0 305 470 0 15 485 290 0 946
 475 805 17 946 0 485 946 946 0 300 298 0 0 -17 300 0 482 300 300 0 946 298 0 0
 +15 482 294 0 300 460 0 15 479 308 0 947 465 804 17 947 0 479 947 947 0 294 292
 0 0 -17 294 0 476 294 294 0 947 292 0 0 +15 476 312 0 294 472 0 15 471 326 0 94
8 466 803 17 948 0 471 948 948 0 287 285 0 0 -17 287 0 467 287 287 0 948 285 0 0
 +15 467 330 0 287 462 0 40 7 393 0 1 7 .000432345906807578 .3967046798151695 ??
.015 .018 0 .0174557891635628 .0184134564430798 -432031864100393e-19 .0186456373
84499 .0189456634156657 -.0002376944917886775 .0194007230759828 .019426810030263
1 -.000598496115759503 .01980203794452855 .0197388862553055 -.001011933913591944
 .0200177945796003 .01992579713708465 -.001460272858940138 .0200990195135928 .02
 -.002 41 1 394 L?.015 .018 0 41 1 395 L?.0200990195135928 .02 -.002 204 28 396
 4 3.141592653589795 -.011 4.71238898038469 .0302132034355964 2.93336289679249 -
.00854421083643718 5.04598038816808 .0301700002491864 2.64909099608223 -.0073543
62615501 5.21999324680033 .02997550894380775 2.347247297089835 -.006599276924017
22 5.3394446117571 .0296147073198369 2.08751865009772 -.00619796205547146 5.4072
4093529828 .0292012695220045 1.84404766921656 -.0059822054203997 5.4453043776231
5 .0287529305766563 1.5707963267949 -.00590098048640721 5.45997333005371 .028213
20343559645 19 19 184 0 1 0 10 6 S0 141 22 381 22 22 7 50 17 746 0 1 949 4 0 +.0
26 .018 -.02 0 -1 0 0 0 -1 50 949 745 0 1 950 17 0 +.026 .018 -.02 0 -1 0 0 0 -1
 50 950 744 0 1 951 949 0 +.026 .018 -.02 0 -1 0 0 0 -1 50 951 562 0 1 952 950 0
 +.026 .0105 -.02 0 -1 0 0 0 -1 50 952 560 0 1 953 951 0 +.026 .0105 -.02 0 -1 0
 0 0 -1 50 953 559 0 1 954 952 0 +.026 .0105 -.02 0 -1 0 0 0 -1 50 954 558 0 1 0
 953 0 +.026 .0105 -.02 0 -1 0 0 0 -1 74 4 CI16 index_map_offset0 0 1 dCCZ20 16
 9 0 0 955 956 807 957 958 959 14 874 2 0 0 0 0 0 0 0 0 0 0 0 81 2 955 224 960 1
 0 956 0 0 0 961 81 2 956 228 962 1 955 957 0 0 0 963 81 1 957 1489 964 1 956 95
8 0 0 965 81 2 958 1540 966 1 957 959 0 0 967 0 81 2 959 1752 968 1 958 14 0 0 0
 969 81 2 14 1755 970 1 959 2 0 0 0 0 80 2 970 971 972 9000 0 0 0 0 3 5 0 0 0 FF
TFFFFFFFFFFF9 1 79 16 972 BODY_RECIPE_200180 2 968 973 974 9000 0 0 0 0 3 5 0 0
 0 FFTFFFFFFFFFFF9 1 82 1 969 1 79 24 974 BODY_IN_LIGHTWEIGHT_PERM80 2 966 975 9
76 8004 0 0 0 0 3 5 0 0 0 FFTFFFFFFFFFFF2 3 83 1 967 78e2 79 16 976 SDL/TYSA_DEN
SITY80 1 964 977 978 9000 1 1 1 1 1 1 1 1 0 FFTFFFFFFFFFFF1 82 1 965 720677 79 1
0 978 BODY_MATCH80 2 962 979 980 9000 0 0 0 0 3 5 0 0 0 FFTFFFFFFFFFFF9 1 82 1 9
63 134 79 30 980 LAST_BODY_MODIFYING_FEATURE_ID80 2 960 981 982 9000 0 0 0 0 3 5
 0 0 0 FFTFFFFFFFFFFT9 1 82 1 961 205 79 19 982 ENT_TIME_STAMP_200180 2 13 983 9
84 9000 0 0 0 0 3 5 0 0 0 FFTFFFFFFFFFFF9 1 82 1 15 107 79 12 984 ATOM_ID_20011
 0 
