G04*
G04 #@! TF.GenerationSoftware,Altium Limited,Altium Designer,22.6.1 (34)*
G04*
G04 Layer_Color=32896*
%FSLAX24Y24*%
%MOIN*%
G70*
G04*
G04 #@! TF.SameCoordinates,DB5E7376-35C4-4558-AAA8-989BC4282307*
G04*
G04*
G04 #@! TF.FilePolarity,Positive*
G04*
G01*
G75*
%ADD10C,0.0059*%
D10*
X110236Y1969D02*
G03*
X110236Y1969I-1969J0D01*
G01*
Y82677D02*
G03*
X110236Y82677I-1969J0D01*
G01*
X3937D02*
G03*
X3937Y82677I-1969J0D01*
G01*
Y1969D02*
G03*
X3937Y1969I-1969J0D01*
G01*
X82520Y13386D02*
G03*
X82520Y13386I-1575J0D01*
G01*
Y26772D02*
G03*
X82520Y26772I-1575J0D01*
G01*
X97008Y24961D02*
G03*
X97008Y24961I-1575J0D01*
G01*
Y15197D02*
G03*
X97008Y15197I-1575J0D01*
G01*
X69783Y76083D02*
G03*
X69783Y76083I-1969J0D01*
G01*
Y63287D02*
G03*
X69783Y63287I-1969J0D01*
G01*
X41240Y76083D02*
G03*
X41240Y76083I-1969J0D01*
G01*
Y63287D02*
G03*
X41240Y63287I-1969J0D01*
G01*
X22875Y45000D02*
G03*
X22875Y45000I-1575J0D01*
G01*
X31875D02*
G03*
X31875Y45000I-1575J0D01*
G01*
X15748Y45276D02*
G03*
X15748Y45276I-1575J0D01*
G01*
X3543D02*
G03*
X3543Y45276I-1575J0D01*
G01*
Y55118D02*
G03*
X3543Y55118I-1575J0D01*
G01*
X15748D02*
G03*
X15748Y55118I-1575J0D01*
G01*
X73622Y19980D02*
G03*
X73622Y19980I-1969J0D01*
G01*
X37402D02*
G03*
X37402Y19980I-1969J0D01*
G01*
X73622Y39469D02*
G03*
X73622Y39469I-1969J0D01*
G01*
X37402D02*
G03*
X37402Y39469I-1969J0D01*
G01*
X31693Y39961D02*
G03*
X31693Y39961I-1575J0D01*
G01*
X13583Y16732D02*
G03*
X13583Y16732I-1575J0D01*
G01*
X13583Y39961D02*
G03*
X13583Y39961I-1575J0D01*
G01*
X31693Y16732D02*
G03*
X31693Y16732I-1575J0D01*
G01*
X29528Y1969D02*
G03*
X29528Y1969I-1575J0D01*
G01*
Y8268D02*
G03*
X29528Y8268I-1575J0D01*
G01*
X20866D02*
G03*
X20866Y8268I-1575J0D01*
G01*
Y1969D02*
G03*
X20866Y1969I-1575J0D01*
G01*
X7874Y8268D02*
G03*
X7874Y8268I-1575J0D01*
G01*
Y1969D02*
G03*
X7874Y1969I-1575J0D01*
G01*
X16535D02*
G03*
X16535Y1969I-1575J0D01*
G01*
Y8268D02*
G03*
X16535Y8268I-1575J0D01*
G01*
X109843Y6299D02*
G03*
X109843Y6299I-1575J0D01*
G01*
X102756Y9055D02*
G03*
X102756Y9055I-1575J0D01*
G01*
X109843Y22441D02*
G03*
X109843Y22441I-1575J0D01*
G01*
X103543D02*
G03*
X103543Y22441I-1575J0D01*
G01*
X86614Y1969D02*
G03*
X86614Y1969I-1575J0D01*
G01*
X77953D02*
G03*
X77953Y1969I-1575J0D01*
G01*
X105512D02*
G03*
X105512Y1969I-1575J0D01*
G01*
X90945Y8268D02*
G03*
X90945Y8268I-1575J0D01*
G01*
Y1969D02*
G03*
X90945Y1969I-1575J0D01*
G01*
X86614Y8268D02*
G03*
X86614Y8268I-1575J0D01*
G01*
X77953D02*
G03*
X77953Y8268I-1575J0D01*
G01*
X86024Y75000D02*
G03*
X86024Y75000I-2362J0D01*
G01*
X105315D02*
G03*
X105315Y75000I-2362J0D01*
G01*
Y52165D02*
G03*
X105315Y52165I-2362J0D01*
G01*
X86024D02*
G03*
X86024Y52165I-2362J0D01*
G01*
M02*
